<svg xmlns="http://www.w3.org/2000/svg" width="465" height="293.58" viewBox="0 0 465 293.58"><defs><style>.a{fill:#ebebeb;}.b{fill:#e0e0e0;}.c,.o{opacity:0.1;}.d{fill:#21a4fa;}.e{opacity:0.8;}.f{fill:#e3e3e3;}.g{fill:#e8505b;}.h{fill:#2baf6c;}.i{fill:#32d78a;}.j{fill:#fff;}.k{fill:#263238;}.l{fill:#455a64;}.m{fill:#ffbe9d;}.n{fill:#eb996e;}.o{fill:none;}</style></defs><g transform="translate(0 0.049)"><g transform="translate(2.197 12.381)"><path class="a" d="M431.3,407.361a11.622,11.622,0,0,1,17.223,8.936c-7.045,0-13.951-1.639-17.244-8.943" transform="translate(-132.628 -135.147)"/><path class="a" d="M443.08,390.858a15.033,15.033,0,0,0,19.651-15.668c-8.943,1.751-17.342,5.581-19.651,15.668" transform="translate(-136.196 -125.863)"/><path class="b" d="M399.11,406.262a3.281,3.281,0,0,1,.439-.174l1.291-.432c1.116-.363,2.734-.893,4.723-1.583,3.983-1.4,9.445-3.369,15.347-5.936,2.944-1.291,5.706-2.6,8.19-3.858s4.653-2.5,6.446-3.592a42.84,42.84,0,0,0,4.1-2.79c.921-.7,1.4-1.193,1.4-1.165a1.685,1.685,0,0,1-.314.349,10.21,10.21,0,0,1-1,.928,37.165,37.165,0,0,1-4.053,2.923c-1.786,1.13-3.962,2.379-6.432,3.676s-5.246,2.6-8.2,3.892c-5.895,2.567-11.384,4.534-15.388,5.846-2,.663-3.634,1.151-4.764,1.472l-1.311.37A1.877,1.877,0,0,1,399.11,406.262Z" transform="translate(-122.899 -129.353)"/><path class="b" d="M437.013,411.792c0,.056-.851-.516-2.253-1.277a28.063,28.063,0,0,0-5.776-2.316,27.454,27.454,0,0,0-6.146-.942c-1.6-.063-2.588,0-2.588-.056a2.791,2.791,0,0,1,.7-.112,16.294,16.294,0,0,1,1.918-.091,24.045,24.045,0,0,1,12.04,3.293,17.346,17.346,0,0,1,1.591,1.053,2.629,2.629,0,0,1,.516.446Z" transform="translate(-129.292 -135.483)"/><path class="a" d="M205.644,368.91a14.649,14.649,0,0,0,14.44,19.783c-1.339-8.782-4.716-17.118-14.44-19.783" transform="translate(-64.106 -123.964)"/><path class="b" d="M204.08,362.73c.056,0,.293.963.8,2.49A37.036,37.036,0,0,0,207.358,371a36.654,36.654,0,0,0,3.439,5.26c1,1.27,1.674,2.009,1.632,2.051s-.209-.153-.53-.467-.774-.8-1.3-1.4a30.513,30.513,0,0,1-5.964-11.126,18.029,18.029,0,0,1-.46-1.863A2.3,2.3,0,0,1,204.08,362.73Z" transform="translate(-63.916 -122.095)"/><path class="a" d="M5.581,116.57a22.692,22.692,0,0,0,22.371,30.644c-2.093-13.6-7.3-26.508-22.371-30.644" transform="translate(-3.447 -47.65)"/><path class="b" d="M3.15,107a5.79,5.79,0,0,1,.328,1.039c.181.7.467,1.646.851,2.839A54.222,54.222,0,0,0,13.509,128c.774.977,1.43,1.758,1.89,2.281a5.441,5.441,0,0,1,.7.851,7.477,7.477,0,0,1-.788-.753c-.5-.5-1.179-1.256-1.988-2.218a48.628,48.628,0,0,1-9.236-17.2c-.356-1.207-.607-2.19-.746-2.881A6.5,6.5,0,0,1,3.15,107Z" transform="translate(-3.15 -44.755)"/><path class="a" d="M37.632,315.62A14.649,14.649,0,0,0,40,339.993c3.313-8.238,4.653-17.132-2.365-24.373" transform="translate(-11.926 -107.848)"/><path class="b" d="M40.672,309.3c.056,0-.23.977-.572,2.553a36.615,36.615,0,0,0-.809,6.229,37.028,37.028,0,0,0,.286,6.278c.209,1.6.412,2.581.356,2.595a3.028,3.028,0,0,1-.216-.7c-.119-.432-.258-1.074-.4-1.876a30.693,30.693,0,0,1,.53-12.612c.2-.788.4-1.4.551-1.842a2.833,2.833,0,0,1,.272-.628Z" transform="translate(-13.962 -105.936)"/><path class="a" d="M225.58,57.41a14.649,14.649,0,0,0,21.157-12.34c-8.873.432-17.509,2.937-21.157,12.34" transform="translate(-70.419 -26.026)"/><path class="b" d="M219.23,61.178c0-.056.991-.2,2.56-.544a36.052,36.052,0,0,0,11.58-4.75c1.4-.858,2.169-1.458,2.2-1.4a2.532,2.532,0,0,1-.516.474c-.349.293-.879.7-1.549,1.151a30.693,30.693,0,0,1-11.649,4.771c-.8.146-1.458.237-1.9.272a2.337,2.337,0,0,1-.725.021Z" transform="translate(-68.498 -28.873)"/><path class="a" d="M199.155,47.884a19.693,19.693,0,0,0,13.951-11.908,19.679,19.679,0,0,0-2.3-18.207c-8.789,7.736-15.64,17.439-11.663,30.114" transform="translate(-62.075 -17.77)"/><path class="b" d="M194.21,58.683a4.312,4.312,0,0,1,.586-.7c.4-.439.963-1.1,1.632-1.918A47.7,47.7,0,0,0,201.1,49.21a48.287,48.287,0,0,0,3.376-7.631c.349-1,.607-1.828.774-2.4a4.046,4.046,0,0,1,.3-.879,4.751,4.751,0,0,1-.167.914c-.126.586-.349,1.4-.663,2.448a41.254,41.254,0,0,1-8.092,14.565c-.7.8-1.291,1.437-1.723,1.849A4.665,4.665,0,0,1,194.21,58.683Z" transform="translate(-60.931 -23.979)"/><path class="a" d="M281.69,402.77a8.824,8.824,0,0,0,14.649,1.653c-4.437-2.986-9.515-4.883-14.649-1.653" transform="translate(-87.388 -133.695)"/><path class="b" d="M278.15,401.86a40.235,40.235,0,0,0,5.023,1.842,41.441,41.441,0,0,0,5.288.8,5.617,5.617,0,0,1-1.583.091,17.44,17.44,0,0,1-7.38-1.89A5.093,5.093,0,0,1,278.15,401.86Z" transform="translate(-86.317 -133.929)"/><path class="a" d="M374.39,43.18a8.817,8.817,0,0,0,14.7-1.214c-4.932-2.093-10.275-2.944-14.7,1.214" transform="translate(-115.423 -24.562)"/><path class="b" d="M370.6,43.54a40.246,40.246,0,0,0,5.281.837,40.458,40.458,0,0,0,5.343-.244,4.938,4.938,0,0,1-1.535.4,17.39,17.39,0,0,1-7.611-.426,5.252,5.252,0,0,1-1.479-.565Z" transform="translate(-114.276 -25.564)"/><path class="a" d="M614.62,68.226a14.649,14.649,0,0,0,18.4-16.156C624.4,54.163,616.4,58.3,614.62,68.226" transform="translate(-188.074 -28.143)"/><path class="b" d="M608.65,73.53c0-.056.928-.384,2.407-1.025a35.785,35.785,0,0,0,10.464-6.878c1.179-1.1,1.849-1.849,1.9-1.807a2.944,2.944,0,0,1-.419.572,13.571,13.571,0,0,1-1.3,1.4,30.574,30.574,0,0,1-10.54,6.934c-.753.293-1.4.509-1.814.628A2.5,2.5,0,0,1,608.65,73.53Z" transform="translate(-186.269 -31.696)"/><path class="a" d="M637.562,362.677A25.482,25.482,0,0,0,652.33,322.72c-11.433,10.387-20.272,23.3-14.768,39.957" transform="translate(-194.505 -109.995)"/><path class="b" d="M631.23,377.067a8.32,8.32,0,0,1,.781-.949c.523-.586,1.256-1.458,2.093-2.553s1.87-2.441,2.916-3.976,2.093-3.286,3.118-5.169a59.719,59.719,0,0,0,2.581-5.448c.719-1.709,1.277-3.293,1.7-4.632s.753-2.428.956-3.188a9.479,9.479,0,0,1,.356-1.172,6.66,6.66,0,0,1-.216,1.207c-.16.774-.446,1.876-.844,3.23s-.949,2.944-1.639,4.681a55.915,55.915,0,0,1-2.574,5.5,60.467,60.467,0,0,1-3.16,5.183c-1.067,1.535-2.093,2.874-2.993,3.948s-1.674,1.932-2.225,2.49A7.752,7.752,0,0,1,631.23,377.067Z" transform="translate(-193.098 -118.239)"/></g><g transform="translate(100.899 58.852)"><g class="c"><path class="d" d="M394.3,202.656c-4.4-24.589-25.517-46.04-50.414-48.084-13.568-1.109-27.205,3.174-40.717,1.542a47.435,47.435,0,0,1-29.64-15.633c-11.161-12.7-14.935-30.756-26.752-42.838-16.281-16.658-44.687-16.923-64.5-4.667s-31.8,34.39-37.271,57.013l-.216,6.885c-1.193,23.508,4.988,50.776,18.611,71.711,13.8,21.2,22.88,29.954,48.035,45.2,21.353,12.947,63.207,18.639,88.159,19.246s50.623-6.843,69.4-23.313S398.711,227.245,394.3,202.656Z" transform="translate(-144.643 -84.388)"/><g class="e"><path class="d" d="M394.3,202.656c-4.4-24.589-25.517-46.04-50.414-48.084-13.568-1.109-27.205,3.174-40.717,1.542a47.435,47.435,0,0,1-29.64-15.633c-11.161-12.7-14.935-30.756-26.752-42.838-16.281-16.658-44.687-16.923-64.5-4.667s-31.8,34.39-37.271,57.013l-.216,6.885c-1.193,23.508,4.988,50.776,18.611,71.711,13.8,21.2,22.88,29.954,48.035,45.2,21.353,12.947,63.207,18.639,88.159,19.246s50.623-6.843,69.4-23.313S398.711,227.245,394.3,202.656Z" transform="translate(-144.643 -84.388)"/></g></g><circle class="f" cx="12.033" cy="12.033" r="12.033" transform="translate(246.303 213.716) rotate(-81.74)"/></g><g transform="translate(0 39.647)"><path class="g" d="M256.667,194.454q-.349,36.037,15.709,55.108t43.947,19.33q28.042.265,44.582-18.479t16.9-54.773l.4-42.245q.342-35.89-15.709-55.108t-44.08-19.448q-27.9-.272-44.456,18.6T257.071,152.2Zm31.279-46.675q.209-22.692,7.931-33.484T318.2,103.609q14.593.14,22.036,11.112t7.227,33.658l-.5,51.334q-.216,22.811-8,33.7T316.6,244.163q-14.586-.133-21.967-11.105t-7.178-33.951Z" transform="translate(-77.62 -63.503)"/><path class="h" d="M256.667,194.454q-.349,36.037,15.709,55.108t43.947,19.33q28.042.265,44.582-18.479t16.9-54.773l.4-42.245q.342-35.89-15.709-55.108t-44.08-19.448q-27.9-.272-44.456,18.6T257.071,152.2Zm31.279-46.675q.209-22.692,7.931-33.484T318.2,103.609q14.593.14,22.036,11.112t7.227,33.658l-.5,51.334q-.216,22.811-8,33.7T316.6,244.163q-14.586-.133-21.967-11.105t-7.178-33.951Z" transform="translate(-77.62 -63.503)"/><path class="i" d="M231.207,194.2q-.349,36.023,15.709,55.108t43.947,19.323q28.036.272,44.582-18.472t16.909-54.8l.4-42.245q.349-35.9-15.709-55.108T292.963,78.548q-27.9-.258-44.456,18.6t-16.9,54.774Zm31.279-46.682q.209-22.685,7.931-33.484t22.322-10.687q14.593.133,22.036,11.112T322,148.118l-.5,51.328q-.216,22.818-8,33.707t-22.385,10.722q-14.586-.133-21.974-11.112t-7.157-33.916Z" transform="translate(-69.921 -63.415)"/><path class="j" d="M405.28,189.048c0,.091,4.088,1.73,9.215,3.655s9.3,3.411,9.334,3.313-4.088-1.73-9.208-3.655S405.315,188.95,405.28,189.048Z" transform="translate(-122.567 -96.833)"/><path class="j" d="M403.81,213c-.035.091,4.088,1.73,9.215,3.655s9.3,3.411,9.341,3.313-4.095-1.73-9.215-3.655S403.845,212.886,403.81,213Z" transform="translate(-122.123 -104.075)"/><path class="j" d="M402.34,236.908c0,.091,4.088,1.73,9.215,3.655s9.306,3.411,9.341,3.313-4.088-1.73-9.215-3.655S402.375,236.81,402.34,236.908Z" transform="translate(-121.678 -111.307)"/><path class="j" d="M400.87,260.838c-.035.091,4.095,1.73,9.215,3.655s9.306,3.411,9.341,3.313-4.088-1.73-9.215-3.655S400.9,260.74,400.87,260.838Z" transform="translate(-121.233 -118.544)"/><path class="j" d="M399.4,284.77a3.089,3.089,0,0,0,.642.314c.419.181,1.032.432,1.786.7,1.521.607,3.62,1.4,5.957,2.3s4.444,1.653,5.985,2.19c.767.272,1.4.488,1.828.628a2.519,2.519,0,0,0,.7.181,2.888,2.888,0,0,0-.635-.314c-.426-.181-1.032-.432-1.793-.732-1.514-.607-3.62-1.4-5.95-2.3s-4.451-1.646-5.992-2.19c-.767-.272-1.4-.488-1.828-.628a2.4,2.4,0,0,0-.7-.147Z" transform="translate(-120.789 -125.783)"/><path class="j" d="M392.57,306.66a13.948,13.948,0,0,0,2.093.928c1.318.53,3.153,1.242,5.183,2.009s3.885,1.437,5.225,1.9a13.869,13.869,0,0,0,2.2.7,13.95,13.95,0,0,0-2.093-.928c-1.318-.53-3.153-1.242-5.183-2.009s-3.885-1.437-5.232-1.9A13.7,13.7,0,0,0,392.57,306.66Z" transform="translate(-118.723 -132.403)"/><path class="j" d="M377.94,326.74a11.368,11.368,0,0,0,1.876.844c1.179.474,2.79,1.109,4.625,1.793s3.453,1.277,4.653,1.7a11.542,11.542,0,0,0,1.967.6,11.36,11.36,0,0,0-1.876-.844c-1.172-.474-2.79-1.109-4.618-1.793s-3.488-1.277-4.66-1.7a11.339,11.339,0,0,0-1.967-.6Z" transform="translate(-114.299 -138.476)"/><path class="j" d="M353.63,339.91a12.62,12.62,0,0,0,1.876.837c1.179.481,2.79,1.116,4.618,1.793s3.488,1.284,4.66,1.7a10.792,10.792,0,0,0,1.967.6,12.2,12.2,0,0,0-1.876-.837c-1.172-.481-2.79-1.116-4.618-1.793s-3.488-1.277-4.66-1.7a10.789,10.789,0,0,0-1.967-.6Z" transform="translate(-106.947 -142.459)"/><path class="j" d="M280.31,288.849c-.042.091,5.253,2.56,11.824,5.511s11.936,5.274,11.977,5.183-5.253-2.56-11.859-5.511S280.352,288.751,280.31,288.849Z" transform="translate(-84.773 -127.016)"/><path class="j" d="M275.33,268.339c-.042.091,4.332,2.148,9.766,4.59s9.878,4.346,9.913,4.255-4.325-2.149-9.766-4.59S275.372,268.248,275.33,268.339Z" transform="translate(-83.267 -120.813)"/><path class="j" d="M273,245.309c-.042.091,4.332,2.142,9.766,4.583s9.871,4.353,9.913,4.262-4.325-2.149-9.766-4.59S273.07,245.218,273,245.309Z" transform="translate(-82.562 -113.848)"/><path class="j" d="M270.75,222.278c-.042.091,4.325,2.142,9.766,4.583s9.864,4.353,9.94,4.29-4.325-2.149-9.766-4.59S270.792,222.181,270.75,222.278Z" transform="translate(-81.882 -106.883)"/><path class="j" d="M268.46,199.239c-.042.091,4.325,2.149,9.766,4.59s9.871,4.346,9.913,4.255-4.332-2.142-9.766-4.583S268.495,199.148,268.46,199.239Z" transform="translate(-81.189 -99.915)"/><path class="j" d="M273,178.729c-.042.091,4.332,2.149,9.766,4.59s9.871,4.346,9.913,4.255-4.325-2.142-9.766-4.59S273.07,178.638,273,178.729Z" transform="translate(-82.562 -93.713)"/><path class="j" d="M273,156.649c-.042.091,4.332,2.149,9.766,4.59s9.871,4.346,9.913,4.255-4.325-2.142-9.766-4.59S273.07,156.558,273,156.649Z" transform="translate(-82.562 -87.035)"/><path class="j" d="M275.33,135.859c-.042.091,4.332,2.149,9.766,4.59s9.878,4.346,9.913,4.255-4.325-2.149-9.766-4.59S275.372,135.768,275.33,135.859Z" transform="translate(-83.267 -80.748)"/><path class="g" d="M295.08,121.38a61.562,61.562,0,0,0,5.908,2.853,59.667,59.667,0,0,0,6.062,2.525,58.661,58.661,0,0,0-5.908-2.86,56.76,56.76,0,0,0-6.062-2.518Z" transform="translate(-89.24 -76.37)"/><path class="j" d="M305.65,112.5a58.662,58.662,0,0,0,5.908,2.86,56.344,56.344,0,0,0,6.055,2.518,59.6,59.6,0,0,0-5.908-2.853,60.746,60.746,0,0,0-6.055-2.525Z" transform="translate(-92.436 -73.684)"/><path class="j" d="M404.15,160c0,.1,4.088,1.73,9.208,3.655s9.306,3.411,9.341,3.32-4.088-1.737-9.215-3.662S404.185,159.936,404.15,160Z" transform="translate(-122.225 -88.049)"/><path class="j" d="M396.79,130.2c-.035.091,4.437,1.863,9.982,3.948s10.087,3.7,10.122,3.606-4.437-1.863-9.989-3.948S396.825,130.1,396.79,130.2Z" transform="translate(-120 -79.035)"/><path class="j" d="M377.56,100.659c-.035.1,5.636,2.316,12.668,4.953s12.759,4.709,12.793,4.618-5.636-2.316-12.668-4.953S377.595,100.568,377.56,100.659Z" transform="translate(-114.184 -70.102)"/><path class="j" d="M235.52,288.649l.293-.1.837-.321c.37-.14.851-.237,1.4-.4a13.433,13.433,0,0,1,1.974-.237c2.979-.2,7.443.893,11.761,4.123a33.212,33.212,0,0,1,6.229,6.16c2,2.448,3.962,5.218,6.187,8.015a36.847,36.847,0,0,0,8.036,7.792,29.215,29.215,0,0,0,11.126,4.506,28.671,28.671,0,0,0,11.984-.4,56.22,56.22,0,0,0,10.505-3.9c3.244-1.5,6.278-3.027,9.173-4.29a48.217,48.217,0,0,1,8.315-2.825,30.693,30.693,0,0,1,7.185-.83,21.91,21.91,0,0,1,5.406.732,19.833,19.833,0,0,1,3.216,1.263l.8.426.279.132a1.4,1.4,0,0,0-.258-.167l-.781-.453a17.865,17.865,0,0,0-3.216-1.332,21.441,21.441,0,0,0-5.441-.8,30.65,30.65,0,0,0-7.248.781,47.821,47.821,0,0,0-8.371,2.79c-2.916,1.249-5.95,2.79-9.187,4.262a56.947,56.947,0,0,1-10.464,3.858,28.259,28.259,0,0,1-11.859.384,28.788,28.788,0,0,1-10.987-4.443,36.49,36.49,0,0,1-7.98-7.673c-2.225-2.79-4.185-5.546-6.208-7.994a33.676,33.676,0,0,0-6.313-6.181c-4.381-3.237-8.908-4.3-11.922-4.06a13.114,13.114,0,0,0-1.988.279,14.484,14.484,0,0,0-1.4.433l-.837.356A1.333,1.333,0,0,0,235.52,288.649Z" transform="translate(-71.227 -126.586)"/><path class="j" d="M229.21,222.43a12.446,12.446,0,0,1,4.73,2.19c1.325.928,2.79,2.225,4.471,3.572a32.487,32.487,0,0,0,6,3.7,32.974,32.974,0,0,0,12.319,3.188c.816.063,1.563.042,2.211.056a16.04,16.04,0,0,0,1.66-.07l1.053-.112a1.312,1.312,0,0,0,.363-.063,1.954,1.954,0,0,0-.37,0l-1.053.035h-1.653c-.649-.035-1.4,0-2.19-.112a34.292,34.292,0,0,1-12.187-3.258,33.385,33.385,0,0,1-5.943-3.62c-1.7-1.318-3.167-2.6-4.527-3.488a12.556,12.556,0,0,0-3.488-1.73,8.171,8.171,0,0,0-1.032-.223,1.465,1.465,0,0,0-.363-.07Z" transform="translate(-69.319 -106.93)"/><path class="j" d="M359.84,239.547a1.457,1.457,0,0,0,.384-.056c.244-.056.614-.112,1.081-.237a16.952,16.952,0,0,0,3.739-1.639,38.611,38.611,0,0,0,4.883-3.572c1.751-1.444,3.62-3.1,5.762-4.583a20.181,20.181,0,0,1,16.553-2.993c.928.237,1.4.419,1.437.384a1.158,1.158,0,0,0-.349-.16,9.913,9.913,0,0,0-1.053-.356,17.655,17.655,0,0,0-4.011-.7,19.651,19.651,0,0,0-12.78,3.558c-2.169,1.5-4.039,3.167-5.776,4.625a39.98,39.98,0,0,1-4.8,3.606,18.136,18.136,0,0,1-3.648,1.723,13.952,13.952,0,0,0-1.423.4Z" transform="translate(-108.825 -107.884)"/><path class="j" d="M359.66,149.815a7.359,7.359,0,0,0,1.165.426c.377.133.844.279,1.4.419s1.165.321,1.869.446,1.465.3,2.3.4,1.723.2,2.665.286a41.373,41.373,0,0,0,6.139-.07,40.81,40.81,0,0,0,6.048-1.074c.907-.258,1.779-.488,2.567-.781s1.528-.551,2.183-.823,1.242-.551,1.758-.8a10.6,10.6,0,0,0,1.291-.7,8.071,8.071,0,0,0,1.06-.635,8.5,8.5,0,0,0-1.123.509c-.356.181-.8.391-1.311.607s-1.1.5-1.772.739-1.4.53-2.183.774-1.646.5-2.553.739a39.176,39.176,0,0,1-12.082,1.137c-.935-.07-1.821-.126-2.651-.251s-1.59-.23-2.288-.356-1.318-.272-1.869-.4-1.025-.237-1.4-.349a8.949,8.949,0,0,0-1.214-.258Z" transform="translate(-108.771 -84.094)"/><path class="j" d="M234.89,148.781s.1-.042.293-.139l.809-.467a12.213,12.213,0,0,1,1.3-.7c.516-.251,1.088-.572,1.765-.83l1.046-.432c.37-.153.767-.265,1.165-.4a20.257,20.257,0,0,1,2.609-.7A28.726,28.726,0,0,1,256.208,145a26.415,26.415,0,0,1,2.623.7c.4.133.8.237,1.172.377l1.053.419a19.2,19.2,0,0,1,1.779.8,12.076,12.076,0,0,1,1.3.7l.823.453a1.549,1.549,0,0,0,.3.14,1.8,1.8,0,0,0-.265-.2l-.781-.516a11.112,11.112,0,0,0-1.291-.739,19.324,19.324,0,0,0-1.772-.858l-1.053-.439c-.37-.153-.774-.265-1.179-.4a26.155,26.155,0,0,0-2.644-.7,27.986,27.986,0,0,0-12.48.112c-.935.251-1.828.467-2.63.774-.4.146-.8.272-1.165.426l-1.053.46a19.538,19.538,0,0,0-1.758.886,11.389,11.389,0,0,0-1.27.767l-.774.53A1.172,1.172,0,0,0,234.89,148.781Z" transform="translate(-71.037 -83.234)"/><path class="j" d="M296,82.9a4.408,4.408,0,0,0,.5.3l1.479.8c1.29.7,3.16,1.674,5.5,2.839a95.036,95.036,0,0,0,19.009,7.436,51.621,51.621,0,0,0,11.161,1.549,40.062,40.062,0,0,0,9.159-.781,32.255,32.255,0,0,0,5.929-1.814c.7-.265,1.179-.544,1.528-.7a3.155,3.155,0,0,0,.523-.272,3.384,3.384,0,0,0-.551.209c-.363.133-.865.391-1.556.635a34.272,34.272,0,0,1-5.922,1.688,40.746,40.746,0,0,1-9.1.732,53.211,53.211,0,0,1-11.07-1.563,100.771,100.771,0,0,1-18.988-7.318l-5.581-2.734-1.507-.746A3.738,3.738,0,0,0,296,82.9Z" transform="translate(-89.518 -64.732)"/><path class="g" d="M110.635,202.573l23.341-.391.419,24.736-23.341.391.7,41.094-30.693.516-.7-41.094L1.074,229.157,0,210.365,76.928,84.25l31.712-.53ZM30.344,203.9l49.6-.83L78.679,128.1l-.767-.237-2.442,5.5Z" transform="translate(0 -64.98)"/><path class="h" d="M110.635,202.573l23.341-.391.419,24.736-23.341.391.7,41.094-30.693.516-.7-41.094L1.074,229.157,0,210.365,76.928,84.25l31.712-.53ZM30.344,203.9l49.6-.83L78.679,128.1l-.767-.237-2.442,5.5Z" transform="translate(0 -64.98)"/><path class="i" d="M138.621,202.1l23.341-.391.419,24.736-23.341.391.7,41.094-30.693.516-.7-41.094L29.06,228.684,28,209.892,104.915,83.77l31.712-.53Zm-80.291,1.346,49.6-.83-1.263-74.968-.76-.237-2.448,5.5Z" transform="translate(-8.468 -64.835)"/><path class="j" d="M20.338,269.89a4.961,4.961,0,0,1-.732.467c-.474.279-1.179.7-2.051,1.144-1.744.956-4.185,2.225-6.892,3.572s-5.2,2.511-7.018,3.327c-.907.4-1.639.7-2.156.935a4,4,0,0,1-.809.3,3.844,3.844,0,0,1,.753-.426l2.093-1.046,6.976-3.411,6.934-3.488,2.093-1.046A3.243,3.243,0,0,1,20.338,269.89Z" transform="translate(-0.206 -121.283)"/><path class="j" d="M31.565,239a7.115,7.115,0,0,1-1.011.621c-.7.377-1.639.907-2.846,1.542-2.414,1.284-5.776,3.007-9.508,4.883s-7.143,3.488-9.62,4.625c-1.242.572-2.253,1.025-2.958,1.332a7.745,7.745,0,0,1-1.1.432,7.377,7.377,0,0,1,1.046-.565l2.9-1.43,9.571-4.723,9.55-4.757,2.895-1.444A7.148,7.148,0,0,1,31.565,239Z" transform="translate(-1.367 -111.941)"/><path class="j" d="M49.259,211.16a7.909,7.909,0,0,1-1.06.621c-.7.377-1.716.914-2.979,1.556-2.525,1.291-6.034,3.02-9.933,4.883s-7.464,3.488-10.052,4.653c-1.3.579-2.351,1.032-3.076,1.339a8.368,8.368,0,0,1-1.158.432,8.841,8.841,0,0,1,1.1-.565l3.034-1.437,10-4.75,9.982-4.75,3.02-1.451A7.91,7.91,0,0,1,49.259,211.16Z" transform="translate(-6.351 -103.522)"/><path class="j" d="M134.273,237.14a4.038,4.038,0,0,1-.7.453c-.481.272-1.186.649-2.093,1.109-1.751.921-4.185,2.156-6.913,3.488s-5.218,2.421-7.032,3.2c-.914.391-1.646.7-2.162.9a4.347,4.347,0,0,1-.816.286,3.32,3.32,0,0,1,.76-.412l2.093-1.011,6.976-3.293,6.976-3.355,2.093-1.011a3.634,3.634,0,0,1,.816-.356Z" transform="translate(-34.646 -111.379)"/><path class="j" d="M134.636,292.17a3.974,3.974,0,0,1-.7.453c-.467.272-1.151.649-2,1.109-1.7.914-4.06,2.142-6.7,3.439s-5.057,2.414-6.815,3.188c-.886.391-1.6.7-2.093.9a4.186,4.186,0,0,1-.788.286,3.042,3.042,0,0,1,.7-.412l2.044-1,6.766-3.286L131.8,293.5l2.044-1A3.948,3.948,0,0,1,134.636,292.17Z" transform="translate(-34.945 -128.021)"/><path class="j" d="M135.336,311.42a3.979,3.979,0,0,1-.7.453c-.467.272-1.151.649-2,1.109-1.7.914-4.06,2.142-6.7,3.439s-5.057,2.407-6.815,3.188c-.879.391-1.6.7-2.093.9a3.327,3.327,0,0,1-.788.279,3.774,3.774,0,0,1,.7-.412l2.044-1,6.766-3.286,6.739-3.341,2.044-1a3.947,3.947,0,0,1,.8-.328Z" transform="translate(-35.157 -133.843)"/><path class="j" d="M136.036,330.67a3.647,3.647,0,0,1-.7.453c-.467.265-1.151.649-2,1.1-1.7.921-4.053,2.149-6.7,3.446s-5.057,2.407-6.815,3.188c-.879.391-1.6.7-2.093.9a3.642,3.642,0,0,1-.788.279,4.089,4.089,0,0,1,.7-.412l2.044-1,6.766-3.279L133.2,332l2.044-1a3.077,3.077,0,0,1,.8-.328Z" transform="translate(-35.369 -139.664)"/><path class="j" d="M133.56,216.8a4.038,4.038,0,0,1-.732.453c-.481.272-1.186.656-2.058,1.116-1.751.921-4.185,2.156-6.92,3.453s-5.218,2.421-7.032,3.2c-.907.391-1.646.7-2.162.9a3.782,3.782,0,0,1-.816.286,4.52,4.52,0,0,1,.76-.412l2.093-1.011,6.976-3.293,6.976-3.355,2.093-1.011A4.186,4.186,0,0,1,133.56,216.8Z" transform="translate(-34.428 -105.227)"/><path class="j" d="M132.85,196.46a3.412,3.412,0,0,1-.732.46c-.481.272-1.186.649-2.058,1.109-1.751.921-4.185,2.155-6.913,3.453s-5.225,2.421-7.039,3.2c-.907.391-1.646.7-2.162.907a3.488,3.488,0,0,1-.816.279,4.522,4.522,0,0,1,.76-.412l2.093-1,6.976-3.3,6.976-3.355,2.093-1A3.968,3.968,0,0,1,132.85,196.46Z" transform="translate(-34.213 -99.076)"/><path class="j" d="M132.528,176.13a3.633,3.633,0,0,1-.7.432c-.46.265-1.13.628-1.967,1.067-1.667.879-3.983,2.058-6.578,3.3s-4.974,2.3-6.711,3.041c-.865.37-1.57.663-2.093.858a4.047,4.047,0,0,1-.781.265,3.305,3.305,0,0,1,.7-.4l2.009-.963,6.655-3.132,6.627-3.2,2.009-.963A4.067,4.067,0,0,1,132.528,176.13Z" transform="translate(-34.386 -92.928)"/><path class="j" d="M138.828,157a19.248,19.248,0,0,1-3.4,1.7,20.356,20.356,0,0,1-3.544,1.4,20.183,20.183,0,0,1,3.4-1.7,20.3,20.3,0,0,1,3.551-1.4Z" transform="translate(-39.884 -87.142)"/><path class="j" d="M67.389,182.33a7.777,7.777,0,0,1-1.067.621c-.7.377-1.709.907-2.972,1.556-2.525,1.29-6.034,3.02-9.94,4.883s-7.457,3.488-10.045,4.653c-1.3.579-2.351,1.032-3.083,1.332a7.807,7.807,0,0,1-1.151.439,7.774,7.774,0,0,1,1.1-.565l3.034-1.444,10-4.73,9.982-4.785,3.007-1.493a7.911,7.911,0,0,1,1.144-.467Z" transform="translate(-11.834 -94.803)"/><path class="j" d="M85.519,153.49a7.82,7.82,0,0,1-1.067.628c-.7.377-1.709.907-2.972,1.556-2.525,1.284-6.034,3.014-9.94,4.883s-7.457,3.488-10.045,4.66c-1.3.572-2.351,1.025-3.083,1.332a9.489,9.489,0,0,1-1.151.439,7.771,7.771,0,0,1,1.1-.565l3.027-1.416,10-4.75,9.975-4.778,3.027-1.451a8.669,8.669,0,0,1,1.13-.537Z" transform="translate(-17.317 -86.081)"/><path class="j" d="M102.149,124.75a7.459,7.459,0,0,1-1.067.621c-.7.384-1.709.914-2.972,1.556-2.525,1.291-6.041,3.021-9.94,4.883s-7.457,3.488-10.052,4.66c-1.291.572-2.344,1.025-3.076,1.332a7.473,7.473,0,0,1-1.151.432,7.672,7.672,0,0,1,1.1-.565l3.027-1.437,10-4.75,9.975-4.785,3.027-1.451A8.588,8.588,0,0,1,102.149,124.75Z" transform="translate(-22.346 -77.389)"/><path class="j" d="M119.579,97a7.778,7.778,0,0,1-1.067.621c-.7.377-1.709.914-2.972,1.556-2.525,1.291-6.034,3.021-9.94,4.883s-7.457,3.488-10.045,4.653c-1.3.579-2.351,1.032-3.083,1.339a8.557,8.557,0,0,1-1.151.433,8.838,8.838,0,0,1,1.1-.565l3.027-1.437,10-4.75,9.975-4.785,3.027-1.451A7.911,7.911,0,0,1,119.579,97Z" transform="translate(-27.618 -68.997)"/><path class="j" d="M160.789,134.261a4.4,4.4,0,0,1-.377.474,14.306,14.306,0,0,1-1.186,1.3,22.5,22.5,0,0,1-5.2,3.823,23.718,23.718,0,0,1-9.152,2.679,21.814,21.814,0,0,1-5.671-.286,29.173,29.173,0,0,1-5.818-1.786c-3.858-1.6-7.311-3.544-10.659-4.848a23.648,23.648,0,0,0-9.264-1.828,13.456,13.456,0,0,0-6.146,1.542,11.594,11.594,0,0,0-1.458.949,4.532,4.532,0,0,1-.5.363,3.416,3.416,0,0,1,.453-.419,9.283,9.283,0,0,1,1.4-1.018,13.345,13.345,0,0,1,6.208-1.674,23.655,23.655,0,0,1,9.4,1.772c3.376,1.3,6.843,3.244,10.673,4.827a28.6,28.6,0,0,0,5.748,1.765,21.7,21.7,0,0,0,5.581.314,23.843,23.843,0,0,0,9.068-2.581,23.32,23.32,0,0,0,5.218-3.69c.565-.509.963-.956,1.235-1.242A3.187,3.187,0,0,1,160.789,134.261Z" transform="translate(-31.864 -80.043)"/><path class="j" d="M157.106,86.06a5.281,5.281,0,0,1-.851.572c-.558.349-1.4.809-2.455,1.332a38.177,38.177,0,0,1-3.809,1.632,44.284,44.284,0,0,1-4.883,1.43,42.97,42.97,0,0,1-5.016.8,37.543,37.543,0,0,1-4.144.167,24.153,24.153,0,0,1-2.79-.153,5.26,5.26,0,0,1-1.018-.146,6.126,6.126,0,0,1,1.025,0c.656,0,1.611.049,2.79,0s2.567-.084,4.109-.244a49.028,49.028,0,0,0,4.974-.816,49.831,49.831,0,0,0,4.834-1.4c1.465-.523,2.755-1.053,3.823-1.549s1.911-.914,2.49-1.228A5.908,5.908,0,0,1,157.106,86.06Z" transform="translate(-39.963 -65.688)"/><path class="j" d="M95.309,195.867a4.361,4.361,0,0,1-.7-.663l-1.772-1.863a79.145,79.145,0,0,0-6.194-5.741,21.157,21.157,0,0,0-3.83-2.588,11.21,11.21,0,0,0-3.558-1.144,9.941,9.941,0,0,0-3.488.188,1.084,1.084,0,0,1,.216-.1,4.612,4.612,0,0,1,.7-.2,7.791,7.791,0,0,1,2.588-.133,10.847,10.847,0,0,1,3.683,1.1,20.166,20.166,0,0,1,3.906,2.609,61.765,61.765,0,0,1,6.153,5.846c.7.8,1.3,1.472,1.688,1.946A4.96,4.96,0,0,1,95.309,195.867Z" transform="translate(-22.915 -95.176)"/><path class="j" d="M172.17,224.69a1.6,1.6,0,0,1-.258.223c-.181.133-.439.349-.8.586a19.53,19.53,0,0,1-3.174,1.744,21.36,21.36,0,0,1-22.532-3.209,19.608,19.608,0,0,1-2.553-2.567,8.6,8.6,0,0,1-.6-.781,1.451,1.451,0,0,1-.188-.286s.321.349.893.977a23.648,23.648,0,0,0,2.609,2.462,21.73,21.73,0,0,0,22.26,3.174,23.718,23.718,0,0,0,3.195-1.632A11.026,11.026,0,0,1,172.17,224.69Z" transform="translate(-42.966 -106.316)"/><path class="j" d="M161.095,280.1l-.216-.314-.614-.928a27.326,27.326,0,0,0-2.595-3.39l-1.011-1.06-.53-.586-.628-.544-1.325-1.165-1.535-1.081a32.946,32.946,0,0,0-7.917-4.081,31.481,31.481,0,0,0-10.624-1.8,29.179,29.179,0,0,0-12.019,2.679,104.414,104.414,0,0,0-11.782,7.1,57.84,57.84,0,0,1-6.341,3.634,26.737,26.737,0,0,1-7.164,2.351,23.529,23.529,0,0,1-7.534,0,33.4,33.4,0,0,1-7.073-1.974,72.077,72.077,0,0,1-12.208-6.439c-3.732-2.33-7.255-4.576-10.736-6.334a37.335,37.335,0,0,0-10.164-3.634,25.532,25.532,0,0,0-8.887-.049,18.64,18.64,0,0,0-6.278,2.253,16.122,16.122,0,0,0-3.362,2.609l-.732.837-.258.272s.07-.1.23-.3l.7-.858a15.914,15.914,0,0,1,3.334-2.686,18.884,18.884,0,0,1,6.355-2.33,25.544,25.544,0,0,1,8.964,0A37.668,37.668,0,0,1,59.4,265.9c3.488,1.758,7.039,4,10.771,6.32a72.55,72.55,0,0,0,12.159,6.4,33.374,33.374,0,0,0,6.976,1.918,23.445,23.445,0,0,0,7.422,0,26.382,26.382,0,0,0,7.08-2.323,56.314,56.314,0,0,0,6.313-3.606c4.011-2.581,7.82-5.246,11.859-7.1a25.528,25.528,0,0,1,3.048-1.193c.509-.16,1.011-.349,1.528-.488l1.542-.356a29.766,29.766,0,0,1,6.041-.642,31.523,31.523,0,0,1,10.708,1.856,32.876,32.876,0,0,1,7.952,4.185l1.542,1.144,1.325,1.179.621.558.544.579,1.011,1.074a25.812,25.812,0,0,1,2.546,3.439l.586.956A.919.919,0,0,0,161.095,280.1Z" transform="translate(-8.94 -118.864)"/><path class="j" d="M175.805,328.159a1.563,1.563,0,0,1-.342.112l-1.018.258a14.7,14.7,0,0,1-1.625.342c-.642.1-1.36.251-2.176.321l-1.27.133c-.446.042-.907.042-1.4.07-.963.063-1.981,0-3.062,0a38.409,38.409,0,0,1-13.624-3.09c-.984-.446-1.925-.858-2.79-1.325-.419-.23-.837-.432-1.221-.663l-1.088-.7c-.7-.412-1.29-.865-1.821-1.235a15.736,15.736,0,0,1-1.325-1l-.8-.7a1.85,1.85,0,0,1-.265-.251,2.283,2.283,0,0,1,.314.2l.844.614c.356.279.8.607,1.346.956s1.137.781,1.842,1.172l1.1.649c.384.216.8.412,1.221.635.837.46,1.779.851,2.755,1.291A39.539,39.539,0,0,0,164.9,329c1.067,0,2.093.077,3.034,0a13.058,13.058,0,0,0,1.4-.049l1.263-.112c.809-.049,1.535-.181,2.169-.265s1.186-.181,1.632-.279l1.025-.188A1.189,1.189,0,0,1,175.805,328.159Z" transform="translate(-42.938 -136.568)"/><path class="g" d="M545.712,210.424l23.341.056L569,235.223l-23.341-.056-.1,41.1-30.693-.07.1-41.108-79.265-.209-.7-18.835L514.279,91.46,546,91.537Zm-80.3-.188,49.6.119.209-75-.767-.258-2.546,5.448Z" transform="translate(-131.555 -67.321)"/><path class="h" d="M545.712,210.424l23.341.056L569,235.223l-23.341-.056-.1,41.1-30.693-.07.1-41.108-79.265-.209-.7-18.835L514.279,91.46,546,91.537Zm-80.3-.188,49.6.119.209-75-.767-.258-2.546,5.448Z" transform="translate(-131.555 -67.321)"/><path class="i" d="M573.69,210.445l23.341.056-.056,24.736-23.348-.056-.1,41.108-30.693-.077.1-41.1-79.286-.188-.7-18.835L542.257,91.53l31.712.07Zm-80.3-.188,49.6.119.174-74.982-.76-.251-2.546,5.448Z" transform="translate(-140.008 -67.342)"/><path class="j" d="M455.071,275.27a4.326,4.326,0,0,1-.739.453c-.488.272-1.193.649-2.093,1.109-1.758.921-4.185,2.149-6.976,3.439s-5.253,2.414-7.08,3.188c-.914.391-1.653.7-2.169.9a4.064,4.064,0,0,1-.823.279,4.518,4.518,0,0,1,.76-.412l2.128-1,7.066-3.265,6.976-3.341,2.128-1a4.082,4.082,0,0,1,.823-.349Z" transform="translate(-131.613 -122.91)"/><path class="j" d="M466.873,244.68a7.221,7.221,0,0,1-1.025.6c-.7.363-1.653.872-2.874,1.493-2.441,1.235-5.832,2.888-9.6,4.667s-7.206,3.348-9.71,4.451c-1.249.544-2.267.977-2.979,1.27a7.455,7.455,0,0,1-1.116.412,8.044,8.044,0,0,1,1.06-.544l2.93-1.4,9.661-4.541,9.668-4.548c1.186-.572,2.176-1.039,2.923-1.4A7.342,7.342,0,0,1,466.873,244.68Z" transform="translate(-132.937 -113.659)"/><path class="j" d="M485.1,217.18a7.466,7.466,0,0,1-1.074.6c-.7.37-1.73.879-3.007,1.5-2.546,1.242-6.09,2.9-10.031,4.695s-7.52,3.355-10.136,4.458c-1.3.551-2.365.984-3.1,1.277a7.671,7.671,0,0,1-1.158.412,7.9,7.9,0,0,1,1.1-.544l3.062-1.4,10.073-4.541,10.066-4.59,3.055-1.4a7.733,7.733,0,0,1,1.151-.474Z" transform="translate(-138.085 -105.342)"/><path class="j" d="M569.616,244.71a3.251,3.251,0,0,1-.739.439c-.481.265-1.193.635-2.093,1.074-1.772.886-4.234,2.093-6.976,3.32s-5.253,2.344-7.108,3.041c-.914.377-1.66.7-2.176.858a4.1,4.1,0,0,1-.823.272,3.552,3.552,0,0,1,.767-.4l2.135-.97,7.045-3.16,7.018-3.223,2.128-.97a4.284,4.284,0,0,1,.823-.286Z" transform="translate(-166.244 -113.668)"/><path class="j" d="M568.952,299.74a3.906,3.906,0,0,1-.7.439c-.467.258-1.158.628-2.009,1.067-1.716.886-4.095,2.093-6.76,3.314s-5.106,2.309-6.878,3.055c-.893.377-1.611.7-2.093.858a4.1,4.1,0,0,1-.8.272,3.042,3.042,0,0,1,.739-.4l2.093-.97,6.829-3.146,6.794-3.216,2.093-.963a3.877,3.877,0,0,1,.684-.314Z" transform="translate(-166.25 -130.31)"/><path class="j" d="M569.279,319a3.766,3.766,0,0,1-.7.432c-.474.265-1.165.628-2.016,1.074-1.716.886-4.095,2.093-6.759,3.313s-5.1,2.309-6.878,3.055c-.886.37-1.611.663-2.093.858a3.273,3.273,0,0,1-.8.265,3.884,3.884,0,0,1,.739-.391l2.093-.97,6.829-3.153,6.794-3.209,2.093-.97A3.168,3.168,0,0,1,569.279,319Z" transform="translate(-166.346 -136.135)"/><path class="j" d="M569.659,338.25a3.178,3.178,0,0,1-.7.439c-.474.265-1.158.628-2.016,1.074-1.709.879-4.095,2.093-6.759,3.306s-5.1,2.316-6.878,3.062c-.886.37-1.611.663-2.093.858a3.586,3.586,0,0,1-.8.265,4.1,4.1,0,0,1,.739-.4l2.093-.963,6.829-3.153,6.8-3.209,2.093-.97A3.942,3.942,0,0,1,569.659,338.25Z" transform="translate(-166.461 -141.957)"/><path class="j" d="M569.309,224.37a4.743,4.743,0,0,1-.746.439c-.481.258-1.193.628-2.093,1.074-1.772.886-4.227,2.093-6.976,3.32s-5.267,2.316-7.1,3.062c-.914.377-1.66.7-2.176.865a3.916,3.916,0,0,1-.816.265,3.947,3.947,0,0,1,.76-.4l2.135-.97,7.045-3.16,7.018-3.223,2.135-.963a3.438,3.438,0,0,1,.816-.314Z" transform="translate(-166.153 -107.517)"/><path class="j" d="M568.992,204a4.185,4.185,0,0,1-.739.439c-.488.265-1.2.628-2.093,1.074-1.765.886-4.227,2.093-6.976,3.32s-5.267,2.323-7.1,3.069c-.914.37-1.66.7-2.176.858a3.44,3.44,0,0,1-.816.265,3.948,3.948,0,0,1,.76-.4l2.135-.963,7.045-3.16,7.018-3.223,2.135-.97a3.9,3.9,0,0,1,.809-.314Z" transform="translate(-166.059 -101.356)"/><path class="j" d="M569.08,183.67a3.486,3.486,0,0,1-.7.426c-.467.251-1.144.6-1.981,1.025-1.681.851-4.025,1.981-6.648,3.174s-5.016,2.2-6.76,2.909c-.879.356-1.583.635-2.093.816a3.815,3.815,0,0,1-.781.258,3.133,3.133,0,0,1,.7-.384l2.03-.921,6.718-3.014,6.683-3.069,2.03-.921A3.488,3.488,0,0,1,569.08,183.67Z" transform="translate(-166.371 -95.208)"/><path class="j" d="M575.786,164.59a39.81,39.81,0,0,1-6.976,2.93,39.809,39.809,0,0,1,6.976-2.93Z" transform="translate(-172.023 -89.438)"/><path class="j" d="M503.78,188.7a8.661,8.661,0,0,1-1.074.6c-.7.37-1.73.879-3.007,1.5-2.546,1.242-6.1,2.9-10.031,4.695s-7.52,3.355-10.136,4.457c-1.3.551-2.365.984-3.1,1.277a7.672,7.672,0,0,1-1.158.412,7.893,7.893,0,0,1,1.1-.544l3.055-1.4,10.094-4.513,10.066-4.59,3.055-1.4a7.724,7.724,0,0,1,1.137-.5Z" transform="translate(-143.734 -96.729)"/><path class="j" d="M522.457,160.22a8.51,8.51,0,0,1-1.081.6c-.7.37-1.73.879-3,1.5-2.553,1.242-6.1,2.9-10.031,4.695s-7.527,3.355-10.136,4.457c-1.3.551-2.365.984-3.1,1.277a7.237,7.237,0,0,1-1.165.412,8.958,8.958,0,0,1,1.109-.544l3.055-1.4,10.087-4.555,10.073-4.59,3.055-1.4a7.726,7.726,0,0,1,1.137-.46Z" transform="translate(-149.38 -88.116)"/><path class="j" d="M539.64,131.8a6.975,6.975,0,0,1-1.074.607c-.7.363-1.73.879-3.006,1.493-2.546,1.242-6.09,2.909-10.031,4.695s-7.52,3.362-10.136,4.458c-1.3.551-2.365.991-3.1,1.277a8.007,8.007,0,0,1-1.158.419,7.464,7.464,0,0,1,1.1-.544l3.062-1.4,10.087-4.562,10.073-4.576,3.055-1.4a10,10,0,0,1,1.13-.474Z" transform="translate(-154.579 -79.521)"/><path class="j" d="M557.64,104.42a7.464,7.464,0,0,1-1.074.6c-.7.37-1.73.879-3.007,1.5-2.546,1.242-6.09,2.9-10.024,4.695s-7.527,3.355-10.136,4.457c-1.311.551-2.372.984-3.111,1.277a7.337,7.337,0,0,1-1.158.412,8.329,8.329,0,0,1,1.109-.544l3.055-1.4,10.087-4.555,10.073-4.576,3.048-1.4A8.559,8.559,0,0,1,557.64,104.42Z" transform="translate(-160.023 -71.241)"/><path class="j" d="M598.155,142.274a2.549,2.549,0,0,1-.384.474,13.816,13.816,0,0,1-1.214,1.277,22.194,22.194,0,0,1-5.274,3.718,23.717,23.717,0,0,1-9.222,2.5,21.939,21.939,0,0,1-5.664-.4,29.011,29.011,0,0,1-5.783-1.89c-3.823-1.674-7.241-3.69-10.561-5.057a23.718,23.718,0,0,0-9.229-2.023,13.63,13.63,0,0,0-6.173,1.4,11.693,11.693,0,0,0-1.479.928,3.491,3.491,0,0,1-.5.349,5.131,5.131,0,0,1,.46-.4,8.963,8.963,0,0,1,1.451-.991,13.338,13.338,0,0,1,6.278-1.556,23.592,23.592,0,0,1,9.354,1.953c3.355,1.36,6.787,3.369,10.582,5.03a29.1,29.1,0,0,0,5.713,1.876,21.485,21.485,0,0,0,5.581.412,23.851,23.851,0,0,0,9.131-2.4,23.09,23.09,0,0,0,5.288-3.593c.579-.5.977-.935,1.256-1.221A4.468,4.468,0,0,1,598.155,142.274Z" transform="translate(-164.118 -82.182)"/><path class="j" d="M595.415,94.15a5.375,5.375,0,0,1-.865.551c-.565.342-1.4.781-2.476,1.291a39.273,39.273,0,0,1-3.816,1.542,43.823,43.823,0,0,1-4.883,1.339,43.2,43.2,0,0,1-5.03.7,39.106,39.106,0,0,1-4.144.084c-1.186-.042-2.135-.112-2.79-.2a5.2,5.2,0,0,1-1.012-.167,6.034,6.034,0,0,1,1.025,0c.656.042,1.6.077,2.79.091s2.574-.042,4.116-.167a41.35,41.35,0,0,0,9.871-2c1.465-.5,2.79-1,3.844-1.472s1.932-.879,2.518-1.179a5.728,5.728,0,0,1,.851-.4Z" transform="translate(-172.504 -68.135)"/><path class="j" d="M531.566,202.516a5.113,5.113,0,0,1-.656-.7l-1.737-1.9a76.163,76.163,0,0,0-6.083-5.86,21.558,21.558,0,0,0-3.774-2.665,11.35,11.35,0,0,0-3.544-1.207,9.989,9.989,0,0,0-3.453.119.9.9,0,0,1,.223-.1,3.908,3.908,0,0,1,.7-.188,7.674,7.674,0,0,1,2.588-.084,10.757,10.757,0,0,1,3.662,1.165,20.771,20.771,0,0,1,3.851,2.679,61.631,61.631,0,0,1,6.048,5.964c.7.816,1.277,1.5,1.646,1.974A4.924,4.924,0,0,1,531.566,202.516Z" transform="translate(-154.939 -97.082)"/><path class="j" d="M607.839,232.829a1.522,1.522,0,0,1-.265.223c-.181.126-.439.335-.8.565a20.028,20.028,0,0,1-3.2,1.688,21.388,21.388,0,0,1-22.469-3.641,20.388,20.388,0,0,1-2.511-2.616c-.272-.328-.453-.614-.586-.8s-.188-.286-.174-.293.314.356.872,1a21.834,21.834,0,0,0,24.771,6.111,22.838,22.838,0,0,0,3.223-1.577,10.756,10.756,0,0,1,1.144-.663Z" transform="translate(-174.75 -108.602)"/><path class="j" d="M595.632,288.121s-.077-.1-.209-.314-.342-.537-.593-.942a27.9,27.9,0,0,0-2.532-3.439l-1-1.081-.53-.579-.614-.558-1.311-1.179c-.481-.377-.991-.76-1.514-1.158a32.871,32.871,0,0,0-7.834-4.234,31.5,31.5,0,0,0-10.589-2,29.236,29.236,0,0,0-12.068,2.448,104.012,104.012,0,0,0-11.915,6.871,58.425,58.425,0,0,1-6.418,3.488,26.806,26.806,0,0,1-7.2,2.211,23.719,23.719,0,0,1-7.541-.14,33.561,33.561,0,0,1-7.018-2.093,72.227,72.227,0,0,1-12.082-6.683c-3.683-2.393-7.164-4.709-10.61-6.536a37.475,37.475,0,0,0-10.094-3.823,25.489,25.489,0,0,0-8.88-.223,18.771,18.771,0,0,0-6.362,2.128,16.307,16.307,0,0,0-3.4,2.553l-.753.816-.265.272s.077-.1.237-.293l.7-.851a15.82,15.82,0,0,1,3.39-2.616,18.675,18.675,0,0,1,6.4-2.2,25.51,25.51,0,0,1,8.964.16,37.8,37.8,0,0,1,10.185,3.816c3.488,1.821,6.976,4.137,10.652,6.522a71.945,71.945,0,0,0,12.033,6.627,33.268,33.268,0,0,0,6.976,2.093,23.41,23.41,0,0,0,7.422.139,26.437,26.437,0,0,0,7.108-2.183,58.919,58.919,0,0,0,6.376-3.488,102.623,102.623,0,0,1,11.97-6.878,28.429,28.429,0,0,1,3.062-1.13c.516-.153,1.025-.328,1.535-.46l1.556-.321a29.607,29.607,0,0,1,6.048-.53,31.677,31.677,0,0,1,10.673,2.058,32.995,32.995,0,0,1,7.876,4.311l1.514,1.179,1.3,1.2.607.565.537.593c.342.384.7.746.984,1.1a24.917,24.917,0,0,1,2.483,3.488l.565.963C595.576,288,595.632,288.121,595.632,288.121Z" transform="translate(-140.416 -120.603)"/><path class="j" d="M609.5,336.371a1.2,1.2,0,0,1-.349.1l-1.018.244c-.446.1-.991.216-1.632.307s-1.4.223-2.183.279l-1.277.1a13.794,13.794,0,0,0-1.4.049c-.963.042-1.988,0-3.062-.049a38.368,38.368,0,0,1-13.561-3.369c-.97-.467-1.9-.893-2.727-1.4-.419-.237-.83-.446-1.207-.7l-1.081-.7c-.7-.425-1.277-.886-1.8-1.263a15.931,15.931,0,0,1-1.3-1.032l-.8-.7c-.181-.16-.265-.244-.258-.258a1.846,1.846,0,0,1,.307.2l.83.635c.356.279.8.621,1.332.977s1.116.8,1.821,1.214l1.081.7c.377.23.8.432,1.207.663.83.474,1.758.886,2.728,1.339a39.81,39.81,0,0,0,13.456,3.341c1.067.042,2.093.112,3.034.077h1.4l1.27-.084c.809-.035,1.535-.153,2.176-.223s1.186-.16,1.632-.244l1.032-.174a1.3,1.3,0,0,1,.342-.049Z" transform="translate(-174.155 -138.857)"/><path class="d" d="M219.948,178.4l4.883-.767,30.254-9.766,17.7-5.113a19.044,19.044,0,0,1,15.3,1.046c8.371,4.262,31.433,25.727,31.433,25.727l-16.609,17.125,7.82,34.655c-8.755,24.9-25.894,27.743-25.894,27.743a60.69,60.69,0,0,1-24.555-4.06c-15.919-6.069-32.626-20.292-34.718-26.41-1.256-3.669-2.3-11.384-3.118-20.1l-25.2-10.268-6.829-34.879Z" transform="translate(-57.588 -88.539)"/><path class="k" d="M285.51,271.5a1.251,1.251,0,0,0,.244.216c.174.125.412.328.753.551a17.23,17.23,0,0,0,3.027,1.625,18.465,18.465,0,0,0,20.927-4.562,16.99,16.99,0,0,0,2.093-2.741c.216-.342.349-.635.453-.816a1.4,1.4,0,0,0,.133-.3,10.942,10.942,0,0,0-.7,1.039,19.533,19.533,0,0,1-2.142,2.637,18.7,18.7,0,0,1-20.62,4.506,20.235,20.235,0,0,1-3.048-1.507,8.892,8.892,0,0,0-1.123-.649Z" transform="translate(-86.346 -119.946)"/><path class="k" d="M298.52,172.65a.426.426,0,0,1-.056.16,4.167,4.167,0,0,0-.126.5c-.1.432-.251,1.081-.426,1.911a46.7,46.7,0,0,0-1,7.136,22.6,22.6,0,0,0,.286,4.988,16.17,16.17,0,0,0,1.988,5.371,21.123,21.123,0,0,0,4.137,4.792c1.639,1.465,3.453,2.825,5.3,4.227,3.934,2.951,7.757,5.622,11.161,8.05s6.439,4.6,8.852,6.425l.077.063.077-.063a53.392,53.392,0,0,0,4.848-4.36,12.516,12.516,0,0,0,1.13-1.339c.119-.153.2-.293.251-.377a1.02,1.02,0,0,0,.07-.139,5.787,5.787,0,0,0-.377.481c-.251.307-.635.746-1.172,1.284a60.106,60.106,0,0,1-4.883,4.262h.153c-2.4-1.863-5.4-4.074-8.81-6.508s-7.234-5.12-11.161-8.071c-1.849-1.4-3.662-2.755-5.288-4.185a21.082,21.082,0,0,1-4.088-4.7A15.738,15.738,0,0,1,297.5,187.3a22.518,22.518,0,0,1-.328-4.883,50.655,50.655,0,0,1,.879-7.122c.153-.809.272-1.458.363-1.925.035-.2.063-.363.084-.5a.516.516,0,0,0,.028-.216Z" transform="translate(-89.785 -91.875)"/><path class="k" d="M106.492,153.333a22.266,22.266,0,0,1-5.581-25.482l9.975-1.025a14.237,14.237,0,0,1-7.255-14.363,19.051,19.051,0,0,0,21.757,4.011c4.66-2.3,8.441-6.592,13.561-7.492,4.646-.816,9.215,1.36,13.665,2.944s9.836,2.448,13.519-.5c2.923-2.344,3.823-6.439,3.634-10.171s-1.27-7.38-1.5-11.119a25.224,25.224,0,0,1,8.085-19.679,19.155,19.155,0,0,1,30.093-9.571c2.183,1.7,4.025,3.872,6.5,5.092,2.79,1.4,6.048,1.4,9.068,2.093s6.208,2.748,6.529,5.853l1.221,6.355a14.108,14.108,0,0,0,.7,1.339c2.567,4.513,7.834,7.478,8.978,12.556.642,2.839-.153,5.908.8,8.657,1.263,3.62,5.169,5.657,6.976,9.027,2.5,4.632.8,12.745-3.195,16.17s-12.235,7.046-17.384,8.134c-1.4-5.35-2.63-11.064-3.823-16.923-2.093,2.016-4.3,3.941-6.487,5.839-5.734,4.981-11.587,10.038-15.563,16.512-7.555,12.291-7.673,28.6-17.2,39.434a15.3,15.3,0,0,1-6.836,4.841,8.042,8.042,0,0,1-7.917-1.611c-2.365-2.358-2.672-6.327-5.281-8.406-3.488-2.755-8.559-.558-12.291,1.835-2.707,1.73-5.413,3.558-8.476,4.506s-6.634.886-9.243-.984-3.753-5.86-1.869-8.462c.753-1.039,1.876-1.765,2.623-2.79s.963-2.7-.063-3.488-2.707,0-3.927.7A23.369,23.369,0,0,1,96.3,154.519,19.407,19.407,0,0,0,106.492,153.333Z" transform="translate(-29.124 -56.856)"/><path class="k" d="M118.152,103.809a7.368,7.368,0,0,0-.9.774,10.4,10.4,0,0,0-2.093,2.714,7.827,7.827,0,0,0-.767,2.351,5.581,5.581,0,0,0,2.5,5.546,4.186,4.186,0,0,0,1.758.628,4.025,4.025,0,0,0,1.953-.279c2.588-1.06,3.892-4.046,6.69-5.385a14.719,14.719,0,0,1,9.571-.774c3.355.767,6.613,2.595,9.913,4.444s6.808,3.844,10.847,4.534a15.1,15.1,0,0,0,6-.042,11.349,11.349,0,0,0,2.79-1.032,10.463,10.463,0,0,0,2.344-1.73,13.212,13.212,0,0,0,3-4.757,21.457,21.457,0,0,0,1.235-5.246,81.52,81.52,0,0,0,.042-9.926,29.193,29.193,0,0,1,.844-8.524,19.874,19.874,0,0,1,1.332-3.488,20.14,20.14,0,0,1,1.674-2.909,21.562,21.562,0,0,1,3.565-3.983,22.664,22.664,0,0,1,2.755-1.988l.76-.453a1.291,1.291,0,0,0,.251-.16,1.535,1.535,0,0,0-.272.133l-.781.419a21.506,21.506,0,0,0-2.79,1.967,20.872,20.872,0,0,0-3.641,3.969A20.368,20.368,0,0,0,174.99,83.5a20.005,20.005,0,0,0-1.4,3.488,29.243,29.243,0,0,0-.9,8.594,87.094,87.094,0,0,1-.077,9.885,21.276,21.276,0,0,1-1.221,5.162,12.877,12.877,0,0,1-2.93,4.625,10.108,10.108,0,0,1-2.26,1.674,11.294,11.294,0,0,1-2.686,1,14.921,14.921,0,0,1-5.86.035c-3.962-.7-7.436-2.644-10.736-4.485s-6.557-3.676-10.017-4.458a17.021,17.021,0,0,0-5.106-.433,13.4,13.4,0,0,0-2.441.391,11.5,11.5,0,0,0-2.232.872c-2.888,1.4-4.185,4.423-6.648,5.413a3.725,3.725,0,0,1-3.488-.314,5.378,5.378,0,0,1-2.435-5.295,7.541,7.541,0,0,1,.7-2.309,10.959,10.959,0,0,1,1.981-2.728c.272-.279.488-.481.635-.614A1.4,1.4,0,0,0,118.152,103.809Z" transform="translate(-34.575 -62.077)"/><path class="k" d="M272.166,139.331a1.379,1.379,0,0,1,.056-.314,5.434,5.434,0,0,1,.188-.914,7.785,7.785,0,0,1,1.709-3.111,13.331,13.331,0,0,1,4.632-3.216,32.043,32.043,0,0,1,7.276-1.9,22.163,22.163,0,0,0,8.671-2.972,12.87,12.87,0,0,0,2.051-19.609c-2.888-2.965-6.976-4.437-10.31-7.039a13.255,13.255,0,0,1-2.19-2.232,9.376,9.376,0,0,1-1.339-2.79,33.573,33.573,0,0,1-.7-6.069,13.86,13.86,0,0,0-.558-2.979,7.429,7.429,0,0,0-1.472-2.609,10.464,10.464,0,0,0-4.988-2.79c-1.793-.523-3.579-.844-5.26-1.311a14.364,14.364,0,0,1-4.59-2.051,17.713,17.713,0,0,1-3.446-3.223,39.46,39.46,0,0,1-2.6-3.516c-1.535-2.33-2.86-4.513-4.262-6.278a20.188,20.188,0,0,0-4.067-4.011,11.217,11.217,0,0,0-3.216-1.653,7.812,7.812,0,0,0-1.221-.307s.426.1,1.2.377a11.789,11.789,0,0,1,3.153,1.7,20.341,20.341,0,0,1,3.99,4.025c1.4,1.744,2.679,3.927,4.185,6.278a37.981,37.981,0,0,0,2.595,3.565,17.684,17.684,0,0,0,3.488,3.293,14.58,14.58,0,0,0,4.681,2.093c1.7.474,3.488.809,5.246,1.325a10.135,10.135,0,0,1,4.827,2.686,7.1,7.1,0,0,1,1.4,2.483,13.393,13.393,0,0,1,.537,2.909,34.641,34.641,0,0,0,.7,6.132,9.458,9.458,0,0,0,1.4,2.874,13.359,13.359,0,0,0,2.26,2.309,47.391,47.391,0,0,0,5.364,3.4,23.425,23.425,0,0,1,4.883,3.593,12.556,12.556,0,0,1-1.967,19.114c-2.721,1.842-5.818,2.421-8.545,2.972a33.924,33.924,0,0,0-7.311,1.96,13.324,13.324,0,0,0-4.653,3.313,7.631,7.631,0,0,0-1.674,3.181,4.983,4.983,0,0,0-.153.928A3.065,3.065,0,0,1,272.166,139.331Z" transform="translate(-74.557 -57.335)"/><path class="l" d="M203.44,80.765a1.665,1.665,0,0,0,.537-.133,13.949,13.949,0,0,0,1.4-.565,18.437,18.437,0,0,0,7.457-6.411,13.378,13.378,0,0,0,.767-1.3,1.682,1.682,0,0,0,.209-.509c-.049,0-.446.649-1.186,1.66a21.52,21.52,0,0,1-7.394,6.327C204.144,80.423,203.419,80.709,203.44,80.765Z" transform="translate(-61.525 -61.391)"/><path class="l" d="M170.2,149.042s.432-.112,1.221-.279a20.742,20.742,0,0,1,3.39-.419,45.163,45.163,0,0,1,5.064.146c1.911.133,4.018.328,6.278.279a16.959,16.959,0,0,0,6.16-1.158,10.855,10.855,0,0,0,4.129-3.013,7.673,7.673,0,0,0,1.583-3.062,5.289,5.289,0,0,0,.146-.928.9.9,0,0,0,0-.328c-.042,0-.063.446-.286,1.221a8.168,8.168,0,0,1-1.646,2.93,10.945,10.945,0,0,1-4.067,2.874,16.931,16.931,0,0,1-6.034,1.1c-2.2.049-4.3-.133-6.208-.251a41.16,41.16,0,0,0-5.106-.063,17.565,17.565,0,0,0-3.4.53c-.4.112-.7.209-.893.286A1.9,1.9,0,0,0,170.2,149.042Z" transform="translate(-51.473 -82.086)"/><path class="l" d="M111.26,186.322a1.98,1.98,0,0,0,.2.091,2.916,2.916,0,0,0,.621.2,4.883,4.883,0,0,0,2.5-.112,8.008,8.008,0,0,0,3.348-2.093,13.91,13.91,0,0,0,2.693-4.506,33.344,33.344,0,0,1,2.644-5.741,15.06,15.06,0,0,1,2.211-2.7,17.7,17.7,0,0,1,2.958-2.239c4.381-2.637,10.136-3.718,16.044-3.376s11.461,1.465,16.6,1.828a32.877,32.877,0,0,0,13.54-1.4,18.758,18.758,0,0,0,7.757-4.883,10.7,10.7,0,0,0,.9-1.1,6.181,6.181,0,0,0,.6-.872c.147-.23.258-.412.342-.558s.112-.188.1-.2a1.459,1.459,0,0,0-.14.174l-.363.537a6.84,6.84,0,0,1-.628.844,10.3,10.3,0,0,1-.949,1.081,18.835,18.835,0,0,1-7.736,4.716,32.926,32.926,0,0,1-13.428,1.311c-5.113-.377-10.666-1.542-16.616-1.856s-11.754.753-16.2,3.453a18,18,0,0,0-3.007,2.3,15.451,15.451,0,0,0-2.246,2.79,32.941,32.941,0,0,0-2.623,5.8,13.91,13.91,0,0,1-2.6,4.464,7.876,7.876,0,0,1-3.244,2.093,5,5,0,0,1-2.442.181C111.539,186.44,111.267,186.294,111.26,186.322Z" transform="translate(-33.648 -87.647)"/><path class="m" d="M250.7,83.19a5.218,5.218,0,0,1,5.322,4.632h0l5.636,58.743c.977,8.259-9.829,25.971-18.681,26.947h0c-8.936.991-9.808-3.341-10.973-11.161-1.911-13.086-2.609-18.011-2.609-17.935s-11.51-.384-15.779-14.775c-2.093-7.157-3.334-19.19-4.011-29.068-.607-8.894,3.816-20.481,12.724-20.7Z" transform="translate(-63.374 -63.816)"/><path class="k" d="M215.248,119.868a1.9,1.9,0,0,0,2.093,1.667,1.821,1.821,0,0,0,1.723-1.96,1.9,1.9,0,0,0-2.093-1.66,1.814,1.814,0,0,0-1.723,1.953Z" transform="translate(-65.095 -75.319)"/><path class="k" d="M214.1,114.512c.216.265,1.723-.7,3.767-.551s3.488,1.277,3.7,1.039c.119-.1-.091-.565-.7-1.088a5.232,5.232,0,0,0-2.944-1.137,5.023,5.023,0,0,0-3.02.753C214.236,113.96,214.027,114.393,214.1,114.512Z" transform="translate(-64.746 -73.763)"/><path class="k" d="M240.983,121.34c.244.244,1.653-.865,3.7-.914s3.572.928,3.788.7c.1-.112-.146-.551-.816-1.011a5.225,5.225,0,0,0-3.041-.844,5.009,5.009,0,0,0-2.93,1.039C241.053,120.782,240.851,121.236,240.983,121.34Z" transform="translate(-72.868 -75.73)"/><path class="k" d="M233.193,130.351a13.471,13.471,0,0,0-3.376-.16c-.523,0-1.025,0-1.158-.37a2.651,2.651,0,0,1,.14-1.576c.321-1.318.663-2.7,1.011-4.144,1.4-5.9,2.323-10.722,2.093-10.771s-1.556,4.681-2.944,10.575c-.328,1.451-.649,2.839-.949,4.185a3.055,3.055,0,0,0,0,2.093,1.29,1.29,0,0,0,.956.642,3.2,3.2,0,0,0,.893,0A14.341,14.341,0,0,0,233.193,130.351Z" transform="translate(-68.9 -73.935)"/><path class="n" d="M238,169a37.669,37.669,0,0,0,18.995-7.841s-3.634,10.757-18.528,11.322Z" transform="translate(-71.977 -88.4)"/><path class="k" d="M240.555,116.094c.321.5,2.253-.223,4.653-.488s4.444-.07,4.639-.628c.084-.265-.363-.7-1.249-1.046a7.673,7.673,0,0,0-3.634-.391,7.806,7.806,0,0,0-3.446,1.242C240.744,115.333,240.409,115.856,240.555,116.094Z" transform="translate(-72.74 -73.978)"/><path class="k" d="M214.521,110.5c.335.488,1.765.077,3.488.14s3.111.474,3.488,0c.153-.223-.049-.7-.649-1.172a4.883,4.883,0,0,0-2.79-.907,4.785,4.785,0,0,0-2.79.8C214.591,109.8,214.375,110.261,214.521,110.5Z" transform="translate(-64.864 -72.492)"/><path class="n" d="M240.334,142.67a4.367,4.367,0,0,0-3.2-.7,2.49,2.49,0,0,0-1.486.774,3.125,3.125,0,0,0-.516,2.135,4.074,4.074,0,0,0,.2,1.325,1.744,1.744,0,0,0,.851,1,2.393,2.393,0,0,0,1.4.07,5.246,5.246,0,0,0,2.156-.781,2.658,2.658,0,0,0,1.2-1.883,1.807,1.807,0,0,0-1.074-1.856" transform="translate(-71.102 -82.578)"/><path class="k" d="M234.676,147.435c.146.056.419-.391.907-1a7.457,7.457,0,0,1,5.064-2.888c.774-.112,1.3-.112,1.325-.272s-.453-.412-1.339-.5a5.832,5.832,0,0,0-5.706,3.251C234.551,146.835,234.544,147.393,234.676,147.435Z" transform="translate(-70.948 -82.837)"/><path class="k" d="M280.323,158.242c-4.848-.963-8.587-5.134-10.254-9.766s-1.577-9.731-1.137-14.649a2.351,2.351,0,0,1,.663-1.73c.739-.565,1.786-.1,2.581.377a81.528,81.528,0,0,1,8.769,6.167c2.595,2.093,5.169,4.5,6.16,7.673a9.841,9.841,0,0,1-6.648,11.984" transform="translate(-81.249 -79.532)"/><path class="m" d="M124.5,143.188,147.37,106.44l6.313-12.933s2.016-2.672,4.109-4.953c3.432-3.746,6.829-.837,6.829-.837a2.309,2.309,0,0,1,2.3-1.4,3.885,3.885,0,0,1,3.188,1.6s.935-1.046,3.53-1.207a2.734,2.734,0,0,1,1.646.53c.844-.746,2.407-1.821,3.906-1.277,1.172.426,8.28,5.832,10.031,8.552.865,1.346-.739,3.09-2.9,2.274a18.33,18.33,0,0,1-2.595-1.053,6.913,6.913,0,0,1-1.758-1.423s1.793,3.139,0,3.69a4.088,4.088,0,0,1-3.362-.816c-.7-.572-1.472-1.318-2.218-2.051l.091.126c.991,1.465-1.6,3.634-2.846,2.755a17.442,17.442,0,0,1-1.667-1.325c-2.9,2.093,1.123,4.806,2.825,4.667a52.968,52.968,0,0,1,7.869,0,5.68,5.68,0,0,1,3.6,1.291c.963.991-.049,3.069-1.4,3.286-2.5.384-5.7.942-9.02,1.793-3.906,1-14.14,4.332-14.14,4.332l-1,.809-13.938,33.9,23.808,5.036,5.309,30.163-42.971-11.622C123.227,165.28,118.644,152.4,124.5,143.188Z" transform="translate(-36.867 -65.615)"/><path class="n" d="M178.192,118.212a2.93,2.93,0,0,0,.544-.133l1.549-.439,5.65-1.681,3.9-1.179c1.4-.426,2.895-.879,4.492-1.284a42.681,42.681,0,0,1,5.029-1.039,8.811,8.811,0,0,0,2.734-.488,1.946,1.946,0,0,0,.614-.46,1.081,1.081,0,0,0,.209-.377l.049-.37a3.488,3.488,0,0,0-.091-1.479,2.037,2.037,0,0,0-.991-1.144,7.3,7.3,0,0,0-1.325-.53,8.769,8.769,0,0,0-2.79-.335c-1.807,0-3.523.272-5.155.2a16.167,16.167,0,0,1-2.365-.23c-.76-.14-1.486-.335-2.2-.516a11.587,11.587,0,0,0-4.067-.516,10.994,10.994,0,0,0-3.279.83,19.935,19.935,0,0,0-2.281,1.123c-.614.342-1.074.628-1.4.816a3.089,3.089,0,0,0-.467.321,3.7,3.7,0,0,0,.5-.251c.349-.2.823-.446,1.4-.76a22.482,22.482,0,0,1,2.295-1.06,11.322,11.322,0,0,1,3.223-.767,11.573,11.573,0,0,1,3.969.558c.7.181,1.437.391,2.211.537a15.974,15.974,0,0,0,2.421.251c1.66.077,3.39-.167,5.169-.181a8.511,8.511,0,0,1,2.644.321c.851.279,1.828.586,2.093,1.444a3.377,3.377,0,0,1,.077,1.325l-.049.321a.628.628,0,0,1-.133.237,1.625,1.625,0,0,1-.5.363,8.866,8.866,0,0,1-2.616.467,41.261,41.261,0,0,0-5.078,1.067c-1.6.419-3.09.872-4.485,1.318l-3.892,1.221-5.581,1.793-1.528.5A3.167,3.167,0,0,0,178.192,118.212Z" transform="translate(-53.396 -71.778)"/><path class="n" d="M204.169,86.11c-.042.056,1.074.7,2.721,1.953a27.566,27.566,0,0,1,2.741,2.365c.977.956,2.009,2.093,3.216,3.1a3.383,3.383,0,0,1,1.291,1.723,1.332,1.332,0,0,1-.126.935,1.3,1.3,0,0,1-.7.558,3.585,3.585,0,0,1-1.842,0,8.9,8.9,0,0,1-1.6-.453,11.363,11.363,0,0,1-2.825-1.723,2.965,2.965,0,0,0,.628.656,8.371,8.371,0,0,0,2.093,1.3,9.131,9.131,0,0,0,1.646.516,3.9,3.9,0,0,0,2,0,1.66,1.66,0,0,0,.914-.7,1.639,1.639,0,0,0,.167-1.186,3.6,3.6,0,0,0-1.4-1.925c-1.193-1.025-2.218-2.093-3.216-3.069a24.685,24.685,0,0,0-2.79-2.337A22.723,22.723,0,0,0,205,86.5,4.722,4.722,0,0,0,204.169,86.11Z" transform="translate(-61.746 -65.703)"/><path class="n" d="M191.67,89.308a8.148,8.148,0,0,0,.8.963c.579.635,1.4,1.486,2.3,2.525l3.439,3.711a8.371,8.371,0,0,0,2.414,1.842,3.662,3.662,0,0,0,1.6.4,2.232,2.232,0,0,0,1.6-.642,1.528,1.528,0,0,0,.384-.872,2.706,2.706,0,0,0-.1-.893,5.168,5.168,0,0,0-.739-1.528h0c-1.235-1.3-2.379-2.532-3.4-3.662s-2.051-2.016-2.867-2.79a5.783,5.783,0,0,0-1.193-.963,2.951,2.951,0,0,0-1.13-.244c-.621-.042-.984,0-.949.077a2.86,2.86,0,0,1,.935.042,3.16,3.16,0,0,1,1.053.279,6.4,6.4,0,0,1,1.123.97c.8.8,1.779,1.723,2.79,2.832s2.149,2.386,3.383,3.7h0a4.883,4.883,0,0,1,.7,1.4,2.24,2.24,0,0,1,.084.767,1.172,1.172,0,0,1-.293.7,1.828,1.828,0,0,1-1.339.523,3.39,3.39,0,0,1-1.444-.356,8.245,8.245,0,0,1-2.323-1.751l-3.488-3.662-2.414-2.5-.663-.656A1.242,1.242,0,0,0,191.67,89.308Z" transform="translate(-57.966 -66.014)"/><path class="n" d="M176.335,94.879c-.035,0,0,.216.279.412a1.479,1.479,0,0,0,2.149-.377c.16-.265.167-.46.119-.474s-.14.133-.321.314a1.535,1.535,0,0,1-1.807.321C176.517,94.963,176.377,94.83,176.335,94.879Z" transform="translate(-53.325 -68.222)"/><path class="n" d="M175.14,98.456c.077.063.6-.46,1.06-1.242a2.986,2.986,0,0,0,.586-1.535c-.1-.035-.446.593-.893,1.346a5.35,5.35,0,0,0-.753,1.43Z" transform="translate(-52.967 -68.597)"/><path class="n" d="M172.867,112.988a4.687,4.687,0,0,0,.656-1.451,11.859,11.859,0,0,0,.572-3.816,12,12,0,0,0-.7-3.795,4.472,4.472,0,0,0-.7-1.437,18.276,18.276,0,0,1,1.011,5.239A18.751,18.751,0,0,1,172.867,112.988Z" transform="translate(-52.229 -70.657)"/><path class="n" d="M145.985,182.753c.07,0,.14-.739.5-1.876a11.678,11.678,0,0,1,.823-1.911,12.7,12.7,0,0,1,1.465-2.093,12.167,12.167,0,0,1,1.883-1.716,11.362,11.362,0,0,1,1.793-1.067c1.074-.509,1.807-.7,1.793-.739a1.821,1.821,0,0,0-.523.07,7.633,7.633,0,0,0-1.4.439,9.844,9.844,0,0,0-1.883,1.025A10.75,10.75,0,0,0,147,178.8a9.961,9.961,0,0,0-.774,2,7.84,7.84,0,0,0-.258,1.4A1.731,1.731,0,0,0,145.985,182.753Z" transform="translate(-44.14 -92.087)"/><path class="m" d="M257.938,259a9.927,9.927,0,0,1,5.811.739c3.1-1.4,6.934,1,6.934,1,1.123-.537,7.89,3.885,7.89,3.885L287,268.6l45.014-33.414-12.759-13.254,17.879-18.6,20.983,21.506a15.828,15.828,0,0,1,4.185,10.15,20.627,20.627,0,0,1-11.461,19.532l-53.016,27.205a61.8,61.8,0,0,1-12.054-1.876,109.4,109.4,0,0,1-12.4-4.667,17.886,17.886,0,0,1-1.4,2.951c-2.518,4.883-6.208-.384-6.208-.384a10.121,10.121,0,0,1-1.437,2.379c-3.188,3.09-5.392-1.06-5.392-1.06s-.963,1.667-3.809.426.412-9.808.412-9.808-.956,1.87-2.79-.5S254.875,259.638,257.938,259Z" transform="translate(-76.296 -101.154)"/><path class="n" d="M265.546,284.686a1.4,1.4,0,0,0-.586-.223,3.418,3.418,0,0,0-1.709.049A6.522,6.522,0,0,0,261,285.663a8.679,8.679,0,0,0-1.123,1,6.374,6.374,0,0,0-.872,1.36,33.588,33.588,0,0,0-2.093,5.169c-.2.7-.349,1.235-.439,1.625a1.835,1.835,0,0,0-.091.614c.049,0,.3-.823.774-2.163a47.709,47.709,0,0,1,2.142-5.085,6.178,6.178,0,0,1,.823-1.29,9.768,9.768,0,0,1,1.053-.97,6.913,6.913,0,0,1,2.093-1.172,4.667,4.667,0,0,1,2.281-.07Z" transform="translate(-77.536 -125.664)"/><path class="n" d="M261.76,304.759a4.5,4.5,0,0,0,.391-.774l.984-2.135c.83-1.807,2.044-4.269,3.209-7.087a18.763,18.763,0,0,1,1.828-3.809,6.334,6.334,0,0,1,2.588-2.162,4.249,4.249,0,0,1,2.239-.4c.537.07.816.216.83.181s-.063-.049-.2-.119a2.225,2.225,0,0,0-.614-.2,4.074,4.074,0,0,0-2.358.3,6.376,6.376,0,0,0-2.79,2.2,18.139,18.139,0,0,0-1.9,3.865c-1.151,2.79-2.33,5.288-3.1,7.122-.384.914-.7,1.667-.879,2.19a3.25,3.25,0,0,0-.23.823Z" transform="translate(-79.163 -126.819)"/><path class="n" d="M285.388,295.514a3.65,3.65,0,0,0-.7-.4l-2.009-.97c-.432-.2-.886-.426-1.4-.649a3.948,3.948,0,0,0-1.807-.265,3.8,3.8,0,0,0-1.89.7,5.888,5.888,0,0,0-1.4,1.653,21.006,21.006,0,0,0-.977,1.87c-.3.607-.607,1.179-.907,1.723-.607,1.088-1.179,2.058-1.6,2.9a16.361,16.361,0,0,0-.893,2.093,3.245,3.245,0,0,0-.223.8c.056,0,.432-1.088,1.339-2.734.453-.823,1.039-1.772,1.667-2.853.314-.544.635-1.116.935-1.73s.6-1.242.97-1.842a5.817,5.817,0,0,1,1.29-1.556,3.488,3.488,0,0,1,1.709-.7,3.844,3.844,0,0,1,1.667.209c.5.2.984.426,1.4.607l2.058.865a3.112,3.112,0,0,0,.767.279Z" transform="translate(-82.136 -128.338)"/><path class="n" d="M290,291.2a2.841,2.841,0,0,0,.614.391c.4.23,1,.551,1.737.942,1.479.774,3.523,1.835,5.8,2.979s4.339,2.162,5.846,2.888c.753.363,1.4.649,1.786.837a2.533,2.533,0,0,0,.7.258,3.334,3.334,0,0,0-.614-.384c-.412-.23-1-.551-1.744-.942-1.472-.781-3.523-1.835-5.8-2.979s-4.339-2.169-5.839-2.888c-.753-.363-1.4-.649-1.793-.837A2.673,2.673,0,0,0,290,291.2Z" transform="translate(-87.704 -127.728)"/><path class="n" d="M365.73,248.787a17.753,17.753,0,0,1,10.464,1.235,4.954,4.954,0,0,0-1.4-.781,13.339,13.339,0,0,0-3.7-.991,13.205,13.205,0,0,0-3.837.1A4.729,4.729,0,0,0,365.73,248.787Z" transform="translate(-110.606 -114.71)"/><path class="k" d="M223.076,75.834a140.533,140.533,0,0,1,33.149,3.488c2.518.579,5.183,1.318,6.885,3.258,1.807,2.093,2.093,4.981,2.358,7.673q.425,4.974.865,9.94a23.366,23.366,0,0,0,1.583,2.372c2.63,3.425,5.964,6.278,8.371,9.878s3.7,8.371,1.765,12.215c-1.179,2.33-3.355,3.976-4.946,6.041-2.7,3.488-3.579,8.036-5.155,12.166s-4.423,8.371-8.768,9.18c-2.093.4-4.227-.042-6.313.265-3.118.453-5.734,2.5-8.217,4.444s-5.169,3.927-8.308,4.241-6.732-1.814-6.794-4.96a7.38,7.38,0,0,0,7.583-.216c1.828-1.2,3.007-3.153,4.583-4.681,3.851-3.739,10.066-4.925,12.745-9.578,2.093-3.676,1.277-8.28.314-12.417-.83-3.592-1.674-7.478-.642-10.924a13.317,13.317,0,0,1-.133-1.674c0-3.669,1.43-7.6-.279-10.847-2.26-4.3-8.775-4.834-11.057-9.117-1.332-2.49-.865-5.671-2.316-8.092-1.36-2.274-4.088-3.32-6.683-3.885s-5.322-.823-7.611-2.156S222.037,78.276,223.076,75.834Z" transform="translate(-67.37 -62.591)"/><path class="k" d="M211.09,167.129a.893.893,0,0,0,.1.174l.342.481a9.7,9.7,0,0,0,1.6,1.625,10.834,10.834,0,0,0,3.188,1.709,11.014,11.014,0,0,0,4.744.551,9.975,9.975,0,0,0,5.343-2.19c1.66-1.277,3.139-2.965,5.016-4.318a7.241,7.241,0,0,1,3.195-1.346,7.052,7.052,0,0,1,3.558.649,18.185,18.185,0,0,0,3.7,1.277,6.522,6.522,0,0,0,3.969-.7,19.588,19.588,0,0,0,3.355-2.225,27.993,27.993,0,0,0,2.944-2.553,9.3,9.3,0,0,0,2.093-3.16,6.508,6.508,0,0,0,.237-3.62,19.591,19.591,0,0,0-1.053-3.279c-.4-1.025-.753-2.037-1.06-3.027a40.409,40.409,0,0,1-1.29-5.581,41.274,41.274,0,0,1-.453-8.322c.049-.984.112-1.751.16-2.267,0-.237.042-.432.049-.586a.634.634,0,0,0,0-.2.7.7,0,0,0-.042.2,2.664,2.664,0,0,1-.084.586c-.077.516-.167,1.284-.23,2.267a39.678,39.678,0,0,0,.335,8.371,42.124,42.124,0,0,0,1.256,5.657c.307,1,.656,2.023,1.053,3.055a19.528,19.528,0,0,1,1.025,3.223,6.111,6.111,0,0,1-.237,3.439,8.88,8.88,0,0,1-2.023,3.027,26.83,26.83,0,0,1-2.909,2.518,19.719,19.719,0,0,1-3.293,2.19,6.132,6.132,0,0,1-3.753.7,17.642,17.642,0,0,1-3.62-1.249,7.359,7.359,0,0,0-3.732-.656,7.506,7.506,0,0,0-3.348,1.4c-1.911,1.4-3.376,3.09-5.009,4.353a9.655,9.655,0,0,1-5.183,2.169,11.161,11.161,0,0,1-7.813-2.093,12.554,12.554,0,0,1-2.135-2.239Z" transform="translate(-63.839 -79.043)"/><path class="l" d="M285.333,127.284a7.27,7.27,0,0,0,.558-.767,7.876,7.876,0,0,0,.991-2.546,10.506,10.506,0,0,0-.07-4.311,13.1,13.1,0,0,0-2.414-5.169,23.969,23.969,0,0,0-5.037-4.764c-2-1.493-4.276-2.874-6.543-4.492A24.122,24.122,0,0,1,266.61,99.2a15.55,15.55,0,0,1-1.883-4.185c-.446-1.493-.753-3.055-1.116-4.625a24.533,24.533,0,0,0-1.4-4.6A10.366,10.366,0,0,0,259.474,82a11.5,11.5,0,0,0-3.955-2.176,18.354,18.354,0,0,0-4.241-.844,48.418,48.418,0,0,0-7.952.258,36.873,36.873,0,0,1-6.878.084,14.649,14.649,0,0,1-5.392-1.6,10.771,10.771,0,0,1-3.3-2.665,8.015,8.015,0,0,1-1.339-2.337c-.2-.586-.265-.9-.286-.9a6.828,6.828,0,0,0,.216.928,7.882,7.882,0,0,0,1.3,2.4,10.784,10.784,0,0,0,3.279,2.776,14.719,14.719,0,0,0,5.483,1.7,37.271,37.271,0,0,0,6.934-.042,48.83,48.83,0,0,1,7.9-.223,17.879,17.879,0,0,1,4.185.837,11.343,11.343,0,0,1,3.837,2.093,10.073,10.073,0,0,1,2.644,3.669,24.179,24.179,0,0,1,1.4,4.527c.363,1.57.7,3.139,1.13,4.653a15.486,15.486,0,0,0,1.932,4.255,24.219,24.219,0,0,0,6.278,6.111c2.288,1.618,4.562,2.993,6.557,4.464a23.865,23.865,0,0,1,5.009,4.674,12.891,12.891,0,0,1,2.421,5.064,10.269,10.269,0,0,1,.133,4.234,8.748,8.748,0,0,1-1.423,3.348Z" transform="translate(-68.388 -61.382)"/><path class="l" d="M288.875,136.391a15.8,15.8,0,0,0,2.148-2.051,10,10,0,0,0,1.863-2.958,4.932,4.932,0,0,0,.314-2.183,4.276,4.276,0,0,0-.942-2.281,8.477,8.477,0,0,0-4.96-2.539c-.984-.209-2.009-.37-3.041-.621a8.8,8.8,0,0,1-2.972-1.242,7.185,7.185,0,0,1-2.162-2.56,23.164,23.164,0,0,1-1.339-3.327,23.564,23.564,0,0,0-1.4-3.488,7.443,7.443,0,0,0-2.616-2.895,13.058,13.058,0,0,0-3.634-1.4c-1.235-.321-2.455-.579-3.606-.97a11.664,11.664,0,0,1-5.539-4.081,42.71,42.71,0,0,1-3.439-5.371,29.94,29.94,0,0,0-3.132-4.646,11.914,11.914,0,0,0-3.579-2.923,9.166,9.166,0,0,0-3.341-1.011,6.48,6.48,0,0,0-2.2.181,4.185,4.185,0,0,0-.7.258s.258-.077.746-.188a6.683,6.683,0,0,1,2.114-.153,8.992,8.992,0,0,1,3.258,1.046,11.768,11.768,0,0,1,3.488,2.909,30.233,30.233,0,0,1,3.069,4.625,42.025,42.025,0,0,0,3.432,5.434,14.573,14.573,0,0,0,2.462,2.49,10.407,10.407,0,0,0,3.23,1.716,37.564,37.564,0,0,0,3.627.984,12.8,12.8,0,0,1,3.53,1.4,7.1,7.1,0,0,1,2.5,2.79,23.557,23.557,0,0,1,1.4,3.439,23.017,23.017,0,0,0,1.4,3.369,7.52,7.52,0,0,0,2.274,2.679,9.069,9.069,0,0,0,3.09,1.27c1.053.251,2.093.4,3.055.607a8.324,8.324,0,0,1,4.827,2.407,4.186,4.186,0,0,1,.907,2.149,4.668,4.668,0,0,1-.279,2.093,9.7,9.7,0,0,1-1.779,2.93,21.633,21.633,0,0,1-1.493,1.6l-.412.4a.92.92,0,0,0-.16.112Z" transform="translate(-73.973 -66.826)"/><path class="n" d="M185,92a2.609,2.609,0,0,0,.363.544c.251.328.628.8,1.1,1.4.949,1.137,2.316,2.679,3.92,4.283a7.029,7.029,0,0,0,2.567,1.981,2.26,2.26,0,0,0,1.472,0,1.856,1.856,0,0,0,.949-.872,2.846,2.846,0,0,0,.265-1.772,1.73,1.73,0,0,0-.174-.677,3.719,3.719,0,0,0,0,.642,2.86,2.86,0,0,1-.342,1.632,1.625,1.625,0,0,1-.83.7,1.967,1.967,0,0,1-1.263,0,7.082,7.082,0,0,1-2.414-1.911c-1.6-1.6-2.986-3.111-3.983-4.185A18.576,18.576,0,0,0,185,92Z" transform="translate(-55.949 -67.484)"/><path class="n" d="M177.34,92a2.267,2.267,0,0,0,.419.544c.286.328.7.809,1.242,1.4l1.876,2.03,1.116,1.193a9.9,9.9,0,0,0,1.3,1.207,3.285,3.285,0,0,0,1.7.7,1.744,1.744,0,0,0,1.584-.7,1.3,1.3,0,0,0,.258-.809,1.528,1.528,0,0,0-.237-.746c-.258-.412-.523-.739-.753-1.06-.46-.635-.844-1.144-1.116-1.493a2.407,2.407,0,0,0-.453-.516,2.868,2.868,0,0,0,.335.6c.237.37.586.9,1.025,1.556.216.328.481.7.7,1.06a1.046,1.046,0,0,1-.035,1.214,1.4,1.4,0,0,1-1.284.537,3.09,3.09,0,0,1-1.514-.614,9.577,9.577,0,0,1-1.256-1.214l-1.137-1.172-1.918-1.96c-.551-.565-1-1.011-1.325-1.311A3.54,3.54,0,0,0,177.34,92Z" transform="translate(-53.632 -67.484)"/></g><g transform="translate(319.942 -0.049)"><path class="o" d="M458.69,51.417l5.581-10.1a26.975,26.975,0,1,1,6.522,7.108h0Z" transform="translate(-458.662 0.049)"/><path class="k" d="M458.678,51.432l12.117-3.069-.049.146h0l-.425-.537.551.412a27.566,27.566,0,0,0,5.581,3.223,26.675,26.675,0,0,0,7.338,1.988,24.046,24.046,0,0,0,4.22.16c.7-.056,1.465-.084,2.211-.153l2.239-.37A26.884,26.884,0,0,0,508.91,42.357a26.612,26.612,0,0,0,4.395-10.31,27.108,27.108,0,0,0-.453-11.817,26.264,26.264,0,0,0-5.825-10.861l-1.1-1.179c-.363-.4-.788-.7-1.179-1.088a15.415,15.415,0,0,0-1.214-1.039l-1.256-.942a11.607,11.607,0,0,0-1.325-.858L499.6,3.488l-1.4-.7a12.842,12.842,0,0,0-1.43-.621A27.156,27.156,0,0,0,484.837.439a26.222,26.222,0,0,0-10.9,3.32,27.038,27.038,0,0,0-12.514,15.633,28.769,28.769,0,0,0-1.13,8.671,26.7,26.7,0,0,0,4.046,13.254v.091L458.65,51.467c.3-.537,2.009-3.683,5.532-10.143v.084a26.815,26.815,0,0,1-4.144-13.3,29.131,29.131,0,0,1,1.081-8.762A27.373,27.373,0,0,1,473.766,3.488a26.668,26.668,0,0,1,11.043-3.4,27.422,27.422,0,0,1,12.075,1.737,12.142,12.142,0,0,1,1.451.628l1.437.7,1.4.809a13.046,13.046,0,0,1,1.346.872l1.3.956a15.9,15.9,0,0,1,1.235,1.053,12.755,12.755,0,0,1,1.193,1.1l1.109,1.2a26.57,26.57,0,0,1,5.874,11.008,27.518,27.518,0,0,1,.411,11.935,26.684,26.684,0,0,1-4.451,10.464A27.164,27.164,0,0,1,492.44,53.511l-2.274.363c-.753.07-1.5.1-2.232.146a23.716,23.716,0,0,1-4.255-.181,26.822,26.822,0,0,1-7.345-2.044,27.513,27.513,0,0,1-5.581-3.279l.126-.133h0l.084.112h-.133Z" transform="translate(-458.65 0.034)"/><path class="d" d="M488.679,29.3h3.488a2.979,2.979,0,0,1,3.014-3.048,2.79,2.79,0,0,1,2.79,1.779,3.111,3.111,0,0,1-.223,2.832c-.579.984-1.869,1.89-4.234,1.493l.077,7.89h3.488l-.049-4.618a6.766,6.766,0,0,0,4.792-6.648c-.049-5.113-4.653-6.278-6.613-6.236C493.667,22.719,488.553,23.13,488.679,29.3Z" transform="translate(-467.731 -6.843)"/><rect class="d" width="3.509" height="3.279" transform="translate(25.85 35.023) rotate(-0.55)"/></g></g></svg>