<svg xmlns="http://www.w3.org/2000/svg" width="587" height="298.928" viewBox="0 0 587 298.928"><defs><style>.a{fill:#f5f2e8;}.b{fill:#ae835b;}.c,.u{fill:#e3e3e3;}.c{opacity:0.2;}.d{fill:#c99a6b;}.e{fill:#87623f;}.f{fill:#d6b28e;}.g{fill:#edbc8e;}.h{fill:#e8b687;}.i{fill:#f7cca3;}.j{fill:#d1a986;}.k{fill:#ad8057;}.l{fill:#ebedfa;}.m{fill:#e1e7f7;}.n{fill:#edf5fc;}.o{fill:#f0f2ff;}.p{fill:#f7f8ff;}.q{fill:#f2f4ff;}.r{fill:#dfe3ff;}.s{fill:#d5e7f7;}.t{fill:#d1d7ff;}.v{fill:#ebcbab;}.w{fill:#9c754e;}.x{fill:#54493e;}.y{fill:#d9af84;}.z{fill:#484848;opacity:0.1;}</style></defs><g transform="translate(0 -781.072)"><g transform="translate(-11849 6.106)"><path class="a" d="M17.4,55.492l3.377-2.618a3.036,3.036,0,0,1,3.848,0,2.225,2.225,0,0,1-.6,3.324l-3.377,2.618a3.037,3.037,0,0,1-3.848,0,2.225,2.225,0,0,1,.6-3.324Z" transform="translate(12239.366 950.422)"/><path class="b" d="M139.84,46.74l-.5,1.387-22.407-6.911L46.52.59Z" transform="translate(12288.255 866.954)"/><path class="b" d="M111.017.6,37.486,43.033,7.1,44.943,6.65,43.425Z" transform="translate(12223.758 866.971)"/><path class="c" d="M73.557,23.73l45.1,83.085H70.416L0,66.189Z" transform="translate(12213 904.388)"/><path class="d" d="M45.33,120.1l73.531-42.459V15.52L45.33,57.979Z" transform="translate(12286.329 891.106)"/><path class="e" d="M118.861,15.52,45.33,57.979l38.9-21.229Z" transform="translate(12286.329 891.106)"/><path class="b" d="M88.862,119,18.42,78.318V16.2L88.862,56.879Z" transform="translate(12242.798 892.206)"/><path class="e" d="M53.636,70.09,37.93,60.981V42.84l15.706,9.11ZM38.872,60.378l13.743,7.853V52.525L38.872,44.672Z" transform="translate(12274.36 935.301)"/><path class="e" d="M43.732,57.905,40.25,55.916V46.78l3.482,1.989Z" transform="translate(12278.111 941.675)"/><path class="e" d="M49.28,54.654,38.94,48.686,44.1,45.44Z" transform="translate(12275.992 939.507)"/><path class="f" d="M9.67,29.04l93.346,7.068v1.544L80.583,70.478,10.194,29.851Z" transform="translate(12228.644 912.977)"/><path class="f" d="M149.095,30.724,75.59,73.183,45.33,36.326V34.781L149.671,29.86Z" transform="translate(12286.329 914.304)"/><path class="g" d="M32.6,16.22l70.416,40.626L80.086,90.405,9.67,49.779Z" transform="translate(12228.644 892.239)"/><path class="g" d="M69.451,7.068,139.84,47.694l-22.9-7.068L46.52,0Z" transform="translate(12288.255 866)"/><path class="h" d="M91.987,0l70.389,40.626L88.846,83.085,18.43,42.459Z" transform="translate(12242.813 866)"/><path class="d" d="M19.13,41.759,90.828.4l68.531,39.527L87.687,81.312Z" transform="translate(12243.945 866.647)"/><path class="i" d="M149.671,53.058l-73.5,42.459L45.33,57.953,118.861,15.52Z" transform="translate(12286.329 891.106)"/><path class="h" d="M111.017.01,37.486,42.443,6.65,44.38,80.181,1.947Z" transform="translate(12223.758 866.016)"/><path class="j" d="M60.648,23.387l-.6.314-.236-.131.628-.34Z" transform="translate(12309.753 903.579)"/><path class="k" d="M40.06,34.314l13.769,7.932,16.91-9.764L56.97,24.55Z" transform="translate(12277.806 905.714)"/><path class="b" d="M46.52,63.617V.4l68.531,39.527L60.289,71.549Z" transform="translate(12288.255 866.647)"/><path class="l" d="M128.2,34.086,75.247,64.634,43.207,46.153l-7.958-4.607L26.82,36.7,33.7,35.159l10.968-9.188,13.219-4.188,8.4-7.12L78.388,10.71l6.832,1.283,6.937,4.345,9.895,2.958,9.24,4.031,8.167,6.806Z" transform="translate(12256.388 883.325)"/><path class="m" d="M40.114,19.43H35.3a3.167,3.167,0,1,0,0,6.335h4.817a3.167,3.167,0,1,0,0-6.335Z" transform="translate(12264.976 897.431)"/><path class="m" d="M45.863,32.684l4.293-2.2A3.179,3.179,0,1,0,47.25,24.83l-4.293,2.2a3.179,3.179,0,0,0,2.906,5.654Z" transform="translate(12279.697 905.617)"/><path class="m" d="M49.042,20.93l2.8,3.927a3.2,3.2,0,0,0,5.235-3.691l-2.8-3.927a3.2,3.2,0,1,0-5.235,3.691Z" transform="translate(12291.387 891.691)"/><path class="m" d="M59.081,26.327l4.293-2.2a3.173,3.173,0,0,0-2.879-5.654l-4.293,2.2a3.173,3.173,0,0,0,2.879,5.654Z" transform="translate(12301.112 895.325)"/><path class="n" d="M49.031,30.493l4.738.89a3.194,3.194,0,0,0,1.152-6.256l-4.607-.864a3.168,3.168,0,0,0-1.152,6.23Z" transform="translate(12288.335 905.163)"/><path class="n" d="M47.017,20.8l-3.665,3.115a3.176,3.176,0,1,0,4.11,4.843l3.665-3.115a3.176,3.176,0,0,0-4.11-4.843Z" transform="translate(12281.316 898.421)"/><path class="n" d="M49.9,11.466l-3.665,3.141a3.176,3.176,0,0,0,4.11,4.843l3.665-3.141a3.176,3.176,0,0,0-4.11-4.843Z" transform="translate(12285.976 883.328)"/><path class="o" d="M59.968,22.563,55.91,19.946a3.167,3.167,0,1,0-3.429,5.235L56.539,27.8a3.167,3.167,0,1,0,3.429-5.235Z" transform="translate(12294.885 896.942)"/><path class="o" d="M59.253,21.562,55.929,25.07a3.176,3.176,0,1,0,4.607,4.372L63.86,25.96a3.194,3.194,0,1,0-4.607-4.4Z" transform="translate(12302.064 898.99)"/><path class="o" d="M57.5,15.65l-4.057-2.618a3.194,3.194,0,1,0-3.429,5.235L54.1,20.885a3.167,3.167,0,0,0,3.4-5.235Z" transform="translate(12290.65 885.584)"/><path class="o" d="M42.783,21.9l-4.817-.236A3.171,3.171,0,0,0,37.653,28l4.817.236a3.171,3.171,0,1,0,.314-6.335Z" transform="translate(12269.034 901.036)"/><path class="o" d="M48.538,12.769l-4.817-.236a3.141,3.141,0,0,0-3.324,3.01A3.194,3.194,0,0,0,43.407,19l4.817.236a3.171,3.171,0,1,0,.314-6.335Z" transform="translate(12278.33 886.266)"/><path class="p" d="M58.945,14.939l-4.241,2.3a3.174,3.174,0,0,0,3.037,5.576l4.241-2.3a3.174,3.174,0,0,0-3.037-5.576Z" transform="translate(12298.813 889.541)"/><path class="p" d="M50.174,27.294l-4.738.838a3.2,3.2,0,0,0,1.073,6.309l4.712-.89a3.167,3.167,0,0,0,2.618-3.665A3.22,3.22,0,0,0,50.174,27.294Z" transform="translate(12282.193 910.09)"/><path class="p" d="M39.687,24.646a3.167,3.167,0,0,1-1.754,3.377L30.08,23.416a3.3,3.3,0,0,1,1.283-.55L36,22.029a3.194,3.194,0,0,1,3.691,2.618Z" transform="translate(12261.66 901.56)"/><path class="p" d="M66.748,17.93l-4.738.838a3.174,3.174,0,1,0,1.073,6.256l4.764-.838a3.167,3.167,0,0,0,2.618-3.665A3.22,3.22,0,0,0,66.748,17.93Z" transform="translate(12309.046 894.927)"/><path class="p" d="M48.558,15.09l-4.738.838a3.174,3.174,0,0,0,1.073,6.256l4.764-.838a3.167,3.167,0,0,0,2.618-3.665,3.22,3.22,0,0,0-3.717-2.591Z" transform="translate(12279.619 890.333)"/><path class="p" d="M43.487,16.161l-4.817-.236a3.194,3.194,0,1,0-.314,6.361l4.817.236a3.194,3.194,0,0,0,.314-6.361Z" transform="translate(12269.745 891.722)"/><path class="q" d="M46.753,23.182,42.7,20.564a3.194,3.194,0,0,0-3.429,5.366l4.057,2.618a3.167,3.167,0,1,0,3.429-5.235Z" transform="translate(12274.462 898.653)"/><path class="q" d="M47.614,24.79l4.607-1.361a3.177,3.177,0,1,0-1.78-6.1L45.834,18.69a3.141,3.141,0,0,0-2.173,3.927,3.22,3.22,0,0,0,3.953,2.173Z" transform="translate(12283.418 893.826)"/><path class="q" d="M51.252,28.749l4.633-1.361a3.194,3.194,0,0,0-1.806-6.1L49.42,22.65a3.167,3.167,0,0,0-2.173,3.927,3.22,3.22,0,0,0,4.005,2.173Z" transform="translate(12289.228 900.337)"/><path class="q" d="M52.509,21.252l2.33-4.214a3.176,3.176,0,0,0-5.549-3.089l-2.33,4.214a3.167,3.167,0,0,0,1.23,4.319A3.22,3.22,0,0,0,52.509,21.252Z" transform="translate(12288.313 885.924)"/><path class="q" d="M34.267,25.628,37.7,22.251a3.175,3.175,0,0,0-4.45-4.529L29.817,21.1a3.175,3.175,0,0,0,4.45,4.529Z" transform="translate(12259.698 893.197)"/><path class="q" d="M55.836,30.334l4.633-1.361a3.141,3.141,0,0,0,2.147-3.927,3.194,3.194,0,0,0-3.927-2.173l-4.633,1.361a3.194,3.194,0,0,0-2.147,3.953,3.141,3.141,0,0,0,3.927,2.146Z" transform="translate(12296.766 902.809)"/><path class="r" d="M17.507,41.808H12.8a3.194,3.194,0,0,0,0,6.361h4.712a3.194,3.194,0,1,0,0-6.361Z" transform="translate(12229.001 933.611)"/><path class="r" d="M77.758,54.858l4.712-.942a3.173,3.173,0,1,0-1.2-6.23l-4.738.916a3.194,3.194,0,1,0,1.23,6.256Z" transform="translate(12332.328 943.046)"/><path class="r" d="M39.862,66.131l4.293-2.2a3.179,3.179,0,1,0-2.906-5.654l-4.293,2.2a3.179,3.179,0,1,0,2.906,5.654Z" transform="translate(12269.99 959.705)"/><path class="s" d="M27.966,66.095l4.738.89a3.17,3.17,0,1,0,1.178-6.23l-4.738-.89a3.17,3.17,0,0,0-1.178,6.23Z" transform="translate(12254.063 962.751)"/><path class="s" d="M49.5,60.556,45.811,63.7a3.194,3.194,0,0,0,4.136,4.843L53.612,65.4a3.176,3.176,0,0,0-4.11-4.843Z" transform="translate(12285.588 962.74)"/><path class="o" d="M39.391,61.458,35.333,58.84A3.194,3.194,0,0,0,31.9,64.075l4.084,2.618a3.167,3.167,0,0,0,3.4-5.235Z" transform="translate(12263.08 960.818)"/><path class="r" d="M24.168,57.355l4.738.89a3.194,3.194,0,0,0,1.178-6.256l-4.738-.89a3.194,3.194,0,0,0-1.152,6.256Z" transform="translate(12248.359 948.639)"/><path class="o" d="M20.9,51.836l-3.665,3.115a3.176,3.176,0,0,0,4.11,4.843l3.665-3.115a3.176,3.176,0,1,0-4.11-4.843Z" transform="translate(12239.064 948.634)"/><path class="o" d="M36.793,57.767,32.736,55.15a3.167,3.167,0,1,0-3.4,5.235L33.39,63a3.167,3.167,0,0,0,3.4-5.235Z" transform="translate(12257.354 953.854)"/><path class="o" d="M70.269,55.876l4.4,1.937A3.187,3.187,0,1,0,77.284,52L72.86,50.064a3.181,3.181,0,0,0-2.591,5.811Z" transform="translate(12323.665 946.558)"/><path class="r" d="M69.935,63.105l4.345-2.094a3.167,3.167,0,1,0-2.618-5.733l-4.345,2.094a3.167,3.167,0,0,0-1.492,4.241A3.22,3.22,0,0,0,69.935,63.105Z" transform="translate(12318.974 954.72)"/><path class="o" d="M22.553,47.458l-4.817-.236a3.171,3.171,0,0,0-.314,6.335l4.817.236a3.171,3.171,0,0,0,.314-6.335Z" transform="translate(12236.31 942.384)"/><path class="t" d="M16.2,49.523,12.14,46.906a3.167,3.167,0,1,0-3.429,5.235l4.057,2.618A3.167,3.167,0,1,0,16.2,49.523Z" transform="translate(12224.079 940.555)"/><path class="t" d="M76.758,58.689H81.6a3.194,3.194,0,0,0,0-6.361H76.732a3.194,3.194,0,1,0,0,6.361Z" transform="translate(12331.495 950.629)"/></g><g transform="translate(0 781.072)"><path class="u" d="M135.3,127.668,93.34,103.461,135.3,79.23l27.4,48.438Z" transform="translate(139.35 118.285)"/><path class="a" d="M110.2,114.108,68.24,89.9,110.2,65.67l27.4,48.438Z" transform="translate(101.878 98.041)"/><path class="u" d="M73.583,185.077,11.11,149,137.153,76.26,100.98,185.077Z" transform="translate(16.586 113.851)"/><path class="a" d="M77.021,126.4,13.9,89.952l60.08-34.7L104.418,126.4Z" transform="translate(20.752 82.485)"/><path class="d" d="M110.29,14.62V152.379L83.341,167.935l-6.731,3.889-26.4,15.232V49.3l26.4-15.232,6.731-3.889Z" transform="translate(74.96 21.827)"/><path class="b" d="M88.011,50.357V188.116l-28.594-16.5L52.661,167.7,24.89,151.669V13.91L52.661,29.964l6.756,3.889Z" transform="translate(37.159 20.767)"/><path class="e" d="M55.817,47.722,44,40.891V27.28l11.817,6.781ZM44.748,40.443l10.3,5.933V34.559l-10.3-5.933Z" transform="translate(65.689 40.727)"/><path class="e" d="M48.433,38.756,45.84,37.236V30.38L48.433,31.9Z" transform="translate(68.436 45.355)"/><path class="e" d="M52.578,36.235,44.8,31.773l3.889-2.443Z" transform="translate(66.883 43.788)"/><path class="h" d="M88.011,71.148,24.89,34.677,84.97,0l63.121,36.447Z" transform="translate(37.159)"/><path class="v" d="M98.616,46.6,35.47,10.129,42.2,6.24l63.146,36.447Z" transform="translate(52.954 9.316)"/><path class="w" d="M42.786,24.239V162l-6.756-3.914V20.35Z" transform="translate(53.79 30.381)"/><path class="x" d="M42.786,45.021l60.08-34.677L96.11,6.43l-60.08,34.7Z" transform="translate(53.79 9.6)"/><path class="e" d="M24.89,13.91,88.011,50.382,54.78,32.158Z" transform="translate(37.159 20.767)"/><path class="e" d="M110.29,14.62l-60.08,34.7L83.441,31.1Z" transform="translate(74.96 21.827)"/><path class="j" d="M36.65,7.294l.474-.274L68.061,24.869,98.35,7.394l.474.249L68.51,25.144l31.735,18.323-.474.274L68.036,25.418,38.744,42.345l-.474-.274L67.587,25.144Z" transform="translate(54.716 10.48)"/><path class="y" d="M67.531,20.86V158.619L60.8,162.508V24.749Z" transform="translate(90.77 31.143)"/><path class="d" d="M96.06,128.425l41.931-24.206V56.08L96.06,80.286Z" transform="translate(143.411 83.724)"/><path class="e" d="M137.991,56.08,96.06,80.286,118.7,68.171Z" transform="translate(143.411 83.724)"/><path class="b" d="M121.186,128.425,79.23,104.219V56.08l41.956,24.206Z" transform="translate(118.285 83.724)"/><path class="e" d="M100.3,79.417l-8.85-4.986V64.16l8.85,4.986Zm-8.2-5.435,7.7,4.437V69.595l-7.7-4.437Z" transform="translate(136.529 95.787)"/><path class="e" d="M94.829,72.727,92.86,71.605V66.47l1.969,1.122Z" transform="translate(138.634 99.235)"/><path class="e" d="M97.9,70.85,92.09,67.51l2.892-1.82Z" transform="translate(137.484 98.071)"/><path class="h" d="M121.186,94.8,79.23,70.591,121.186,46.36l41.931,24.231Z" transform="translate(118.285 69.212)"/><path class="y" d="M103.64,82.76l6.731-3.889V59.85l-6.731,3.889Z" transform="translate(154.728 89.352)"/><path class="v" d="M128.766,78.235,86.81,54.029l6.756-3.889L135.5,74.346Z" transform="translate(129.601 74.856)"/><path class="e" d="M79.23,56.08l41.956,24.206L98.55,68.171Z" transform="translate(118.285 83.724)"/><path class="w" d="M92.791,82.905,86.06,79.016v-19l6.731,3.889Z" transform="translate(128.482 89.606)"/><path class="x" d="M92.791,78.42l41.931-24.231L127.991,50.3,86.06,74.531Z" transform="translate(128.482 75.095)"/><path class="j" d="M87.794,75.536,129.725,51.3l-.449-.274L87.32,75.261Z" transform="translate(130.363 76.184)"/><path class="j" d="M87.32,75.575l22.287-12.864L89.439,51.069l.4-.249,20.168,11.642,19.27-11.118.449.274L110.479,62.736l21.315,12.315-.4.224L110.08,62.961,87.794,75.849Z" transform="translate(130.363 75.871)"/><path class="b" d="M92.791,63.909v.773l-4.113-2.194L86.06,60.843V60.02Z" transform="translate(128.482 89.606)"/><path class="b" d="M107.379,62.542l-3.739,1.994v-.8l6.731-3.889v.823Z" transform="translate(154.728 89.352)"/><path class="d" d="M121.16,131.176l41.956-24.206V76.88L121.16,101.086Z" transform="translate(180.884 114.777)"/><path class="b" d="M146.286,131.176,104.33,106.97V76.88l41.956,24.206Z" transform="translate(155.758 114.777)"/><path class="e" d="M125.35,100.532l-8.85-4.986V85.25l8.85,4.986Zm-8.252-5.46,7.678,4.512V90.71L117.1,86.272Z" transform="translate(173.927 127.273)"/><path class="e" d="M119.834,93.8l-1.944-1.122V87.57l1.944,1.122Z" transform="translate(176.002 130.736)"/><path class="e" d="M122.919,91.965l-5.809-3.341,2.917-1.845Z" transform="translate(174.837 129.557)"/><path class="h" d="M146.286,115.583,104.33,91.376,146.286,67.17l41.956,24.206Z" transform="translate(155.758 100.28)"/><path class="w" d="M117.961,103.77l-6.731-3.889V80.86l6.731,3.889Z" transform="translate(166.059 120.719)"/><path class="x" d="M117.961,99.245l41.956-24.206-6.731-3.889L111.23,95.356Z" transform="translate(166.059 106.222)"/><path class="e" d="M104.33,76.88l41.956,24.206L123.65,89Z" transform="translate(155.758 114.777)"/><path class="j" d="M112.949,96.361,154.9,72.129l-.474-.249L112.5,96.086Z" transform="translate(167.955 107.312)"/><path class="u" d="M41.956,122.108,0,97.876,41.956,73.67l27.4,48.438Z" transform="translate(0 109.984)"/><path class="d" d="M27.82,136.425l41.931-24.231V64.08L27.82,88.286Z" transform="translate(41.533 95.667)"/><path class="b" d="M52.946,136.425,10.99,112.194V64.08L52.946,88.286Z" transform="translate(16.407 95.667)"/><path class="e" d="M31.96,87.522l-8.85-5.111V72.24l8.85,5.111Zm-8.252-5.435L31.387,86.6V77.7l-7.678-4.437Z" transform="translate(34.502 107.849)"/><path class="e" d="M26.444,80.792,24.5,79.671V74.56l1.944,1.122Z" transform="translate(36.577 111.313)"/><path class="e" d="M29.514,78.94,23.73,75.6l2.892-1.82Z" transform="translate(35.427 110.149)"/><path class="h" d="M52.946,102.8,10.99,78.591,52.946,54.36,94.877,78.591Z" transform="translate(16.407 81.156)"/><path class="y" d="M35.4,90.76l6.731-3.889V67.85L35.4,71.739Z" transform="translate(52.85 101.295)"/><path class="v" d="M60.526,86.235,18.57,62.029,25.3,58.14,67.257,82.346Z" transform="translate(27.724 86.799)"/><path class="j" d="M61.776,83.321,19.82,59.114l.4-.224L62.15,83.1Z" transform="translate(29.59 87.919)"/><path class="e" d="M10.99,64.08,52.946,88.286,30.31,76.171Z" transform="translate(16.407 95.667)"/><path class="d" d="M47.16,173.476,173.2,100.708V84.03L47.16,156.8Z" transform="translate(70.407 125.451)"/><path class="b" d="M84.573,151.486,22.1,115.413V98.76l62.473,36.048Z" transform="translate(32.994 147.442)"/><path class="e" d="M50.619,124.553l-7.479-4.313v-8.6l7.479,4.338Zm-6.98-4.537,6.482,3.764V116.3l-6.482-3.764Z" transform="translate(64.405 166.671)"/><path class="e" d="M45.955,118.885l-1.645-.947V113.6l1.645.947Z" transform="translate(66.152 169.597)"/><path class="e" d="M48.546,117.3l-4.886-2.817L46.1,112.94Z" transform="translate(65.181 168.612)"/><path class="h" d="M84.573,178.387,22.1,142.339,148.143,69.57l62.473,36.048Z" transform="translate(32.994 103.863)"/><path class="y" d="M71.61,114.352l6.731-3.889V97.55l-6.731,3.889Z" transform="translate(106.909 145.636)"/><path class="v" d="M109.023,123.042,46.55,86.969l6.756-3.889,62.448,36.073Z" transform="translate(69.496 124.033)"/><path class="e" d="M22.1,98.76l62.473,36.048L51.691,116.784Z" transform="translate(32.994 147.442)"/><path class="w" d="M39.8,121.872l-6.756-3.889V105.07l6.756,3.889Z" transform="translate(49.326 156.862)"/><path class="x" d="M39.8,152.538,165.839,79.769l-6.756-3.889L33.04,148.649Z" transform="translate(49.326 113.284)"/><path class="j" d="M34.784,149.653,160.826,76.884l-.474-.274L34.31,149.4Z" transform="translate(51.223 114.374)"/><path class="j" d="M39.8,108.959v.8l-4.113-2.194-2.643-1.645v-.848Z" transform="translate(49.326 156.862)"/><path class="z" d="M107.022,116.687H82.093L47.89,96.918,85.633,75.13Z" transform="translate(71.497 112.164)"/><path class="d" d="M71.61,118.329,113.566,94.1V74.03L71.61,98.261Z" transform="translate(106.909 110.522)"/><path class="b" d="M96.736,118.329,54.78,94.1V74.03L96.736,98.261Z" transform="translate(81.783 110.522)"/><path class="e" d="M75.259,95.423,67.78,91.111v-8.6l7.479,4.313Zm-6.93-4.612,6.482,3.764V87.1l-6.482-3.739Z" transform="translate(101.191 123.182)"/><path class="e" d="M70.6,89.755l-1.645-.972V84.47l1.645.947Z" transform="translate(102.938 126.108)"/><path class="e" d="M73.186,88.173,68.3,85.331l2.443-1.521Z" transform="translate(101.967 125.123)"/><path class="h" d="M96.736,112.758,54.78,88.526,96.736,64.32l41.956,24.206Z" transform="translate(81.783 96.025)"/><path class="y" d="M79.19,100.72l6.731-3.914v-19L79.19,81.7Z" transform="translate(118.225 116.165)"/><path class="v" d="M104.3,96.21,62.37,71.979,69.1,68.09l41.931,24.231Z" transform="translate(93.114 101.654)"/><path class="e" d="M54.78,74.03,96.736,98.261,74.1,86.146Z" transform="translate(81.783 110.522)"/><path class="w" d="M68.341,100.88,61.61,96.991V77.97l6.731,3.889Z" transform="translate(91.98 116.404)"/><path class="x" d="M68.341,96.355,110.3,72.149l-6.756-3.889L61.61,92.466Z" transform="translate(91.98 101.908)"/><path class="j" d="M62.88,93.51,85.142,80.646,64.974,69l.4-.224L85.566,80.422,104.811,69.3l.474.249L86.014,80.7l21.315,12.29-.4.224L85.616,80.921,63.329,93.784Z" transform="translate(93.876 102.684)"/><path class="j" d="M68.341,81.859v.8l-4.113-2.194-2.618-1.67V77.97Z" transform="translate(91.98 116.404)"/><path class="e" d="M113.566,74.03,71.61,98.261,94.246,86.146Z" transform="translate(106.909 110.522)"/><path class="j" d="M82.929,80.5,79.19,82.5v-.8l6.731-3.889v.8Z" transform="translate(118.225 116.165)"/></g></g></svg>