<svg xmlns="http://www.w3.org/2000/svg" width="934.463" height="491.187" viewBox="0 0 934.463 491.187"><defs><style>.a{fill:#ebf9fe;}.b{fill:#c0f3da;}.c{fill:#a4e5fb;}.d{fill:#38d88b;}.e{fill:#43c9f7;}.f{fill:#22bff6;}.g{fill:#b4e9fc;}.h{fill:#95e0fb;}.i{fill:#34d789;}.j{fill:#7ad9fa;}.k{fill:#44da92;}.l{fill:#48db95;}.m{fill:#93e0fb;}.n{fill:#71e3ac;}.o{fill:#7fdafa;}.p{fill:#97ebc3;}.q{opacity:0.5;}.r{fill:#daf8ea;}.s{fill:#c8effd;}.t{fill:#b2e9fc;}.u{fill:#f4fcff;}.v{fill:#c8f4df;}.w{fill:#7dd9fa;}.x,.z{fill:#5ed0f8;}.y{fill:#9ce2fb;}.z{opacity:0.4;}.aa{fill:#50ccf8;}.ab{fill:#d9f4fd;}.ac{fill:#baebfc;}.ad{fill:#cef5e3;}</style></defs><g transform="translate(-394 -484.298)"><g transform="translate(394 484.298)"><path class="a" d="M325.453,595.7S216.717,478.954,307.064,352.558c80.162-112.147,173.622-104.481,242.192-58.971,29.205,19.383,113.406,2.389,185.073-111.725,97.733-155.62,436.51-61.236,374.74,178.189-29.892,115.865,90.974,120.076,29.388,235.895Z" transform="translate(-249.437 -105.688)"/><path class="b" d="M482.232,1249.927s37.872-90.907,117.1-41.882c59.978,37.114,135.389-10.912,174.655-65.661s276.133.706,328.836,67.562c22.139,28.084,75.73,2.391,84.258,38.9Z" transform="translate(-385.495 -759.669)"/><g transform="translate(435.863 93.305)"><path class="c" d="M1770.815,895.514c.069-3.714,2.95-10.05-2.739-16.068a119.622,119.622,0,0,1-9.284-11.551c-.616-.963-7.5,4.7-7.352,4.927,1.132,1.679,6.327,10.227,7.081,14.994.824,5.373,10.029,11.254,10.029,11.254S1770.795,899.208,1770.815,895.514Z" transform="translate(-1639.57 -690.289)"/><path class="c" d="M1717.71,691.524l-10.919.143s-17.078-26.983-17.6-35.544c-.5-8.175-16.916-43.952,2.3-66.289a35.776,35.776,0,0,1,2.83-2.949,1.179,1.179,0,0,1,.11-.1s.033.053.095.157a42.931,42.931,0,0,1,3.7,9.507c2.8,9.53,6.263,27.221,7.082,57.776C1705.308,654.221,1712.907,680.378,1717.71,691.524Z" transform="translate(-1594.923 -509.137)"/><path class="d" d="M1676.281,478.392s-1.178,3.188.562,4.438-4.419,6.982-5.608,11.8.3,7.371.3,7.371-.178-2.913.892-4.339c0,0-1.149,3.309.753,5.766s.785,3.7.785,3.7,6.031.1,7.5-3.983a11.453,11.453,0,0,1-.793,2.655s5.889-2.061,7.423-6.1-1.335-8.775-3.123-9.412-4.7-5.469-4.161-6.777S1676.281,478.392,1676.281,478.392Z" transform="translate(-1587.569 -439.262)"/><path class="e" d="M1584.75,1046.1l-7.067,2.631s-30.7-42.572-34.474-80.029a56.878,56.878,0,0,1,1.01-19.15s-.3-1.713-.826-4.743c-.242-1.413-.542-3.115-.883-5.066-1-5.718-2.371-13.541-3.941-22.449-3.611-20.5-8.291-46.706-11.925-65.97l1.9-.612,20.6-6.646,4.258-13.525,15.342-4.038s3.427,6.7,6.491,38.373c.565,4.154,1.079,8.736,1.465,13.7a271.138,271.138,0,0,1-1.459,55.475q-1.056,8.256-2.694,17.027c-.808,4.281-.929,10.114-.589,16.812C1573.511,998.518,1584.75,1046.1,1584.75,1046.1Z" transform="translate(-1494.653 -663.68)"/><path class="f" d="M1576.707,876.024l-33.314,66.23c-.242-1.413-.542-3.115-.883-5.066-1-5.718-2.371-13.541-3.941-22.449-3.611-20.5-8.291-46.706-11.925-65.97l1.9-.612,20.6-6.646,4.258-13.525,18.326-5.45s.443,8.115,3.506,39.785C1575.807,866.475,1576.32,871.056,1576.707,876.024Z" transform="translate(-1494.653 -661.119)"/><path class="d" d="M1643.893,387.431l-33.271,26.936s-.97-5.845-4.395-4.946c-5.341,1.4-13.535-12.921-7.229-25.871.414-.846,5.535-13.666,21.92-15.28C1641.984,369.885,1643.893,387.431,1643.893,387.431Z" transform="translate(-1539.825 -368.271)"/><path class="g" d="M1617.645,537.433a40.231,40.231,0,0,1-14.88,3.485c-22.214,1.217-27.256-18.255-28.173-31.179a18.628,18.628,0,0,1,7.621-.963c1.576.086,3.22.248,4.575.415,2.718-1.419,7.6-8.314,10.42-19.848l.958.445,16.028,7.535s-1.7,5.216-2.959,10.207c-.981,3.906-1.685,7.679-1.1,8.735,1.264.514,2.02.837,2.02.837a.046.046,0,0,0,.005.017A109.979,109.979,0,0,1,1617.645,537.433Z" transform="translate(-1525.563 -446.322)"/><path class="h" d="M1557.307,586.485c-.167.442-.352.875-.552,1.322-5.626,12.117-20.916,52.151-20.916,52.151,1.484,9.026-62.941,8.384-63.122.166-1.959-7.005,4.827-17.42,10.814-24.887,1.465-1.821,2.877-3.462,4.1-4.841a20.185,20.185,0,0,0,2.1-2.829,19.733,19.733,0,0,0,2.839-8.285,197.186,197.186,0,0,0,.865-21.438c-.009-2.963-.033-5.588,0-7.761,1.222-.908,2.406-1.745,3.51-2.54a31.075,31.075,0,0,0,4.266-3.543,6.452,6.452,0,0,0,2.049-4.033,21.791,21.791,0,0,0-.086-3.381c-.052-.537-.123-1.07-.2-1.608a45.844,45.844,0,0,0-3.22-10.752c5.964-2.411,16.559-.975,16.559-.975s-.009.59-.014,1.555c-.038,3.871,0,13.81,1.241,15.693,1.55,2.34,29.941,12.607,31.444,9.426,1.475-3.125-2.568-17.777-2.72-18.328a.075.075,0,0,1,0-.019c.3.119.6.238.889.352,1.446.59,2.7,1.265,3.9,1.7,7.723,2.82,8.451,5.388,8.451,5.388C1553.773,562.735,1561.739,574.733,1557.307,586.485Z" transform="translate(-1459.667 -480.801)"/><path class="h" d="M1656.964,498.139s-1.7,5.21-2.96,10.206c-9.368-2.614-12.214-12.462-13.07-17.741Z" transform="translate(-1568.332 -447.135)"/><path class="g" d="M1656.53,453.377s-22.414-5.187-18.969-19.1,2.872-23.946,17.329-21.222,15.912,8.717,15.891,13.64S1662.449,454.368,1656.53,453.377Z" transform="translate(-1565.925 -396.856)"/><path class="d" d="M1661.82,414.2c-2.41-5.041-5.246-4.772-7.02-3.879-10.532-9.744-20.862-1.783-20.862-1.783a27.373,27.373,0,0,1-12.593,13.53s3.443,3.526,13.423,3.448c3.049-.023,6.114-1.423,8.9-3.352a53.679,53.679,0,0,1-11.687,8.716c12.493-2.391,20.871-16.854,21.729-18.39,1.058,1.563,3.082,4.89,3.253,7.7.232,3.818-1.082,11.231,1.1,11.512C1658.069,431.705,1665.433,421.763,1661.82,414.2Z" transform="translate(-1555.703 -392.257)"/><path class="i" d="M1687.149,1446.706h-35.593s-1.331-5.677,1.006-9.54c2.069-3.418,1.9-5.5.367-8.325a11.075,11.075,0,0,0,5.372,1.261c1.773-.1,3.741-1.355,5.386-2.31,1.532,1.747,8,9.629,10.049,11.1C1676.061,1440.564,1686.433,1439.969,1687.149,1446.706Z" transform="translate(-1574.936 -1051.305)"/><path class="j" d="M1528.6,652c-9.293-.656-18.138-1.479-24.82-3.082,1.465-1.822,2.877-3.462,4.1-4.841a20.2,20.2,0,0,0,2.1-2.83,19.731,19.731,0,0,0,2.839-8.285,197.219,197.219,0,0,0,.866-21.438c8.1-9.074,14.909-16.45,14.909-16.45s15.1,13.844,17.443,27.635S1552.8,653.717,1528.6,652Z" transform="translate(-1479.911 -514.486)"/><path class="f" d="M1584.154,543.017a45.124,45.124,0,0,1,8.618,32.5h4.545s2.572-13.638-8.939-32.14c0,0-1.5-.213-1.99-.254C1585.82,543.074,1584.154,543.017,1584.154,543.017Z" transform="translate(-1531.728 -480.923)"/><path class="f" d="M1687.3,602.247l-4.413-1.089a46.015,46.015,0,0,0-.076-32.709c1.446.589,2.744,1.161,3.9,1.7C1692.835,590.13,1687.3,602.247,1687.3,602.247Z" transform="translate(-1595.331 -497.319)"/><path class="e" d="M1532.685,627.451s-21.884-5.7-28.059-7.285-6.662,2.061-6.662,2.061-.861,11.882-.955,13.1c-1.426,18.652-28.149,21.838-28.149,21.838s-6.9,8.6-12.823,17.059c-10.152,14.5-8.9,39-8.9,39h0a71.47,71.47,0,0,0-.032,9.679c.8,12.872,2.267,67.574,3.8,83.76.553,5.867,1.037,10.042,1.235,11.709a.031.031,0,0,1,0,.016,2.313,2.313,0,0,1-.376,1.433,75.992,75.992,0,0,0-5.648,11.879c-15.021,40.025,2.313,89.316,2.313,89.316l4.5-1.812s9.863-54.855,17.878-79.089a48,48,0,0,1,3.86-9.27c3.485-5.625,6.718-14.814,9.654-25.744,5.548-20.664,10.013-47.547,12.985-68.3.41.019,3.667-27.866,14.375-40.694l4.194-4.292,13.292-32.662s3.67-21.711,4.78-25.357A7.034,7.034,0,0,0,1532.685,627.451Z" transform="translate(-1438.792 -530.401)"/><g transform="translate(61.383 91.033)"><path class="j" d="M1609.361,626.361a1.9,1.9,0,1,1,1.9,1.9A1.9,1.9,0,0,1,1609.361,626.361Z" transform="translate(-1609.361 -624.459)"/><path class="h" d="M1610.324,626.361a1.9,1.9,0,1,1,1.9,1.9A1.9,1.9,0,0,1,1610.324,626.361Z" transform="translate(-1609.982 -624.459)"/><path class="k" d="M1612.493,628.455a.276.276,0,1,1,.179.347A.276.276,0,0,1,1612.493,628.455Z" transform="translate(-1611.372 -626.911)"/><path class="k" d="M1617.331,630a.277.277,0,1,1,.179.347A.276.276,0,0,1,1617.331,630Z" transform="translate(-1614.491 -627.907)"/></g><g transform="translate(88.802 97.204)"><path class="j" d="M1686.523,643.728a1.9,1.9,0,1,1,1.9,1.9A1.9,1.9,0,0,1,1686.523,643.728Z" transform="translate(-1686.523 -641.826)"/><path class="h" d="M1687.485,643.728a1.9,1.9,0,1,1,1.9,1.9A1.9,1.9,0,0,1,1687.485,643.728Z" transform="translate(-1687.143 -641.826)"/><path class="k" d="M1689.654,645.821a.276.276,0,1,1,.179.348A.277.277,0,0,1,1689.654,645.821Z" transform="translate(-1688.533 -644.278)"/><path class="k" d="M1694.494,647.367a.276.276,0,1,1,.179.347A.277.277,0,0,1,1694.494,647.367Z" transform="translate(-1691.653 -645.274)"/></g><path class="d" d="M1591.948,459.655s-1.178,3.188.562,4.438-4.419,6.983-5.608,11.8.3,7.371.3,7.371-.178-2.913.892-4.34c0,0-1.149,3.309.753,5.766s.785,3.7.785,3.7,6.031.1,7.5-3.982a11.448,11.448,0,0,1-.792,2.655s5.889-2.061,7.423-6.1-1.335-8.775-3.123-9.412-4.7-5.469-4.161-6.777S1591.948,459.655,1591.948,459.655Z" transform="translate(-1533.202 -427.183)"/><path class="h" d="M1714.17,596.45c-5.084.746-7.143,3.762-7.143,3.762s-.437-6.4.4-10.372a4.53,4.53,0,0,1,1.417-2.9,1.961,1.961,0,0,1,1.412-.048c.067.014.133.034.2.053A42.95,42.95,0,0,1,1714.17,596.45Z" transform="translate(-1610.866 -509.142)"/><g transform="translate(65.249 129.318)"><path class="k" d="M1729.465,808.845c-9.053.472-15.241-13.576-19.054-13.761a23.817,23.817,0,0,0-3.342.37,65.933,65.933,0,0,1,8.214,21.361c5.428,27.1-6.01,52.244-25.545,56.152-19,3.8-38.664-13.886-44.714-39.8q-.254-1.086-.476-2.2a66.009,66.009,0,0,1-.657-22.731.369.369,0,0,1,.008-.063,12.251,12.251,0,0,0-1.826.582c-3.452,1.641-3.751,16.984-12.292,20.035s-14.292-13.316-4.125-26.061c6.2-7.774,17.185-11.525,24.813-13.268a36.587,36.587,0,0,1,5.439-6.916c.075-.075.149-.154.228-.228a22.228,22.228,0,0,1-11.525-21.924c-.019,0-.035-.012-.055-.016a11.272,11.272,0,1,1,12.3-17.508,22.315,22.315,0,0,1,10.592-2.279,11.272,11.272,0,1,1,18.523,11.179,22.241,22.241,0,0,1-1.374,24.132,35.736,35.736,0,0,1,9.214,4.857c7.652-1.464,20.161-2.653,29.426,2.44C1737.533,791.054,1738.518,808.369,1729.465,808.845Z" transform="translate(-1620.241 -732.201)"/><path class="i" d="M1686.68,967.92q-.254-1.086-.476-2.2a66.006,66.006,0,0,1-.657-22.731c1.122-1.307,2.613-2.279,4.306-1.476,3.74,1.771,3.149,19.681,8.856,23.813C1702.94,968.392,1692.36,968.427,1686.68,967.92Z" transform="translate(-1661.897 -866.951)"/><path class="i" d="M1710.714,830.79a62.7,62.7,0,0,1-10.824,2.846c.075-.075.149-.154.228-.228a22.227,22.227,0,0,1-11.525-21.924c-.019,0-.035-.012-.055-.016.224-.091.512.047.886.575,1.425,2.019,9.12,18.353,21.29,16.484C1710.714,828.527,1713.894,829.609,1710.714,830.79Z" transform="translate(-1664.223 -783.285)"/><path class="i" d="M1767.316,752.274s2.854-5.314,7.085-3.936,4.821,7.479,2.066,9.151A25.679,25.679,0,0,0,1767.316,752.274Z" transform="translate(-1715.055 -742.457)"/><path class="i" d="M1693.91,766.521s-6.1-2.811-8.856.436,2.755,7.39,2.755,7.39S1690.466,768.84,1693.91,766.521Z" transform="translate(-1661.526 -753.598)"/></g><g transform="translate(29.293 62.935)"><path class="g" d="M1589.881,654.87l-1.966,7.278s-6.9-2.515-10.463-3.864c-1.067-.411-1.67-.682-1.67-.682-2.842-1.112-6.226-2.538-9.916-4.074l-.053-.01c-6.293-2.767-13.319-5.992-19.149-9.22a56.247,56.247,0,0,1-9.871-6.728,6.463,6.463,0,0,1-.642-.661c-5.35-5.585-10.288-20.064-13.424-35.2-.438-2.09-.823-4.17-1.217-6.2a146.282,146.282,0,0,1-2.387-21.083,57.469,57.469,0,0,1,.3-9.783,23.608,23.608,0,0,1,.432-2.693c2.862-15.243,10.821-15.979,10.821-15.979.167-.024.335-.049.555-.062,1.354.027,2.561,1.168,3.668,3.162a48.59,48.59,0,0,1,3.834,10.964c1.774,7.331,3.344,16.691,4.713,25.96.766,5.083,1.48,10.158,2.26,14.864.41,2.846.849,5.534,1.273,8a73.679,73.679,0,0,0,2.567,11.061c.576,1.625,2.626,4.115,5.418,7.011a239.3,239.3,0,0,0,18.5,16.712c2.643,2.217,5.156,4.247,7.244,5.928A50.008,50.008,0,0,0,1589.881,654.87Z" transform="translate(-1519.051 -545.727)"/><path class="h" d="M1541.058,559.8c-10.131-4.763-19.794,1.8-19.794,1.8,2.933-15.471,11.284-16.153,11.284-16.153C1535.985,544.735,1538.73,550.78,1541.058,559.8Z" transform="translate(-1520.478 -545.385)"/><path class="g" d="M1697.6,847.97a46.4,46.4,0,0,0,6.579,2.093c2.386.424,6.066-.759,9.089,1.213s5.175,3.284,5.175,3.284.737,1.118-.872,1.572c-.916.258-5.552-2.675-5.749-1.893s2.948,2.534,4.777,2.632,5.162,1.7,5.162,2.884-5.4,3.982-8.557,3.785-9.638-5.758-11.277-6.152-8.54-3.149-8.54-3.149Z" transform="translate(-1631.44 -740.451)"/></g><path class="i" d="M1472.4,1444.342h-35.594s-.853-5.425,1.006-9.54c1.781-3.949,4.9-5.9,4.235-10.682,2.261,2.329,5.371,4.572,10.517,3.879.63,1.022,4.315,7.017,6.421,8.531C1461.315,1438.2,1471.687,1437.606,1472.4,1444.342Z" transform="translate(-1436.614 -1048.939)"/></g><g transform="translate(608.143 76.174)"><g transform="translate(106.534 177.892)"><path class="d" d="M2527.955,1383.727s6.895,6.39,5.549,10.93-7.567,7.567-8.408,13.117-4.2,8.576-7.231,8.576h-14.431s-2.229-3.9,3.153-5.082,7.41-7.7,7.073-13.753a108.279,108.279,0,0,1,.505-14.125l11.435-2.691Z" transform="translate(-2402.875 -1181.708)"/><path class="d" d="M2260.414,1441.911a16.3,16.3,0,0,1-4.249.62h-34.9c.163-1.119,1.075-4.333,6.189-5.163,6.026-.976,16.471-4.481,18.8-12.188.073-.251.14-.5.2-.76,1.85-8.24,15.3,2.523,15.3,2.523s.041.329.1.889C2262.168,1430.854,2262.967,1440.633,2260.414,1441.911Z" transform="translate(-2221.265 -1207.89)"/><path class="l" d="M2243.182,852.615s2.043,25.492,4.444,56.135c3.264,41.626,7.189,92.757,7.578,102.443.671,16.82,3.364,43.725,3.364,43.725s6.387,6.392,19.171,3.7c0,0,11.392-38.407,14.646-79.045.051-.666.1-1.337.152-2.008,3.027-41.369,7.734-128.48,7.734-128.48Z" transform="translate(-2235.394 -838.994)"/><path class="d" d="M2243.182,852.615s2.043,25.492,4.444,56.135l44.759,70.821c.051-.666.1-1.337.152-2.008,3.027-41.369,7.734-128.48,7.734-128.48Z" transform="translate(-2235.394 -838.994)"/><path class="l" d="M2269.44,837.337s36.828,92.323,61.044,135.71,31.783,55.495,31.783,55.495,13.874-5.55,15.135-9.334c0,0-9.26-83.76-25.478-104.178-9.163-11.537-19.927-46.161-20.432-58.269s-3.279-36.071-3.279-36.071Z" transform="translate(-2252.322 -820.689)"/></g><path class="g" d="M2027.676,831.582s-13,6.238-14.745,7.839-6.066,9.461-5.735,10.053.978.775,2.156-.039,4.483-4.219,4.6-3.587-8.823,11.157-7.241,13.384,10.548,1.57,15.668-2.072,10.231-17.027,11-17.758C2039.914,833.2,2027.676,831.582,2027.676,831.582Z" transform="translate(-1976.298 -649.82)"/><path class="j" d="M2057.678,626.016c-3.608-3.139-3.7-3.934-3.7-3.934s23.045-39.85,25.042-43.682,14.348-63.681,14.348-63.681l42.7-12.38s-30.075,77.769-35.328,87.38c-8.679,15.883-37.015,39.258-37.015,39.258A13.323,13.323,0,0,1,2057.678,626.016Z" transform="translate(-2006.885 -437.569)"/><path class="g" d="M2160.566,422.351s-15.027,26.438-29.714,29.889c0,0,.612-8.879,4.188-14.956-1.464-1.727-2.75-3.314-3.864-4.734a88.622,88.622,0,0,1-5.455-7.638l4.984-13.4,3.383-9.093a43.681,43.681,0,0,0,5.285,7.616C2149,421.1,2160.566,422.351,2160.566,422.351Z" transform="translate(-2053.137 -373.154)"/><path class="m" d="M2139.373,423.844s1.793,13.249-8.2,22.516a88.616,88.616,0,0,1-5.455-7.638l4.984-13.4A28.483,28.483,0,0,1,2139.373,423.844Z" transform="translate(-2053.137 -386.964)"/><path class="g" d="M2080.107,392.655s22.452-8.753,16.786-22.65-6.584-24.387-21.158-19.386-15.18,11.433-14.417,16.531S2074.121,394.574,2080.107,392.655Z" transform="translate(-2011.483 -338.943)"/><path class="h" d="M2244.346,587.5c-9.054,13.019-76.773,30.416-75.964,21.407a98.159,98.159,0,0,0-.009-17.775q-.257-2.9-.72-6.141c-1.726-11.85-5.807-27.072-14.924-44.7q-1.025-1.982-2.131-4a136.549,136.549,0,0,1-9.387-21.092c-4.693-13.558-6.59-26.532-4.217-35.01a.43.43,0,0,1,.036-.117c14.152-6.545,19.636-31.926,19.636-31.926s48.29,8.667,75.344,73.033c0,0,2.6,7.067,5.565,16.66,3.605,11.634,7.759,26.973,8.478,37.915C2246.405,580.941,2245.973,585.149,2244.346,587.5Z" transform="translate(-2059.745 -402.627)"/><path class="k" d="M2084.933,325.305c.156-.311.614-.642,1.729-.984a4.671,4.671,0,0,0-2.261-.084c-.629-1.538-2.162-4.157-5.035-4.178a3.542,3.542,0,0,1,2.256,2.079c-3.938-2.5-11.238-3.221-29.462,2.849-24.016,8-12.017,21.942-8.378,23.059s10.342-6.056,16.369-7.035,9.287,7.416,11.584,8.112.992-1.214,3.4-3.127,3.788,2.588,3.736,5.749,4.639,6.158,4.639,6.158l2.752-5.048c2.752-5.047,2-23.37-.626-26.668C2085.4,325.9,2085.17,325.6,2084.933,325.305Z" transform="translate(-1996.301 -320.06)"/><path class="j" d="M2323.239,649.325c-58.27-17.577-67.54-87.05-67.54-87.05s33.177,25.355,59.061,49.135C2318.366,623.044,2322.519,638.383,2323.239,649.325Z" transform="translate(-2136.929 -476.207)"/><path class="g" d="M2488.834,807.532s-1.314,11.024-1,12.823,2.417,7.15,2.938,7.18,2.107.093,2.064-1.009-.759-2.132-.3-1.95.594,4.343,2.695,4.235,8.288-2.44,8.036-7.272-6.841-13.685-7-14.488C2494.945,800.247,2488.834,807.532,2488.834,807.532Z" transform="translate(-2286.549 -632.133)"/><path class="h" d="M2301.47,605.077c-4.623,2.118-6.339-.042-6.339-.042s-26.928-44.966-29.764-48.582-52.546-24.948-52.546-24.948-20.231-7.733-21.031-20.005c-.695-10.664,5.359-17.216,11.989-21.167a22.378,22.378,0,0,1,25.162,1.626c16.307,12.663,48.633,38.137,53.835,45.044,11.578,15.374,24.412,63.565,24.412,63.565A16.018,16.018,0,0,1,2301.47,605.077Z" transform="translate(-2095.694 -427.819)"/><g transform="translate(0 179.288)"><path class="n" d="M2119.507,902.5l-12.119,12.109-.167-.106L2089.03,903.1s9.413,3.039,10.686,2.684c1.2-.335,14.349-4.853,17.448-4.477a1.244,1.244,0,0,1,.452.127Z" transform="translate(-2029.484 -874.041)"/><path class="o" d="M2033.141,892.3c-.487-.106-1.929-.448-3.894-.951-5.647-1.446-15.606-4.22-19.538-6.494-3.527-2.041-22.163-12.876-35-20.488a23.79,23.79,0,0,1,14.41-2.592c14.989,8.8,34.572,20.349,36.969,22.034,3.943,2.773,9.315,6.127,9.315,6.127s-.02.152-.077.381C2035.142,891.063,2034.584,892.61,2033.141,892.3Z" transform="translate(-1955.784 -848.441)"/><path class="p" d="M1998.809,868.479c-.487-.106-1.929-.448-3.894-.951-5.647-1.446-15.606-4.22-19.537-6.494-3.527-2.041-22.163-12.876-35-20.488-6.447-3.821-11.433-6.83-12.309-7.5-2.619-2.014-7.662-7.048-6.422-8s3.66.006,4.569-.134l.039-.006c.213-.033.564-.088,1.049-.117,1.732-.1,5.165.137,10.055,2.959,0,0,7.758,4.531,17.429,10.208,14.989,8.8,34.572,20.349,36.969,22.034,3.942,2.773,9.315,6.127,9.315,6.127a3.862,3.862,0,0,1-.077.381C2000.81,867.241,2000.252,868.789,1998.809,868.479Z" transform="translate(-1921.452 -824.619)"/><path class="n" d="M2129.71,939.025c-.487-.1-1.929-.447-3.893-.95a5.759,5.759,0,0,0-1.311-4.024l7.388,2.992C2131.712,937.787,2131.154,939.336,2129.71,939.025Z" transform="translate(-2052.354 -895.166)"/><g class="q" transform="translate(4.801 0.168)"><g transform="translate(47.789 28.392)"><path class="n" d="M2093.879,920.037h0a.245.245,0,0,1-.086-.333l.132-.221a.244.244,0,0,1,.333-.086h0a.244.244,0,0,1,.086.333l-.131.221A.244.244,0,0,1,2093.879,920.037Z" transform="translate(-2085.123 -914.258)"/><path class="n" d="M2090.841,918.241h0a.244.244,0,0,1-.086-.333l.131-.222a.245.245,0,0,1,.333-.085h0a.245.245,0,0,1,.085.333l-.131.221A.243.243,0,0,1,2090.841,918.241Z" transform="translate(-2083.164 -913.1)"/><path class="n" d="M2087.8,916.445h0a.243.243,0,0,1-.086-.333l.131-.222a.244.244,0,0,1,.333-.086h0a.244.244,0,0,1,.085.333l-.131.222A.243.243,0,0,1,2087.8,916.445Z" transform="translate(-2081.205 -911.942)"/><path class="n" d="M2084.763,914.648h0a.243.243,0,0,1-.085-.333l.131-.222a.244.244,0,0,1,.333-.086h0a.245.245,0,0,1,.086.333l-.131.222A.244.244,0,0,1,2084.763,914.648Z" transform="translate(-2079.246 -910.784)"/><path class="n" d="M2081.725,912.853h0a.245.245,0,0,1-.085-.333l.131-.222a.244.244,0,0,1,.333-.086h0a.244.244,0,0,1,.086.333l-.131.222A.244.244,0,0,1,2081.725,912.853Z" transform="translate(-2077.287 -909.626)"/><path class="n" d="M2078.687,911.057h0a.244.244,0,0,1-.086-.333l.131-.221a.244.244,0,0,1,.333-.086h0a.244.244,0,0,1,.085.333l-.131.222A.243.243,0,0,1,2078.687,911.057Z" transform="translate(-2075.329 -908.469)"/><path class="n" d="M2075.648,909.261h0a.244.244,0,0,1-.086-.333l.131-.222a.244.244,0,0,1,.333-.085h0a.244.244,0,0,1,.085.333l-.13.221A.244.244,0,0,1,2075.648,909.261Z" transform="translate(-2073.37 -907.311)"/><path class="n" d="M2072.61,907.465h0a.244.244,0,0,1-.086-.333l.131-.221a.244.244,0,0,1,.334-.086h0a.244.244,0,0,1,.086.333l-.131.222A.244.244,0,0,1,2072.61,907.465Z" transform="translate(-2071.411 -906.153)"/><path class="n" d="M2069.571,905.669h0a.244.244,0,0,1-.085-.333l.131-.222a.244.244,0,0,1,.333-.085h0a.244.244,0,0,1,.086.333l-.131.222A.244.244,0,0,1,2069.571,905.669Z" transform="translate(-2069.452 -904.995)"/></g><g transform="translate(26.429 15.766)"><path class="n" d="M2033.767,884.5h0a.244.244,0,0,1-.086-.333l.131-.222a.244.244,0,0,1,.333-.085h0a.243.243,0,0,1,.085.333l-.131.222A.244.244,0,0,1,2033.767,884.5Z" transform="translate(-2025.01 -878.725)"/><path class="n" d="M2030.728,882.709h0a.244.244,0,0,1-.085-.333l.131-.222a.244.244,0,0,1,.333-.086h0a.244.244,0,0,1,.085.333l-.13.222A.244.244,0,0,1,2030.728,882.709Z" transform="translate(-2023.051 -877.567)"/><path class="n" d="M2027.69,880.912h0a.244.244,0,0,1-.085-.333l.131-.222a.244.244,0,0,1,.333-.086h0a.245.245,0,0,1,.085.334l-.131.221A.245.245,0,0,1,2027.69,880.912Z" transform="translate(-2021.093 -876.409)"/><path class="n" d="M2024.651,879.116h0a.244.244,0,0,1-.086-.333l.131-.222a.244.244,0,0,1,.333-.086h0a.244.244,0,0,1,.086.333l-.131.222A.244.244,0,0,1,2024.651,879.116Z" transform="translate(-2019.134 -875.251)"/><path class="n" d="M2021.613,877.32h0a.244.244,0,0,1-.086-.333l.131-.221a.244.244,0,0,1,.333-.086h0a.244.244,0,0,1,.085.333l-.131.222A.244.244,0,0,1,2021.613,877.32Z" transform="translate(-2017.175 -874.094)"/><path class="n" d="M2018.574,875.524h0a.243.243,0,0,1-.085-.333l.131-.222a.244.244,0,0,1,.333-.085h0a.244.244,0,0,1,.086.333l-.131.221A.244.244,0,0,1,2018.574,875.524Z" transform="translate(-2015.216 -872.936)"/><path class="n" d="M2015.536,873.728h0a.244.244,0,0,1-.085-.333l.131-.222a.243.243,0,0,1,.333-.086h0a.244.244,0,0,1,.086.333l-.131.222A.244.244,0,0,1,2015.536,873.728Z" transform="translate(-2013.257 -871.778)"/><path class="n" d="M2012.5,871.932h0a.243.243,0,0,1-.086-.333l.131-.221a.244.244,0,0,1,.333-.086h0a.244.244,0,0,1,.086.333l-.131.222A.244.244,0,0,1,2012.5,871.932Z" transform="translate(-2011.298 -870.62)"/><path class="n" d="M2009.458,870.136h0a.244.244,0,0,1-.086-.333l.131-.222a.244.244,0,0,1,.333-.085h0a.243.243,0,0,1,.085.333l-.13.222A.244.244,0,0,1,2009.458,870.136Z" transform="translate(-2009.339 -869.462)"/></g><path class="n" d="M1997.7,863.185h0a.244.244,0,0,1-.085-.333l.131-.221a.243.243,0,0,1,.333-.086h0a.244.244,0,0,1,.086.333l-.131.222A.244.244,0,0,1,1997.7,863.185Z" transform="translate(-1975.331 -849.215)"/><path class="n" d="M2003.642,866.7h0a.244.244,0,0,1-.086-.333l.131-.221a.245.245,0,0,1,.334-.085h0a.245.245,0,0,1,.085.333l-.131.222A.244.244,0,0,1,2003.642,866.7Z" transform="translate(-1979.161 -851.48)"/><path class="n" d="M1994.662,861.389h0a.244.244,0,0,1-.086-.333l.131-.222a.244.244,0,0,1,.333-.086h0a.245.245,0,0,1,.086.333l-.131.221A.244.244,0,0,1,1994.662,861.389Z" transform="translate(-1973.372 -848.057)"/><path class="n" d="M1991.623,859.593h0a.242.242,0,0,1-.085-.333l.13-.222a.244.244,0,0,1,.333-.086h0a.244.244,0,0,1,.086.333l-.131.221A.243.243,0,0,1,1991.623,859.593Z" transform="translate(-1971.413 -846.899)"/><path class="n" d="M1988.585,857.8h0a.244.244,0,0,1-.086-.333l.131-.222a.244.244,0,0,1,.333-.086h0a.244.244,0,0,1,.086.333l-.131.221A.244.244,0,0,1,1988.585,857.8Z" transform="translate(-1969.454 -845.741)"/><path class="n" d="M1985.546,856h0a.244.244,0,0,1-.085-.333l.131-.222a.244.244,0,0,1,.333-.086h0a.244.244,0,0,1,.086.333l-.131.222A.244.244,0,0,1,1985.546,856Z" transform="translate(-1967.495 -844.584)"/><path class="n" d="M1982.508,854.206h0a.244.244,0,0,1-.086-.333l.132-.221a.243.243,0,0,1,.333-.085h0a.244.244,0,0,1,.086.333l-.131.222A.244.244,0,0,1,1982.508,854.206Z" transform="translate(-1965.536 -843.426)"/><path class="n" d="M1979.469,852.409h0a.243.243,0,0,1-.085-.333l.131-.222a.244.244,0,0,1,.333-.085h0a.244.244,0,0,1,.086.333l-.131.221A.244.244,0,0,1,1979.469,852.409Z" transform="translate(-1963.577 -842.268)"/><path class="n" d="M1976.431,850.613h0a.244.244,0,0,1-.086-.333l.131-.222a.244.244,0,0,1,.333-.085h0a.244.244,0,0,1,.085.333l-.131.222A.244.244,0,0,1,1976.431,850.613Z" transform="translate(-1961.619 -841.11)"/><path class="n" d="M1973.392,848.817h0a.244.244,0,0,1-.086-.333l.131-.222a.244.244,0,0,1,.333-.085h0a.244.244,0,0,1,.085.333l-.131.222A.244.244,0,0,1,1973.392,848.817Z" transform="translate(-1959.66 -839.952)"/><path class="n" d="M1970.414,847.057h0a.244.244,0,0,1-.086-.333l.131-.222a.244.244,0,0,1,.333-.085h0a.243.243,0,0,1,.086.333l-.131.222A.244.244,0,0,1,1970.414,847.057Z" transform="translate(-1957.74 -838.818)"/><path class="n" d="M1967.375,845.261h0a.243.243,0,0,1-.085-.333l.131-.222a.243.243,0,0,1,.333-.085h0a.243.243,0,0,1,.086.333l-.131.221A.244.244,0,0,1,1967.375,845.261Z" transform="translate(-1955.781 -837.66)"/><path class="n" d="M1964.337,843.465h0a.244.244,0,0,1-.086-.333l.131-.221a.244.244,0,0,1,.333-.086h0a.243.243,0,0,1,.085.333l-.131.222A.243.243,0,0,1,1964.337,843.465Z" transform="translate(-1953.823 -836.502)"/><path class="n" d="M1937.178,826.489a.374.374,0,0,1-.418.118.359.359,0,0,1-.1-.058l-1.693-1.34c.213-.033.565-.088,1.049-.117l1.1.875A.372.372,0,0,1,1937.178,826.489Z" transform="translate(-1934.963 -825.092)"/><path class="n" d="M.648,0h0A.648.648,0,0,1,1.3.648V1.856A.648.648,0,0,1,.648,2.5h0A.648.648,0,0,1,0,1.856V.648A.648.648,0,0,1,.648,0Z" transform="matrix(0.861, 0.509, -0.509, 0.861, 29.941, 16.811)"/><path class="n" d="M.648,0h0A.649.649,0,0,1,1.3.649V1.856A.648.648,0,0,1,.649,2.5h0A.649.649,0,0,1,0,1.856V.648A.648.648,0,0,1,.648,0Z" transform="matrix(0.861, 0.509, -0.509, 0.861, 32.087, 18.079)"/><g transform="translate(35.977 21.41)"><path class="n" d="M2060.639,900.389h0a.243.243,0,0,1-.085-.333l.131-.221a.243.243,0,0,1,.333-.086h0a.243.243,0,0,1,.086.333l-.13.222A.244.244,0,0,1,2060.639,900.389Z" transform="translate(-2051.883 -894.609)"/><path class="n" d="M2057.6,898.593h0a.243.243,0,0,1-.086-.333l.131-.222a.244.244,0,0,1,.333-.086h0a.244.244,0,0,1,.085.333l-.131.221A.243.243,0,0,1,2057.6,898.593Z" transform="translate(-2049.924 -893.452)"/><path class="n" d="M2054.563,896.8h0a.245.245,0,0,1-.086-.333l.131-.221a.244.244,0,0,1,.333-.086h0a.244.244,0,0,1,.085.333l-.131.221A.243.243,0,0,1,2054.563,896.8Z" transform="translate(-2047.965 -892.294)"/><path class="n" d="M2051.524,895h0a.245.245,0,0,1-.086-.333l.131-.222a.243.243,0,0,1,.333-.085h0a.243.243,0,0,1,.086.333l-.131.222A.244.244,0,0,1,2051.524,895Z" transform="translate(-2046.006 -891.136)"/><path class="n" d="M2048.485,893.2h0a.244.244,0,0,1-.085-.333l.131-.222a.244.244,0,0,1,.333-.086h0a.244.244,0,0,1,.086.333l-.131.221A.244.244,0,0,1,2048.485,893.2Z" transform="translate(-2044.048 -889.978)"/><path class="n" d="M2045.447,891.408h0a.244.244,0,0,1-.086-.333l.131-.221a.244.244,0,0,1,.333-.086h0a.244.244,0,0,1,.085.333l-.131.222A.244.244,0,0,1,2045.447,891.408Z" transform="translate(-2042.088 -888.82)"/><path class="n" d="M2042.408,889.612h0a.244.244,0,0,1-.086-.333l.131-.222a.245.245,0,0,1,.333-.085h0a.244.244,0,0,1,.085.333l-.131.222A.243.243,0,0,1,2042.408,889.612Z" transform="translate(-2040.13 -887.662)"/><path class="n" d="M2039.369,887.816h0a.244.244,0,0,1-.086-.333l.131-.222a.244.244,0,0,1,.333-.086h0a.244.244,0,0,1,.086.334l-.131.222A.244.244,0,0,1,2039.369,887.816Z" transform="translate(-2038.171 -886.504)"/><path class="n" d="M2036.331,886.02h0a.244.244,0,0,1-.085-.333l.131-.222a.244.244,0,0,1,.333-.086h0a.244.244,0,0,1,.086.333l-.131.221A.243.243,0,0,1,2036.331,886.02Z" transform="translate(-2036.212 -885.346)"/></g></g><path class="k" d="M2013.109,889.749a.87.87,0,0,0,.907-1.288,4.934,4.934,0,0,0-1.723-1.839c-1.635-.944-2.119,2.048-1.587,2.385A9.433,9.433,0,0,0,2013.109,889.749Z" transform="translate(-1978.858 -864.472)"/><path class="k" d="M1998.475,876.722l-2.009,3.4a18.25,18.25,0,0,1-4.729-1.932,14.578,14.578,0,0,1-3.209-2.329,4.907,4.907,0,0,1-.48-.538l2.106-3.563a2,2,0,0,1,.743.093c2.391.678,7.3,4.551,7.3,4.551Z" transform="translate(-1964.385 -855.004)"/><path class="n" d="M1990.9,871.853l-2.369,4.007a4.907,4.907,0,0,1-.48-.538l2.106-3.563A2,2,0,0,1,1990.9,871.853Z" transform="translate(-1964.385 -855.004)"/><path class="k" d="M2124.31,932.366c.1-.036,7.039,1.533,10.812,4.294l-4.771-.073-6.129-3.622S2123.818,932.548,2124.31,932.366Z" transform="translate(-2052.07 -894.079)"/><g transform="translate(33.274 20.252)"><path class="n" d="M2039.893,885.826s-4.294,2.955-5.041,3.356a4.15,4.15,0,0,1-1.944.291h-.007l-7.386-1.245s-7.873-4.6-9.568-5.641h0c-.154-.095-.257-.161-.3-.19-.5-.36-.661-.679-.492-.779s13.118,5.052,14.548,5.631l.041.017c1.395.557,1.675.267,1.675.267l7.14-1.96a.723.723,0,0,1,.384-.045A3.411,3.411,0,0,1,2039.893,885.826Z" transform="translate(-2015.092 -881.614)"/><path class="n" d="M2038.944,885.524c-1.953.6-7.351,2.249-7.821,2.309-.506.065-12.281-4.2-15.176-5.249h0c-.154-.095-.257-.161-.3-.19-.5-.36-.661-.679-.492-.779s13.118,5.052,14.548,5.631,1.716.283,1.716.283l7.14-1.96A.723.723,0,0,1,2038.944,885.524Z" transform="translate(-2015.092 -881.614)"/><path class="n" d="M2066.477,892.909s-4.294,2.955-5.041,3.356a4.151,4.151,0,0,1-1.944.291h-.007a15.994,15.994,0,0,1-3.156-2.208c1.395.557,1.675.266,1.675.266l7.14-1.96a.72.72,0,0,1,.383-.045A3.413,3.413,0,0,1,2066.477,892.909Z" transform="translate(-2041.676 -888.697)"/></g><path class="p" d="M2107.553,915.041l-18.523-11.589s9.564,3.12,10.852,2.773c1.213-.327,14.51-4.766,17.655-4.366-3.572,1.443-11.951,5.017-12.531,7C2104.455,910.744,2106.49,913.68,2107.553,915.041Z" transform="translate(-2029.484 -874.396)"/></g></g><g transform="translate(157.941 58.093)"><path class="d" d="M843.147,281.8c-.037-1.024-.829-12.053-17.629-12.629,0,0,8.262.985,9.689,4.617,0,0-5.625-4.488-10.206-3.044s-7.271,9.469-7.3,12.109,2.518,11.149,5.425,11.872a8.879,8.879,0,0,0,3.521,0,39.5,39.5,0,0,0-2.257,4.028c-6.7,13.76.21,27.208,5.885,25.723,3.64-.953,4.669,5.258,4.669,5.258l35.361-28.627S857.319,274.24,843.147,281.8Z" transform="translate(-759.703 -269.175)"/><path class="k" d="M811.918,1022.16l-7.511,2.8s-32.623-45.247-36.64-85.056a60.479,60.479,0,0,1,1.073-20.353s-.319-1.821-.877-5.04c-.258-1.5-.576-3.311-.938-5.384-1.061-6.077-2.521-14.392-4.189-23.86-3.839-21.787-8.812-49.639-12.675-70.113l2.024-.65,21.9-7.064,4.526-14.373,16.305-4.292s3.642,7.125,6.9,40.784c.6,4.415,1.147,9.284,1.557,14.563a288.221,288.221,0,0,1-1.551,58.96q-1.122,8.775-2.864,18.1c-.859,4.55-.987,10.749-.625,17.868C799.973,971.585,811.918,1022.16,811.918,1022.16Z" transform="translate(-716.162 -604.139)"/><path class="i" d="M803.37,844.118l-35.406,70.39c-.258-1.5-.576-3.311-.938-5.384-1.061-6.077-2.521-14.392-4.189-23.86-3.839-21.787-8.812-49.639-12.675-70.113l2.024-.65,21.9-7.064,4.526-14.373,16.305-4.292s3.642,7.125,6.9,40.784C802.413,833.969,802.959,838.838,803.37,844.118Z" transform="translate(-716.162 -604.139)"/><path class="k" d="M728.425,782.949l-.819-7.029c-13.732,3.648-50.422-10.192-50.422-10.192s-13.3,11.694-11.556,39.724c.852,13.681,2.41,71.818,4.036,89.021.588,6.235,1.1,10.672,1.313,12.444a.037.037,0,0,1,0,.017,2.452,2.452,0,0,1-.4,1.523,80.809,80.809,0,0,0-6,12.625c-15.963,42.539,2.459,94.926,2.459,94.926l4.78-1.927s10.483-58.3,19-84.057a51.045,51.045,0,0,1,4.1-9.853c3.7-5.977,7.141-15.744,10.26-27.361,5.9-21.962,10.642-50.532,13.8-72.585C719.418,820.247,728.425,782.949,728.425,782.949Z" transform="translate(-656.793 -589.285)"/><path class="h" d="M1138.763,762.758c-2.955,2.614-10.8-6.366-11.88-7.559a.7.7,0,0,0-.113-.171l2.387-6.651s10.288-.4,11.993,1.307S1142,759.973,1138.763,762.758Z" transform="translate(-958.947 -578.074)"/><path class="h" d="M986.984,607.331l-1.023,6.879s-.454,0-1.25-.057c-2.5-.171-8.583-.512-15.46-1.252-10.345-1.023-22.623-2.842-27.511-5.854-7.446-4.546-19.667-18.473-27.624-32.4a9.206,9.206,0,0,1-.569-1.023c-4.149-7.39-7.048-14.723-7.275-20.576a29.376,29.376,0,0,1,.966-9.322,23.769,23.769,0,0,1,4.206-8.412,4.229,4.229,0,0,1,.8-.966,19.619,19.619,0,0,1,5.4-4.6c1.364-.569,2.842.114,4.376,1.762v.057a26.049,26.049,0,0,1,3.922,5.8c.057.057.114.114.114.171.285.511.568,1.08.91,1.7a1.433,1.433,0,0,1,.227.4q.938,1.961,1.876,4.092c6.991,15.233,14.438,38.311,20.633,45.188,2.671,2.956,14.892,8.753,24.611,13.073C981.3,605.059,986.984,607.331,986.984,607.331Z" transform="translate(-816.774 -437.028)"/><path class="g" d="M846.88,481.538a42.761,42.761,0,0,1-15.815,3.7c-23.609,1.293-28.968-19.4-29.943-33.138a19.8,19.8,0,0,1,8.1-1.024c1.674.092,3.422.264,4.863.441,2.888-1.508,8.076-8.836,11.074-21.094l1.018.472,17.034,8.009s-1.809,5.543-3.145,10.847c-1.043,4.151-1.791,8.162-1.166,9.284,1.343.546,2.146.889,2.146.889a.049.049,0,0,0,.006.019A116.929,116.929,0,0,1,846.88,481.538Z" transform="translate(-749.014 -373.128)"/><path class="h" d="M782.745,533.677c-.178.473-.374.932-.589,1.405-5.979,12.877-17.047,66.22-17.047,66.22,1.576,9.59-72.076-1.883-72.266-10.615-2.594-9.26,9.2-24.136,15.858-31.6a21.181,21.181,0,0,0,2.232-3,20.943,20.943,0,0,0,3.017-8.806c1.307-12.378.809-23.979.92-31.033h0c1.3-.962,2.557-1.852,3.729-2.7a33.311,33.311,0,0,0,4.538-3.765,6.866,6.866,0,0,0,2.176-4.286,22.8,22.8,0,0,0-.092-3.594c-.055-.57-.129-1.141-.215-1.711a48.733,48.733,0,0,0-3.422-11.424c6.335-2.563,17.6-1.036,17.6-1.036s-.012.625-.018,1.649c-.037,4.115,0,14.68,1.318,16.679,1.65,2.49,31.825,13.4,33.42,10.02,1.569-3.323-2.729-18.893-2.889-19.481a.05.05,0,0,1-.006-.019c10.105,3.968,13.717,7.3,13.717,7.3C778.636,507.825,787.454,521.186,782.745,533.677Z" transform="translate(-678.973 -409.779)"/><path class="h" d="M888.667,439.775s-1.811,5.538-3.145,10.847c-9.957-2.778-12.981-13.244-13.891-18.855Z" transform="translate(-794.468 -373.992)"/><path class="g" d="M888.207,392.2s-23.823-5.513-20.161-20.3,3.053-25.45,18.418-22.555,16.911,9.265,16.89,14.5S894.5,393.255,888.207,392.2Z" transform="translate(-791.91 -320.555)"/><path class="d" d="M893.828,350.567c-2.561-5.358-5.575-5.072-7.461-4.122-11.193-10.357-22.172-1.9-22.172-1.9a29.093,29.093,0,0,1-13.385,14.38s3.66,3.747,14.267,3.665c3.24-.025,6.5-1.513,9.462-3.563a57.042,57.042,0,0,1-12.421,9.264c13.277-2.541,22.182-17.913,23.093-19.546,1.125,1.661,3.276,5.2,3.458,8.183.246,4.058-1.15,11.937,1.173,12.236C889.842,369.169,897.669,358.6,893.828,350.567Z" transform="translate(-781.046 -315.667)"/><path class="h" d="M945.038,533.98s5.736,10.006,6.594,12.581c0,0-7.437-.286-10.441,5.435C941.191,552,940.471,535.328,945.038,533.98Z" transform="translate(-839.284 -439.885)"/><path class="j" d="M778.761,624.2c-14.527-.154-26.828-15.238-34.345-27.294a20.943,20.943,0,0,0,3.017-8.806c1.307-12.378.81-23.979.92-31.033h0c1.3-.962,2.557-1.852,3.729-2.7a33.3,33.3,0,0,0,4.538-3.765C768.515,570.712,798.458,624.41,778.761,624.2Z" transform="translate(-712.457 -450.603)"/><path class="i" d="M692.514,1442.387h-37.83s-.906-5.765,1.069-10.14c1.894-4.2,4.859-6.1,4.149-11.182,2.4,2.475,6.321,5.246,11.79,4.511.671,1.086,4.326,6.9,6.564,8.508C680.729,1435.861,691.753,1435.227,692.514,1442.387Z" transform="translate(-654.477 -1011.757)"/><path class="i" d="M920.75,1445.464H882.921s-1.414-6.034,1.069-10.14c2.2-3.632,1.356-5.7-.273-8.707a14.7,14.7,0,0,0,6.372,1.2,13.326,13.326,0,0,0,5.626-1.979c1.628,1.856,8.6,9.758,10.778,11.323C908.965,1438.937,919.988,1438.3,920.75,1445.464Z" transform="translate(-801.488 -1014.834)"/><g transform="translate(115.178 151.455)"><path class="i" d="M1015.425,695.406l-36.809,47.881,2.993,2.095,37.26-47.881Z" transform="translate(-978.616 -695.406)"/><path class="k" d="M1024.3,701.3h37.354l-39.1,47.881H987.038Z" transform="translate(-984.046 -699.207)"/><path class="r" d="M1082.205,695.406h37.107l2.095,2.095h-35.758Z" transform="translate(-1045.396 -695.406)"/><path class="k" d="M1083.192,696.007h36.793l.6-.6h-38.379Z" transform="translate(-1045.396 -695.406)"/></g><path class="g" d="M864.418,594.669c-.1-1.905-2.616-1.818-4.525-1.827-3.13-.015-8.069-.229-10.925-1.324,0,0,9.122-.13,7.184-3.013-.353-.525-4.888-.128-9.951-.128-2.076,0-7.207,2.845-6.943,2.977-3.668-.485-7-1.2-8.081-1.428h0c-2.5-1.364-5.514-3.013-8.7-4.832a254.414,254.414,0,0,1-22.509-13.982c-3.467-2.5-6.082-4.717-6.991-6.309a78.315,78.315,0,0,1-4.775-11.084c-.909-2.5-1.875-5.23-2.842-8.128-1.705-4.775-3.411-9.947-5.173-15.119-3.183-9.435-6.593-18.928-9.833-26.261-2.1-4.6-4.149-8.412-6.082-10.742-1.535-1.876-3.012-2.842-4.434-2.615-.227.056-.4.113-.568.17,0,0-8.185,2.273-8.3,18.757a25.045,25.045,0,0,0,.057,2.9,61.075,61.075,0,0,0,1.535,10.288,155.519,155.519,0,0,0,6.48,21.6c.8,2.046,1.592,4.149,2.444,6.252,6.139,15.234,14.04,29.444,20.69,34.274a6.935,6.935,0,0,0,.8.569,59.807,59.807,0,0,0,11.6,5.172c6.707,2.274,14.665,4.32,21.77,6.025h.057c4.149.909,7.957,1.763,11.14,2.388,0,0,.523.13,1.453.315l.424.082a127.042,127.042,0,0,1,15.063,4.6,15.068,15.068,0,0,0,16.938-3.638C863.147,598.806,864.513,596.408,864.418,594.669Z" transform="translate(-716.67 -412.062)"/><path class="h" d="M770.343,504.287c-10.943-3.017-19.384,5.527-19.384,5.527.138-16.457,8.329-18.71,8.329-18.71C762.584,489.74,766.4,495.447,770.343,504.287Z" transform="translate(-716.675 -412.115)"/></g><g transform="translate(315.599 278.165)"><g transform="translate(97.98)"><path class="s" d="M1432.234,962.028c-4.468-4.018-.792-13.506-2.5-15.38a15.892,15.892,0,0,0-1.74-1.391,43.7,43.7,0,0,1-6.151,13.869c-10.146,15.256-27.287,21.7-38.283,14.38-10.694-7.114-11.636-24.623-2.339-39.612q.389-.628.8-1.254a43.775,43.775,0,0,1,10.337-10.972.282.282,0,0,1,.033-.026,8.058,8.058,0,0,0-1.13-.582c-2.388-.847-9.714,6.212-15.15,3.642s-.469-12.941,10.27-14.158c6.549-.744,13.46,2.641,17.856,5.4a24.252,24.252,0,0,1,5.791-.7c.07,0,.142,0,.214,0a14.736,14.736,0,0,1,4.861-15.683c-.008-.011-.011-.022-.019-.033a7.472,7.472,0,1,1,13.973-2.451,14.79,14.79,0,0,1,6.036,3.892,7.472,7.472,0,1,1,3.455,13.919,14.746,14.746,0,0,1-11.946,10.679,23.659,23.659,0,0,1,2.048,6.594c4.275,2.9,10.7,8.2,12.663,14.926C1444.351,957.46,1436.7,966.044,1432.234,962.028Z" transform="translate(-1373.902 -888.51)"/><path class="t" d="M1394.513,994.019q.389-.628.8-1.254a43.774,43.774,0,0,1,10.337-10.972c1.138-.087,2.294.155,2.712,1.325.925,2.582-7.74,10.708-7,15.32C1401.92,1001.856,1396.94,996.918,1394.513,994.019Z" transform="translate(-1387.189 -948.636)"/><path class="t" d="M1481.271,938.963a41.543,41.543,0,0,1-6.411-3.734c.07,0,.142,0,.214,0a14.736,14.736,0,0,1,4.861-15.683c-.007-.011-.011-.022-.018-.033.148.063.218.261.146.684-.277,1.614-4.317,12.882,2.269,17.7C1482.331,937.9,1483.316,939.9,1481.271,938.963Z" transform="translate(-1438.724 -908.496)"/><path class="u" d="M1550.931,931.637s3.827-1.157,5.167,1.471-1.24,5.767-3.317,5.261A17.024,17.024,0,0,0,1550.931,931.637Z" transform="translate(-1488.026 -916.149)"/><path class="u" d="M1508.634,902.828s-1.546-4.176-4.359-3.943-2.168,4.758-2.168,4.758S1505.933,902.3,1508.634,902.828Z" transform="translate(-1456.51 -895.192)"/></g><g transform="translate(53.745 13.478)"><path class="v" d="M1259.08,961.924s-9.59-12.364-9.655-22.456.228-13.442,1.912-12.986,9.262,6.082,11.985,11.686,7.507,20.267,7.606,22.26S1259.08,961.924,1259.08,961.924Z" transform="translate(-1249.417 -926.442)"/><path class="w" d="M1266.366,971.393s-6.128-8.542-6.36-15.365-.115-9.082.929-8.743,5.806,4.287,7.585,8.128,5,13.844,5.1,15.194S1266.366,971.393,1266.366,971.393Z" transform="translate(-1256.179 -939.857)"/><g transform="translate(21.931 5.685)"><path class="v" d="M1314.344,968.92s-4.6-16.746-2.782-21.306,11.235-1.515,12.3,1.7.41,16.787.41,16.787Z" transform="translate(-1311.137 -944.284)"/><path class="w" d="M1323.441,957.589s-.665,13.272,1.656,18.437l4.462-1.267s.693-14.819.1-15.82S1323.441,957.589,1323.441,957.589Z" transform="translate(-1319.012 -952.207)"/><path class="v" d="M1311.6,946.723s15.464,10.235,16.712,9.155-3.456-11.47-5.279-12.4S1311.487,940.629,1311.6,946.723Z" transform="translate(-1311.434 -942.442)"/></g></g><g transform="translate(0 36.674)"><rect class="x" width="210.819" height="173.834" transform="translate(258.218 173.834) rotate(180)"/><rect class="y" width="210.819" height="173.835" transform="translate(152.807 0)"/><path class="z" d="M1739.018,991.722v119.236l-210.819,54.6V991.722Z" transform="translate(-1375.392 -991.721)"/><path class="y" d="M1528.2,991.721l41.714,45.738h208.031l-38.926-45.738Z" transform="translate(-1375.393 -991.721)"/><path class="y" d="M1231.9,1327.625h33.406l-2.943-9.4,2.943-6.717H1231.9Z" transform="translate(-1184.379 -1197.876)"/><path class="z" d="M2061.017,1411.526h-33.406l2.942-9.4-2.942-6.717h33.406Z" transform="translate(-1697.345 -1251.964)"/><path class="aa" d="M1337.186,1011.373l-44.438,44.438H1231.9v-64.09h105.287Z" transform="translate(-1184.379 -991.721)"/><path class="y" d="M1145.562,991.721l-47.4,45.738H1203.64l47.332-45.738Z" transform="translate(-1098.164 -991.721)"/></g></g><g transform="translate(261.895 373.007)"><g transform="translate(29.522 20.345)"><path class="r" d="M1049.635,1262.2l-3.839.745a8.458,8.458,0,0,1-9.888-6.673l-5.647-29.067a8.465,8.465,0,0,1,5.492-9.57,2.31,2.31,0,0,1-.084-.308l-.332-1.708a2.2,2.2,0,0,1,1.739-2.573l1.708-.333a2.2,2.2,0,0,1,2.577,1.736l.329,1.712a1.54,1.54,0,0,1,.033.239c0,.015,0,.027,0,.042a8.465,8.465,0,0,1,8.938,6.8l5.644,29.07A8.463,8.463,0,0,1,1049.635,1262.2Z" transform="translate(-1030.107 -1212.674)"/><rect class="k" width="20.783" height="20.349" transform="translate(0.477 16.189) rotate(-10.991)"/><path class="n" d="M1051.138,1216.4l-5.97,1.236a2.274,2.274,0,0,1-.084-.308l-.333-1.708a2.2,2.2,0,0,1,1.739-2.573l1.708-.333a2.2,2.2,0,0,1,2.577,1.736l.329,1.712A1.555,1.555,0,0,1,1051.138,1216.4Z" transform="translate(-1039.522 -1212.674)"/></g><g transform="translate(119.54 11.918)"><path class="ab" d="M1354.637,1193.776s-2.528,3.558-4.845,3.608-5.843-1.649-5.843-1.649-2.128-4.742-.684-6.6a3.1,3.1,0,0,1,2.96.487,4.56,4.56,0,0,1,.784.75,2.486,2.486,0,0,0,1.216.825c1.654.5,3.616-.68,4.351.462a7.708,7.708,0,0,0,1.278,1.513A5.86,5.86,0,0,0,1354.637,1193.776Z" transform="translate(-1321.684 -1188.958)"/><path class="ab" d="M1283.441,1234.731s8.935-21.648,25.016-22.06c0,0,14.844,1.649,15.669,22.06Z" transform="translate(-1283.441 -1204.245)"/><path class="y" d="M1341.386,1209.448s6.446,1.433,8.435.591a1.991,1.991,0,0,0-2.414-2.317,5.7,5.7,0,0,1-3.78-1C1342.619,1206.213,1341.118,1208.321,1341.386,1209.448Z" transform="translate(-1320.776 -1200.361)"/><path class="ac" d="M1354.185,1195.19c-.412.309-1.678-4.359-1.678-4.359a4.557,4.557,0,0,1,.784.75,2.488,2.488,0,0,0,1.217.825C1354.511,1192.542,1354.585,1194.889,1354.185,1195.19Z" transform="translate(-1327.965 -1190.166)"/><path class="ac" d="M1367.589,1198.078a26.5,26.5,0,0,1-3.476,1.839c-.413,0,2.2-3.352,2.2-3.352A7.724,7.724,0,0,0,1367.589,1198.078Z" transform="translate(-1335.419 -1193.862)"/><path class="ac" d="M1308,1240.276c-.165-.141,6.323-9.552,8.109-9.621s5.8,2.062,8.708,2.337,5.724-.55,6.274,1.169,2.062,7.809,1.134,8.784S1311.566,1243.323,1308,1240.276Z" transform="translate(-1299.27 -1215.837)"/></g><g transform="translate(0 22.215)"><path class="w" d="M1012.911,1253.92a3.045,3.045,0,0,1-1.023,1.155,3.121,3.121,0,0,1-.761.369,3.057,3.057,0,0,1-2.34-.178l-40.061-20.351a3.067,3.067,0,0,1,2.778-5.47l40.06,20.351A3.076,3.076,0,0,1,1012.911,1253.92Z" transform="translate(-959.935 -1225.141)"/><path class="e" d="M992.866,1243.673l-2.525-8.164-6.451-3.277,3.889,8.857Z" transform="translate(-970.791 -1227.151)"/><path class="e" d="M1020.4,1257.66l-5.088-2.585-3.889-8.857,6.451,3.277Z" transform="translate(-988.541 -1236.169)"/><path class="e" d="M1047.906,1271.634l-5.09-2.586-3.889-8.856,6.454,3.279Z" transform="translate(-1006.271 -1245.176)"/><path class="e" d="M1076.288,1284.286a3.1,3.1,0,0,1-.761.368,3.056,3.056,0,0,1-2.339-.178l-2.351-1.194-3.889-8.856,6.451,3.277Z" transform="translate(-1024.335 -1254.353)"/><path class="e" d="M954.472,1223.584s-.809-4.355-4.347-5.649c0,0,.416.5-1.286,1.045s-1.208,1.716-1.813,2.247A7.623,7.623,0,0,0,954.472,1223.584Z" transform="translate(-947.026 -1217.935)"/><path class="n" d="M965.332,1231.685l-.095-.048a.555.555,0,0,1-.242-.743l.5-.981a.555.555,0,0,1,.744-.243l.094.048a.554.554,0,0,1,.243.744l-.5.981A.554.554,0,0,1,965.332,1231.685Z" transform="translate(-958.572 -1225.461)"/><path class="e" d="M1095.644,1297.233s3.994-1.915,7.125.179c0,0-.651-.04-.085,1.655s-.674,1.987-.746,2.79A7.622,7.622,0,0,1,1095.644,1297.233Z" transform="translate(-1042.835 -1268.539)"/><path class="n" d="M.606,0h0a.605.605,0,0,1,.605.605V1.6A.607.607,0,0,1,.6,2.207h0A.6.6,0,0,1,0,1.6v-1A.606.606,0,0,1,.606,0Z" transform="translate(53.337 29.885) rotate(-153.091)"/></g><g transform="translate(74.296)"><path class="y" d="M1192.873,1218.871a3.046,3.046,0,0,1-1.488.411,3.135,3.135,0,0,1-.839-.106,3.054,3.054,0,0,1-1.865-1.424l-22.5-38.892a3.067,3.067,0,0,1,5.309-3.072l22.5,38.892A3.075,3.075,0,0,1,1192.873,1218.871Z" transform="translate(-1162.338 -1167.563)"/><path class="ab" d="M1182.739,1197.224l2.331-8.222-3.624-6.263-1.564,9.545Z" transform="translate(-1171.435 -1173.031)"/><path class="ab" d="M1198.2,1223.955l-2.858-4.94,1.565-9.545,3.624,6.263Z" transform="translate(-1181.405 -1190.263)"/><path class="ab" d="M1213.656,1250.659l-2.86-4.942,1.565-9.546,3.625,6.266Z" transform="translate(-1191.365 -1207.477)"/><path class="ab" d="M1230.56,1276.734a3.125,3.125,0,0,1-.839-.106,3.054,3.054,0,0,1-1.865-1.424l-1.32-2.282,1.565-9.545,3.624,6.263Z" transform="translate(-1201.512 -1225.015)"/><path class="y" d="M1161.073,1162.523s1.695-4.093-.567-7.105c0,0,.075.648-1.647.176s-1.948.781-2.746.9A7.624,7.624,0,0,0,1161.073,1162.523Z" transform="translate(-1156.113 -1155.418)"/><path class="x" d="M1167.342,1173.046l-.053-.092a.554.554,0,0,1,.2-.755l.953-.552a.554.554,0,0,1,.756.2l.052.091a.555.555,0,0,1-.2.756l-.953.551A.555.555,0,0,1,1167.342,1173.046Z" transform="translate(-1163.271 -1165.833)"/><path class="y" d="M1241.641,1299.353s4.392.57,5.877,4.033c0,0-.525-.388-.973,1.341s-1.648,1.3-2.146,1.933A7.623,7.623,0,0,1,1241.641,1299.353Z" transform="translate(-1211.199 -1248.208)"/><path class="x" d="M1240.139,1298.864l.053.092a.554.554,0,0,0,.756.2l.953-.551a.555.555,0,0,0,.2-.756l-.053-.091a.555.555,0,0,0-.756-.2l-.952.552A.555.555,0,0,0,1240.139,1298.864Z" transform="translate(-1210.234 -1247.002)"/></g><g transform="translate(27.371 9.659)"><path class="n" d="M1034.143,1247.957a3.046,3.046,0,0,1-1.139-1.042,3.161,3.161,0,0,1-.356-.767,3.054,3.054,0,0,1,.216-2.336l20.994-39.728a3.067,3.067,0,0,1,5.424,2.866l-20.994,39.727A3.076,3.076,0,0,1,1034.143,1247.957Z" transform="translate(-1029.506 -1195.399)"/><path class="p" d="M1073,1228.171l8.2-2.394,3.381-6.4-8.918,3.746Z" transform="translate(-1055.605 -1206.311)"/><path class="p" d="M1058.567,1255.476l2.666-5.045,8.918-3.746-3.381,6.4Z" transform="translate(-1046.304 -1223.914)"/><path class="p" d="M1044.15,1282.754l2.667-5.049,8.918-3.745-3.382,6.4Z" transform="translate(-1037.01 -1241.497)"/><path class="p" d="M1033,1310.928a3.165,3.165,0,0,1-.356-.767,3.054,3.054,0,0,1,.216-2.336l1.232-2.331,8.918-3.745-3.38,6.4Z" transform="translate(-1029.506 -1259.411)"/><path class="p" d="M1104.013,1190.009s4.367-.738,5.718-4.255c0,0-.509.407-1.024-1.3s-1.7-1.235-2.218-1.849A7.624,7.624,0,0,0,1104.013,1190.009Z" transform="translate(-1075.516 -1182.602)"/><path class="n" d="M.605,0h0a.605.605,0,0,1,.605.605v1a.606.606,0,0,1-.606.606h0A.606.606,0,0,1,0,1.6v-1A.605.605,0,0,1,.605,0Z" transform="translate(30.193 7.161) rotate(117.833)"/><path class="n" d="M1028.78,1330.048s1.85,4.024-.295,7.122c0,0,.05-.651-1.653-.112s-1.976-.706-2.777-.791A7.624,7.624,0,0,1,1028.78,1330.048Z" transform="translate(-1024.055 -1277.655)"/><path class="n" d="M1034.636,1329.307l-.05.093a.556.556,0,0,0,.231.748l.973.514a.554.554,0,0,0,.747-.23l.049-.094a.555.555,0,0,0-.231-.747l-.973-.514A.554.554,0,0,0,1034.636,1329.307Z" transform="translate(-1030.803 -1276.988)"/></g><g transform="translate(68.341 22.611)"><path class="e" d="M1155.143,1222.548s1.835,2.582,3.517,2.618a12.3,12.3,0,0,0,4.24-1.2s1.544-3.441.5-4.788a2.249,2.249,0,0,0-2.148.353,3.32,3.32,0,0,0-.569.544,1.8,1.8,0,0,1-.883.6c-1.2.365-2.624-.494-3.157.335a5.643,5.643,0,0,1-.928,1.1A4.256,4.256,0,0,1,1155.143,1222.548Z" transform="translate(-1149.532 -1219.051)"/><path class="e" d="M1168.88,1252.271s-6.484-15.711-18.155-16.01c0,0-10.773,1.2-11.371,16.01Z" transform="translate(-1139.354 -1230.146)"/><path class="f" d="M1169.235,1233.922s-4.678,1.04-6.121.429a1.445,1.445,0,0,1,1.752-1.682,4.131,4.131,0,0,0,2.743-.723C1168.34,1231.574,1169.429,1233.1,1169.235,1233.922Z" transform="translate(-1154.667 -1227.327)"/><path class="f" d="M1168.462,1223.574c.3.224,1.218-3.164,1.218-3.164a3.309,3.309,0,0,0-.569.545,1.806,1.806,0,0,1-.883.6C1168.225,1221.652,1168.172,1223.355,1168.462,1223.574Z" transform="translate(-1157.965 -1219.927)"/><path class="f" d="M1156.744,1225.669a19.235,19.235,0,0,0,2.523,1.335c.3,0-1.6-2.433-1.6-2.433A5.635,5.635,0,0,1,1156.744,1225.669Z" transform="translate(-1150.565 -1222.609)"/><path class="f" d="M1172.336,1256.3c.12-.1-4.588-6.933-5.885-6.982s-4.21,1.5-6.32,1.7-4.154-.4-4.553.848-1.5,5.667-.823,6.375S1169.747,1258.507,1172.336,1256.3Z" transform="translate(-1149.145 -1238.559)"/></g><g transform="translate(95.782 21.807)"><path class="r" d="M1241.235,1226.005h0c-1.932.023-2.9-2.892-2.9-2.892l-18.8,5.693a3.689,3.689,0,0,1-.52,3.648s-3.253,2.173-2.241,5.512l4.161,13.746a4.64,4.64,0,0,0,5.769,3.088l19.835-6a4.641,4.641,0,0,0,3.087-5.769l-4.161-13.746A4.641,4.641,0,0,0,1241.235,1226.005Z" transform="translate(-1216.578 -1220.866)"/><g transform="translate(1.051)"><path class="f" d="M1219.609,1225.6l1.129,3.731c.408,1.348,5.558.983,11.5-.817s10.432-4.352,10.024-5.7l-1.13-3.731Z" transform="translate(-1219.583 -1218.265)"/><path class="e" d="M1241.089,1217.6c.409,1.349-4.079,3.9-10.024,5.7s-11.094,2.165-11.5.817,4.08-3.9,10.024-5.7S1240.681,1216.254,1241.089,1217.6Z" transform="translate(-1219.536 -1216.789)"/></g></g><g transform="translate(46.925 26.781)"><path class="ad" d="M1102.148,1242.135h0c-1.349-.654-1.009-3.014-1.009-3.014l-15.03-2.571a2.865,2.865,0,0,1-1.626,2.353s-3.012.38-3.469,3.05l-1.879,10.988a3.6,3.6,0,0,0,2.934,4.145l15.854,2.712a3.6,3.6,0,0,0,4.145-2.934l1.88-10.988A3.6,3.6,0,0,0,1102.148,1242.135Z" transform="translate(-1079.083 -1234.503)"/><g transform="translate(5.416)"><path class="aa" d="M1094.841,1233.525l-.51,2.982c-.184,1.078,3.518,2.611,8.27,3.424s8.753.6,8.938-.48l.51-2.983Z" transform="translate(-1094.324 -1232.552)"/><path class="y" d="M1112.974,1234.7c-.184,1.079-4.186,1.293-8.937.48s-8.454-2.345-8.27-3.424,4.186-1.293,8.938-.48S1113.158,1233.626,1112.974,1234.7Z" transform="translate(-1095.249 -1230.787)"/></g></g><g transform="translate(1.15 38.874)"><rect class="x" width="93.132" height="76.793" transform="translate(114.071 76.793) rotate(180)"/><rect class="y" width="93.132" height="76.793" transform="translate(160.637 76.793) rotate(180)"/><path class="z" d="M1140.236,1264.817h93.372v52.612l-93.372,24.182Z" transform="translate(-1072.731 -1264.817)"/><path class="y" d="M1140.236,1264.817l18.428,20.205h91.9l-17.2-20.205Z" transform="translate(-1072.731 -1264.817)"/><path class="y" d="M1009.342,1413.207H1024.1l-1.3-4.153,1.3-2.967h-14.758Z" transform="translate(-988.349 -1355.889)"/><path class="aa" d="M1055.854,1273.5l-19.631,19.631h-26.881v-28.312h46.512Z" transform="translate(-988.349 -1264.817)"/><path class="y" d="M971.2,1264.817l-20.939,20.205h46.6l20.909-20.205Z" transform="translate(-950.262 -1264.817)"/></g></g><path class="b" d="M531.909,1272.452s-18.665-95.121-50.468-91.215S531.909,1272.452,531.909,1272.452Z" transform="translate(-380.273 -798.98)"/><path class="b" d="M485.691,1377.515s-29.4-35.07-55.527-24.642S467.182,1360.7,485.691,1377.515Z" transform="translate(-347.903 -908.455)"/><path class="b" d="M2139.852,1225.65s11.679-64.708,21.746-53.524S2139.852,1225.65,2139.852,1225.65Z" transform="translate(-1454.103 -792.345)"/><path class="b" d="M2151.893,1298.078s20.077-31.875,27.16-21.436S2151.893,1298.078,2151.893,1298.078Z" transform="translate(-1461.866 -859.207)"/><path class="i" d="M1.239,0H933.224a1.239,1.239,0,0,1,1.239,1.239v0a1.239,1.239,0,0,1-1.239,1.239H1.239A1.239,1.239,0,0,1,0,1.239v0A1.239,1.239,0,0,1,1.239,0Z" transform="translate(0 488.709)"/></g></g></svg>