<svg xmlns="http://www.w3.org/2000/svg" width="101.724" height="108.65" viewBox="0 0 101.724 108.65"><defs><style>.a{fill:#e6af97;}.b{fill:#d99885;}.c{fill:#e2a58e;}.d{fill:#5d7fce;}.e{fill:#5072c1;}.f{fill:#4062b5;}.g{fill:#ba3c54;}.h{fill:#da677d;}.i,.j{fill:#fff;}.j{opacity:0.35;}.k{fill:#221613;}</style></defs><g transform="translate(-199.138 -55.125)"><path class="a" d="M289.663,163.774c-.4-9.61-1.292-21.941-3.223-25.6-3.3-6.263-22.341-6.86-25.387-11.929s-2.539-14.315-2.539-14.315l-8.632.3-8.632-.3s.508,9.245-2.539,14.315-22.087,5.666-25.387,11.929c-1.931,3.662-2.818,15.993-3.223,25.6Z"/><path class="b" d="M249.882,112.225l-8.632-.3a37.409,37.409,0,0,1-1.279,11.426,25.711,25.711,0,0,0,22.551,4.354,5.054,5.054,0,0,1-1.47-1.465c-3.046-5.07-2.538-14.315-2.538-14.315Z"/><path class="a" d="M227.871,89.553s-3.831-3.234-6.862.448c-2.527,3.068.906,9.3,4.335,11.284s4.693-.18,4.693-.18Z"/><path class="b" d="M228.052,95.092s-2.242-4.261-5.045-4.373,2.354.9,2.13,2.8S222.671,97.109,223.9,97s2.354-2.466,2.915-1.233,1.345,2.13,1.345,1.458S228.052,95.092,228.052,95.092Z"/><path class="a" d="M271.892,89.553s3.831-3.234,6.863.448c2.527,3.068-.906,9.3-4.336,11.284s-4.693-.18-4.693-.18Z"/><path class="b" d="M271.712,95.092s2.242-4.261,5.045-4.373-2.354.9-2.13,2.8,2.466,3.587,1.233,3.475-2.354-2.466-2.915-1.233-1.345,2.13-1.345,1.458S271.712,95.092,271.712,95.092Z"/><path class="a" d="M249.882,60.9c-14.6.541-23.966,9.911-23.786,17.3.189,7.748,1.081,29.191,8.289,36.94a31.524,31.524,0,0,0,6.074,5.079,17.446,17.446,0,0,0,18.846,0,31.553,31.553,0,0,0,6.074-5.079c7.207-7.749,8.1-29.192,8.289-36.94C273.848,70.812,264.478,61.442,249.882,60.9Z"/><path class="c" d="M249.882,60.9a28.971,28.971,0,0,0-18.309,6.851,21.35,21.35,0,0,0,2.034,6.407s4.907,8,16.175,8,15.267,4.726,15.267,12.9-1.093,21.868-13.086,25.081a18.111,18.111,0,0,1-16.587-4,31.648,31.648,0,0,0,5.083,4.083,17.446,17.446,0,0,0,18.846,0,31.553,31.553,0,0,0,6.074-5.079c7.207-7.749,8.1-29.192,8.289-36.94C273.848,70.812,264.478,61.442,249.882,60.9Z"/><path d="M227.28,95.056s-3.824-11.3-2.955-19.121,5.91-9.908,5.91-9.908-3.3-6.78,11.125-9.909,22.077,2.086,25.553,2.608,8.052-2.538,8.518-1.217c1.043,2.955-1.738,6.953-1.738,6.953s1.564-1.043,2.781-.347-2.434,6.605-2.434,6.605.522,1.043,1.043,5.737-2.607,18.6-2.607,18.6-3.3-9.908-3.824-13.732a35.55,35.55,0,0,0-2.608-8.344s-8.865,6.953-18.078,6.779-14.254-5.041-14.254-5.041,1.912,4.694-1.391,7.3-3.3,5.041-3.3,6.258S227.28,95.056,227.28,95.056Z"/><path class="d" d="M300.862,163.774c-1.142-9.569-3.716-21.829-9.515-26.526-7.944-6.436-22.156-9.825-27.819-10.972a13.725,13.725,0,0,1-27.056,0c-5.663,1.147-19.876,4.536-27.82,10.972-5.8,4.7-8.372,16.957-9.514,26.526Z"/><path class="e" d="M220.8,163.773c-1.77-7.471-2.963-19.24-4.919-14.023a61.546,61.546,0,0,0-3.151,14.023Z"/><path class="e" d="M300.862,163.773c-1.142-9.568-3.716-21.828-9.515-26.525-7.943-6.436-22.156-9.825-27.818-10.972a12.586,12.586,0,0,1-.84,3.1c4.932.057,12.675,1.654,14.818,10.723,2.263,9.572.713,17.544-5.128,23.676Z"/><path class="f" d="M233.4,126.947c.47,7.809,7.71,14.017,16.6,14.017s16.129-6.208,16.6-14.017c-1.174-.273-3.819-.5-4.663-.671-.86,6.431-4.988,9.812-11.935,9.812s-11.075-3.381-11.935-9.812C237.221,126.447,234.576,126.674,233.4,126.947Z"/><path d="M241.841,95.89a1.788,1.788,0,1,1-1.748-2.159A1.987,1.987,0,0,1,241.841,95.89Z"/><path d="M261.514,95.89a1.787,1.787,0,1,1-1.748-2.159A1.987,1.987,0,0,1,261.514,95.89Z"/><path class="b" d="M251.048,95.022s-1.035,1.423.518,4.4,2.975,4.915,2.069,5.95-3.363,1.94-3.234,1.552,2.126-1.525,1.091-4.241S248.719,97.6,251.048,95.022Z"/><path d="M233.981,91.115s2.626-4.81,6.631-3.211c1.417.566,1.272,2.2-1.863,1.667C236.8,89.239,233.981,91.115,233.981,91.115Z"/><path d="M265.085,91.243s-2.586-4.833-6.6-3.267c-1.422.554-1.29,2.188,1.849,1.682C262.283,89.343,265.085,91.243,265.085,91.243Z"/><path class="g" d="M245.445,111.73a.693.693,0,0,1,.361-1.013c2.343-.822,9.984-2.87,10.283-2.032.354.99-.654,5.3-5.445,5.586A5.2,5.2,0,0,1,245.445,111.73Z"/><path class="h" d="M250.645,114.271a5.73,5.73,0,0,0,4.377-2.151,5.822,5.822,0,0,0-7.465,1.595A6.013,6.013,0,0,0,250.645,114.271Z"/><path class="i" d="M255.174,109.021a3.864,3.864,0,0,0,.172-.528c-1.95.021-7.2,1.435-9.31,2.146.147.268.6.511,2.1.4C250.644,110.868,254.822,109.9,255.174,109.021Z"/><path class="j" d="M246.439,96.968a8.4,8.4,0,1,1-16.808,0c0-4.641,3.762-6.277,8.4-6.277S246.439,92.327,246.439,96.968Z"/><path class="j" d="M269.269,96.968a8.4,8.4,0,0,1-16.809,0c0-4.641,3.763-6.277,8.4-6.277S269.269,92.327,269.269,96.968Z"/><path class="k" d="M260.864,90.164c-5.41,0-8.5,2.156-8.859,6.052H246.9c-.36-3.9-3.451-6.052-8.861-6.052-5.759,0-8.93,2.417-8.93,6.8a8.928,8.928,0,0,0,17.824.753h5.044a8.928,8.928,0,0,0,17.824-.753C269.8,92.581,266.624,90.164,260.864,90.164Zm-22.83,14.682a7.886,7.886,0,0,1-7.876-7.878c0-4.752,4.283-5.75,7.876-5.75s7.878,1,7.878,5.75A7.886,7.886,0,0,1,238.034,104.846Zm22.83,0a7.886,7.886,0,0,1-7.876-7.878c0-4.752,4.282-5.75,7.876-5.75s7.878,1,7.878,5.75A7.886,7.886,0,0,1,260.864,104.846Z"/></g></svg>