<svg xmlns="http://www.w3.org/2000/svg" width="536.001" height="331.159" viewBox="0 0 536.001 331.159"><defs><style>.a{fill:#e6e6e6;}.b{fill:#ea4840;}.c{fill:#e8e1dc;}.d{fill:#d1c7b4;}.e{fill:#c6352f;}.f{fill:#ffc84b;}.g{fill:#ffa83a;}.h{fill:#207eba;}.i{fill:#065781;}.j{fill:#cca170;}.k{fill:#ad8865;}.l{fill:#e8c69b;}.m{fill:#bf8c59;}.n{fill:#f7ddbc;}.o{fill:#f2d5b0;}.p{fill:#cda06b;}.q{fill:#e2b886;}.r{fill:#bf966d;}.s{fill:#362f2b;}.t{fill:#fe8b28;}.u{fill:#ffe466;}.v{fill:#a12d28;}.w{fill:#ff7063;}.x{fill:#f7f5ea;}.y{fill:#333;}.z{fill:#7a594a;}.aa{fill:#5e3b2b;}.ab{fill:#adaba5;}.ac{fill:#91908b;}.ad{fill:#fbbb26;}.ae{fill:#fbd65d;}.af{fill:#fb9e1c;}.ag{fill:#ffefa3;}.ah{fill:#f0e8d8;}.ai{fill:#f0eadf;}.aj{fill:#6ea653;}.ak{fill:#47802b;}.al{fill:#99c981;}.am{fill:#78bd55;}.an{fill:#e6ab67;}.ao{fill:#d49d5f;}.ap{fill:#c28a4c;}.aq{fill:#b07b3d;}.ar{fill:#4d4d4d;}.as{fill:#666;}.at{fill:#ffe6cc;}.au{fill:#ffdab3;}.av{fill:#fff2e6;}.aw{fill:#473f39;}.ax{fill:#1f1709;}.ay{fill:#ffb332;}.az{fill:#ffa216;}.ba{fill:#3c424d;}.bb{fill:#556275;}.bc{fill:#fff9ed;}.bd{fill:#d14949;}.be{fill:#fc6a65;}.bf{fill:#ffb833;}.bg{fill:#ffde66;}.bh{fill:#a7a9ac;}</style></defs><g transform="translate(-72.638 -366.622)"><g transform="translate(72.638 681.06)"><ellipse class="a" cx="268" cy="6.708" rx="268" ry="6.708"/></g><g transform="translate(85.46 366.622)"><g transform="translate(271.339)"><g transform="translate(0 19.046)"><path class="b" d="M636.745,404.1a4.945,4.945,0,1,0,0,9.89h45.989V404.1Z" transform="translate(-631.8 -404.101)"/><g transform="translate(30.441 0.549)"><path class="c" d="M733.536,413.974H696.1a4.4,4.4,0,0,1,0-8.792h37.439Z" transform="translate(-691.701 -405.182)"/></g><g transform="translate(30.441 0.549)"><path class="d" d="M692.36,411.336a4.4,4.4,0,0,1,4.4-4.4h36.78v-1.758H696.1a4.392,4.392,0,0,0-3.686,6.786A4.4,4.4,0,0,1,692.36,411.336Z" transform="translate(-691.701 -405.182)"/></g><g transform="translate(29.891)"><path class="e" d="M733.664,413.991h-38.1a4.945,4.945,0,1,1,0-9.89h38.1a.549.549,0,0,1,0,1.1h-38.1a3.846,3.846,0,1,0,0,7.693h38.1a.549.549,0,0,1,0,1.1Z" transform="translate(-690.619 -404.101)"/></g><g transform="translate(3.449 0.79)"><path class="e" d="M641.022,413.966a.548.548,0,0,1-.314-.1,4.941,4.941,0,0,1,0-8.114.55.55,0,1,1,.629.9,3.84,3.84,0,0,0,0,6.311.55.55,0,0,1-.315,1Z" transform="translate(-638.587 -405.655)"/><g transform="translate(21.108)"><path class="e" d="M682.557,413.966a.549.549,0,0,1-.314-.1,4.941,4.941,0,0,1,0-8.114.55.55,0,0,1,.629.9,3.841,3.841,0,0,0,0,6.311.55.55,0,0,1-.315,1Z" transform="translate(-680.122 -405.655)"/></g></g></g><g transform="translate(4.192)"><path class="f" d="M644.739,366.622a4.689,4.689,0,1,0,0,9.379h43.608v-9.379Z" transform="translate(-640.049 -366.622)"/><g transform="translate(28.866 0.521)"><path class="c" d="M734.011,375.983H701.018a4.168,4.168,0,1,1,0-8.336h32.993Z" transform="translate(-696.85 -367.647)"/></g><g transform="translate(28.866 0.521)"><path class="d" d="M697.475,373.483a4.168,4.168,0,0,1,4.168-4.168h32.368v-1.667H701.018a4.165,4.165,0,0,0-3.5,6.435A4.164,4.164,0,0,1,697.475,373.483Z" transform="translate(-696.85 -367.647)"/></g><g transform="translate(28.344)"><path class="g" d="M734.131,376H700.514a4.689,4.689,0,1,1,0-9.379h33.618a.521.521,0,1,1,0,1.042H700.514a3.647,3.647,0,1,0,0,7.295h33.618a.521.521,0,0,1,0,1.042Z" transform="translate(-695.824 -366.622)"/></g><g transform="translate(3.27 0.748)"><path class="g" d="M648.793,375.976a.517.517,0,0,1-.3-.094,4.685,4.685,0,0,1,0-7.694.521.521,0,0,1,.6.855,3.642,3.642,0,0,0,0,5.984.521.521,0,0,1-.3.948Z" transform="translate(-646.484 -368.095)"/><g transform="translate(20.016)"><path class="g" d="M688.179,375.976a.516.516,0,0,1-.3-.094,4.685,4.685,0,0,1,0-7.694.521.521,0,0,1,.6.855,3.642,3.642,0,0,0,0,5.984.521.521,0,0,1-.3.948Z" transform="translate(-685.87 -368.095)"/></g></g></g><g transform="translate(2.121 9.379)"><path class="h" d="M640.807,385.077a4.834,4.834,0,0,0,0,9.668H685.76v-9.668Z" transform="translate(-635.973 -385.077)"/><g transform="translate(29.756 0.537)"><path class="c" d="M732.832,394.728h-34.01a4.3,4.3,0,0,1,0-8.594h34.01Z" transform="translate(-694.525 -386.134)"/></g><g transform="translate(29.756 0.537)"><path class="d" d="M695.169,392.15a4.3,4.3,0,0,1,4.3-4.3h33.366v-1.719h-34.01a4.293,4.293,0,0,0-3.6,6.633A4.264,4.264,0,0,1,695.169,392.15Z" transform="translate(-694.525 -386.134)"/></g><g transform="translate(29.218)"><path class="i" d="M732.956,394.745H698.3a4.834,4.834,0,1,1,0-9.668h34.654a.537.537,0,1,1,0,1.074H698.3a3.76,3.76,0,1,0,0,7.519h34.654a.537.537,0,1,1,0,1.074Z" transform="translate(-693.468 -385.077)"/></g><g transform="translate(3.371 0.771)"><path class="i" d="M644.987,394.719a.533.533,0,0,1-.307-.1,4.83,4.83,0,0,1,0-7.931.537.537,0,0,1,.615.881,3.755,3.755,0,0,0,0,6.169.537.537,0,0,1-.308.978Z" transform="translate(-642.607 -386.595)"/><g transform="translate(20.633)"><path class="i" d="M685.587,394.719a.534.534,0,0,1-.307-.1,4.83,4.83,0,0,1,0-7.931.537.537,0,0,1,.615.881,3.755,3.755,0,0,0,0,6.169.537.537,0,0,1-.308.978Z" transform="translate(-683.207 -386.595)"/></g></g></g></g><g transform="translate(229.863 24.446)"><g transform="translate(67.426 0.583)"><rect class="j" width="51.228" height="70.407"/></g><g transform="translate(67.426 69.535)"><rect class="k" width="51.228" height="1.455"/></g><g transform="translate(16.198 0.583)"><g transform="translate(0 0)"><rect class="l" width="51.228" height="70.407" transform="translate(51.228 70.407) rotate(180)"/></g></g><g transform="translate(16.198 0.583)"><path class="m" d="M582.058,443.8h39.321l11.907-26.347v-1.578H582.058Z" transform="translate(-582.058 -415.875)"/></g><g transform="translate(67.426 0.583)"><path class="m" d="M734.091,443.8H694.77l-11.907-26.347v-1.578h51.228Z" transform="translate(-682.863 -415.875)"/></g><g transform="translate(0 23.635)"><path class="l" d="M550.768,461.817h50.644l-.584-.584H550.185Z" transform="translate(-550.185 -461.234)"/></g><path class="n" d="M550.185,438.361h50.644l16.2-23.635H566.382Z" transform="translate(-550.185 -414.726)"/><g transform="translate(16.198 69.535)"><g transform="translate(0 0)"><rect class="j" width="51.228" height="1.455" transform="translate(51.228 1.455) rotate(180)"/></g></g><g transform="translate(50.644)"><path class="j" d="M649.841,438.361l.584.584,16.2-23.635-.584-.583Z" transform="translate(-649.841 -414.726)"/></g><g transform="translate(83.624 23.635)"><path class="k" d="M765.381,461.817H714.736l.584-.584h50.644Z" transform="translate(-714.736 -461.234)"/></g><g transform="translate(68.009)"><path class="l" d="M750.853,438.361H700.209l-16.2-23.635h50.644Z" transform="translate(-684.011 -414.726)"/></g><g transform="translate(67.426)"><path class="o" d="M699.644,438.361l-.583.584-16.2-23.635.584-.583Z" transform="translate(-682.863 -414.726)"/></g></g><g transform="translate(258.354 95.496)"><g transform="translate(57.218 0.012)"><rect class="p" width="57.217" height="78.212"/></g><g transform="translate(0 0.012)"><rect class="q" width="57.217" height="78.212"/></g><path class="m" d="M606.248,632.76h57.218V610.238L615.323,554.66l-5.7-.124Z" transform="translate(-606.248 -554.536)"/><g transform="translate(22.697 66.274)"><rect class="k" width="11.823" height="11.949"/></g><g transform="translate(22.697)"><rect class="r" width="11.823" height="11.949"/></g><g transform="translate(79.915)"><rect class="k" width="11.823" height="11.949"/></g><g transform="translate(79.915 66.274)"><rect class="k" width="11.823" height="11.949"/></g><g transform="translate(60.743 55.914)"><g transform="translate(0 17.186)"><rect class="s" width="16.94" height="1.598"/></g><g transform="translate(12.401 1.931)"><rect class="s" width="1.598" height="13.489"/></g><g transform="translate(9.459)"><path class="s" d="M751.871,670.333h-7.481l3.741-5.771Z" transform="translate(-744.389 -664.561)"/></g><g transform="translate(2.942 1.931)"><rect class="s" width="1.598" height="13.489"/></g><path class="s" d="M733.258,670.333h-7.481l3.741-5.771Z" transform="translate(-725.776 -664.561)"/></g></g><g transform="translate(121.464 90.222)"><g transform="translate(72.538 0.015)"><rect class="p" width="72.538" height="99.154"/></g><g transform="translate(0 0.015)"><rect class="l" width="72.538" height="99.154"/></g><g transform="translate(28.775 84.02)"><rect class="r" width="14.989" height="15.149"/></g><g transform="translate(28.775)"><rect class="j" width="14.989" height="15.149"/></g><g transform="translate(101.313)"><rect class="k" width="14.989" height="15.149"/></g><g transform="translate(101.313 84.02)"><rect class="k" width="14.989" height="15.149"/></g><g transform="translate(77.008 70.885)"><g transform="translate(0 21.788)"><rect class="s" width="21.476" height="2.025"/></g><g transform="translate(15.721 2.448)"><rect class="s" width="2.025" height="17.101"/></g><g transform="translate(11.992)"><path class="s" d="M521.5,690.96h-9.484l4.742-7.317Z" transform="translate(-512.012 -683.644)"/></g><g transform="translate(3.73 2.448)"><rect class="s" width="2.025" height="17.101"/></g><path class="s" d="M497.9,690.96h-9.485l4.742-7.317Z" transform="translate(-488.416 -683.644)"/></g></g><g transform="translate(174.026 31.812)"><g transform="translate(4.861)"><path class="t" d="M479.59,440.41a2.157,2.157,0,0,1-1.642-.556c-.588-.616-.543-1.571-.491-2.676.068-1.454.145-3.1-1.142-4.451a7.721,7.721,0,0,0-3.629-1.885,30.95,30.95,0,0,0-7.744-.789c-6.065,0-10.053.962-11.853,2.857-1.384,1.455-1.293,3.245-1.22,4.683.051,1.005.1,1.873-.4,2.4a1.526,1.526,0,0,1-1.171.424.416.416,0,1,1,0-.832c.411,0,.529-.124.568-.165.253-.265.215-1,.175-1.782-.077-1.512-.182-3.584,1.447-5.3,1.992-2.1,6.066-3.115,12.457-3.116,6.175,0,10.093.958,11.976,2.931,1.533,1.605,1.443,3.524,1.371,5.065-.043.914-.08,1.7.262,2.062a1.4,1.4,0,0,0,1.04.3.416.416,0,0,1,0,.832Z" transform="translate(-449.877 -429.22)"/></g><g transform="translate(6.088 0.104)"><path class="f" d="M452.537,437.057a.243.243,0,0,1-.243-.238,5.711,5.711,0,0,1,1.5-4.372c1.994-2.033,6.028-3.022,12.335-3.023,6.132,0,10.022.941,11.892,2.879a5.632,5.632,0,0,1,1.372,4.452.24.24,0,0,1-.251.234.243.243,0,0,1-.234-.251,5.2,5.2,0,0,0-1.236-4.1c-1.774-1.838-5.549-2.732-11.542-2.731a31.838,31.838,0,0,0-8.068.843,8.559,8.559,0,0,0-3.92,2.035,5.194,5.194,0,0,0-1.36,4.022.242.242,0,0,1-.238.247Z" transform="translate(-452.291 -429.424)"/></g><g transform="translate(9.648 0.139)"><path class="u" d="M459.435,431.34a.139.139,0,0,1-.059-.265c2.243-1.049,5.673-1.582,10.2-1.583s7.754.5,9.921,1.532a.139.139,0,1,1-.12.25c-2.1-1-5.4-1.506-9.8-1.506-4.482,0-7.873.525-10.079,1.557A.14.14,0,0,1,459.435,431.34Z" transform="translate(-459.296 -429.493)"/></g><g transform="translate(3.469 9.004)"><g transform="translate(23.365)"><g transform="translate(0)"><g transform="translate(2.984 0.156)"><g transform="translate(0 0)"><rect class="t" width="14.388" height="0.694" transform="translate(0 13.521) rotate(-70.009)"/></g></g><g transform="translate(4.31 1.596)"><path class="f" d="M506.537,453.583c-.493,1.355-5.4-.43-4.907-1.785a2.611,2.611,0,0,1,4.907,1.785Z" transform="translate(-501.596 -450.079)"/></g><g transform="translate(6.541 1.917)"><path class="t" d="M507.351,450.709c.3,1.723-.15,2.948-1.317,3.328-.017.006-.033.013-.049.019a5.468,5.468,0,0,0,1.588.319c.492-.013.865-.157.983-.482A2.609,2.609,0,0,0,507.351,450.709Z" transform="translate(-505.985 -450.709)"/></g><g transform="translate(0 6.508)"><g transform="translate(0 0)"><ellipse class="u" cx="1.242" cy="4.804" rx="1.242" ry="4.804" transform="translate(0 2.334) rotate(-70.007)"/></g></g><g transform="translate(0.668 3.315)"><path class="f" d="M503.013,455.246l-4.907-1.785-.733.524a8.162,8.162,0,0,0-2.926,3.851h0c-.208.574,1.538,1.736,3.9,2.6s4.449,1.092,4.658.518h0a8.163,8.163,0,0,0,.232-4.831Z" transform="translate(-494.43 -453.461)"/></g><g transform="translate(1.928 4.342)"><path class="u" d="M499.559,455.515a4.361,4.361,0,0,0-2.549,2.454,1.389,1.389,0,0,0,.353,1.542,1.889,1.889,0,0,0,1.786.4c1.329-.375,1.856-2.159,1.671-3.391C500.719,455.835,500.293,455.348,499.559,455.515Z" transform="translate(-496.908 -455.482)"/></g><g transform="translate(6.523 4.495)"><path class="t" d="M508.353,462.334a8.925,8.925,0,0,0,.359-5.268l-.172-.728-1.526-.555.023.958a14.353,14.353,0,0,1-1.088,5.416A5.46,5.46,0,0,0,508.353,462.334Z" transform="translate(-505.95 -455.782)"/></g><g transform="translate(5.126 1.897)"><path class="u" d="M505.029,450.986c.155.332-.118.788-.611,1.018s-1.018.146-1.173-.186.118-.788.611-1.018S504.874,450.653,505.029,450.986Z" transform="translate(-503.202 -450.67)"/></g><g transform="translate(7.17)"><path class="f" d="M509.006,448.171a.919.919,0,1,1-.55-1.178A.92.92,0,0,1,509.006,448.171Z" transform="translate(-507.223 -446.938)"/><g transform="translate(0.083 0.437)"><path class="t" d="M508.949,447.8a.933.933,0,0,1-1.251.919.936.936,0,0,1-.312-.19.872.872,0,1,0,1.563-.729Z" transform="translate(-507.386 -447.798)"/></g><g transform="translate(0.34 0.16)"><path class="u" d="M508.631,447.423a.4.4,0,1,1-.493-.126A.364.364,0,0,1,508.631,447.423Z" transform="translate(-507.891 -447.253)"/></g></g></g></g><g transform="translate(0 0.004)"><g transform="translate(1.179 0.156)"><g transform="translate(0 0)"><rect class="t" width="0.694" height="14.388" transform="translate(0 0.237) rotate(-20.004)"/></g></g><g transform="translate(0.325 1.596)"><path class="f" d="M447.936,453.591c.493,1.355,5.4-.431,4.906-1.786a2.611,2.611,0,0,0-4.906,1.786Z" transform="translate(-447.778 -450.086)"/></g><g transform="translate(0.465 1.916)"><path class="t" d="M449.415,450.716c-.3,1.724.151,2.948,1.318,3.328.017.005.033.013.049.019a5.454,5.454,0,0,1-1.588.319c-.492-.012-.865-.156-.983-.482A2.61,2.61,0,0,1,449.415,450.716Z" transform="translate(-448.053 -450.716)"/></g><g transform="translate(0.262 7.3)"><path class="u" d="M447.673,464.97c.235.644,2.446.431,4.939-.477s4.324-2.166,4.09-2.81-2.446-.431-4.939.477S447.439,464.326,447.673,464.97Z" transform="translate(-447.653 -461.311)"/></g><g transform="translate(0 3.314)"><path class="f" d="M447.621,455.253l4.906-1.786.734.524a8.159,8.159,0,0,1,2.927,3.85h0c.209.574-1.537,1.737-3.9,2.6s-4.448,1.093-4.658.519h0a8.163,8.163,0,0,1-.234-4.83Z" transform="translate(-447.137 -453.467)"/></g><g transform="translate(3.859 4.341)"><path class="u" d="M456.028,455.52a4.362,4.362,0,0,1,2.55,2.453,1.388,1.388,0,0,1-.353,1.542,1.888,1.888,0,0,1-1.786.4c-1.329-.374-1.856-2.158-1.672-3.39C454.869,455.841,455.294,455.354,456.028,455.52Z" transform="translate(-454.731 -455.488)"/></g><g transform="translate(0.211 4.495)"><path class="t" d="M448.152,462.342a8.929,8.929,0,0,1-.36-5.268l.172-.728,1.526-.555-.023.958a14.355,14.355,0,0,0,1.089,5.416A5.453,5.453,0,0,1,448.152,462.342Z" transform="translate(-447.553 -455.79)"/></g><g transform="translate(2.738 1.896)"><path class="u" d="M452.568,450.993c-.155.332.118.788.611,1.017s1.018.146,1.173-.186-.119-.788-.611-1.018S452.723,450.66,452.568,450.993Z" transform="translate(-452.525 -450.677)"/></g><g transform="translate(0.725)"><path class="f" d="M448.62,448.179A.919.919,0,1,0,449.17,447,.919.919,0,0,0,448.62,448.179Z" transform="translate(-448.565 -446.945)"/><g transform="translate(0.046 0.437)"><path class="t" d="M448.8,447.806a.933.933,0,0,0,1.563.729.872.872,0,1,1-1.563-.729Z" transform="translate(-448.656 -447.806)"/></g><g transform="translate(0.734 0.161)"><path class="u" d="M450.034,447.431a.4.4,0,1,0,.494-.126A.364.364,0,0,0,450.034,447.431Z" transform="translate(-450.008 -447.261)"/></g></g></g></g><g transform="translate(4.456 49.901)"><g transform="translate(0 0.003)"><g transform="translate(0.963)"><path class="f" d="M452.057,535.046l-1.082-.625,2.845-7,2.876,1.66Z" transform="translate(-450.974 -527.42)"/></g><g transform="translate(1.185 0.341)"><path class="u" d="M454.626,528.092l-3.214,6.788.194.112,3.536-6.6Z" transform="translate(-451.412 -528.092)"/></g><g transform="translate(1.776 1.071)"><path class="t" d="M452.575,535.928l.269.155,4.639-5.966-1.02-.589Z" transform="translate(-452.575 -529.528)"/></g><g transform="translate(0.963 5.507)"><path class="t" d="M450.974,539.751l1.083.625.99-1.273a1.8,1.8,0,0,0-1.465-.846Z" transform="translate(-450.974 -538.257)"/></g><g transform="translate(0 5.81)"><path class="f" d="M449.171,540.87a1.5,1.5,0,1,0,.9-1.928A1.5,1.5,0,0,0,449.171,540.87Z" transform="translate(-449.08 -538.852)"/></g><g transform="translate(0.076 6.525)"><path class="t" d="M449.468,540.26a1.526,1.526,0,0,0,2.558,1.192,1.427,1.427,0,1,1-2.558-1.192Z" transform="translate(-449.229 -540.26)"/></g><g transform="translate(1.2 6.072)"><path class="u" d="M451.482,539.646a.658.658,0,1,0,.808-.206A.6.6,0,0,0,451.482,539.646Z" transform="translate(-451.441 -539.368)"/></g></g><g transform="translate(24.451)"><path class="f" d="M501.835,535.039l1.082-.625-2.847-7-2.876,1.661Z" transform="translate(-497.194 -527.414)"/><g transform="translate(1.768 0.342)"><path class="u" d="M501.19,528.086l3.216,6.788-.194.112-3.538-6.6Z" transform="translate(-500.673 -528.086)"/></g><g transform="translate(0 1.072)"><path class="t" d="M502.1,535.922l-.269.155-4.641-5.965,1.02-.589Z" transform="translate(-497.194 -529.523)"/></g><g transform="translate(3.65 5.507)"><path class="t" d="M506.45,539.744l-1.082.625-.991-1.273a1.8,1.8,0,0,1,1.465-.846Z" transform="translate(-504.377 -538.25)"/></g><g transform="translate(3.678 5.809)"><path class="f" d="M507.349,540.863a1.5,1.5,0,1,1-.9-1.927A1.5,1.5,0,0,1,507.349,540.863Z" transform="translate(-504.431 -538.845)"/></g><g transform="translate(3.813 6.524)"><path class="t" d="M507.256,540.252a1.527,1.527,0,0,1-2.558,1.193,1.427,1.427,0,1,0,2.558-1.193Z" transform="translate(-504.698 -540.252)"/></g><g transform="translate(4.234 6.071)"><path class="u" d="M506.736,539.64a.658.658,0,1,1-.807-.206A.6.6,0,0,1,506.736,539.64Z" transform="translate(-505.525 -539.361)"/></g></g></g><g transform="translate(19.214 14.135)"><rect class="t" width="1.469" height="2.933"/></g><g transform="translate(0 16.618)"><path class="b" d="M478.954,474.727a21.731,21.731,0,0,1-1.856,18.735,19.664,19.664,0,0,1-18.622,8.819c-9.336-.961-17.388-8.647-18.107-18.111a21.42,21.42,0,0,1,8.237-18.388,20.1,20.1,0,0,1,23.569-.086A19.364,19.364,0,0,1,478.954,474.727Z" transform="translate(-440.311 -461.921)"/></g><g transform="translate(2.629 46.023)"><path class="v" d="M474.844,525.381a20.738,20.738,0,0,1-21.692,1.29,21.47,21.47,0,0,1-7.668-6.89,20.137,20.137,0,0,0,8.357,8.452,19.267,19.267,0,0,0,20.152-1.2,20.744,20.744,0,0,0,6.085-7.107A22,22,0,0,1,474.844,525.381Z" transform="translate(-445.485 -519.782)"/></g><g transform="translate(3.275 17.061)"><path class="w" d="M458.225,465.259a22.368,22.368,0,0,1,22.022,6.617,19.694,19.694,0,0,0-21.392-8.454,20.9,20.9,0,0,0-12.1,9.129A23.427,23.427,0,0,1,458.225,465.259Z" transform="translate(-446.756 -462.793)"/></g><g transform="translate(2.459 19.217)"><path class="v" d="M480.236,484.743a18.979,18.979,0,0,1-7.616,14.572,17.173,17.173,0,0,1-17.962,1.069c-7.25-3.824-11.265-12.677-8.761-20.579A18.707,18.707,0,0,1,458.568,467.6a17.553,17.553,0,0,1,19.122,7.619A16.911,16.911,0,0,1,480.236,484.743Z" transform="translate(-445.15 -467.035)"/></g><g transform="translate(2.465 20.068)"><path class="x" d="M458.574,469.27A18.7,18.7,0,0,0,445.9,481.479a16.047,16.047,0,0,0-.74,4.446,18.08,18.08,0,0,0,9.5,15.282,17.173,17.173,0,0,0,17.962-1.069,18.979,18.979,0,0,0,7.616-14.572c0-.037,0-.075,0-.112a16.826,16.826,0,0,0-2.548-8.565A17.552,17.552,0,0,0,458.574,469.27Z" transform="translate(-445.162 -468.71)"/></g><g transform="translate(2.963 40.889)"><path class="w" d="M473.29,519.111a17.619,17.619,0,0,1-18.434,1,18.557,18.557,0,0,1-8.714-10.374,18.125,18.125,0,0,0,9,11.618,17.173,17.173,0,0,0,17.963-1.069,18.9,18.9,0,0,0,7.061-10.609A19.287,19.287,0,0,1,473.29,519.111Z" transform="translate(-446.141 -509.68)"/></g><g transform="translate(16.283 12.204)"><path class="f" d="M479.506,453.651a14.239,14.239,0,0,0-6.835,0c-.317.087-.413.659-.218,1.26s.563,1.02.824.948a11.864,11.864,0,0,1,5.623,0c.261.072.628-.347.824-.949S479.823,453.738,479.506,453.651Z" transform="translate(-472.352 -453.235)"/><g transform="translate(0.019 1.157)"><path class="t" d="M472.389,455.681a2.166,2.166,0,0,0,.082.351c.2.6.563,1.02.824.948a20.286,20.286,0,0,1,5.623,0c.261.072.628-.347.824-.949a2.031,2.031,0,0,0,.1-.518C477.63,456.134,474.1,456.3,472.389,455.681Z" transform="translate(-472.389 -455.513)"/></g><g transform="translate(1.468 0.292)"><path class="u" d="M479.636,454.067a9.563,9.563,0,0,1-4.395,0,9.565,9.565,0,0,1,4.395,0Z" transform="translate(-475.241 -453.811)"/></g></g><g transform="translate(4.175 21.501)"><g transform="translate(27.619 14.946)"><path class="y" d="M506.918,501.606a.661.661,0,0,1-.632.689,11.043,11.043,0,0,1-3.411-.616,10.947,10.947,0,0,1,3.385-.739A.663.663,0,0,1,506.918,501.606Z" transform="translate(-502.875 -500.94)"/></g><g transform="translate(0 14.63)"><path class="y" d="M448.527,501a.683.683,0,0,1,.683-.679,11.365,11.365,0,0,1,3.479.792,11.27,11.27,0,0,1-3.518.6A.681.681,0,0,1,448.527,501Z" transform="translate(-448.526 -500.319)"/></g><g transform="translate(15.299)"><path class="y" d="M479.313,471.53a.664.664,0,0,1,.705.617,10.357,10.357,0,0,1-.63,3.333,10.281,10.281,0,0,1-.757-3.308A.663.663,0,0,1,479.313,471.53Z" transform="translate(-478.632 -471.53)"/></g><g transform="translate(14.975 26.866)"><path class="y" d="M478.691,528.461a.683.683,0,0,1-.7-.667,10.684,10.684,0,0,1,.811-3.4,10.582,10.582,0,0,1,.617,3.437A.685.685,0,0,1,478.691,528.461Z" transform="translate(-477.995 -524.395)"/></g></g><g transform="translate(19.18 36.109)"><path class="y" d="M480.137,501.316a1.042,1.042,0,1,1-1.042-1.042A1.042,1.042,0,0,1,480.137,501.316Z" transform="translate(-478.053 -500.274)"/></g><g transform="translate(15.012 30.205)"><path class="y" d="M475.062,496.3a.694.694,0,0,1-.564-.288l-4.515-6.252a.695.695,0,0,1,1.126-.814l4.515,6.252a.695.695,0,0,1-.563,1.1Z" transform="translate(-469.851 -488.656)"/></g><g transform="translate(19.874 32.115)"><path class="y" d="M479.767,497.8a.347.347,0,0,1-.114-.675l13.546-4.689a.347.347,0,1,1,.227.657L479.88,497.78A.357.357,0,0,1,479.767,497.8Z" transform="translate(-479.419 -492.415)"/></g></g><g transform="translate(246.11 173.78)"><g transform="translate(107.793 0.022)"><rect class="p" width="107.793" height="147.344"/></g><g transform="translate(0 0.022)"><rect class="q" width="107.793" height="147.344"/></g><g transform="translate(0 38.463)"><path class="m" d="M582.154,893.17H689.947V832.824l-42.058-48.557Z" transform="translate(-582.154 -784.267)"/></g><g transform="translate(42.76 124.855)"><rect class="r" width="22.274" height="22.511"/></g><g transform="translate(42.76)"><rect class="r" width="22.274" height="22.511"/></g><g transform="translate(150.552)"><rect class="k" width="22.274" height="22.511"/></g><g transform="translate(150.552 124.855)"><rect class="k" width="22.274" height="22.511"/></g><g transform="translate(114.435 105.336)"><g transform="translate(0 32.378)"><rect class="s" width="31.914" height="3.01"/></g><g transform="translate(23.362 3.638)"><rect class="s" width="3.01" height="25.413"/></g><g transform="translate(17.82)"><path class="s" d="M856.495,926.73H842.4l7.047-10.873Z" transform="translate(-842.401 -915.857)"/></g><g transform="translate(5.542 3.638)"><rect class="s" width="3.01" height="25.413"/></g><path class="s" d="M821.43,926.73H807.336l7.047-10.873Z" transform="translate(-807.336 -915.857)"/></g></g><g transform="translate(17.356 189.08)"><g transform="translate(96.601 0.02)"><rect class="p" width="96.601" height="132.047"/></g><g transform="translate(0 0.02)"><rect class="l" width="96.601" height="132.047"/></g><g transform="translate(38.32 111.893)"><rect class="r" width="19.961" height="20.174"/></g><g transform="translate(38.32)"><rect class="j" width="19.961" height="20.174"/></g><g transform="translate(134.922)"><rect class="k" width="19.961" height="20.174"/></g><g transform="translate(134.922 111.893)"><rect class="k" width="19.961" height="20.174"/></g><g transform="translate(102.554 94.4)"><g transform="translate(0 29.016)"><rect class="s" width="28.601" height="2.697"/></g><g transform="translate(20.936 3.26)"><rect class="s" width="2.697" height="22.774"/></g><g transform="translate(15.97)"><path class="s" d="M377.879,934.188H365.248l6.315-9.744Z" transform="translate(-365.248 -924.444)"/></g><g transform="translate(4.967 3.26)"><rect class="s" width="2.697" height="22.774"/></g><path class="s" d="M346.455,934.188H333.824l6.315-9.744Z" transform="translate(-333.824 -924.444)"/></g></g><g transform="translate(214.042 164.263)"><g transform="translate(0 0)"><rect class="z" width="67.041" height="89.981"/></g><g transform="translate(67.041 0)"><rect class="aa" width="3.362" height="89.981" transform="translate(3.362 89.981) rotate(180)"/></g><g transform="translate(5.933 5.933)"><rect class="x" width="55.175" height="78.116"/></g><g transform="translate(15.821 15.821)"><rect class="ab" width="36.388" height="58.34"/></g><g transform="translate(15.821 15.821)"><rect class="ac" width="0.593" height="58.34"/></g><g transform="translate(5.933 5.933)"><rect class="aa" width="1.78" height="78.116" transform="translate(1.78 78.116) rotate(180)"/></g></g><g transform="translate(333.2 80.38)"><g transform="translate(0 6.801)"><path class="ad" d="M788.2,572.3c-10.36,0-18.513-1.772-24.231-5.266-6.925-4.232-10.436-10.985-10.436-20.07v-7.267a1.521,1.521,0,0,1,1.52-1.521h0a1.521,1.521,0,0,1,1.521,1.521v7.267c0,8.066,2.937,13.782,8.981,17.476,5.233,3.2,12.853,4.82,22.645,4.82a1.52,1.52,0,1,1,0,3.041Z" transform="translate(-753.528 -538.174)"/></g><g transform="translate(33.147 6.801)"><path class="ad" d="M820.273,572.3a1.52,1.52,0,1,1,0-3.041c9.792,0,17.412-1.622,22.645-4.82,6.044-3.694,8.981-9.41,8.981-17.476v-7.267a1.52,1.52,0,1,1,3.041,0v7.267c0,9.085-3.511,15.838-10.436,20.07C838.786,570.526,830.634,572.3,820.273,572.3Z" transform="translate(-818.753 -538.174)"/></g><g transform="translate(33.147 6.801)"><path class="ae" d="M853.42,541.215H820.273a1.521,1.521,0,0,1,0-3.041H853.42a1.521,1.521,0,0,1,0,3.041Z" transform="translate(-818.753 -538.174)"/></g><g transform="translate(0 6.801)"><path class="ae" d="M788.2,541.215H755.05a1.521,1.521,0,0,1,0-3.041H788.2a1.521,1.521,0,0,1,0,3.041Z" transform="translate(-753.529 -538.174)"/></g><g transform="translate(28.986 50.902)"><path class="ae" d="M819.8,643.545h-7.1a21.336,21.336,0,0,1,0-18.59h7.1A21.338,21.338,0,0,1,819.8,643.545Z" transform="translate(-810.565 -624.955)"/></g><g transform="translate(35.42 50.902)"><path class="ad" d="M826.025,624.955h-2.8a29.826,29.826,0,0,1,0,18.59h2.8A21.337,21.337,0,0,0,826.025,624.955Z" transform="translate(-823.227 -624.955)"/></g><g transform="translate(29.868 50.902)"><path class="af" d="M817.1,628.574a36.889,36.889,0,0,0,4.8-.308,24.41,24.41,0,0,0-1.248-3.31h-7.1a24.312,24.312,0,0,0-1.248,3.31A36.881,36.881,0,0,0,817.1,628.574Z" transform="translate(-812.302 -624.955)"/></g><g transform="translate(10.238 2.027)"><path class="ad" d="M822.532,528.781c0,30.612-1.649,37.427-7.034,43.335-4.434,4.865-10.972,6.745-17.395,6.745s-12.96-1.88-17.395-6.745c-5.386-5.909-7.034-12.723-7.034-43.335Z" transform="translate(-773.674 -528.781)"/></g><g transform="translate(10.245 5.14)"><path class="ae" d="M780.715,575.129c.07.077.142.151.213.226a23.213,23.213,0,0,0,8.116,1.379c5.364,0,10.824-1.571,14.527-5.633,4.5-4.936,5.875-10.626,5.875-36.194H773.687C773.8,562.879,775.516,569.426,780.715,575.129Z" transform="translate(-773.687 -534.907)"/></g><g transform="translate(14.591 7.94)"><path class="ag" d="M784.052,546.635a1.783,1.783,0,0,1-1.783-1.76q-.017-1.293-.029-2.66a1.783,1.783,0,0,1,1.767-1.8h.016a1.783,1.783,0,0,1,1.783,1.767q.012,1.36.029,2.645a1.783,1.783,0,0,1-1.759,1.807Z" transform="translate(-782.24 -540.416)"/><g transform="translate(0.111 7.3)"><path class="ag" d="M786.752,582.023l-.122-.258-.146-.31c-.057-.124-.125-.257-.195-.433-.139-.339-.325-.757-.488-1.228-.182-.471-.349-1.01-.537-1.6-.167-.591-.353-1.233-.51-1.915l-.126-.518-.113-.532c-.074-.359-.16-.726-.224-1.1s-.139-.754-.209-1.139-.124-.775-.187-1.167-.115-.789-.173-1.186-.115-.8-.161-1.2c-.1-.8-.2-1.6-.275-2.383s-.16-1.559-.228-2.307-.129-1.471-.185-2.157-.106-1.334-.147-1.932c-.089-1.2-.151-2.192-.195-2.89l-.07-1.1a1.784,1.784,0,1,1,3.562-.226c0,.042,0,.083,0,.125v.017s0,.4-.01,1.087-.017,1.68-.015,2.864c0,.593,0,1.234.007,1.911s.01,1.393.028,2.131.029,1.5.059,2.274.061,1.558.1,2.342c.016.393.047.782.072,1.171s.047.778.084,1.16.066.763.1,1.138.081.741.121,1.1.091.716.137,1.063c.024.173.047.345.071.514s.055.334.083.5c.1.658.232,1.268.348,1.833.136.558.254,1.073.39,1.517s.255.819.355,1.131c.046.153.108.3.156.426l.124.32.1.266a.863.863,0,0,1-1.586.677Z" transform="translate(-782.459 -554.78)"/></g></g><g transform="translate(10.239 2.214)"><path class="af" d="M822.521,533.2q.01-1.955.012-4.055H773.675q0,2.1.011,4.055Z" transform="translate(-773.675 -529.148)"/></g><g transform="translate(8.211)"><path class="ad" d="M820.571,528.847H771.712a2.027,2.027,0,0,1,0-4.055h48.859a2.027,2.027,0,0,1,0,4.055Z" transform="translate(-769.685 -524.792)"/></g><g transform="translate(8.211)"><path class="ae" d="M809.066,526.819a2.027,2.027,0,0,0-2.028-2.027H771.712a2.027,2.027,0,0,0,0,4.055h35.326A2.027,2.027,0,0,0,809.066,526.819Z" transform="translate(-769.685 -524.792)"/></g><g transform="translate(17.658 68.378)"><path class="ae" d="M822.293,662.321a2.977,2.977,0,0,0-2.977-2.977H791.253a2.977,2.977,0,0,0-2.977,2.977Z" transform="translate(-788.275 -659.344)"/></g><g transform="translate(45.415 68.378)"><path class="ad" d="M846.178,659.344h-3.284a2.977,2.977,0,0,1,2.977,2.977h3.284A2.977,2.977,0,0,0,846.178,659.344Z" transform="translate(-842.894 -659.344)"/></g><g transform="translate(11.252 0.157)"><path class="ag" d="M779.926,526.971A1.871,1.871,0,0,1,781.8,525.1H777.54a1.871,1.871,0,0,0-1.871,1.871Z" transform="translate(-775.669 -525.1)"/></g><g transform="translate(20.702 68.572)"><path class="ag" d="M797.665,662.165a2.44,2.44,0,0,1,2.44-2.44h-3.4a2.44,2.44,0,0,0-2.44,2.44Z" transform="translate(-794.265 -659.725)"/></g><g transform="translate(7.528 71.355)"><rect class="aa" width="54.279" height="21.941" rx="5.046"/></g><g transform="translate(18.669 75.859)"><rect class="ae" width="31.997" height="12.934" rx="2.975"/></g><g transform="translate(19.277 76.467)"><path class="ag" d="M792.069,686.684a.608.608,0,0,1-.608-.608v-9.911a.9.9,0,0,1,.9-.9h28.974a.608.608,0,0,1,0,1.217h-28.66v9.6A.608.608,0,0,1,792.069,686.684Z" transform="translate(-791.461 -675.262)"/></g><g transform="translate(19.572 76.762)"><path class="ad" d="M821.623,687.264H792.649a.608.608,0,0,1,0-1.217h28.66v-9.6a.609.609,0,0,1,1.217,0v9.911A.9.9,0,0,1,821.623,687.264Z" transform="translate(-792.041 -675.842)"/></g></g><g transform="translate(186.961 158.473)"><g transform="translate(0.352)"><g transform="translate(31.018 4.402)"><path class="ah" d="M530.042,688.4c-1.109.091-1.183.166-1.274,1.275-.092-1.109-.166-1.183-1.275-1.275,1.109-.092,1.183-.166,1.275-1.275C528.859,688.231,528.933,688.305,530.042,688.4Z" transform="translate(-527.493 -687.122)"/><g transform="translate(0 0)"><circle class="ah" cx="1.275" cy="1.275" r="1.275"/></g></g><g transform="translate(34.559 11.719)"><path class="ah" d="M537.694,703.136c-1.406.116-1.5.21-1.617,1.616-.116-1.406-.21-1.5-1.616-1.616,1.406-.116,1.5-.21,1.616-1.617C536.193,702.925,536.287,703.019,537.694,703.136Z" transform="translate(-534.461 -701.519)"/><g transform="translate(0.473 0.473)"><path class="ah" d="M537.678,704.736c-1.076-.913-1.209-.913-2.286,0,.913-1.077.913-1.209,0-2.286,1.077.913,1.209.913,2.286,0C536.766,703.527,536.766,703.659,537.678,704.736Z" transform="translate(-535.392 -702.45)"/></g></g><g transform="translate(35.801 18.706)"><path class="ah" d="M539.463,716.548c-1.113.091-1.188.166-1.279,1.279-.092-1.113-.167-1.188-1.28-1.279,1.113-.092,1.188-.166,1.28-1.28C538.275,716.381,538.35,716.456,539.463,716.548Z" transform="translate(-536.904 -715.268)"/><g transform="translate(0 0)"><circle class="ah" cx="1.279" cy="1.279" r="1.279"/></g></g><g transform="translate(35.732 25.418)"><path class="ah" d="M540.214,730.2c-1.5.124-1.6.224-1.723,1.723-.124-1.5-.224-1.6-1.723-1.723,1.5-.123,1.6-.224,1.723-1.723C538.615,729.975,538.715,730.075,540.214,730.2Z" transform="translate(-536.769 -728.476)"/><g transform="translate(0.505 0.505)"><path class="ah" d="M540.2,731.905c-1.147-.972-1.289-.972-2.436,0,.972-1.147.972-1.289,0-2.436,1.147.973,1.289.973,2.436,0C539.226,730.616,539.226,730.758,540.2,731.905Z" transform="translate(-537.762 -729.469)"/></g></g><g transform="translate(35.464 32.213)"><g transform="translate(0 0)"><path class="ah" d="M539.474,743.462c-1.406.116-1.5.21-1.616,1.616-.116-1.406-.21-1.5-1.617-1.616,1.406-.116,1.5-.21,1.617-1.616C537.973,743.252,538.068,743.346,539.474,743.462Z" transform="translate(-536.241 -741.846)"/></g><circle class="ah" cx="1.616" cy="1.616" r="1.616"/></g><g transform="translate(34.896 39.353)"><path class="ah" d="M537.683,757.175c-1.113.092-1.188.166-1.28,1.28-.092-1.114-.166-1.188-1.279-1.28,1.113-.091,1.188-.166,1.279-1.279C536.5,757.009,536.569,757.084,537.683,757.175Z" transform="translate(-535.124 -755.896)"/><g transform="translate(0.375 0.375)"><path class="ah" d="M537.671,758.442c-.852-.722-.958-.722-1.81,0,.722-.852.722-.957,0-1.809.852.722.958.722,1.81,0C536.948,757.485,536.948,757.59,537.671,758.442Z" transform="translate(-535.861 -756.633)"/></g></g><g transform="translate(1.468 36.685)"><path class="ai" d="M472.012,751.98c-1.161.1-1.238.173-1.334,1.334-.1-1.161-.173-1.238-1.333-1.334,1.16-.1,1.238-.173,1.333-1.333C470.775,751.807,470.852,751.885,472.012,751.98Z" transform="translate(-469.345 -750.647)"/><g transform="translate(0 0)"><circle class="ai" cx="1.334" cy="1.334" r="1.334"/></g></g><g transform="translate(0.197 29.608)"><path class="ai" d="M469.9,738.246c-1.328.109-1.416.2-1.526,1.526-.109-1.328-.2-1.416-1.526-1.526,1.328-.11,1.417-.2,1.526-1.526C468.479,738.047,468.567,738.136,469.9,738.246Z" transform="translate(-466.843 -736.72)"/><g transform="translate(0)"><circle class="ai" cx="1.526" cy="1.526" r="1.526"/></g></g><g transform="translate(0 22.136)"><path class="ai" d="M469.9,723.741c-1.5.123-1.6.224-1.723,1.723-.123-1.5-.224-1.6-1.723-1.723,1.5-.124,1.6-.224,1.723-1.723C468.3,723.517,468.4,723.617,469.9,723.741Z" transform="translate(-466.456 -722.018)"/><g transform="translate(0 0)"><circle class="ai" cx="1.723" cy="1.723" r="1.723"/></g></g><g transform="translate(3.018 8.886)"><circle class="ai" cx="1.279" cy="1.279" r="1.279"/><g transform="translate(0.375 0.375)"><path class="ai" d="M474.942,698.491c-.852-.723-.957-.723-1.809,0,.722-.852.722-.957,0-1.81.852.722.957.722,1.809,0C474.22,697.533,474.22,697.638,474.942,698.491Z" transform="translate(-473.133 -696.681)"/></g></g><g transform="translate(1.222 15.511)"><path class="ai" d="M471.42,710.261c-1.113.091-1.188.166-1.279,1.279-.092-1.113-.166-1.188-1.28-1.279,1.113-.092,1.188-.167,1.28-1.28C470.232,710.094,470.307,710.169,471.42,710.261Z" transform="translate(-468.861 -708.981)"/><g transform="translate(0.375 0.375)"><path class="ai" d="M471.408,711.528c-.852-.722-.957-.722-1.809,0,.722-.852.722-.957,0-1.81.852.722.957.722,1.809,0C470.686,710.57,470.686,710.675,471.408,711.528Z" transform="translate(-469.599 -709.718)"/></g></g><g transform="translate(6.71 3.609)"><circle class="ai" cx="1.12" cy="1.12" r="1.12"/><g transform="translate(0.328 0.328)"><path class="ai" d="M481.888,687.789c-.746-.632-.838-.632-1.584,0,.632-.746.632-.838,0-1.584.746.633.838.633,1.584,0C481.256,686.951,481.256,687.043,481.888,687.789Z" transform="translate(-480.304 -686.205)"/></g></g><g transform="translate(1.723)"><path class="aj" d="M472.4,725.992h15.31V678.459C460.6,678.459,472.4,725.992,472.4,725.992Z" transform="translate(-469.846 -678.459)"/><g transform="translate(17.866)"><path class="ak" d="M505,678.459v47.533h15.31S532.114,678.459,505,678.459Z" transform="translate(-505.003 -678.459)"/></g></g><g transform="translate(10.406)"><path class="al" d="M488.246,725.992h7.87V678.459C482.18,678.459,488.246,725.992,488.246,725.992Z" transform="translate(-486.932 -678.459)"/><g transform="translate(9.184)"><path class="am" d="M505,678.459v47.533h7.869S518.938,678.459,505,678.459Z" transform="translate(-505.003 -678.459)"/></g></g><g transform="translate(11)"><path class="ak" d="M489.33,725.992h7.361V678.459C483.656,678.459,489.33,725.992,489.33,725.992Z" transform="translate(-488.101 -678.459)"/><g transform="translate(8.589)"><path class="aj" d="M505,678.459v47.533h7.36S518.037,678.459,505,678.459Z" transform="translate(-505.003 -678.459)"/></g></g><g transform="translate(9.218 22.328)"><g transform="translate(0 0)"><path class="ai" d="M487.47,723.834c-1.251.1-1.335.187-1.438,1.438-.1-1.252-.187-1.335-1.438-1.438,1.252-.1,1.335-.187,1.438-1.438C486.135,723.647,486.219,723.73,487.47,723.834Z" transform="translate(-484.594 -722.396)"/></g><g transform="translate(0)"><circle class="ai" cx="1.438" cy="1.438" r="1.438"/></g></g><g transform="translate(9.252 28.737)"><g transform="translate(0)"><path class="ai" d="M487.47,736.41c-1.222.1-1.3.182-1.4,1.4-.1-1.222-.182-1.3-1.4-1.4,1.221-.1,1.3-.182,1.4-1.4C486.167,736.228,486.248,736.31,487.47,736.41Z" transform="translate(-484.662 -735.006)"/></g><g transform="translate(0 0)"><circle class="ai" cx="1.404" cy="1.404" r="1.404"/></g></g><g transform="translate(9.491 37.036)"><g transform="translate(0 0)"><path class="ai" d="M488.366,752.955c-1.406.116-1.5.21-1.617,1.616-.116-1.406-.21-1.5-1.616-1.616,1.406-.116,1.5-.21,1.616-1.616C486.865,752.744,486.959,752.838,488.366,752.955Z" transform="translate(-485.133 -751.338)"/></g><circle class="ai" cx="1.616" cy="1.616" r="1.616"/></g><g transform="translate(9.277 15.449)"><path class="ai" d="M488.156,710.582c-1.5.123-1.6.224-1.723,1.723-.124-1.5-.224-1.6-1.723-1.723,1.5-.124,1.6-.224,1.723-1.723C486.557,710.358,486.657,710.458,488.156,710.582Z" transform="translate(-484.711 -708.859)"/><g transform="translate(0.505 0.505)"><path class="ai" d="M488.14,712.288c-1.148-.973-1.289-.973-2.436,0,.972-1.148.972-1.289,0-2.436,1.147.972,1.289.972,2.436,0C487.168,711,487.168,711.141,488.14,712.288Z" transform="translate(-485.704 -709.852)"/></g></g><g transform="translate(23.262 1.67)"><circle class="ai" cx="1.529" cy="1.529" r="1.529"/><g transform="translate(0.448 0.448)"><path class="ai" d="M515.275,684.789c-1.018-.863-1.144-.863-2.163,0,.863-1.018.863-1.144,0-2.163,1.018.863,1.144.863,2.163,0C514.412,683.644,514.412,683.77,515.275,684.789Z" transform="translate(-513.112 -682.626)"/></g></g><g transform="translate(25.61 7.128)"><path class="ai" d="M519.361,693.74c-1.092.09-1.165.163-1.255,1.255-.09-1.092-.163-1.165-1.256-1.255,1.093-.09,1.166-.163,1.256-1.255C518.2,693.577,518.269,693.65,519.361,693.74Z" transform="translate(-516.85 -692.485)"/><g transform="translate(0.368 0.367)"><path class="ai" d="M519.35,694.984c-.837-.709-.94-.709-1.776,0,.709-.836.709-.94,0-1.776.836.709.939.709,1.776,0C518.641,694.044,518.641,694.148,519.35,694.984Z" transform="translate(-517.574 -693.208)"/></g></g><g transform="translate(26.588 13.335)"><path class="ai" d="M521.325,705.975c-1.109.092-1.183.165-1.274,1.275-.092-1.109-.166-1.183-1.275-1.275,1.109-.091,1.184-.166,1.275-1.275C520.142,705.809,520.215,705.883,521.325,705.975Z" transform="translate(-518.775 -704.7)"/><g transform="translate(0.374 0.373)"><path class="ai" d="M521.313,707.237c-.849-.72-.954-.72-1.8,0,.719-.849.719-.954,0-1.8.849.719.954.719,1.8,0C520.593,706.283,520.593,706.388,521.313,707.237Z" transform="translate(-519.51 -705.434)"/></g></g><g transform="translate(26.998 19.986)"><path class="ai" d="M522.249,719.12c-1.16.1-1.237.173-1.334,1.333-.1-1.16-.173-1.238-1.333-1.333,1.16-.1,1.238-.173,1.333-1.333C521.012,718.946,521.089,719.024,522.249,719.12Z" transform="translate(-519.582 -717.786)"/><g transform="translate(0.391 0.39)"><path class="ai" d="M522.237,720.44c-.888-.753-1-.753-1.886,0,.752-.888.752-1,0-1.886.888.753,1,.753,1.886,0C521.484,719.442,521.484,719.552,522.237,720.44Z" transform="translate(-520.351 -718.554)"/></g></g><g transform="translate(27.267 26.774)"><path class="ai" d="M522.621,732.4c-1.091.09-1.165.163-1.255,1.255-.091-1.092-.163-1.165-1.255-1.255,1.092-.09,1.165-.163,1.255-1.255C521.456,732.235,521.529,732.308,522.621,732.4Z" transform="translate(-520.111 -731.143)"/><g transform="translate(0.367 0.367)"><path class="ai" d="M522.609,733.641c-.836-.708-.939-.708-1.775,0,.709-.836.709-.939,0-1.775.836.708.939.708,1.775,0C521.9,732.7,521.9,732.805,522.609,733.641Z" transform="translate(-520.834 -731.866)"/></g></g><g transform="translate(26.652 33.212)"><circle class="ai" cx="1.526" cy="1.526" r="1.526"/><g transform="translate(0 0)"><circle class="ai" cx="1.526" cy="1.526" r="1.526"/></g></g><g transform="translate(26.468 40.053)"><g transform="translate(0)"><path class="ai" d="M521.328,758.667c-1.213.1-1.294.181-1.394,1.395-.1-1.213-.181-1.294-1.394-1.395,1.213-.1,1.294-.181,1.394-1.395C520.034,758.487,520.115,758.567,521.328,758.667Z" transform="translate(-518.54 -757.273)"/></g><g transform="translate(0 0)"><circle class="ai" cx="1.394" cy="1.394" r="1.394"/></g></g><g transform="translate(10.519 9.79)"><path class="ai" d="M489.714,699c-1.113.091-1.188.166-1.28,1.279-.091-1.113-.166-1.188-1.279-1.279,1.113-.092,1.188-.167,1.279-1.28C488.526,698.837,488.6,698.912,489.714,699Z" transform="translate(-487.155 -697.724)"/><g transform="translate(0.375 0.375)"><path class="ai" d="M489.7,700.271c-.852-.722-.957-.722-1.809,0,.722-.852.722-.957,0-1.81.852.722.957.722,1.809,0C488.979,699.313,488.979,699.418,489.7,700.271Z" transform="translate(-487.892 -698.461)"/></g></g><g transform="translate(12.361 4.153)"><path class="ai" d="M493.019,687.751c-.975.08-1.04.145-1.12,1.12-.081-.975-.146-1.04-1.12-1.12.974-.08,1.039-.146,1.12-1.12C491.979,687.605,492.044,687.671,493.019,687.751Z" transform="translate(-490.779 -686.631)"/><g transform="translate(0.328 0.328)"><path class="ai" d="M493.008,688.86c-.746-.632-.838-.632-1.584,0,.632-.746.632-.838,0-1.584.746.633.838.633,1.584,0C492.376,688.022,492.376,688.114,493.008,688.86Z" transform="translate(-491.424 -687.276)"/></g></g></g><g transform="translate(0 47.533)"><path class="an" d="M505.309,778.923H466.3l-.539-6.93h40.085Z" transform="translate(-465.763 -771.993)"/></g><g transform="translate(2.131 54.463)"><path class="ao" d="M502.542,812.382H473.193l-3.237-26.752H505.78Z" transform="translate(-469.955 -785.63)"/></g><g transform="translate(25.14 47.533)"><g transform="translate(0 6.931)"><path class="ap" d="M516.356,785.63l-1.125,26.752h9.578l3.237-26.752H516.356Z" transform="translate(-515.232 -785.63)"/></g><g transform="translate(1.677)"><path class="ao" d="M518.944,771.993l-.412,6.93h12.73l.539-6.93Z" transform="translate(-518.532 -771.993)"/></g></g><g transform="translate(2.131 54.463)"><path class="aq" d="M505.557,787.467h-35.38l-.222-1.837H505.78Z" transform="translate(-469.955 -785.63)"/></g></g><g transform="translate(219.746 213.138)"><rect class="j" width="92.097" height="108.008"/></g><g transform="translate(127.649 213.138)"><g transform="translate(0 0)"><rect class="l" width="92.097" height="108.008" transform="translate(92.097 108.008) rotate(180)"/></g></g><g transform="translate(164.637 302.831)"><g transform="translate(0 0)"><rect class="j" width="18.122" height="18.315" transform="translate(18.122 18.315) rotate(180)"/></g></g><g transform="translate(127.649 213.138)"><path class="m" d="M349.051,828.867h73.831l18.266-40.418v-2.421h-92.1Z" transform="translate(-349.051 -786.028)"/></g><g transform="translate(219.746 213.138)"><path class="m" d="M622.375,828.867H548.544l-18.266-40.418v-2.421h92.1Z" transform="translate(-530.278 -786.028)"/></g><g transform="translate(102.8 248.5)"><path class="l" d="M301.051,856.508h91.2l-.9-.9h-91.2Z" transform="translate(-300.155 -855.612)"/></g><g transform="translate(102.8 212.243)"><path class="n" d="M300.155,820.524h91.2l24.848-36.257H325Z" transform="translate(-300.155 -784.267)"/></g><g transform="translate(194.003 212.243)"><path class="j" d="M479.62,820.524l.9.9,24.848-36.257-.9-.9Z" transform="translate(-479.62 -784.267)"/></g><g transform="translate(244.595 248.5)"><path class="k" d="M670.376,856.508h-91.2l.9-.9h91.2Z" transform="translate(-579.173 -855.612)"/></g><g transform="translate(220.642 212.243)"><path class="l" d="M648.09,820.524h-91.2l-24.848-36.257h91.2Z" transform="translate(-532.039 -784.267)"/></g><g transform="translate(219.746 212.243)"><path class="o" d="M556.021,820.524l-.9.9-24.848-36.257.9-.9Z" transform="translate(-530.277 -784.267)"/></g><g transform="translate(256.734 302.831)"><g transform="translate(0 0)"><rect class="k" width="18.122" height="18.315" transform="translate(18.122 18.315) rotate(180)"/></g></g><g transform="translate(90.142 95.638)"><g transform="translate(28.509 45.591)"><rect class="ar" width="2.509" height="38.972"/></g><g transform="translate(29.059 50.077)"><path class="as" d="M332.95,688.364a.522.522,0,0,1-.522-.522V653.878a.522.522,0,1,1,1.045,0v33.964A.522.522,0,0,1,332.95,688.364Z" transform="translate(-332.428 -653.355)"/></g><g transform="translate(0.17 1.611)"><path class="at" d="M286.326,557.987l-10.744,44.071s.546,2.549,29.5,2.549,29.5-2.549,29.5-2.549l-10.745-44.071Z" transform="translate(-275.582 -557.987)"/></g><g transform="translate(38.762 1.611)"><path class="au" d="M361.189,557.987h-9.668s5.172,45.04,4.7,46.372c15.36-.641,15.717-2.3,15.717-2.3Z" transform="translate(-351.521 -557.987)"/></g><g transform="translate(14.645 89.468)"><path class="b" d="M304.069,734.36c.083.472,2.724,1.958,15.111,1.958s15.042-1.5,15.111-1.958c.225-1.516-4.72-3.491-15.111-3.491S303.89,733.343,304.069,734.36Z" transform="translate(-304.065 -730.869)"/></g><g transform="translate(0 57.984)"><path class="w" d="M334.07,678.718c2.311,5.074-1.425,10.895-5.062,14.363-6.478,6.18-15.549,8.949-24,8.949-8.412,0-17.57-2.746-24-8.949-3.681-3.552-7.337-9.317-5.062-14.363,4.025-8.928,20.712-9.82,29.06-9.8C313.289,668.934,329.944,669.659,334.07,678.718Z" transform="translate(-275.247 -668.915)"/><g transform="translate(2.189 1.142)"><path class="b" d="M318.072,671.163a14.608,14.608,0,0,1,5.766,7.76c1.3,5.091-2.373,9.85-6.392,12.65-6.767,4.714-15.5,5.639-23.143,4.225a35.288,35.288,0,0,1-14.75-6.429c5.735,9,17.43,12.938,27.333,12.928,8.384-.008,17.366-2.695,23.788-8.709,3.6-3.375,7.281-8.968,5.017-13.977C332.973,673.594,323.884,671.7,318.072,671.163Z" transform="translate(-279.554 -671.163)"/></g></g><g transform="translate(10.914)"><path class="av" d="M334.24,556.428c0,.889-8.4,1.611-18.758,1.611s-18.758-.722-18.758-1.611,8.4-1.612,18.758-1.612S334.24,555.538,334.24,556.428Z" transform="translate(-296.724 -554.816)"/></g><g transform="translate(12.029 0.56)"><ellipse class="au" cx="17.643" cy="1.051" rx="17.643" ry="1.051"/></g></g><g transform="translate(225.151 286.95)"><g transform="translate(0 26.343)"><rect class="aw" width="25.966" height="2.449"/></g><g transform="translate(19.007 2.96)"><rect class="aw" width="2.449" height="20.676"/></g><g transform="translate(14.498)"><path class="aw" d="M580.908,940.119H569.441l5.734-8.846Z" transform="translate(-569.441 -931.273)"/></g><g transform="translate(4.509 2.96)"><rect class="aw" width="2.449" height="20.676"/></g><path class="aw" d="M552.379,940.119H540.912l5.734-8.846Z" transform="translate(-540.912 -931.273)"/></g><g transform="translate(281.157 246.653)"><g transform="translate(0 0)"><circle class="ax" cx="31.714" cy="31.714" r="31.714" transform="translate(0 57.293) rotate(-64.593)"/></g><g transform="translate(10.106 10.107)"><g transform="translate(9.264)"><path class="ay" d="M689.488,900.855c2.892.794,5.884,1.569,8.948,2.321a.345.345,0,0,0,.421-.267q.191-.938.4-1.879c2.027-8.919,5.331-16.995,9.306-22.741a24.743,24.743,0,0,1,5.475-5.928.246.246,0,0,0-.132-.446,32.413,32.413,0,0,0-3.7.007,31.994,31.994,0,0,0-17.73,6.634,4.255,4.255,0,0,0-1.261,1.565,13.943,13.943,0,0,0-1.12,5.411c-.425,11.31-.477,12.7-.864,14.93A.345.345,0,0,0,689.488,900.855Z" transform="translate(-689.235 -871.866)"/></g><g transform="translate(32.559 11.95)"><path class="ay" d="M751.6,900.56c-12.556,6.6-15.481,12.812-16.522,16.981l.267.425a266.909,266.909,0,0,0,30.425,4.607.315.315,0,0,0,.333-.247,32.212,32.212,0,0,0-6.355-26.854.242.242,0,0,0-.379,0C758.113,897.047,755.183,898.675,751.6,900.56Z" transform="translate(-735.074 -895.381)"/></g><g transform="translate(0 27.681)"><path class="ay" d="M678.52,928.345q-3.505-.983-6.785-1.992a.361.361,0,0,0-.465.3,32.34,32.34,0,0,0,2.3,16.755.264.264,0,0,0,.5-.033c.432-1.564,1.2-3.6,2.308-6.52a46.037,46.037,0,0,0,2.386-8.108A.347.347,0,0,0,678.52,928.345Z" transform="translate(-671.006 -926.336)"/></g><g transform="translate(20.05 0.384)"><path class="ay" d="M720,879.349c-3.889,5.622-7.128,13.549-9.121,22.32q-.219.963-.413,1.922a.346.346,0,0,0,.259.406q2.865.687,5.8,1.343,2.444.545,4.858,1.05a.345.345,0,0,0,.4-.243c1.676-5.8,4.146-11.021,17.139-17.851,2.489-1.309,6.49-3.412,7.529-4.958a.406.406,0,0,0-.039-.5,32.146,32.146,0,0,0-18.732-10.2,1.679,1.679,0,0,0-1.052.173A20.368,20.368,0,0,0,720,879.349Z" transform="translate(-710.46 -872.621)"/></g><g transform="translate(0.599 9.769)"><path class="ay" d="M680.509,894.942a18.8,18.8,0,0,1,.452-3.586.218.218,0,0,0-.371-.2,32.131,32.131,0,0,0-8.4,16.059.534.534,0,0,0,.368.613q3.231,1,6.7,1.969a.346.346,0,0,0,.435-.275C680.038,907.459,680.1,905.82,680.509,894.942Z" transform="translate(-672.184 -891.089)"/></g><g transform="translate(3.884 30.185)"><path class="ay" d="M693.034,933.586c-3.053-.748-6.036-1.521-8.921-2.31a.345.345,0,0,0-.429.267,47.111,47.111,0,0,1-2.413,8.16c-1.59,4.2-2.426,6.409-2.608,7.973a2.372,2.372,0,0,0,.3,1.446,32.277,32.277,0,0,0,15.707,13.836.286.286,0,0,0,.363-.4,24.622,24.622,0,0,1-2.415-7.789,63.808,63.808,0,0,1,.67-20.788A.345.345,0,0,0,693.034,933.586Z" transform="translate(-678.648 -931.264)"/></g><g transform="translate(32.035 35.718)"><path class="ay" d="M736.559,954.207c1.6,3.242,4.178,5.8,6.668,8.277,1.408,1.4,3.957,4.273,4.58,4.979a.282.282,0,0,0,.333.068,32.237,32.237,0,0,0,17.04-20.512.2.2,0,0,0-.176-.251,269.071,269.071,0,0,1-30.393-4.61.345.345,0,0,0-.412.288A19.879,19.879,0,0,0,736.559,954.207Z" transform="translate(-734.043 -942.15)"/></g><g transform="translate(18.497 32.946)"><path class="ay" d="M722.374,952.061a20.939,20.939,0,0,1-2.458-12.582.345.345,0,0,0-.269-.389q-2.426-.508-4.885-1.057-2.9-.647-5.735-1.327a.345.345,0,0,0-.421.275,62.467,62.467,0,0,0-.647,20.271c.634,3.968,1.8,7.056,3.36,9.022a1.439,1.439,0,0,0,.722.485,32.269,32.269,0,0,0,21.143-1.086.431.431,0,0,0,.166-.673,58.222,58.222,0,0,0-4.076-4.341C726.714,958.115,724.066,955.483,722.374,952.061Z" transform="translate(-707.404 -936.697)"/></g></g><g transform="translate(15.616 15.03)"><g transform="translate(43.987 7.028)"><path class="az" d="M782.492,922.324a32.208,32.208,0,0,0-6.354-26.852.243.243,0,0,0-.379,0,12.54,12.54,0,0,1-3.132,2.5,31.761,31.761,0,0,1-4.222,22.961c4.955.742,9.59,1.3,13.753,1.636A.316.316,0,0,0,782.492,922.324Z" transform="translate(-768.405 -895.382)"/></g><g transform="translate(43.735)"><path class="az" d="M774.71,887.731a.408.408,0,0,0-.039-.5,32.333,32.333,0,0,0-6.763-5.681A29.356,29.356,0,0,1,769.56,884a23.235,23.235,0,0,1,2.516,5.932A9.734,9.734,0,0,0,774.71,887.731Z" transform="translate(-767.908 -881.553)"/></g><g transform="translate(0 45.221)"><path class="az" d="M696.247,982.273a.286.286,0,0,0,.363-.4,23.454,23.454,0,0,1-2.247-6.826,25.737,25.737,0,0,1-12.514-4.511A32.281,32.281,0,0,0,696.247,982.273Z" transform="translate(-681.848 -970.537)"/></g><g transform="translate(30.63 33.699)"><path class="az" d="M751.78,970.273a.282.282,0,0,0,.333.068,32.241,32.241,0,0,0,17.04-20.511.2.2,0,0,0-.177-.253c-4.3-.356-9.085-.936-14.2-1.713a37.022,37.022,0,0,1-11.283,10.954q-.682.43-1.368.82a45.325,45.325,0,0,0,5.08,5.655C748.608,966.694,751.157,969.566,751.78,970.273Z" transform="translate(-742.12 -947.865)"/></g><g transform="translate(13.763 46.061)"><path class="az" d="M712.791,984.216a32.27,32.27,0,0,0,21.143-1.086.431.431,0,0,0,.166-.673,58.268,58.268,0,0,0-4.076-4.341,45.542,45.542,0,0,1-5.294-5.925,30.852,30.852,0,0,1-15.8,3.754,18.4,18.4,0,0,0,3.137,7.785A1.434,1.434,0,0,0,712.791,984.216Z" transform="translate(-708.931 -972.191)"/></g></g></g><g transform="translate(50.578 270.071)"><path class="m" d="M197.393,949.128l63.38.005v-5.914l-39.1-45.161Z" transform="translate(-197.393 -898.058)"/></g><g transform="translate(0 269.53)"><g transform="translate(35.446 38.211)"><path class="ba" d="M208.195,985.591H167.783c-.221,0-.221-13.4,0-13.4h40.412c1.772,0,2.4,3.611,2.4,6.7S209.967,985.591,208.195,985.591Z" transform="translate(-167.617 -972.186)"/></g><g transform="translate(0 38.211)"><path class="bb" d="M138.681,985.591H98.268a.4.4,0,1,1,0-.8h40.412c.883,0,1.6-2.648,1.6-5.9s-.718-5.9-1.6-5.9H98.268a.4.4,0,1,1,0-.8h40.412c1.772,0,2.4,3.611,2.4,6.7S140.453,985.591,138.681,985.591Z" transform="translate(-97.868 -972.186)"/></g><g transform="translate(0.8 39.012)"><path class="bc" d="M139.455,973.761H99.443v11.8h40.012c.884,0,1.6-2.643,1.6-5.9S140.339,973.761,139.455,973.761Z" transform="translate(-99.443 -973.761)"/></g><g transform="translate(2.341)"><g transform="translate(33.329)"><path class="bd" d="M206.215,909.6h-38c-.208,0-.208-12.6,0-12.6h38c1.666,0,2.257,3.395,2.257,6.3S207.881,909.6,206.215,909.6Z" transform="translate(-168.059 -896.995)"/></g><path class="be" d="M140.851,909.6h-38a.376.376,0,0,1,0-.753h38c.83,0,1.5-2.49,1.5-5.549s-.675-5.549-1.5-5.549h-38a.376.376,0,0,1,0-.752h38c1.666,0,2.257,3.395,2.257,6.3S142.517,909.6,140.851,909.6Z" transform="translate(-102.475 -896.995)"/><g transform="translate(0.753 0.752)"><path class="bc" d="M141.579,898.475H103.956v11.1h37.623c.831,0,1.5-2.485,1.5-5.549S142.411,898.475,141.579,898.475Z" transform="translate(-103.956 -898.475)"/></g></g><g transform="translate(0.585 12.604)"><g transform="translate(34.916)"><path class="bf" d="M207.7,935H167.89c-.217,0-.217-13.2,0-13.2H207.7c1.746,0,2.365,3.556,2.365,6.6S209.445,935,207.7,935Z" transform="translate(-167.727 -921.796)"/></g><path class="bg" d="M139.223,935H99.414a.394.394,0,0,1,0-.789h39.809c.87,0,1.577-2.608,1.577-5.814s-.707-5.814-1.577-5.814H99.414a.394.394,0,1,1,0-.788h39.809c1.746,0,2.365,3.556,2.365,6.6S140.969,935,139.223,935Z" transform="translate(-99.02 -921.796)"/><g transform="translate(0.788 0.788)"><path class="bc" d="M139.986,923.347H100.571v11.627h39.415c.871,0,1.577-2.6,1.577-5.814S140.857,923.347,139.986,923.347Z" transform="translate(-100.571 -923.347)"/></g></g><g transform="translate(2.927 25.808)"><g transform="translate(32.8)"><path class="as" d="M205.719,960.182h-37.4c-.2,0-.2-12.4,0-12.4h37.4c1.64,0,2.222,3.341,2.222,6.2S207.359,960.182,205.719,960.182Z" transform="translate(-168.17 -947.779)"/></g><path class="bh" d="M141.394,960.182H104a.37.37,0,0,1,0-.74h37.4c.817,0,1.481-2.45,1.481-5.462s-.664-5.461-1.481-5.461H104a.37.37,0,0,1,0-.74h37.4c1.64,0,2.222,3.341,2.222,6.2S143.034,960.182,141.394,960.182Z" transform="translate(-103.627 -947.779)"/><g transform="translate(0.74 0.74)"><path class="bc" d="M142.11,949.236H105.084v10.923H142.11c.818,0,1.481-2.445,1.481-5.462S142.928,949.236,142.11,949.236Z" transform="translate(-105.084 -949.236)"/></g></g></g><g transform="translate(408.481 251.507)"><g transform="translate(50.938 0.011)"><rect class="j" width="50.938" height="69.628"/></g><g transform="translate(0 0.011)"><rect class="l" width="50.938" height="69.628"/></g><g transform="translate(20.206 59.001)"><rect class="r" width="10.526" height="10.638"/></g><g transform="translate(20.206)"><rect class="j" width="10.526" height="10.638"/></g><g transform="translate(71.144)"><rect class="k" width="10.526" height="10.638"/></g><g transform="translate(71.144 59.001)"><rect class="k" width="10.526" height="10.638"/></g><g transform="translate(54.077 49.777)"><g transform="translate(0 15.3)"><rect class="s" width="15.081" height="1.422"/></g><g transform="translate(11.04 1.719)"><rect class="s" width="1.422" height="12.009"/></g><g transform="translate(8.421)"><path class="s" d="M1031.3,964.618h-6.66l3.33-5.138Z" transform="translate(-1024.644 -959.48)"/></g><g transform="translate(2.619 1.719)"><rect class="s" width="1.422" height="12.009"/></g><path class="s" d="M1014.734,964.618h-6.66l3.33-5.138Z" transform="translate(-1008.074 -959.48)"/></g></g></g></g></svg>