<svg xmlns="http://www.w3.org/2000/svg" width="536" height="277.481" viewBox="0 0 536 277.481"><defs><style>.a{fill:#dde8fd;}.b{fill:#34d789;}.c{fill:#93b3f4;}.d{fill:#bed2fa;}.e{fill:#fff;}.f{fill:#6d89cf;}.g{fill:#57eaa1;}.h{fill:#3662c1;}.i{fill:#fb847d;}.j{fill:#aa4b47;}.k{fill:#060632;}.l{fill:#fa7269;}.m{fill:#fb8780;}.n{fill:#fc9290;}.o{fill:#9e332e;}.p{fill:#12123c;}.q{fill:#e75755;}.r{fill:#17135d;}.s{fill:#a83f3f;}.t{fill:#fb8a82;}.u{fill:#010117;}.v{fill:#3a49cd;}.w{fill:#0d0d38;}.x{fill:#0b0754;}.y{fill:#ed6966;}.z{fill:#1c1860;}</style></defs><g transform="translate(-813.123 -604.77)"><path class="a" d="M896.99,958.618c.025.018,483.656-.057,483.656-.057s1.4-2.864,3.149-6.613c1.3-2.778,2.906-6.467,4.576-10.906v0q.467-1.238.938-2.553.659-1.846,1.318-3.834.244-.736.485-1.491c.967-3.019,1.907-6.26,2.775-9.688.06-.239.121-.48.181-.721q.486-1.968.94-4.018.25-1.137.487-2.3l.032-.159c.058-.287.115-.574.172-.863a141.9,141.9,0,0,0,2.358-17.511q.114-1.617.188-3.261t.108-3.34a116.737,116.737,0,0,0-1.528-21.52q-.72-4.311-1.817-8.666-.807-3.179-1.836-6.366c-.127-.395-.255-.792-.391-1.188a101.51,101.51,0,0,0-5.988-14.163c-.216-.422-.437-.846-.664-1.269a104.121,104.121,0,0,0-6.171-10.138q-.353-.516-.717-1.027-2.019-2.858-4.3-5.679-3.318-4.112-7.223-8.119-5.408-5.546-10.724-10.085-2.186-1.88-4.358-3.6-1.859-1.477-3.708-2.833c-.069-.052-.142-.1-.211-.154q-4.276-3.142-8.475-5.705c-.572-.349-1.141-.692-1.713-1.029q-4.12-2.428-8.161-4.351-.882-.422-1.76-.822c-18.427-8.387-35.508-9.479-50.618-8.089-11.682,1.075-22.188,3.636-31.224,5.461q-.89.181-1.76.35c-5.883,1.142-11.107,1.895-15.588,1.6-7.154-.467-12.987-4.815-19.256-11.225q-.685-.7-1.377-1.433c-3.653-3.86-7.494-8.362-11.858-13.155q-1.193-1.312-2.444-2.651c-1.649-1.764-3.373-3.559-5.188-5.367-.279-.28-.561-.558-.847-.838q-.918-.9-1.873-1.81-.419-.4-.846-.8-3.094-2.9-6.553-5.8a131.028,131.028,0,0,0-38.98-22.4l-.023-.009a163.519,163.519,0,0,0-23.211-6.616,244.58,244.58,0,0,0-29.783-4.294q-3.737-.311-7.513-.513-4.05-.215-8.126-.3-2.443-.051-4.891-.053c-4.034-.007-8.07.09-12.08.3q-2.136.107-4.259.255c-17.354,1.217-34.073,4.5-48.181,10.373-9.9,4.115-47.175,22.53-58.113,53.68a53.879,53.879,0,0,0-.8,33.25c12.328,43.593-6.442,49.019-29.928,69.794C881.942,902.029,871.848,939.44,896.99,958.618Z" transform="translate(-52.747 -77.106)"/><g transform="translate(864.999 604.77)"><g transform="translate(0 0)"><rect class="b" width="103.609" height="60.853" transform="translate(0 111.542)"/><rect class="c" width="118.766" height="178.007" transform="translate(297.987 99.474)"/><rect class="c" width="142.085" height="189.052" transform="translate(103.6 87.985)"/><rect class="b" width="203.112" height="92.207" transform="translate(97.934 24.591)"/><path class="c" d="M1873.494,721.849l106.782-100.96,106.782,100.96Z" transform="translate(-1667.471 -616.969)"/><g transform="translate(227.817)"><path class="b" d="M2163.521,719.573a3.908,3.908,0,0,1-2.666-1.044l-112.768-98.111c-35.919,32.7-77.64,64.2-78.893,65.037a3.922,3.922,0,0,1-4.533-6.4c2.584-2.137,49.643-44.908,80.786-73.268a3.929,3.929,0,0,1,5.307.023l115.433,106.96a3.923,3.923,0,0,1-2.666,6.8Z" transform="translate(-1963.098 -604.77)"/></g><rect class="d" width="142.085" height="189.052" transform="translate(174.643 87.985)"/><path class="d" d="M1744.471,757.525l71.043-67.169,71.042,67.169Z" transform="translate(-1569.828 -669.54)"/><g transform="translate(204.591 88.451)"><path class="c" d="M1991.212,994.32V1030.9h-41.736V995.026a21.1,21.1,0,0,1,6.878-15.638,19.58,19.58,0,0,1,2.17-1.726,16.379,16.379,0,0,1,2.328-1.439,21.024,21.024,0,0,1,9.833-2.406,19.926,19.926,0,0,1,9.78,2.511,12.852,12.852,0,0,1,2.327,1.464,18.7,18.7,0,0,1,1.962,1.6A20.447,20.447,0,0,1,1991.212,994.32Z" transform="translate(-1929.564 -972.51)"/><g transform="translate(19.385)"><path class="e" d="M1990.264,984.76h-42.957l.664-1.767a22.434,22.434,0,0,1,5.861-8.64,20.658,20.658,0,0,1,2.311-1.836,17.182,17.182,0,0,1,2.467-1.525,22.472,22.472,0,0,1,10.432-2.552,21.123,21.123,0,0,1,10.419,2.676,14.212,14.212,0,0,1,2.5,1.576,19.02,19.02,0,0,1,2.038,1.662,21.956,21.956,0,0,1,5.659,8.665Zm-39.08-2.615h35.293a19.547,19.547,0,0,0-4.265-5.876,16.948,16.948,0,0,0-1.808-1.471,11.823,11.823,0,0,0-2.153-1.361,18.6,18.6,0,0,0-9.209-2.38,19.841,19.841,0,0,0-9.222,2.255,14.543,14.543,0,0,0-2.147,1.328,18.143,18.143,0,0,0-2.074,1.642A19.937,19.937,0,0,0,1951.183,982.145Z" transform="translate(-1947.307 -968.441)"/></g><rect class="c" width="81.567" height="43.366" transform="translate(0 15.02)"/><g transform="translate(39.476 15.019)"><rect class="e" width="2.615" height="43.367"/></g><g transform="translate(0.963 28.338)"><rect class="e" width="78.818" height="1.308"/></g><g transform="translate(0.963 42.587)"><rect class="e" width="78.818" height="1.308"/></g><g transform="translate(21.334 15.019)"><rect class="e" width="2.615" height="43.367"/></g><g transform="translate(57.618 15.019)"><rect class="e" width="2.615" height="43.367"/></g><g transform="translate(78.952 15.019)"><rect class="e" width="2.615" height="43.367"/></g><g transform="translate(0 15.019)"><rect class="e" width="2.615" height="43.367"/></g><g transform="translate(0.005 55.772)"><rect class="e" width="81.567" height="2.615"/></g><g transform="translate(0.005 15.019)"><rect class="e" width="81.567" height="2.615"/></g><g transform="translate(28.96 3.714)"><path class="e" d="M2010.945,985.28l-12.317,13.05-11.951-13.18a16.407,16.407,0,0,1,2.328-1.439l9.65,10.644,9.963-10.539A12.842,12.842,0,0,1,2010.945,985.28Z" transform="translate(-1986.677 -983.711)"/></g></g><g transform="translate(204.591 190.472)"><rect class="c" width="81.567" height="43.366" transform="translate(0 0.001)"/><g transform="translate(39.476 0)"><rect class="e" width="2.615" height="43.367"/></g><g transform="translate(0.963 13.319)"><rect class="e" width="78.818" height="1.308"/></g><g transform="translate(0.963 27.568)"><rect class="e" width="78.818" height="1.308"/></g><g transform="translate(21.334 0)"><rect class="e" width="2.615" height="43.367"/></g><g transform="translate(57.618 0)"><rect class="e" width="2.615" height="43.367"/></g><g transform="translate(78.952 0)"><rect class="e" width="2.615" height="43.367"/></g><g transform="translate(0 0)"><rect class="e" width="2.615" height="43.367"/></g><g transform="translate(0.005 40.753)"><rect class="e" width="81.567" height="2.615"/></g><g transform="translate(0.005 0)"><rect class="e" width="81.567" height="2.615"/></g></g><g transform="translate(123.019 190.472)"><rect class="f" width="36.15" height="43.366" transform="translate(0 0.001)"/><g transform="translate(33.906 0)"><rect class="e" width="2.246" height="43.367"/></g><g transform="translate(0.427 13.319)"><rect class="e" width="34.931" height="1.308"/></g><g transform="translate(0.427 27.568)"><rect class="e" width="34.931" height="1.308"/></g><g transform="translate(16.769 0)"><rect class="e" width="2.246" height="43.367"/></g><g transform="translate(0 0)"><rect class="e" width="2.246" height="43.367"/></g><g transform="translate(0.002 40.753)"><rect class="e" width="36.15" height="2.615"/></g><g transform="translate(0.002 0)"><rect class="e" width="36.15" height="2.615"/></g></g><g transform="translate(123.019 128.368)"><rect class="f" width="36.15" height="43.366" transform="translate(0 0.001)"/><g transform="translate(33.906)"><rect class="e" width="2.246" height="43.367"/></g><g transform="translate(0.427 13.319)"><rect class="e" width="34.931" height="1.308"/></g><g transform="translate(0.427 27.568)"><rect class="e" width="34.931" height="1.308"/></g><g transform="translate(16.769)"><rect class="e" width="2.246" height="43.367"/></g><rect class="e" width="2.246" height="43.367"/><g transform="translate(0.002 40.753)"><rect class="e" width="36.15" height="2.615"/></g><g transform="translate(0.002)"><rect class="e" width="36.15" height="2.615"/></g></g><g transform="translate(348.053 95.104)"><rect class="f" width="36.15" height="43.366" transform="translate(0 0.001)"/><g transform="translate(33.906)"><rect class="e" width="2.246" height="43.367"/></g><g transform="translate(0.427 13.319)"><rect class="e" width="34.931" height="1.308"/></g><g transform="translate(0.427 27.568)"><rect class="e" width="34.931" height="1.308"/></g><g transform="translate(16.769)"><rect class="e" width="2.246" height="43.367"/></g><rect class="e" width="2.246" height="43.367"/><g transform="translate(0.002 40.753)"><rect class="e" width="36.15" height="2.615"/></g><g transform="translate(0.002)"><rect class="e" width="36.15" height="2.615"/></g></g><g transform="translate(160.696 16.896)"><path class="g" d="M1691.052,755.581a3.923,3.923,0,0,1-2.362-7.056c2.587-2.138,49.642-44.908,80.786-73.268a3.929,3.929,0,0,1,5.307.023l79.323,73.5a3.923,3.923,0,0,1-5.333,5.756l-77.529-62.915c-33.647,28.913-76.767,62.466-78.021,63.3A3.886,3.886,0,0,1,1691.052,755.581Z" transform="translate(-1687.126 -674.237)"/></g><rect class="d" width="97.803" height="103.924" transform="translate(5.797 172.404)"/><rect class="h" width="104.969" height="41.736" transform="translate(316.736 145.852)"/><g transform="translate(322.888 201.753)"><g transform="translate(18.164 0)"><path class="f" d="M2466.536,1498.464H2428.67v-45.13a19.043,19.043,0,0,1,19.043-19.042h0a18.823,18.823,0,0,1,18.823,18.823Z" transform="translate(-2428.67 -1434.292)"/><path class="h" d="M2474.109,1468.355v.837h-30.675v-.68a14.721,14.721,0,0,1,14.723-14.723h1.386A14.554,14.554,0,0,1,2474.109,1468.355Z" transform="translate(-2439.843 -1449.047)"/><rect class="h" width="30.675" height="12.328" transform="translate(3.591 24.898)"/><rect class="h" width="30.675" height="20.15" transform="translate(3.591 41.296)"/></g><rect class="f" width="56.714" height="4.086" transform="translate(8.739 63.47)"/><rect class="f" width="66.31" height="4.086" transform="translate(3.942 67.556)"/><rect class="f" width="74.193" height="4.086" transform="translate(0 71.642)"/></g><g transform="translate(32.555 191.49)"><rect class="c" width="49.421" height="59.288" transform="translate(0 0.001)"/><g transform="translate(46.354 0)"><rect class="e" width="3.071" height="59.289"/></g><g transform="translate(0.583 18.209)"><rect class="e" width="47.755" height="1.787"/></g><g transform="translate(0.583 37.689)"><rect class="e" width="47.755" height="1.788"/></g><g transform="translate(22.926 0)"><rect class="e" width="3.071" height="59.289"/></g><g transform="translate(0 0)"><rect class="e" width="3.071" height="59.289"/></g><g transform="translate(0.003 55.716)"><rect class="e" width="49.421" height="3.575"/></g><g transform="translate(0.003 0)"><rect class="e" width="49.421" height="3.575"/></g></g><path class="g" d="M1096.682,1124.235h-70.267v-60.853h43.227Z" transform="translate(-1026.415 -951.841)"/><path class="g" d="M1484.386,798.085h-55.309V705.878h20.79C1455.8,722.3,1474,770.6,1484.386,798.085Z" transform="translate(-1331.144 -681.287)"/><path class="f" d="M2544.167,1204.45v41.736h-69.456l27.563-41.736Z" transform="translate(-2122.462 -1058.598)"/><g transform="translate(154.158 9.324)"><path class="g" d="M5.6,0h0a5.5,5.5,0,0,1,5.5,5.5v19.59a0,0,0,0,1,0,0H0a0,0,0,0,1,0,0V5.6A5.6,5.6,0,0,1,5.6,0Z" transform="translate(2.602 10.018)"/><path class="b" d="M1660.246,650.759h16.181l-8.029-7.653Z" transform="translate(-1660.246 -643.106)"/><g transform="translate(3.907 7.434)"><path class="b" d="M1677.139,676.258h-.72l-.11-2.585h.988Z" transform="translate(-1676.309 -673.673)"/></g><g transform="translate(11.324 7.434)"><path class="b" d="M1707.637,676.258h-.72l-.11-2.585h.988Z" transform="translate(-1706.807 -673.673)"/></g></g></g></g><path class="f" d="M2813.29,1693.064h-13.534c-.726-.615.5-2.012,1.783-2.106a7.912,7.912,0,0,1,2.066.244c.186-2.474,1.25-13.594,5.258-13.147,4.507.5,0,4.9-1.274,7.5a61.75,61.75,0,0,0-2.395,6c.366.079.745.157,1.132.228.6-1.834,2.82-8,5.647-7.645,3.319.421,1.985,2.895-.368,4.363-1.726,1.08-3.845,2.615-4.852,3.356a14.394,14.394,0,0,0,2.647.212A5.7,5.7,0,0,1,2813.29,1693.064Z" transform="translate(-1503.288 -812.235)"/><g transform="translate(883.36 841.968)"><path class="f" d="M1187.162,1583.123v36.083l-85.254.024a26.336,26.336,0,0,1,13.466-14.96,24.891,24.891,0,0,1,3.319-1.4,34.665,34.665,0,0,1,4.575-1.233.087.087,0,0,0,.071-.024,15.683,15.683,0,0,0,2.134-.569c15.173-5.1,15.861-28.687,59.412-18.492Q1186.059,1582.838,1187.162,1583.123Z" transform="translate(-1101.908 -1580.025)"/><path class="f" d="M1123.2,1648.231s-12.779-16.975-18.5-12.4S1123.2,1648.231,1123.2,1648.231Z" transform="translate(-1103.356 -1621.667)"/><path class="f" d="M1178.429,1634.523c0-.763.191-16.4-5.15-15.258S1178.429,1634.523,1178.429,1634.523Z" transform="translate(-1154.774 -1609.676)"/></g><g transform="translate(1027.173 843.675)"><path class="f" d="M1693.205,1650.332s6.1-13,19.836-13.176,21.309-16.2,34.114-15.433,14.331,13.319,23.485,15.433,34.331-2.437,35.857,13.952Z" transform="translate(-1693.205 -1613.269)"/><path class="f" d="M1771.055,1636.073c0-.175-9.918-18.538-13.542-15.459S1771.055,1636.073,1771.055,1636.073Z" transform="translate(-1741.493 -1612.185)"/><path class="f" d="M1757.157,1674.26s-8.869-5.436-13.065-4.1S1757.157,1674.26,1757.157,1674.26Z" transform="translate(-1731.218 -1649.785)"/><path class="f" d="M1869.336,1600.362c.1-.572-.191-14.972-4.959-13.16S1869.336,1600.362,1869.336,1600.362Z" transform="translate(-1821.75 -1587.044)"/><path class="f" d="M1899.913,1605.9c.19-.286,3.051-8.01.953-8.01s-.763,7.724-.763,7.724Z" transform="translate(-1849.466 -1595.25)"/></g><g transform="translate(1117.554 671.504)"><g transform="translate(0 0)"><g transform="translate(21.264 27.413)"><path class="i" d="M2190.382,991.862s-7.705,3.645-9.455,3.186-8.4-1.634-9.336-1.22c0,0-1.059,1.689-.26,2.8s7.27,4.117,9.607,4.226,11.21-1.5,13.093-2.969Z" transform="translate(-2166.461 -991.862)"/><path class="i" d="M2157.6,998.5s-2.971-1.233-3.944.145a6.044,6.044,0,0,0-1.4,3.479c.12.706,2.127,1.017,2.929.468a19.459,19.459,0,0,1,2.788-1.316Z" transform="translate(-2152.237 -996.503)"/></g><path class="j" d="M2190.046,1006.727s3.435,13.866,8.5,24.232a38.425,38.425,0,0,0,4.609,7.514,13.8,13.8,0,0,0,2.438,2.362c8.661,6.291,22.326-3.745,22.326-3.745.489-6.1-10.567-16.333-17.637-22.447-2.776-2.4-4.937-4.168-5.543-4.8-1.174-1.223-3.674-1.964-6.286-2.415A56.581,56.581,0,0,0,2190.046,1006.727Z" transform="translate(-2159.586 -975.699)"/><path class="k" d="M2080.709,1704.03a12.542,12.542,0,0,1,1.676,5.732,1.234,1.234,0,0,1-1.236,1.243h-10.225a1.521,1.521,0,0,1-1.477-1.891c.476-1.872,1.5-4.7,3.537-6.418C2076.243,1699.956,2080.709,1704.03,2080.709,1704.03Z" transform="translate(-2068.284 -1501.679)"/><path class="k" d="M2182.415,1690.471s.588,9.48,2.422,9.616c.244.018,9.3.018,9.3.018h11.685a3.994,3.994,0,0,0-3.576-3.442c-3.38-.589-9.038-2.965-11.085-7.432C2189.008,1684.531,2182.415,1690.471,2182.415,1690.471Z" transform="translate(-2153.812 -1490.837)"/><g transform="translate(16.61 91.102)"><path class="l" d="M2140.2,1303.692c.409,5.267.462,9.423-.078,11.395-2.412,8.817,4.346,48.629,4.346,48.629,4.981,2.383,12.056-.026,12.056-.026-.43-5.514,2.192-54.883,4.632-85,1.021-12.644,1.788-21.492,1.788-21.492l-29.843-3.474S2138.788,1285.4,2140.2,1303.692Z" transform="translate(-2133.102 -1253.723)"/><path class="l" d="M2133.1,1253.723s5.686,31.678,7.1,49.969l20.956-25c1.021-12.644,1.788-21.492,1.788-21.492Z" transform="translate(-2133.102 -1253.723)"/></g><path class="m" d="M2102.19,1268.953s-15.106,87.96-17.705,104.993a19.081,19.081,0,0,1-11.435-.868s-.747-40.874,1.231-53.187-1.054-50.377,2.134-53.917S2102.19,1268.953,2102.19,1268.953Z" transform="translate(-2070.942 -1171.095)"/><path class="n" d="M2145.57,971.194s1.159,7.817.651,10.152-8.274,3.6-11.522,1.675-2.272-2.646-2.272-2.646.5-8.949.952-9.587S2145.57,971.194,2145.57,971.194Z" transform="translate(-2115.877 -948.344)"/><path class="j" d="M2079.07,1074.762s2.183,1.278,7.665,2.359a92.833,92.833,0,0,0,17.841,1.482c14.666,0,19.493-4.18,19.493-4.18.789.013-2.772-20.37-2.772-37.773,0-16.095-4.713-28.143-12.837-29.555a22.455,22.455,0,0,0-2.651-.4c0,1.322-2.083,3.763-5.295,3.973-3.81.25-8.534-1.777-8.534-3.973,0-.1-8.889.439-11.726,16.755-.969,5.56-1.232,12.95-.2,22.771C2080.406,1049.614,2077.849,1074.744,2079.07,1074.762Z" transform="translate(-2075.35 -975.67)"/><path class="o" d="M2079.07,1114.966s2.183,1.278,7.665,2.359c7.577-3.356,22.618-12.031,23.206-26.6.78-19.376-22.875-30.913-22.875-30.913s-3.174,1.763-6.81,3.844c-.969,5.56-1.232,12.95-.2,22.77C2080.406,1089.819,2077.849,1114.948,2079.07,1114.966Z" transform="translate(-2075.35 -1015.875)"/><path class="i" d="M2148.087,976.722s-3.012,4.246-6.2,4.284-6.436-4.217-6.436-4.217Z" transform="translate(-2118.271 -952.991)"/><path class="n" d="M2142.769,923.181a20.442,20.442,0,0,1-4.222,2.162,5.216,5.216,0,0,1-3.61.076,47.883,47.883,0,0,1-5.093-1.96c-1.595-.967-1.493-2.924-1.575-5.645-.1-3.221-.422-5.75-.062-7.607.428-2.221,1.836-3.485,5.778-3.828,7.238-.628,10.253,1.184,10.379,3.611.033.651.063,1.273.084,1.862C2144.738,919.418,2144.14,922.1,2142.769,923.181Z" transform="translate(-2112.662 -899.661)"/><path class="p" d="M2139.167,890.373a3.041,3.041,0,0,0-3.412-1.062c-2.228.685-2.456,2.589-6.263,2.284s-4.72-2.106-5.406-1.205-1.081,6.223-1.081,6.223-7.655-17.453,7.859-17.453c0,0,15.988-.966,8.3,16.775Z" transform="translate(-2107.421 -879.151)"/><path class="n" d="M2311.169,993.254l-.021.012C2311.166,993.275,2311.169,993.254,2311.169,993.254Z" transform="translate(-2251.235 -965.502)"/><path class="q" d="M2345.611,889.232c.13-.29.222-.48.222-.48A1.56,1.56,0,0,0,2345.611,889.232Z" transform="translate(-2277.315 -886.417)"/><path class="i" d="M2164.425,1144.831a8.727,8.727,0,0,0,5,1.6s3.029-3.338,5.581-6.566c1.652-2.091,3.1-4.136,3.4-5.2.761-2.7,15.01-3.463,16.756-5.367s-7.08-6.679-7.08-6.679-14.465,2.213-16.639,5.054a39.735,39.735,0,0,0-3.391,7.219C2166.182,1139.643,2164.425,1144.831,2164.425,1144.831Z" transform="translate(-2140.197 -1063.404)"/><path class="o" d="M2234.131,1034.806s-2.742-5.323-4.1-5.168,3.112,11.018,3.519,16.3S2234.131,1034.806,2234.131,1034.806Z" transform="translate(-2189.657 -993.034)"/><path class="n" d="M2205.389,1137.982a80.306,80.306,0,0,0,4.681,9.333c.021.036.033.056.033.056h.044c.462,0,4.433-.091,4.821-1.686,0,0,.129-5.519-.091-9.9a23.156,23.156,0,0,0-.545-4.6s21.54-.145,21.161-6.237-11.639-9.317-18.113-6.157c0,0-8.584,3.119-13.1,7.24C2202.06,1128.047,2203.424,1133.231,2205.389,1137.982Z" transform="translate(-2169.493 -1059.569)"/><path class="r" d="M2251.112,1112.8s2.868,4.215,2.2,8.148-8.855,6.034-14.581,6.285c0,0-16.377-3.753-13.838-10.282C2225.465,1115.475,2251.112,1112.8,2251.112,1112.8Z" transform="translate(-2185.752 -1055.976)"/><g transform="translate(40.636 1.781)"><path class="s" d="M2289.638,889.72s2.6-5.47,8.884-2.214.166,15.667,3.464,18.732-1.2,5.073-.526,7.271-1.242,4.7-5.639,4.4-9.026-.057-11.012-3.9-1.535-12.31-.768-13.5S2289.638,889.72,2289.638,889.72Z" transform="translate(-2270.862 -886.471)"/><path class="n" d="M2267.226,978.2l10.683-6.447c-.059-.024-.275-.346-1.074-2.657a12.863,12.863,0,0,1-.609-2.518c-.009-.068-.018-.133-.023-.2a6.863,6.863,0,0,1-.03-1.553l-2.34.846-4.328,1.568a5.369,5.369,0,0,1-.338,2.4,1.926,1.926,0,0,1-1.647,1.3Z" transform="translate(-2258.631 -945.769)"/><path class="t" d="M2275.2,972.272a8.026,8.026,0,0,0,7.059-3.062c.077-.1.115-.157.115-.157l-.139-.041c-.341-.1-1.264-.379-2.37-.707l-4.328,1.568A5.36,5.36,0,0,1,2275.2,972.272Z" transform="translate(-2264.669 -948.402)"/><path class="n" d="M2261.8,931.554s9.294,1.021,9.484-5.263,1.564-9.16-4.866-9.72-7.949,1.756-8.328,3.882C2256.9,927.095,2259.179,931.272,2261.8,931.554Z" transform="translate(-2251.473 -909.186)"/><path class="s" d="M2265.655,902.628c3.289-.833,2.031,4.994,2.862,4.6.93-.446,2.528-.44,2.275.683a21.674,21.674,0,0,1-.806,2.225c-.19.7,0,2.089.766,1.809s7.877-8.4,2.855-14.727-20-2.429-15.28,4.188C2259.157,902.565,2263.313,903.221,2265.655,902.628Z" transform="translate(-2251.211 -892.173)"/><path class="u" d="M2234.4,1020.31a16,16,0,0,0,7.189,1.412,49.986,49.986,0,0,0,12.574-2.64c2.179-.784,3.669-1.624,3.49-2.328-.258-1.015-2.125-8.8-3.849-16.012-1.577-6.591-3.036-12.7-3.036-12.7s-4.352,3.092-6.889,2-2.211-2.325-2.211-2.325a30.816,30.816,0,0,0-3.8-.271A51.576,51.576,0,0,0,2232,989.27s-.6,1.689.992,4.324a5.728,5.728,0,0,0,2.6,2.606S2231.861,1007.976,2234.4,1020.31Z" transform="translate(-2231.889 -962.88)"/><path class="n" d="M2284.9,1078.822s-2.684-.5-3.734.186-1.361,1.763-.6,2.2a4.892,4.892,0,0,0,4.771-.145Z" transform="translate(-2268.41 -1031.906)"/><path class="d" d="M2316.149,1055.843c2.18-.785,3.67-1.624,3.49-2.328-.258-1.015-2.125-8.8-3.849-16.012-.509-.935-.833-1.493-.833-1.493S2311.685,1050.972,2316.149,1055.843Z" transform="translate(-2293.878 -999.64)"/><path class="n" d="M2300.36,993.4s8.268,1.75,11.528,14.6a3.9,3.9,0,0,1-.88,3.564c-1.5,1.661-4.8,4.091-12.49,4.986-.839.1-.952-2.031-.952-2.031a55.156,55.156,0,0,0,7.407-5.195,1.206,1.206,0,0,0,.094-1.486,34.843,34.843,0,0,1-2.4-4.078C2302.063,1002.3,2298.049,994.063,2300.36,993.4Z" transform="translate(-2281.592 -967.394)"/><path class="u" d="M2306.532,989.944s4.861.346,8.824,5.631c0,0-1.341,4.861-7.637,6.159C2307.719,1001.734,2303.839,992.981,2306.532,989.944Z" transform="translate(-2287.658 -964.778)"/></g><path class="v" d="M2212.4,1194.712a80.258,80.258,0,0,0,4.681,9.333c.026.018.052.036.077.056.461,0,4.433-.091,4.821-1.686,0,0,.128-5.518-.092-9.9C2221.254,1193.119,2218.814,1194.928,2212.4,1194.712Z" transform="translate(-2176.501 -1116.298)"/><path class="v" d="M2164.425,1183.022a8.727,8.727,0,0,0,5,1.6s3.029-3.338,5.581-6.567a27.889,27.889,0,0,1-6.951-4.971C2166.182,1177.834,2164.425,1183.022,2164.425,1183.022Z" transform="translate(-2140.197 -1101.595)"/><path class="r" d="M2206.41,1239.517a.913.913,0,0,0,1.084.725,42.031,42.031,0,0,0,4.235-1.027c1.266-.46,3.694-1.895,4.96-2.355.435-.158,1.48-.58,2.157-.856a.754.754,0,0,0,.44-.91,15.914,15.914,0,0,0-1.277-3.186,1.155,1.155,0,0,0-.528-.468,4.917,4.917,0,0,1-3.077,1.112,6.728,6.728,0,0,1-2.775-.585c-.086.176-1.813,3.658-3.035,4.1A3.033,3.033,0,0,0,2206.41,1239.517Z" transform="translate(-2171.929 -1145.757)"/><path class="r" d="M2131.959,1205.727a.914.914,0,0,0,.4,1.241,42.051,42.051,0,0,0,3.961,1.816c1.279.422,4.074.8,5.352,1.222.44.146,1.522.461,2.223.664a.755.755,0,0,0,.911-.442,15.969,15.969,0,0,0,.97-3.292,1.16,1.16,0,0,0-.124-.7,4.912,4.912,0,0,1-3.1-1.032,6.733,6.733,0,0,1-1.817-2.178c-.177.085-3.689,1.749-4.924,1.342A3.033,3.033,0,0,0,2131.959,1205.727Z" transform="translate(-2115.548 -1124.258)"/><path class="j" d="M2203.939,1130.642s.62,3.593,2.956,5.246c0,0,9.486-1.305,18.317-3.539,6.491-1.641,12.631-3.784,14.387-6.28,4.147-5.887-2.17-13.053-2.17-13.053s-12.178,5.876-25.363,13.076C2209.366,1127.566,2206.626,1129.1,2203.939,1130.642Z" transform="translate(-2170.1 -1056.136)"/><path class="n" d="M2258.32,1207.055s2.817.229,3.883,1.3,2.681,4.167,1.531,5.4-6.632-1.465-6.785-1.907S2258.32,1207.055,2258.32,1207.055Z" transform="translate(-2210.209 -1127.303)"/><path class="o" d="M2203.939,1171.329s.62,3.593,2.956,5.246c0,0,9.486-1.3,18.317-3.539-4.151-3.609-9.576-5.406-13.146-6.257C2209.366,1168.253,2206.626,1169.784,2203.939,1171.329Z" transform="translate(-2170.1 -1096.823)"/><path class="j" d="M2113.3,1054.648c-13.249-9.621-22.649-13.126-22.92-13.1-1.677-7.018-3.2-17.938-9.547-34.588,0,0-12.471.172-14.368,4.676-2.708,6.434-4.674,27.3,15.953,40.779.122.085.254.171.4.257l.17.111.011,0c6.375,3.738,29.2,8.777,29.2,8.777A7.632,7.632,0,0,0,2113.3,1054.648Z" transform="translate(-2064.81 -975.875)"/></g><g transform="translate(66.048 21.179)"><path class="p" d="M2402.864,970.731c-.081-.446-1.13-5.225-8.522-4.41,0,0,3.68-.094,4.536,1.406,0,0-2.749-1.608-4.663-.684s-2.582,4.609-2.427,5.767,1.811,4.723,3.131,4.855a3.935,3.935,0,0,0,1.542-.222,17.511,17.511,0,0,0-.733,1.908c-2.061,6.452,1.822,11.9,4.212,10.891,1.533-.649,2.379,2.006,2.379,2.006l13.666-14.784S2408.589,966.518,2402.864,970.731Z" transform="translate(-2378.293 -966.228)"/><path class="r" d="M2425.56,1395.487l-3.324,1.238s-14.437-20.022-16.214-37.638a26.754,26.754,0,0,1,.475-9.006s-.141-.806-.388-2.231c-.114-.665-.255-1.465-.415-2.382-.469-2.689-1.115-6.369-1.854-10.558-1.7-9.641-3.9-21.966-5.609-31.026l.9-.288,9.69-3.126,2-6.36,7.215-1.9s1.612,3.153,3.053,18.048c.266,1.953.507,4.108.689,6.445a127.574,127.574,0,0,1-.686,26.091c-.332,2.589-.749,5.261-1.268,8.007a35.7,35.7,0,0,0-.277,7.907C2420.274,1373.107,2425.56,1395.487,2425.56,1395.487Z" transform="translate(-2383.187 -1212.925)"/><path class="w" d="M2421.778,1316.7l-15.668,31.148c-.114-.665-.255-1.465-.415-2.382-.469-2.689-1.115-6.369-1.854-10.558-1.7-9.641-3.9-21.966-5.609-31.026l.9-.288,9.69-3.126,2-6.36,7.215-1.9s1.612,3.153,3.053,18.048C2421.354,1312.21,2421.6,1314.365,2421.778,1316.7Z" transform="translate(-2383.187 -1212.925)"/><path class="r" d="M2369.827,1284.935l-.017.074c-.051.206-.2.836-.423,1.738-1.041,4.286-3.586,14.693-3.74,14.684-1.4,9.759-3.5,22.4-6.106,32.121-1.381,5.139-2.9,9.462-4.541,12.107a22.6,22.6,0,0,0-1.814,4.36c-3.77,11.4-8.409,37.2-8.409,37.2l-2.115.853s-8.152-23.183-1.089-42.007a35.866,35.866,0,0,1,2.657-5.588,1.09,1.09,0,0,0,.176-.673.018.018,0,0,0,0-.009c-.093-.783-.321-2.747-.581-5.506-.72-7.613-1.409-33.34-1.786-39.393a32.284,32.284,0,0,1,.176-6.147,23.022,23.022,0,0,1,2.465-8.028,13.037,13.037,0,0,1,2.473-3.4s16.236,6.123,22.313,4.509Z" transform="translate(-2338.128 -1201.654)"/><path class="x" d="M2380.763,1297.063c-.13.094-.27.186-.421.274-5.6,3.272-25.241,2.122-27.174,2a23.033,23.033,0,0,1,2.465-8.028c8.4.745,22.327,2.258,25.132,4.29C2381.4,1296.062,2381.467,1296.551,2380.763,1297.063Z" transform="translate(-2349.083 -1212.244)"/><path class="t" d="M2499.054,1164.228l-.986,2.915s-.2-.036-.541-.123c-1.075-.271-3.7-.9-6.634-1.758-4.425-1.258-9.629-3.014-11.521-4.709-2.886-2.565-7.115-9.588-9.488-16.278a4.031,4.031,0,0,1-.167-.49c-1.228-3.544-1.914-6.965-1.554-9.532a13.018,13.018,0,0,1,1.153-3.984,10.5,10.5,0,0,1,2.492-3.333,1.868,1.868,0,0,1,.423-.359c1.442-1.2,2.457-2.009,2.457-2.009.639-.141,1.485.7,2.023,1.539a21.761,21.761,0,0,1,1.249,2.858c.021.029.041.059.036.083.083.245.163.515.262.814a.627.627,0,0,1,.068.191q.254.927.5,1.93c1.85,7.183,3.281,17.817,5.439,21.3.931,1.5,5.8,4.981,9.691,7.625C2496.757,1162.792,2499.054,1164.228,2499.054,1164.228Z" transform="translate(-2436.038 -1086.045)"/><path class="n" d="M2420.219,1088.084a18.925,18.925,0,0,1-6.69,2.627c-10.256,2.067-13.919-6.655-15.219-12.608a8.75,8.75,0,0,1,3.482-.963c.739-.066,1.515-.1,2.158-.116,1.169-.844,2.975-4.383,3.509-9.942l.476.142,7.97,2.425s-.44,2.542-.688,4.95c-.192,1.884-.265,3.688.08,4.14.623.154,1,.253,1,.253a.02.02,0,0,0,0,.007A51.774,51.774,0,0,1,2420.219,1088.084Z" transform="translate(-2383.246 -1042.553)"/><path class="r" d="M2390.59,1125.786c-.048.218-.1.432-.168.652-1.8,6.019-3.257,30.083-3.257,30.083,1.3,4.1-31.683,3.757-32.321-.055-1.725-3.89,2.5-11.155,4.936-14.846a9.444,9.444,0,0,0,.786-1.458,9.267,9.267,0,0,0,.761-4.048,134.727,134.727,0,0,0-1.57-13.649h0c.508-.5,1-.974,1.461-1.419a14.73,14.73,0,0,0,1.748-1.937,3.038,3.038,0,0,0,.681-2.015,10.076,10.076,0,0,0-.269-1.568c-.061-.246-.129-.491-.2-.736a21.571,21.571,0,0,0-2.225-4.786c2.611-1.525,7.642-1.572,7.642-1.572s.034.275.1.723c.246,1.8.934,6.429,1.638,7.221.88.985,14.789,3.844,15.272,2.264.476-1.555-2.4-8.1-2.5-8.348a.024.024,0,0,1,0-.008c4.678,1.1,6.471,2.324,6.471,2.324C2387.147,1114.726,2391.859,1120.017,2390.59,1125.786Z" transform="translate(-2350.046 -1073.847)"/><path class="t" d="M2445.852,1070.1s-.441,2.54-.688,4.95c-4.537-.584-6.527-4.975-7.282-7.374Z" transform="translate(-2413.193 -1043)"/><path class="n" d="M2444.381,1029.565s-10.783-.9-10.119-7.607-.281-11.339,6.632-11.048,8,2.982,8.318,5.275S2447.2,1029.626,2444.381,1029.565Z" transform="translate(-2410.431 -1000.033)"/><path class="p" d="M2439.076,1008.178c-1.462-2.184-2.764-1.867-3.529-1.331a7.563,7.563,0,0,0-9.831.579,12.874,12.874,0,0,1-4.947,7.148s1.841,1.409,6.48.7a7.727,7.727,0,0,0,3.917-2.162,25.26,25.26,0,0,1-4.851,4.847c5.653-1.957,8.575-9.255,8.871-10.028a8.475,8.475,0,0,1,2.034,3.364c.366,1.761.255,5.3,1.292,5.284C2438.513,1016.577,2441.269,1011.453,2439.076,1008.178Z" transform="translate(-2400.242 -995.786)"/><path class="w" d="M2393.885,1183.154c-6.372.856-12.717-4.968-16.776-9.77a9.27,9.27,0,0,0,.761-4.048,134.8,134.8,0,0,0-1.57-13.649h0c.508-.5,1-.974,1.461-1.419a14.782,14.782,0,0,0,1.748-1.937C2386,1160.38,2402.524,1181.993,2393.885,1183.154Z" transform="translate(-2366.59 -1107.068)"/><g transform="translate(7.932 35.952)"><path class="t" d="M2410.671,1172.12l1.127,3.825s-2.845-.647-4.628-.821c-.535-.054-.841-.1-.841-.1-1.428-.154-3.14-.384-5-.626h-.026c-3.2-.479-6.784-1.077-9.829-1.823a26.409,26.409,0,0,1-5.309-1.836,2.942,2.942,0,0,1-.372-.221c-3.117-1.875-7.144-7.837-10.433-14.318-.457-.895-.889-1.792-1.317-2.663a68.672,68.672,0,0,1-3.684-9.275,26.9,26.9,0,0,1-1.071-4.476,11.2,11.2,0,0,1-.136-1.277c-.018-.231-.033-.458-.043-.677a11.591,11.591,0,0,1,8.128-2.948c.083.141.164.284.247.429,1.709,3.108,3.574,7.163,5.339,11.2.976,2.213,1.924,4.428,2.859,6.468.538,1.241,1.068,2.406,1.565,3.475a34.6,34.6,0,0,0,2.529,4.7,12.166,12.166,0,0,0,3.323,2.515,112.66,112.66,0,0,0,10.457,5.3c1.474.681,2.865,1.292,4.021,1.8C2409.44,1171.595,2410.671,1172.12,2410.671,1172.12Z" transform="translate(-2369.078 -1129.803)"/><path class="r" d="M2377.383,1119.566c-4.94-.911-8.334,3.178-8.334,3.178-.569-7.26,2.957-8.567,2.957-8.567C2373.406,1113.45,2375.308,1115.82,2377.383,1119.566Z" transform="translate(-2368.986 -1114.047)"/></g><path class="w" d="M2353.2,1710.428h-16.74a9.193,9.193,0,0,1,.473-4.487c.838-1.857,2.15-2.7,1.836-4.949a6.027,6.027,0,0,0,5.217,2,18.372,18.372,0,0,0,2.9,3.765C2347.989,1707.539,2352.867,1707.259,2353.2,1710.428Z" transform="translate(-2336.372 -1522.285)"/><path class="w" d="M2500.719,1712.764h-16.74a6.955,6.955,0,0,1,.474-4.487c.972-1.607.6-2.523-.121-3.853a6.507,6.507,0,0,0,2.82.531,5.9,5.9,0,0,0,2.489-.876,60.239,60.239,0,0,0,4.77,5.011C2495.5,1709.875,2500.383,1709.6,2500.719,1712.764Z" transform="translate(-2447.945 -1524.621)"/><path class="e" d="M2465.385,1070.441s.151.888,2.335.89c0,0,1.835,0,1.839-.963A5.891,5.891,0,0,0,2465.385,1070.441Z" transform="translate(-2434.007 -1044.787)"/></g><g transform="translate(95.883 72.012)"><path class="n" d="M2638.067,1187.454c-.707-.272-1.579,2.722-2.123,2.831s-.326-.817-.813-.962-.711,2.431-.33,3.424a6.183,6.183,0,0,1,.327,2.171s-3.239,12.509-3.936,13.909-12.113,11.584-12.113,11.584l2.51,8.11s13.448-12.425,14.594-15.347,1.665-17.923,1.665-17.923a15.591,15.591,0,0,0,1.223-4.339C2639.29,1188.733,2638.775,1187.726,2638.067,1187.454Z" transform="translate(-2580.155 -1184.468)"/><path class="n" d="M2482.046,1210.274s-7.914-10.246-11.765-13.427c0,0-5.268-12.99-5.7-13.845a.4.4,0,0,0-.077-.1,6.864,6.864,0,0,1-.039-2.387c.231-1.173-.513-3.985-1.025-3.73s-.092,1.238-.717,1.222-2.166-3.167-2.9-2.728-1.109,1.653-.448,4.024a17.313,17.313,0,0,0,2.073,4.4l-.033.019s1.935,12.627,3.976,16.37,8.368,16.305,12.834,16.771S2482.046,1210.274,2482.046,1210.274Z" transform="translate(-2459.041 -1175.233)"/><path class="y" d="M2631.419,1713.737a4.557,4.557,0,0,0,2.874,2.176,4.957,4.957,0,0,1,2.981,1.831,1.163,1.163,0,0,1-.934,1.852h-10.054a1.445,1.445,0,0,1-1.438-1.591c.074-.745.153-1.612.187-2.277a4.28,4.28,0,0,1,1.528-2.621Z" transform="translate(-2584.515 -1582.288)"/><path class="z" d="M2592.672,1529.406a9.573,9.573,0,0,1-6.493.565s-6.939-17.742-7.349-26.091q-.028-.5-.019-.959c.14-7.853-7.111-28.3-5.155-32.49s17.758,1.883,17.758,1.883l.314,14.249Z" transform="translate(-2545.526 -1397.518)"/><path class="p" d="M2591.728,1486.562l-12.9,17.317q-.028-.5-.019-.959c.14-7.853-7.111-28.3-5.155-32.49s17.758,1.883,17.758,1.883Z" transform="translate(-2545.526 -1397.518)"/><path class="y" d="M2524.693,1713.737a4.558,4.558,0,0,0,2.875,2.176,4.956,4.956,0,0,1,2.981,1.831,1.162,1.162,0,0,1-.934,1.852h-10.054a1.445,1.445,0,0,1-1.439-1.591c.075-.745.153-1.612.187-2.277a4.282,4.282,0,0,1,1.529-2.621Z" transform="translate(-2503.747 -1582.288)"/><path class="z" d="M2539.137,1468.823s-13.966,52.117-14.394,57.217c0,0-2.724,1.4-7.146-1.071,0,0-2.567-23.359,0-29.743s-.509-25.678,6.021-30.031S2539.137,1468.823,2539.137,1468.823Z" transform="translate(-2502.491 -1393.689)"/><path class="n" d="M2584.537,1277.324l-8.575,4.383-1.719-5.949a18.222,18.222,0,0,0,1.587-5.431,22.672,22.672,0,0,0,.177-4.9l6.987,3.577a13.262,13.262,0,0,0-.278,1.6,11.631,11.631,0,0,0,.121,3.738A5.172,5.172,0,0,0,2584.537,1277.324Z" transform="translate(-2546.224 -1243.493)"/><path class="j" d="M2541.594,1305.135c.048-.713,4.341-3.614,4.341-3.614a12.088,12.088,0,0,0-2.547-9.325l-5.17,3.678a2.537,2.537,0,0,0-1.427.423,16.735,16.735,0,0,0-3.408-.028c.038,1.233-.29,2.385-2.453,2.669-2.879.375-5.452-1.589-6.755-2.924a10.926,10.926,0,0,0-3.931.561,5.873,5.873,0,0,0-2.188-.575l-4.232-3.8s-4.959,1.432-5.741,8.9c0,0,5.567,4.236,5.969,7.583h0l.153,1.269.539,4.494.949,7.883-2.827,15.7a2.3,2.3,0,0,0,1.735,2.657s.243.04.69.1c3,.421,15.163,1.872,24.7-.718a4.631,4.631,0,0,0,3.38-4.848l-2.018-25.325h0S2541.546,1305.849,2541.594,1305.135Z" transform="translate(-2496.156 -1263.75)"/><path class="o" d="M2533.919,1397.514c-.189,5.476-.726,10.119-3.86,11.853-.448-.062-.69-.1-.69-.1a2.3,2.3,0,0,1-1.734-2.657l2.827-15.7-.95-7.882.07-.21S2534.159,1390.5,2533.919,1397.514Z" transform="translate(-2510.922 -1332.328)"/><path class="t" d="M2587.775,1289.581c-3.973-.106-7.007-4.018-7.007-4.018l6.885.28A11.633,11.633,0,0,0,2587.775,1289.581Z" transform="translate(-2551.162 -1258.729)"/><g transform="translate(21.56 6.578)"><path class="n" d="M2580.692,1241.871s-7.924,2.092-10.658-4.209c-2.95-6.8.286-11.755,2.977-12.089,5.366-.667,8.483,1.38,9.427,3.542S2585.064,1240.755,2580.692,1241.871Z" transform="translate(-2563.712 -1219.81)"/><path class="e" d="M2604.582,1275.271s.332.817,2.422.359c0,0,1.755-.385,1.556-1.309A5.771,5.771,0,0,0,2604.582,1275.271Z" transform="translate(-2590.744 -1256.758)"/><path class="p" d="M2555.422,1222.336a14.707,14.707,0,0,1-.818-4.183s-2.068-2.637-.863-3.289,1.855.908,2.131.6.707-5.488,2.171-5.324,6.876,1.841,9.25-.205-3.385-10.043-13.142-6.954S2546.386,1216.918,2555.422,1222.336Z" transform="translate(-2547.686 -1202.279)"/><path class="p" d="M2553.892,1215.623a3.431,3.431,0,0,1,.032-2.26,3.607,3.607,0,0,0,.533,1.874C2554.967,1215.814,2553.892,1215.623,2553.892,1215.623Z" transform="translate(-2552.241 -1210.667)"/><path class="p" d="M2549.781,1218.842a1.948,1.948,0,0,0-1.777.791,1.552,1.552,0,0,1,1.71.035Z" transform="translate(-2547.927 -1214.808)"/></g></g><path class="t" d="M2540,1288.035s4.913,1.01,5.347,1.537,3.53,4.181,2.106,4.614-3.846-1.239-4.617-1.61-1.708-.715-1.708-.715Z" transform="translate(-2424.424 -1188.588)"/></g><path class="w" d="M1348.412,1741.229H813.834a.713.713,0,0,1-.711-.711h0a.713.713,0,0,1,.711-.711h534.578a.713.713,0,0,1,.711.711h0A.713.713,0,0,1,1348.412,1741.229Z" transform="translate(0 -858.978)"/></g></svg>