<svg xmlns="http://www.w3.org/2000/svg" width="101.725" height="110.101" viewBox="0 0 101.725 110.101"><defs><style>.a{fill:#271214;}.b{fill:#e9b19d;}.c{fill:#d99885;}.d{fill:#e4ae9d;}.e{fill:#edbba5;}.f{fill:#6ec0b4;}.g{fill:#64af9f;}.h{fill:#ba3c54;}.i{fill:#da677d;}.j{fill:#fff;}</style></defs><g transform="translate(-47.8 -194.204)"><path class="a" d="M81.243,201.586s-6.713-1.679-11.987,12.226c-5.214,13.747,5.274,36.2,2.4,43.154s-14.144,9.589-13.425,10.069S69.735,278.542,96.107,283.1s39.557-11.028,39.557-11.028-10.788-8.391-7.432-27.57,4.208-35.007-7.852-44.66S84.12,194.393,81.243,201.586Z"/><path class="b" d="M138.443,304.3c-.4-9.609-1.292-21.94-3.222-25.6-3.3-6.263-22.341-6.859-25.388-11.929s-2.539-14.314-2.539-14.314l-8.631.3-8.632-.3s.507,9.244-2.539,14.314S65.4,272.439,62.1,278.7c-1.93,3.663-2.817,15.994-3.222,25.6Z"/><path class="c" d="M89.061,262.814a27.014,27.014,0,0,0,21.493,4.829,4.119,4.119,0,0,1-.721-.87c-3.046-5.07-2.539-14.314-2.539-14.314l-8.631.3-8.632-.3A39.172,39.172,0,0,1,89.061,262.814Z"/><path class="b" d="M76.652,230.406s-3.831-3.234-6.862.447c-2.527,3.069.9,9.3,4.335,11.285s4.693-.18,4.693-.18Z"/><path class="c" d="M76.832,235.944s-2.242-4.26-5.044-4.372,2.354.9,2.13,2.8-2.467,3.587-1.234,3.475,2.355-2.466,2.915-1.233,1.345,2.13,1.345,1.457S76.832,235.944,76.832,235.944Z"/><path class="d" d="M120.673,230.406s3.831-3.234,6.862.447c2.527,3.069-.906,9.3-4.335,11.285s-4.693-.18-4.693-.18Z"/><path class="c" d="M120.493,235.944s2.242-4.26,5.044-4.372-2.354.9-2.13,2.8,2.467,3.587,1.234,3.475-2.355-2.466-2.915-1.233-1.346,2.13-1.346,1.457S120.493,235.944,120.493,235.944Z"/><path class="e" d="M98.663,199.839c-14.6.541-23.966,9.911-23.786,17.3.189,7.748,1.081,29.191,8.289,36.94a31.5,31.5,0,0,0,6.074,5.079,17.444,17.444,0,0,0,18.845,0,31.494,31.494,0,0,0,6.074-5.079c7.208-7.749,8.1-29.192,8.289-36.94C122.628,209.75,113.258,200.38,98.663,199.839Z"/><path class="d" d="M114.159,254.078c7.208-7.749,8.1-29.192,8.289-36.94.18-7.388-9.19-16.758-23.785-17.3-10.433.387-18.172,5.287-21.686,10.748a17.153,17.153,0,0,0,5.394,4.358s22.759-1.026,28.342,13.146-.429,25.983-7.73,29.848c-4.385,2.321-10.847,1.31-15.321.134.532.388,1.059.751,1.578,1.084a17.444,17.444,0,0,0,18.845,0A31.494,31.494,0,0,0,114.159,254.078Z"/><path class="f" d="M149.525,304.3c-1.143-9.568-3.717-21.828-9.515-26.526-7.944-6.435-22.156-9.825-27.819-10.972-.86,6.432-6.582,22.367-13.528,22.367s-12.669-15.935-13.529-22.367c-5.663,1.147-19.875,4.537-27.819,10.972-5.8,4.7-8.372,16.958-9.515,26.526Z"/><path class="g" d="M70.828,304.3c-1.983-8.139-4.148-16.756-4.5-13.794-.339,2.877-.784,8.965-1,13.794Z"/><path class="g" d="M149.525,304.3c-1.143-9.568-3.717-21.828-9.515-26.526-7.944-6.435-22.156-9.825-27.819-10.972-.1.745-.267,1.621-.491,2.581,5.567.708,14.76,3.284,15.317,12.568.7,11.622-4.867,14.156-8.266,22.349Z"/><path class="a" d="M75.869,232.176s8.052-8.836,7.239-15.5c0,0,3.753,10.609,38.528,13.086,0,0,3.488-8.476,3.163-13.84s-8.291-19.832-23.9-19.02-24.872,8.291-27.635,15.281S75.869,232.176,75.869,232.176Z"/><ellipse class="a" cx="1.748" cy="2.16" rx="1.748" ry="2.16" transform="translate(86.197 233.581)"/><path class="a" d="M109.366,235.74a1.787,1.787,0,1,1-1.748-2.159A1.987,1.987,0,0,1,109.366,235.74Z"/><path class="c" d="M98.9,234.872s-1.035,1.422.517,4.4,2.975,4.915,2.07,5.95-3.364,1.94-3.234,1.552,2.125-1.525,1.091-4.241S96.572,237.453,98.9,234.872Z"/><path class="a" d="M82.025,232.646s.524-4.618,7.193-4.752c1.526-.03,1.653,1.93-1.526,1.979C85.714,229.9,82.025,232.646,82.025,232.646Z"/><path class="a" d="M112.815,232.86s-.32-4.637-6.977-5.064c-1.524-.1-1.736,1.855,1.438,2.044C109.251,229.958,112.815,232.86,112.815,232.86Z"/><path class="h" d="M92.983,249.5a.6.6,0,0,1,.592-.729c2.171.007,9.064.55,9.066,1.328,0,.919-2.087,4.178-6.117,3.013A4.548,4.548,0,0,1,92.983,249.5Z"/><path class="i" d="M96.524,253.111a5.009,5.009,0,0,0,4.234-.494,5.087,5.087,0,0,0-6.615-.866A5.266,5.266,0,0,0,96.524,253.111Z"/><path class="j" d="M101.789,250.108a3.329,3.329,0,0,0,.295-.386,41.97,41.97,0,0,0-8.3-.949c.042.264.344.6,1.613.948C97.518,250.307,101.242,250.73,101.789,250.108Z"/></g></svg>