<svg xmlns="http://www.w3.org/2000/svg" width="40.927" height="48.649" viewBox="0 0 40.927 48.649"><defs><style>.a{fill:#32d78a;}.b{fill:#333;}</style></defs><g transform="matrix(-0.208, -0.978, 0.978, -0.208, -581.29, 1178.576)"><path class="a" d="M16.016,27.56a11.082,11.082,0,0,1-2,18.424c-2.449-6.257-3.388-13,2-18.424" transform="translate(978.965 800.784)"/><path class="a" d="M31.863,34.675a14.344,14.344,0,0,0,20.72,12.054C47.924,39.407,41.621,33.237,31.85,34.675" transform="translate(972.349 798.475)"/><path class="b" d="M0,0A2.05,2.05,0,0,1,.306.333c.213.253.493.579.832,1C1.85,2.2,2.882,3.454,4.187,4.979c2.6,3.062,6.263,7.228,10.576,11.575,2.17,2.17,4.293,4.173,6.263,5.944s3.834,3.281,5.431,4.493a41.367,41.367,0,0,0,3.92,2.662c.958.572,1.538.812,1.524.845a1.7,1.7,0,0,1-.426-.16,10.165,10.165,0,0,1-1.165-.566,34.851,34.851,0,0,1-3.994-2.589c-1.624-1.2-3.488-2.709-5.5-4.453s-4.12-3.767-6.3-5.937C10.2,12.44,6.549,8.247,3.994,5.138,2.716,3.588,1.711,2.3,1.032,1.411L.253.373A2.882,2.882,0,0,1,0,0Z" transform="translate(983 810)"/><path class="b" d="M16.315,33.494c-.053,0,.166-.932.353-2.449a26.358,26.358,0,0,0,.067-5.93,26.724,26.724,0,0,0-1.285-5.791C14.95,17.879,14.544,17,14.6,17a2.483,2.483,0,0,1,.339.572,15.921,15.921,0,0,1,.739,1.664,22.857,22.857,0,0,1,1.4,5.844,23.2,23.2,0,0,1-.166,5.99,16.427,16.427,0,0,1-.379,1.777A2.336,2.336,0,0,1,16.315,33.494Z" transform="translate(978.12 804.315)"/></g></svg>