<svg xmlns="http://www.w3.org/2000/svg" width="47.334" height="48.375" viewBox="0 0 47.334 48.375"><defs><style>.a{fill:#32d78a;}.b{fill:#333;}</style></defs><g transform="translate(-1627.388 188.422) rotate(-39)"><g transform="translate(1358.44 899.397)"><path class="a" d="M381.85,105.835a26.947,26.947,0,0,1,44.327-8.075c-12.915,10.011-27.983,16.856-44.327,8.075" transform="translate(-374.55 -89.397)"/><path class="b" d="M375.44,108.591a5.251,5.251,0,0,1,1.025-.8c.683-.49,1.7-1.139,2.984-1.891A56.775,56.775,0,0,1,401.5,98.637c1.481-.171,2.688-.251,3.519-.262a4.773,4.773,0,0,1,1.3,0c0,.1-1.834.216-4.772.638a65.67,65.67,0,0,0-21.89,7.221C377.046,107.669,375.5,108.671,375.44,108.591Z" transform="translate(-375.44 -88.155)"/></g></g></svg>