<svg xmlns="http://www.w3.org/2000/svg" width="726.26" height="398.77" viewBox="0 0 726.26 398.77"><defs><style>.a,.b{fill:#34d789;}.a{opacity:0.32;}.b{opacity:0.3;}.c{fill:#189fb1;}.d{fill:#54ced1;}.e{fill:#14345a;}.f{fill:#d3a479;}.g{fill:#b27c4f;}.h{fill:#f0cd95;}.i{fill:#fff;}.j{fill:#f9e5cf;}.k{fill:#e0caca;}.l{fill:#feeccb;}.m{fill:#f47362;}.n{fill:#5f45aa;}.o{fill:#e3e6f4;}.p{fill:#fdb2b0;}.q{fill:#604b9f;}.r{fill:#d3584f;}</style></defs><g transform="translate(-11.87 -50.615)"><path class="a" d="M512.994,411.192c-68.313,0-129.264,2.048-169.165,5.251-33.624-1.015-77.508-1.629-125.517-1.629-105.832,0-191.626,2.985-191.626,6.667s85.794,6.667,191.626,6.667c28.423,0,55.4-.215,79.656-.6,3.358,1.4,9.875,2.735,19.068,3.969-7.928,1.9-12.789,4.447-12.789,7.251,0,5.864,21.227,10.618,47.412,10.618s47.413-4.754,47.413-10.618a2.746,2.746,0,0,0-.406-1.369c33.226,1.337,72.388,2.11,114.328,2.11,120.2,0,217.636-6.339,217.636-14.158S633.191,411.192,512.994,411.192Z"/><path class="b" d="M3.912,0H611.463a3.912,3.912,0,0,1,3.912,3.912v.079A3.911,3.911,0,0,1,611.463,7.9H3.911A3.911,3.911,0,0,1,0,3.991V3.912A3.912,3.912,0,0,1,3.912,0Z" transform="translate(11.87 390.614)"/><path class="c" d="M68.343,153.069c1.345-6.79,7.883-13.152,5.179-19.525-1.759-4.146-6.885-6.116-8.557-10.3-1.782-4.455.341-11.071-4.583-12.873a5.819,5.819,0,0,0-7.065,2.929,46.094,46.094,0,0,0-4.968,23.949,15.2,15.2,0,0,1-6.021,13.114c-6.923,5.249-11.124,14.223-9.959,22.9a34.918,34.918,0,0,0-1.378,51.026,11.056,11.056,0,0,1,2.729,10.784,14.957,14.957,0,0,0,6.727,16.91,9.146,9.146,0,0,1,4.042,6.59,10.88,10.88,0,0,0,6.944,8.457c5.182,1.785,11.174-.438,14.868-4.487s5.367-9.6,5.833-15.059c.293-3.438.162-6.961,1.185-10.256,1.678-5.4,6.2-9.43,8.684-14.514A21.592,21.592,0,0,0,79.841,201a6.441,6.441,0,0,1-.428-6.776,15.741,15.741,0,0,0,.682-11.53c-1.585-5.185-4.98-9.583-7.762-14.237S67.29,158.388,68.343,153.069Z"/><path class="d" d="M36.27,184.412a.347.347,0,1,1,.474-.127A.347.347,0,0,1,36.27,184.412Z"/><path class="d" d="M35.112,188.146a.694.694,0,1,1,.947-.253A.692.692,0,0,1,35.112,188.146Z"/><path class="d" d="M48.95,177.983a.873.873,0,1,1-1.232.073A.872.872,0,0,1,48.95,177.983Z"/><path class="d" d="M49.438,183.254a1.122,1.122,0,1,1-1.584.094A1.122,1.122,0,0,1,49.438,183.254Z"/><path class="d" d="M51.161,175.776a1.06,1.06,0,1,1-1.5.089A1.06,1.06,0,0,1,51.161,175.776Z"/><path class="d" d="M64.515,169.818a.811.811,0,1,1-1.145.067A.81.81,0,0,1,64.515,169.818Z"/><path class="d" d="M64.853,181.892a.436.436,0,1,1-.616.036A.436.436,0,0,1,64.853,181.892Z"/><path class="d" d="M64.015,185.651a.811.811,0,1,1-1.145.068A.811.811,0,0,1,64.015,185.651Z"/><path class="d" d="M69.209,187.6a1,1,0,1,1-1.408.083A1,1,0,0,1,69.209,187.6Z"/><path class="d" d="M37.338,169.777a.811.811,0,1,1,1.133.176A.809.809,0,0,1,37.338,169.777Z"/><path class="d" d="M34.144,178.475a.686.686,0,1,1,.959.149A.687.687,0,0,1,34.144,178.475Z"/><path class="d" d="M36.817,174.794a1.559,1.559,0,1,1,2.179.338A1.56,1.56,0,0,1,36.817,174.794Z"/><path class="d" d="M44.994,176.8a1,1,0,1,1-1.409.083A1,1,0,0,1,44.994,176.8Z"/><path class="d" d="M51.572,186.485a1.5,1.5,0,1,1-2.112.125A1.5,1.5,0,0,1,51.572,186.485Z"/><path class="d" d="M71.119,178.376a.873.873,0,1,1-1.233.073A.874.874,0,0,1,71.119,178.376Z"/><path class="d" d="M65.388,188.706a1.621,1.621,0,1,1-2.289.135A1.622,1.622,0,0,1,65.388,188.706Z"/><path class="d" d="M74.692,183.961a.811.811,0,1,1-1.144.067A.81.81,0,0,1,74.692,183.961Z"/><path class="d" d="M38.12,236.885a.811.811,0,1,1-1.144.068A.811.811,0,0,1,38.12,236.885Z"/><path class="d" d="M45.771,209.386a1.611,1.611,0,1,1,2.251.35A1.611,1.611,0,0,1,45.771,209.386Z"/><path class="d" d="M29.688,185.408a.867.867,0,1,1,1.184-.316A.865.865,0,0,1,29.688,185.408Z"/><path class="d" d="M39.715,242.139a.527.527,0,1,1,.567.483A.527.527,0,0,1,39.715,242.139Z"/><path class="d" d="M37.62,224.135a1.054,1.054,0,1,1,1.134.967A1.054,1.054,0,0,1,37.62,224.135Z"/><path class="d" d="M48.128,248.891a.922.922,0,1,1,.992.846A.922.922,0,0,1,48.128,248.891Z"/><path class="d" d="M50.057,242.031a1.185,1.185,0,1,1,1.274,1.088A1.185,1.185,0,0,1,50.057,242.031Z"/><path class="d" d="M44.831,248.954a1.119,1.119,0,1,1,1.2,1.027A1.119,1.119,0,0,1,44.831,248.954Z"/><path class="d" d="M34.048,217.931a.856.856,0,1,1,.921.786A.857.857,0,0,1,34.048,217.931Z"/><path class="d" d="M37.675,213.682a.461.461,0,1,1,.5.423A.461.461,0,0,1,37.675,213.682Z"/><path class="d" d="M41.063,211.433a.856.856,0,1,1,.921.785A.856.856,0,0,1,41.063,211.433Z"/><path class="d" d="M38.532,206.151a1.054,1.054,0,1,1,1.133.967A1.053,1.053,0,0,1,38.532,206.151Z"/><path class="d" d="M33.65,211.226a.856.856,0,1,1,.921.786A.856.856,0,0,1,33.65,211.226Z"/><path class="d" d="M33.154,197.029a.724.724,0,1,1,.779.665A.725.725,0,0,1,33.154,197.029Z"/><path class="d" d="M31.2,202.336a1.646,1.646,0,1,1,1.771,1.511A1.647,1.647,0,0,1,31.2,202.336Z"/><path class="d" d="M44.487,240.668a1.053,1.053,0,1,1,1.133.967A1.053,1.053,0,0,1,44.487,240.668Z"/><path class="d" d="M50.795,238.01a1.58,1.58,0,1,1,1.7,1.451A1.581,1.581,0,0,1,50.795,238.01Z"/><path class="d" d="M34.057,214.694a.921.921,0,1,1,.991.847A.92.92,0,0,1,34.057,214.694Z"/><path class="d" d="M46.148,199.726a1.712,1.712,0,1,1,1.841,1.571A1.713,1.713,0,0,1,46.148,199.726Z"/><path class="d" d="M35.593,196.532a.856.856,0,1,1,.92.785A.855.855,0,0,1,35.593,196.532Z"/><path class="d" d="M36.011,193.4a.563.563,0,1,1,.606.517A.564.564,0,0,1,36.011,193.4Z"/><path class="d" d="M26.791,196.74a1.119,1.119,0,1,1,1.2,1.028A1.119,1.119,0,0,1,26.791,196.74Z"/><path class="d" d="M29.212,207.314a1.317,1.317,0,1,1,1.417,1.209A1.318,1.318,0,0,1,29.212,207.314Z"/><path class="e" d="M55.814,199.229V253.91c-2.034-.518-2.624-1.489-3.161-3.76l-1.216.287c.629,2.664,1.495,4.093,4.377,4.746V370.365h1.249V260.629c4.008-1.018,6.953-3.994,8.739-8.88l-1.174-.429c-1.61,4.4-4.1,7.017-7.565,8.008V209.456c7.807-.449,11.679-8.554,13.925-14.755l-1.175-.426c-3.36,9.274-7.338,13.611-12.75,13.948V185.078c2.2-.867,4.559-3.328,7.353-7.693l-1.052-.674c-2.414,3.772-4.486,6.066-6.3,7V152.945H55.814v17.016c-1.431-.21-3.121-3-4.306-5.192l-1.1.6c1.624,3,3.4,5.719,5.4,5.849V197.9c-5.655-2.026-9.7-6.267-12.316-12.989l-1.164.453C45.11,192.512,49.654,197.155,55.814,199.229Z"/><rect class="f" width="25.651" height="57.002" transform="translate(236.731 110.585)"/><path class="g" d="M236.731,121.942v45.645h25.651V146.575Z"/><path class="h" d="M184.676,76.621,40.83,220.468V232.19H331.453V223.4Z"/><path class="d" d="M184.994,89.913,328.4,232.36H300.189V376.922H69.8V232.36H41.583Z"/><path class="c" d="M184.993,107.489,310.71,232.36H328.4L184.993,89.913,41.583,232.36H59.278Z"/><path class="e" d="M186.62,91.529V109.1L310.71,232.36H328.4Z"/><rect class="e" width="43.601" height="146.189" transform="translate(137.065 234.958)"/><rect class="e" width="43.601" height="146.189" transform="translate(184.338 234.958)"/><rect class="c" width="43.601" height="132.344" transform="translate(137.065 248.802)"/><rect class="c" width="43.601" height="132.344" transform="translate(184.338 248.802)"/><rect class="c" width="145.201" height="13.829" transform="translate(108.42 213.721)"/><rect class="i" width="20.408" height="20.408" transform="translate(112.476 235.541)"/><rect class="i" width="20.408" height="20.408" transform="translate(88.143 235.541)"/><rect class="i" width="20.408" height="20.408" transform="translate(112.476 259.677)"/><rect class="i" width="20.408" height="20.408" transform="translate(88.143 259.677)"/><rect class="i" width="20.408" height="20.408" transform="translate(256.382 235.541)"/><rect class="i" width="20.408" height="20.408" transform="translate(232.05 235.541)"/><rect class="i" width="20.408" height="20.408" transform="translate(256.382 259.677)"/><rect class="i" width="20.408" height="20.408" transform="translate(232.05 259.677)"/><path class="c" d="M311.316,115.491c1.345-6.791,7.884-13.152,5.18-19.524-1.76-4.147-6.885-6.117-8.558-10.3-1.782-4.455.341-11.071-4.583-12.873a5.82,5.82,0,0,0-7.065,2.928,46.1,46.1,0,0,0-4.968,23.95,15.2,15.2,0,0,1-6.021,13.114c-6.923,5.249-11.123,14.223-9.958,22.895a34.917,34.917,0,0,0-1.378,51.027,11.056,11.056,0,0,1,2.728,10.783,14.957,14.957,0,0,0,6.727,16.91,9.144,9.144,0,0,1,4.042,6.59,10.882,10.882,0,0,0,6.944,8.457c5.183,1.786,11.174-.438,14.868-4.487s5.368-9.6,5.833-15.059c.294-3.438.162-6.961,1.185-10.256,1.678-5.4,6.2-9.43,8.685-14.514a21.6,21.6,0,0,0-2.163-21.714,6.443,6.443,0,0,1-.428-6.776,15.741,15.741,0,0,0,.683-11.53c-1.585-5.185-4.981-9.583-7.763-14.237S310.263,120.81,311.316,115.491Z"/><path class="e" d="M300.037,221.75V171.877c7.807-.447,11.678-8.553,13.924-14.754l-1.174-.426c-3.36,9.274-7.339,13.612-12.75,13.948V147.5c2.2-.867,4.559-3.328,7.352-7.693l-1.052-.674c-2.414,3.772-4.485,6.066-6.3,7V115.367h-1.25v17.016c-1.431-.21-3.12-3-4.3-5.192l-1.1.6c1.624,3,3.4,5.719,5.4,5.85v26.688c-5.654-2.027-9.7-6.267-12.316-12.989l-1.164.453c2.776,7.146,7.321,11.789,13.48,13.863v54.681c-2.034-.518-2.624-1.489-3.161-3.76l-1.215.287c.628,2.665,1.494,4.093,4.376,4.746v30.537h1.25V223.051c4.008-1.018,6.952-3.994,8.739-8.88l-1.175-.429C305.992,218.147,303.5,220.759,300.037,221.75Z"/><path class="d" d="M284.15,204.466A1.259,1.259,0,1,1,283.1,205.9,1.259,1.259,0,0,1,284.15,204.466Z"/><path class="d" d="M290.452,208.777a1.619,1.619,0,1,1-1.355,1.846A1.62,1.62,0,0,1,290.452,208.777Z"/><path class="d" d="M283.735,199.98a1.529,1.529,0,1,1-1.279,1.743A1.529,1.529,0,0,1,283.735,199.98Z"/><path class="d" d="M292.214,200.682a1.169,1.169,0,1,1-.978,1.333A1.169,1.169,0,0,1,292.214,200.682Z"/><path class="d" d="M294.109,195.1a.63.63,0,1,1-.528.718A.63.63,0,0,1,294.109,195.1Z"/><path class="d" d="M301.769,209.59a1.169,1.169,0,1,1-.979,1.333A1.171,1.171,0,0,1,301.769,209.59Z"/><path class="d" d="M308.712,205.614a1.439,1.439,0,1,1-1.205,1.641A1.439,1.439,0,0,1,308.712,205.614Z"/><path class="d" d="M284.355,187.525a1.169,1.169,0,1,1-.979,1.333A1.169,1.169,0,0,1,284.355,187.525Z"/><path class="d" d="M275.346,177.654a.989.989,0,1,1-.828,1.128A.989.989,0,0,1,275.346,177.654Z"/><path class="d" d="M278.28,183.523a2.249,2.249,0,1,1-1.881,2.563A2.247,2.247,0,0,1,278.28,183.523Z"/><path class="d" d="M281.819,193.63a1.439,1.439,0,1,1-1.2,1.64A1.439,1.439,0,0,1,281.819,193.63Z"/><path class="d" d="M295.21,204.918a2.159,2.159,0,1,1-1.807,2.461A2.16,2.16,0,0,1,295.21,204.918Z"/><path class="d" d="M304.18,198.641a1.259,1.259,0,1,1-1.054,1.435A1.258,1.258,0,0,1,304.18,198.641Z"/><path class="d" d="M293.849,219.241a2.339,2.339,0,1,1-1.957,2.665A2.338,2.338,0,0,1,293.849,219.241Z"/><path class="d" d="M309.722,196.178a1.169,1.169,0,1,1-.978,1.333A1.171,1.171,0,0,1,309.722,196.178Z"/><path class="d" d="M308.36,187.9a1.169,1.169,0,1,1-.979,1.333A1.17,1.17,0,0,1,308.36,187.9Z"/><path class="d" d="M295.751,185.763a1.529,1.529,0,1,1-1.28,1.743A1.529,1.529,0,0,1,295.751,185.763Z"/><path class="d" d="M305.866,151.831a1.249,1.249,0,1,1-.383,1.726A1.25,1.25,0,0,1,305.866,151.831Z"/><path class="d" d="M283.171,161.658a.5.5,0,1,1-.655.266A.5.5,0,0,1,283.171,161.658Z"/><path class="d" d="M284.163,156.107a1,1,0,1,1-1.311.531A1,1,0,0,1,284.163,156.107Z"/><path class="d" d="M288.7,168.476a.875.875,0,1,1-1.146.465A.874.874,0,0,1,288.7,168.476Z"/><path class="d" d="M290.856,173.324a1.124,1.124,0,1,1-1.474.6A1.123,1.123,0,0,1,290.856,173.324Z"/><path class="d" d="M290.09,165.671a1.062,1.062,0,1,1-1.392.565A1.062,1.062,0,0,1,290.09,165.671Z"/><path class="d" d="M294.85,169.178a.812.812,0,1,1-1.065.431A.811.811,0,0,1,294.85,169.178Z"/><path class="d" d="M296.842,174.092a.437.437,0,1,1-.574.232A.437.437,0,0,1,296.842,174.092Z"/><path class="d" d="M297.253,177.93a.812.812,0,1,1-1.064.431A.811.811,0,0,1,297.253,177.93Z"/><path class="d" d="M302.809,178.109a1,1,0,1,1-1.31.531A1,1,0,0,1,302.809,178.109Z"/><path class="d" d="M295.74,162.9a1.563,1.563,0,1,1-2.048.83A1.564,1.564,0,0,1,295.74,162.9Z"/><path class="d" d="M284.566,168.626a1,1,0,1,1-1.311.531A1,1,0,0,1,284.566,168.626Z"/><path class="d" d="M293.92,175.705a1.5,1.5,0,1,1-1.966.8A1.5,1.5,0,0,1,293.92,175.705Z"/><path class="d" d="M297.572,170.6a.875.875,0,1,1-1.146.465A.874.874,0,0,1,297.572,170.6Z"/><path class="d" d="M306.847,172.9a.813.813,0,1,1-1.065.432A.813.813,0,0,1,306.847,172.9Z"/><path class="d" d="M308.14,179.143a.812.812,0,1,1-1.065.432A.812.812,0,0,1,308.14,179.143Z"/><path class="d" d="M302.38,161.643a1.062,1.062,0,1,1-1.392.564A1.062,1.062,0,0,1,302.38,161.643Z"/><path class="d" d="M292.415,159.055a1.25,1.25,0,1,1-1.638.664A1.249,1.249,0,0,1,292.415,159.055Z"/><path class="c" d="M89.333,274.072c-.13-.993-1.853-1.2-2.365-2.1a4.034,4.034,0,0,0-4.126-2.17c-1.484.132-3-.248-3.942,1.192-.884,1.348-2.1,2.479-2.889,3.879-.554.981-2.572,1.475-2.338,2.835.242,1.4,1.308,2.086.781,3.6a10.813,10.813,0,0,0-.747,2.325,13.01,13.01,0,0,0-2.257.126c-2.128.219-4.082.125-6.157.815-1.629.542-2.871.579-4.372,1.584-1.438.963-2.655,2.218-4.17,3.05-1.634.9-1.278,1.7-1.59,3.305-.319,1.637-2.731,1.1-3,2.877-.26,1.723-.909,3.1-1.273,4.772-.438,2.007.081,4.3-.521,6.26-.483,1.574-.994,2.361.577,3.364,2.036,1.3.324,2.081,1.088,3.758-2.363-.683-4.4-.5-6.116,1.571a13.1,13.1,0,0,0-1.934,2.721c-.5,1.028-1.422,1.2-2.176,1.944-.9.893-.022,2.2-.245,3.251-.254,1.209-1.6,1.851-1.194,3.228.4,1.34.84,2.023.387,3.44a10.341,10.341,0,0,0,.012,4.255c-.97-.854-2.662-.918-3.811-1.55-1.463-.8-3.329-.183-4.788.375-1.851.709-1.971,1.694-3.247,2.919-.884.848-3.223-.283-3.441,1.361-.214,1.624.326,2.363-.95,3.681-1.361,1.4-.38,2.4-.791,4.017-.42,1.65-.413,3.65-.686,5.365-.2,1.262-1.858,1.877-2.172,3.354-.4,1.873-.257,2.256.851,3.705.814,1.065.564,3.253.447,4.518a5.016,5.016,0,0,1-1.422,3.64c-.952,1.145-.2,3.727.332,4.978a23.81,23.81,0,0,0,1.762,3.324c.979,1.626-1.12,2.568,1.2,3.367a13.629,13.629,0,0,0,3.928.349c1.487,0,2.277-1.084,3.972-.843a27.418,27.418,0,0,0,3.972-.083c1.173,0,1.475,1.435,2.648,1.435,1.256,0,1.393-1.726,2.649-1.727a28.044,28.044,0,0,0,4.511.055c1.5-.224,1.639.545,2.559,1.435.8.775,2.513.249,3.519.248A8.051,8.051,0,0,0,55.431,377c1.013-.846,1.848-1.516,2.989-.343.879.9,1.809.736,2.85.208,1.375-.7,2.427.356,3.77.356,1.311,0,2.671-.051,3.974-.167,1.581-.141,3.257.736,4.762.34,1.3-.343,2.092-.662,3.39-.056,1.264.591,2.493-.147,3.775-.147s2.061.975,3.433.641a20.178,20.178,0,0,1,4.516-.887c1.182,0,2.236.469,3.441.291a5.279,5.279,0,0,1,3.195.023,9.092,9.092,0,0,0,3.442.584c1.538-.058.275-1.974.035-2.929-.313-1.24.6-2.124.521-3.315a9.7,9.7,0,0,0-1.063-3.934c-.762-1.293-.359-1.994-.022-3.335.4-1.6-1.234-2.848-.241-4.387.642-1,1.1-1.661.228-2.684-.681-.8-1.361-1.449-.616-2.451,1.962-2.637.131-4.25-.055-7.113-.194-2.986-1.083-5.818-1.306-8.811-.242-3.245-.73-6.514-.938-9.724-.07-1.085,1.4-1.67,1.332-2.755-.1-1.476-.287-2.947-.4-4.423-.1-1.3-1.008-2.27-1.087-3.487-.115-1.776-.062-3.558-.177-5.326-.171-2.642,1.957-4.913-.483-6.832-2.014-1.584,1.068-4.813.225-7.162a23.472,23.472,0,0,1-1.8-8.112c.072-2.752,1.588-6.452-.283-8.7-1.046-1.257-.006-2.322-.1-3.73a15.426,15.426,0,0,1-.2-4.022c.653-3.49-1.963-3.281-3.215-.537C89.2,273.066,89.851,272.936,89.333,274.072Z"/><rect class="f" width="45.931" height="47.906" transform="translate(38.293 334.311)"/><path class="g" d="M84.223,346.7,48.7,382.218H84.223Z"/><rect class="f" width="46.919" height="68.649" transform="translate(92.372 312.087)"/><path class="g" d="M92.372,375.633v5.1h46.919V328.715Z"/><rect class="c" width="349.152" height="101.986" transform="translate(125.378 290.175)"/><rect class="i" width="21.304" height="111.566" transform="translate(453.227 281.637)"/><rect class="i" width="20.721" height="111.566" transform="translate(429.661 281.637)"/><rect class="i" width="20.721" height="111.566" transform="translate(406.096 281.637)"/><rect class="i" width="20.721" height="111.566" transform="translate(382.531 281.637)"/><rect class="i" width="20.721" height="111.566" transform="translate(358.966 281.637)"/><rect class="i" width="20.721" height="111.566" transform="translate(335.4 281.637)"/><rect class="i" width="20.721" height="111.566" transform="translate(311.835 281.637)"/><rect class="i" width="20.721" height="111.566" transform="translate(288.27 281.637)"/><rect class="i" width="20.721" height="111.566" transform="translate(264.704 281.637)"/><rect class="i" width="20.721" height="111.566" transform="translate(241.139 281.637)"/><rect class="i" width="20.721" height="111.566" transform="translate(217.574 281.637)"/><rect class="i" width="20.721" height="111.566" transform="translate(194.009 281.637)"/><rect class="i" width="20.721" height="111.566" transform="translate(170.443 281.637)"/><rect class="i" width="20.721" height="111.566" transform="translate(146.878 281.637)"/><rect class="i" width="18.656" height="111.566" transform="translate(125.378 281.637)"/><rect class="j" width="21.304" height="108.36" transform="translate(453.227 284.843)"/><rect class="j" width="20.721" height="108.36" transform="translate(429.661 284.843)"/><rect class="j" width="20.721" height="108.36" transform="translate(406.096 284.843)"/><rect class="j" width="20.721" height="108.36" transform="translate(382.531 284.843)"/><rect class="j" width="20.721" height="108.36" transform="translate(358.966 284.843)"/><rect class="j" width="20.721" height="108.36" transform="translate(335.4 284.843)"/><rect class="j" width="20.721" height="108.36" transform="translate(311.835 284.843)"/><rect class="j" width="20.721" height="108.36" transform="translate(288.27 284.843)"/><rect class="j" width="20.721" height="108.36" transform="translate(264.704 284.843)"/><rect class="j" width="20.721" height="108.36" transform="translate(241.139 284.843)"/><rect class="j" width="20.721" height="108.36" transform="translate(217.574 284.843)"/><rect class="j" width="20.721" height="108.36" transform="translate(194.009 284.843)"/><rect class="j" width="20.721" height="108.36" transform="translate(170.443 284.843)"/><rect class="j" width="20.721" height="108.36" transform="translate(146.878 284.843)"/><rect class="j" width="18.656" height="108.36" transform="translate(125.378 284.843)"/><rect class="f" width="21.304" height="14.36" transform="translate(453.227 378.843)"/><rect class="f" width="20.721" height="14.36" transform="translate(429.661 378.843)"/><rect class="f" width="20.721" height="14.36" transform="translate(406.096 378.843)"/><rect class="f" width="20.721" height="14.36" transform="translate(382.531 378.843)"/><rect class="f" width="20.721" height="14.36" transform="translate(358.966 378.843)"/><rect class="f" width="20.721" height="14.36" transform="translate(335.4 378.843)"/><rect class="f" width="20.721" height="14.36" transform="translate(311.835 378.843)"/><rect class="f" width="20.721" height="14.36" transform="translate(288.27 378.843)"/><rect class="f" width="20.721" height="14.36" transform="translate(264.704 378.843)"/><rect class="f" width="20.721" height="14.36" transform="translate(241.139 378.843)"/><rect class="f" width="20.721" height="14.36" transform="translate(217.574 378.843)"/><rect class="f" width="20.721" height="14.36" transform="translate(194.009 378.843)"/><rect class="f" width="20.721" height="14.36" transform="translate(170.443 378.843)"/><rect class="f" width="20.721" height="14.36" transform="translate(146.878 378.843)"/><rect class="f" width="18.656" height="14.36" transform="translate(125.378 378.843)"/><path class="h" d="M652.626,200.374l40.592,47.891v-16.6h17.759v37.553l21.662,25.556H716.9v80.655H588.355V294.772H572.613Z"/><rect class="i" width="14.434" height="14.434" transform="translate(692.819 295.398)"/><rect class="i" width="14.434" height="14.434" transform="translate(675.609 295.398)"/><rect class="i" width="14.434" height="14.434" transform="translate(692.819 312.469)"/><rect class="i" width="14.434" height="14.434" transform="translate(675.609 312.469)"/><rect class="k" width="76.67" height="52.336" transform="translate(659.776 337.148)"/><rect class="i" width="5.325" height="55.607" transform="translate(732.805 334.412)"/><rect class="i" width="5.325" height="55.607" transform="translate(722.392 334.412)"/><rect class="i" width="5.325" height="55.607" transform="translate(711.979 334.412)"/><rect class="i" width="5.325" height="55.607" transform="translate(701.566 334.412)"/><rect class="i" width="5.325" height="55.607" transform="translate(691.153 334.412)"/><rect class="i" width="5.325" height="55.607" transform="translate(680.74 334.412)"/><rect class="i" width="5.325" height="55.607" transform="translate(670.327 334.412)"/><rect class="i" width="4.794" height="55.607" transform="translate(660.179 334.412)"/><path class="e" d="M438.444,361.414c-1.11-1.089-.45-3.1.809-4.014s1.2-.676,4.357-1.6c1.827-.531,3.385-1.586,6.3-4.834a34.667,34.667,0,0,0,9.186.065,33.406,33.406,0,0,1,.818,9.709Q449.2,361.564,438.444,361.414Z"/><path class="c" d="M330.916,315.379c-.327,2.01-.172,8.941-.493,10.866l32.472-.083c-.132-.727-1.4-9.2-1.6-9.877-1.809-5.978-1.352-8.155-1.573-14.4-.247-6.948,1.211-9.786,2.808-16.551.782-3.312.9-6.667-2.634-11.03-2.5-3.079-3.293-4.527-6.384-10.033-1.672-2.976-5.059-1.469-8.433-1.985-1.44-.22-3.83,1.954-5.021,2.8a13.056,13.056,0,0,0-2.8,4.115,36.815,36.815,0,0,0-1.729,8.726c-.825,7.773,1.143,11.112.528,18.9C335.538,303.368,332.069,308.3,330.916,315.379Z"/><rect class="f" width="45.364" height="47.977" transform="translate(366.841 260.77)"/><path class="h" d="M356.969,281.466a51.017,51.017,0,0,1-2.964-8.766c-.706-3-2.065-8.015-4.9-8.939a6.756,6.756,0,0,0-7.873,2.651c-1.3,2.234-1.03,5.081-.54,7.65a57.322,57.322,0,0,0,4.784,14.391c3.8,7.786,8.906,12.457,15.813,17.337s13.233,7.735,23.83,10.618c.879-1.71,1.86-3.87,2.739-5.58C375.064,304.036,362.43,295.41,356.969,281.466Z"/><path class="e" d="M489.35,254.455a33.672,33.672,0,0,1-12.519,3.418,6.719,6.719,0,0,1-3.8-.437,2.543,2.543,0,0,1-1.269-3.249,49.956,49.956,0,0,0,28.359-14.3c.933,1.643.127,3.712-.86,5.322A25.616,25.616,0,0,1,489.35,254.455Z"/><path class="d" d="M489.437,255.035a17.609,17.609,0,0,1-1.47-3.683l.965-.264a16.562,16.562,0,0,0,1.386,3.474Z"/><path class="d" d="M477.108,260.749a15.144,15.144,0,0,1-1.369-6.453l1,.011a14.158,14.158,0,0,0,1.277,6.026Z"/><path class="e" d="M346.819,300.017a30.207,30.207,0,0,0,7.028,6.938,7.046,7.046,0,0,0,2.8,1.228,3.119,3.119,0,0,0,2.813-.894c.859-.994.76-2.48.5-3.768-2.716-13.606-16.882-22.646-19.762-36.218a25.985,25.985,0,0,0-1.308,17.178A42.643,42.643,0,0,0,346.819,300.017Z"/><path class="i" d="M669.911,117.343a6.3,6.3,0,0,0-4.269-5.825,13.683,13.683,0,0,0-19.833-11.01,24.476,24.476,0,0,0-42.274-.318,13.281,13.281,0,0,0-19.166,10.117,13.436,13.436,0,0,0-7,7.812c-4.451.253-6.971.539-6.971.841,0,1.037,29.524,1.878,65.943,1.878s65.944-.841,65.944-1.878C702.284,118.272,689.287,117.67,669.911,117.343Z"/><path class="i" d="M313.749,76.227A5.544,5.544,0,0,0,310,71.105a12.03,12.03,0,0,0-17.438-9.68,21.52,21.52,0,0,0-37.168-.28,11.677,11.677,0,0,0-16.852,8.9,11.819,11.819,0,0,0-6.155,6.869c-3.913.223-6.129.473-6.129.739,0,.912,25.958,1.652,57.979,1.652s57.979-.74,57.979-1.652C342.212,77.043,330.785,76.514,313.749,76.227Z"/><rect class="e" width="158.951" height="67.991" transform="translate(538.994 324.485)"/><path class="e" d="M684.036,364.912H668.785c-4.858,0-8.8,12.958-8.8,28.942s3.938,28.942,8.8,28.942h15.251c4.858,0,8.8-12.958,8.8-28.942S688.894,364.912,684.036,364.912Z"/><path class="l" d="M690.441,395.538c0,11.671-2.742,21.133-6.125,21.133s-6.125-9.462-6.125-21.133,2.742-21.132,6.125-21.132S690.441,383.868,690.441,395.538Z"/><path class="m" d="M687.361,235.3l-71.776-52.44V392.312h54.949V371.671a11.365,11.365,0,0,1,13.3-11.2l.249.043a13.572,13.572,0,0,1,11.255,13.373v18.423h8.213V304.146a13.224,13.224,0,0,0-.182-2.185l-9.35-55.862A16.807,16.807,0,0,0,687.361,235.3Z"/><rect class="n" width="11.332" height="23.889" rx="4.9" transform="translate(702.787 279.158)"/><rect class="i" width="11.332" height="23.889" rx="4.9" transform="translate(701.467 279.158)"/><path class="e" d="M671.488,237.828l-.627,54.13a2.038,2.038,0,0,0,1.7,2.035l23.029,3.838a2.039,2.039,0,0,0,2.347-2.343l-8.114-49.106a2.04,2.04,0,0,0-.937-1.4L674.6,236.119A2.038,2.038,0,0,0,671.488,237.828Z"/><path class="o" d="M680.983,305.048l-6.116-.766a1.836,1.836,0,0,1-1.608-1.828l0-1.4,8.947,1.12-.005,1.8A1.088,1.088,0,0,1,680.983,305.048Z"/><path class="e" d="M698.369,379.409l-1.308-.051c.661-17.408-7.454-19.532-7.536-19.551l-20.948-2.753v-129.5h1.309V355.906l19.875,2.615C690.2,358.623,699.069,360.937,698.369,379.409Z"/><path class="e" d="M380.042,341.023H355.35c-7.865,0-14.242,20.98-14.242,46.859s6.377,46.858,14.242,46.858h24.692c7.866,0,14.242-20.979,14.242-46.858S387.908,341.023,380.042,341.023Z"/><path class="l" d="M386.933,390.944c0,17.253-2.742,31.239-6.125,31.239s-6.125-13.986-6.125-31.239,2.742-31.238,6.125-31.238S386.933,373.692,386.933,390.944Z"/><path class="e" d="M538.075,341.023H513.382c-7.865,0-14.241,20.98-14.241,46.859s6.376,46.858,14.241,46.858h24.693c7.865,0,14.241-20.979,14.241-46.858S545.94,341.023,538.075,341.023Z"/><ellipse class="l" cx="6.125" cy="31.239" rx="6.125" ry="31.239" transform="translate(532.715 359.705)"/><path class="e" d="M418.632,341.023H393.939c-7.865,0-14.241,20.98-14.241,46.859s6.376,46.858,14.241,46.858h24.693c7.865,0,14.241-20.979,14.241-46.858S426.5,341.023,418.632,341.023Z"/><ellipse class="l" cx="6.125" cy="31.239" rx="6.125" ry="31.239" transform="translate(413.272 359.705)"/><path class="e" d="M578.5,341.023H553.809c-7.865,0-14.241,20.98-14.241,46.859s6.376,46.858,14.241,46.858H578.5c7.865,0,14.241-20.979,14.241-46.858S586.367,341.023,578.5,341.023Z"/><path class="l" d="M587.23,390.944c0,17.253-2.742,31.239-6.125,31.239s-6.125-13.986-6.125-31.239,2.742-31.238,6.125-31.238S587.23,373.692,587.23,390.944Z"/><path class="e" d="M667.165,220.548l-51.58-37.684V392.312h51.58Z"/><path class="p" d="M313.174,123.373V392.312H529.067V70.084Z"/><path class="e" d="M521.208,82.216l-201,49.613V392.562h201Z"/><path class="m" d="M529.067,70.083V392.312H559V350.751a15.091,15.091,0,0,1,17.652-14.872l8.6,1.48a17.2,17.2,0,0,1,14.281,16.949v38H664.4V168.363Z"/><path class="h" d="M664.4,198.1,529.067,114.13v92.708L664.4,256.4Z"/><rect class="e" width="2.268" height="152.769" transform="translate(536.069 92.056) rotate(-56.405)"/><rect class="e" width="2.268" height="127.318" transform="translate(538.832 313.664) rotate(-81.841)"/><rect class="e" width="2.268" height="140.626" transform="matrix(0.32, -0.947, 0.947, 0.32, 531.739, 217.601)"/><path class="e" d="M668.084,376.7l-70.977-5.762v23.372h70.977Z"/><path class="e" d="M693.81,378.792v15.521h10.107v-14.7Z"/><path class="e" d="M562.193,368.107l-24.271-1.97v28.176h24.271Z"/><path class="e" d="M537.922,394.313H311.439a6.278,6.278,0,0,1-6.278-6.278v-15.62a6.278,6.278,0,0,1,6.278-6.278H537.922Z"/><path class="i" d="M537.922,369.871v-3.734H311.439a6.275,6.275,0,0,0-5.736,3.734Z"/><rect class="m" width="22.97" height="9.188" rx="4.548" transform="translate(315.727 372.722)"/><rect class="m" width="22.97" height="9.188" rx="4.548" transform="translate(495.81 372.722)"/><rect class="h" width="98.903" height="102.601" transform="translate(323.85 259.23)"/><path class="n" d="M412.952,351.75l-3.576-4.2-3.576,4.2h1.85v7.432H411.1V351.75Z"/><path class="q" d="M403.329,359.082H392.081V347.834h11.248Zm-10.248-1h9.248v-9.248h-9.248Z"/><path class="q" d="M390.612,359.082H379.364V347.834h11.248Zm-10.248-1h9.248v-9.248h-9.248Z"/><rect class="h" width="72.243" height="74.943" transform="translate(348.558 177.422)"/><path class="n" d="M414.83,225.98l-7.553-8.873-7.553,8.873h3.908v2.712h7.29V225.98Z"/><rect class="f" width="72.243" height="153.432" transform="translate(424.945 207.713)"/><rect class="g" width="14.909" height="153.432" transform="translate(424.945 207.713)"/><path class="n" d="M491.217,352.093l-7.553-8.873-7.553,8.873h3.908v2.712h7.289v-2.712Z"/><path class="h" d="M199.208,278.145a55.014,55.014,0,0,1-9.811-12.836,47.758,47.758,0,0,0-11.159,5.256c3.69,6.578,8.544,13.6,15.081,17.539,7.249,4.367,14.875,7.85,28.734,9.94q.993-2.925,1.988-5.849A57.269,57.269,0,0,1,199.208,278.145Z"/><path class="r" d="M184.949,253.841c-.687-2.284-1.326-4.846-3.376-6.137-2.153-1.355-5.258-.706-7.1,1.084a8.949,8.949,0,0,0-2.4,6.958,21.822,21.822,0,0,0,2.032,7.191,85.564,85.564,0,0,0,4.039,8.22,50.148,50.148,0,0,1,11.708-5.515C191.355,269.314,186.273,258.246,184.949,253.841Z"/><path class="e" d="M193.652,423.265a18.465,18.465,0,0,0,6.092.655q7.708-.081,15.384-.9l.009-1.955q-10.791.557-21.6.557Q193.594,422.443,193.652,423.265Z"/><path class="c" d="M215.048,421.862c1.052-1.145.287-3.12-1.017-3.966s-1.229-.613-4.434-1.366c-1.852-.435-3.463-1.408-6.546-4.5a34.7,34.7,0,0,1-9.171.544,33.392,33.392,0,0,0-.31,9.737Q204.312,422.573,215.048,421.862Z"/><path class="e" d="M193.385,303.168l-26.537,6.883c1.872,10,3.876,14.387,6.825,21.437,11.283,26.975,17.006,53.973,18.585,83.863l13.048-1.129c-.575-24.336-1.8-48.66-3.966-72.9C200.177,328.306,198.608,315.036,193.385,303.168Z"/><path class="n" d="M196.128,414.593c-2.168-34.152-5.264-68.707-9.2-102.7l.993-.115c3.941,34.015,7.039,68.587,9.208,102.757Z"/><path class="n" d="M160.47,413.9a50.331,50.331,0,0,1,2.082-5.89l-9.555-.9a43.445,43.445,0,0,0-1.243,6.8A61.844,61.844,0,0,1,160.47,413.9Z"/><path class="e" d="M151.485,422.2a18.494,18.494,0,0,0,6.093.656q7.707-.082,15.384-.9,0-.978.008-1.955-10.79.555-21.6.557Q151.428,421.379,151.485,422.2Z"/><path class="c" d="M172.739,420.823c1.052-.872.287-3.354-1.017-4s-1.229-.467-4.434-1.04c-1.852-.332-3.463-1.073-6.546-3.428a45.243,45.243,0,0,1-9.171.414,25.811,25.811,0,0,0-.076,8.552C158.657,421.456,165.591,421.184,172.739,420.823Z"/><path class="e" d="M166.35,310.724c-2.721,16.753,6.268,34.181,1.9,50.563a78.839,78.839,0,0,1-4.672,11.7,164.4,164.4,0,0,0-11.326,35.974c3.585,1.27,9.934,2.4,13.492,3.048,8.415-16.8,16.669-30.429,21.709-50.291,4.962-19.557,3.845-39.451,2.729-57.72C190.183,304,166.381,310.534,166.35,310.724Z"/><path class="n" d="M158.005,409.537l-.962-.276c5.783-20.233,9.416-27.932,12.335-34.119a78.036,78.036,0,0,0,5.749-15.231,187.081,187.081,0,0,0,6.231-51.886l1-.01a188.107,188.107,0,0,1-6.265,52.156,79.938,79.938,0,0,1-5.81,15.4C167.379,381.723,163.765,389.381,158.005,409.537Z"/><path class="c" d="M173.029,310.079a52,52,0,0,1-5.572.523q.082,1.175.164,2.349a48.3,48.3,0,0,0,5.748-.477A6.6,6.6,0,0,1,173.029,310.079Z"/><path class="c" d="M173.786,309.978a5.828,5.828,0,0,0,.34,2.382,48.414,48.414,0,0,0,9.534-2.516c.231-.087.462-.185.693-.278a18.876,18.876,0,0,1-.74-2.083l.721-.207a18.046,18.046,0,0,0,.715,2.01c3.174-1.358,6.2-3.282,7.8-6.293A52.657,52.657,0,0,1,173.786,309.978Z"/><path class="m" d="M188.287,270.671c-.447-5.217-.854-10.491-2.433-15.483s-4.465-9.757-8.888-12.559-10.531-3.255-14.809-.235c-4.554,3.214-6.018,9.279-6.413,14.84a122.153,122.153,0,0,0,.719,20.036c1.168,12.455,1.567,21.751,6.127,33.4a55.9,55.9,0,0,0,31.444-6.544,2.47,2.47,0,0,0,1.3-1.216,2.6,2.6,0,0,0-.433-1.935C189.581,290.7,189.275,282.2,188.287,270.671Z"/><path class="r" d="M174.46,251.511c3.276,3.32,4.9,7.955,5.623,12.565s.625,9.3.987,13.953a71.439,71.439,0,0,0,5.322,22.018,6.307,6.307,0,0,1,.755,3.669c-.464,2.136-2.946,3.06-5.073,3.561q-4.851,1.14-9.788,1.853a3.241,3.241,0,0,1-4.25-2.359,99.614,99.614,0,0,1-8.748-33.067c-.4-4.714-.447-9.6,1.282-14.008s5.582-8.245,10.289-8.731Z"/><path class="h" d="M179.1,232.591c-5.205-.532-6.531-1.58-10.638-4.82l-4.956,13.185c5.262-.953,10.228.415,14.841,2.958C177.464,239.883,177.521,235.711,179.1,232.591Z"/><path class="e" d="M177.874,240.677a15.209,15.209,0,0,1,1.229-8.086c-4.669-.477-6.222-1.375-9.456-3.892C169.778,234.5,173.2,238.429,177.874,240.677Z"/><path class="i" d="M163.443,240.162a1.612,1.612,0,0,1,.458-.9,1.549,1.549,0,0,1,.8-.252,30.348,30.348,0,0,1,16.981,2.912,29.915,29.915,0,0,0,.238,7.125,52.8,52.8,0,0,0-9.167-4.655,26.185,26.185,0,0,0-11.8-.92C161.225,242.419,163.172,241.212,163.443,240.162Z"/><path class="h" d="M186.289,231.45c-.215-1.457-1.171-2.755-1.313-4.2.205-.468.735-1.012.769-1.441.187-2.307.131-3.687.171-6a8.875,8.875,0,0,0-.267-2.822,6.056,6.056,0,0,0-4.028-3.69,14.5,14.5,0,0,0-5.626-.39c-2.435.2-5.063.674-6.705,2.483a7.952,7.952,0,0,0-1.774,4.4,15.945,15.945,0,0,0,4.266,12.678c3.155,3.356,6.93,5.827,11.381,5.642.552-1.978,1.111-3.5,1.55-5.248l.663-.11a1.329,1.329,0,0,0,.664-.241A1.156,1.156,0,0,0,186.289,231.45Z"/><path class="e" d="M182.182,233.616a.552.552,0,0,0,.285.207,2.648,2.648,0,0,0,1.586.123l.107-.511a5.345,5.345,0,0,1-1,0,1.785,1.785,0,0,1-.914-.365A.618.618,0,0,0,182.182,233.616Z"/><path class="e" d="M183.827,226.284c.009-.169-.041-.374-.2-.428a.41.41,0,0,0-.412.187,1.482,1.482,0,0,0-.336.93.362.362,0,0,0,.108.3c.132.1.321.006.439-.108A1.331,1.331,0,0,0,183.827,226.284Z"/><path class="e" d="M182.367,224.792a9.171,9.171,0,0,1,2.06-.12l-.018-.567a3.943,3.943,0,0,0-2.057.215A.921.921,0,0,1,182.367,224.792Z"/><path class="e" d="M167.524,217.136a8.349,8.349,0,0,1,6.31-5.062,17.181,17.181,0,0,1,8.343.738,5.368,5.368,0,0,1,2.7,1.473,5.282,5.282,0,0,1,.92,2.118,5.574,5.574,0,0,1,.234,1.768,4.033,4.033,0,0,1-2.67,3.228,9.631,9.631,0,0,1-4.36.39,67.453,67.453,0,0,1-10.173-1.942,2.429,2.429,0,0,1-.991-.4A2.1,2.1,0,0,1,167.524,217.136Z"/><path class="e" d="M175.788,225.115a1.461,1.461,0,0,1,1.356-1.373,1.671,1.671,0,0,1,1.463,1.376c.141.97.2,1.645.575,2.018a23.627,23.627,0,0,1,2.019-5.774l-11.967-2.631a2.082,2.082,0,0,0-.929-.061,1.563,1.563,0,0,0-.695.425,4.448,4.448,0,0,0-1.124,3.486,22.036,22.036,0,0,0,.767,3.7,7.332,7.332,0,0,1,.117,3.734,12.427,12.427,0,0,0,5.975-2.5,3.774,3.774,0,0,1,2.418-1.154A7.273,7.273,0,0,1,175.788,225.115Z"/><path class="n" d="M177.254,211.542a37.174,37.174,0,0,1,6.538,1.344,2.8,2.8,0,0,1,2.534,3.2,40.047,40.047,0,0,1-.342,6.325,34.36,34.36,0,0,1-16.107-.724c-1.242-.361-2.644-.983-2.93-2.244a3.877,3.877,0,0,1,.192-1.854,10.36,10.36,0,0,1,1.53-3.667,6.638,6.638,0,0,1,3.941-2.308A14.639,14.639,0,0,1,177.254,211.542Z"/><path class="m" d="M185.93,217.785a5.533,5.533,0,0,0-.42-2.955,3.957,3.957,0,0,0-2.435-1.718,25.855,25.855,0,0,0-3.015-.5,3.491,3.491,0,0,1,1.081,1.974,8.362,8.362,0,0,1,.075,2.285,28.47,28.47,0,0,1-1.144,6.185,12.126,12.126,0,0,0,2.569-.186,4.078,4.078,0,0,0,2.229-1.211A6.137,6.137,0,0,0,185.93,217.785Z"/><path class="n" d="M185.945,220.9c1.152-.216,1.41.517,5.653.967-1.882,1.844-3.779,2.856-6.4,2.549a56.422,56.422,0,0,1-7.59-1.407C180.49,223.029,183.117,221.434,185.945,220.9Z"/><path class="e" d="M168.947,216.9a.661.661,0,0,0-.4-.332.51.51,0,0,0-.843.371,2.82,2.82,0,0,0-.2,1.323.966.966,0,0,0,.9.851l.516-1.833A.654.654,0,0,0,168.947,216.9Z"/><path class="h" d="M181.345,285.928a62.86,62.86,0,0,1-7.1-17.041,54.588,54.588,0,0,0-13.861,2.557c2.161,8.343,5.479,17.516,11.555,23.772,6.737,6.937,14.149,13.006,28.852,19.352l3.9-5.883A65.45,65.45,0,0,1,181.345,285.928Z"/><path class="m" d="M172.669,254.92c-.059-2.724-.053-5.739-1.942-7.763-1.984-2.125-5.6-2.312-8.163-.871a10.226,10.226,0,0,0-4.682,6.988,24.92,24.92,0,0,0,.152,8.537A97.085,97.085,0,0,0,160.1,272.07a57.268,57.268,0,0,1,14.542-2.683A64.773,64.773,0,0,1,172.669,254.92Z"/><path class="e" d="M160.273,272.262a59.947,59.947,0,0,1,14.488-2.757l-.048-.748a60.747,60.747,0,0,0-14.544,2.752,60.256,60.256,0,0,0-1.238-6.046c-.354-1.456-.72-2.96-.993-4.451-.832-4.553-.537-8.149.9-10.992,1.564-3.088,5.345-5.686,8.967-4.682l.2-.722c-4-1.107-8.137,1.707-9.836,5.065-1.517,2.995-1.835,6.746-.971,11.466.276,1.512.645,3.027,1,4.493a52.763,52.763,0,0,1,1.326,6.706l.316-.034.025.076c.128-.042.257-.078.385-.12l.02,0Z"/><path class="e" d="M442.889,361.743c-1.11-1.089-.45-3.1.809-4.014s1.2-.676,4.357-1.594c1.827-.531,3.385-1.587,6.3-4.835a34.622,34.622,0,0,0,9.186.066,33.4,33.4,0,0,1,.818,9.708Q453.647,361.895,442.889,361.743Z"/><path class="c" d="M498.522,243.24a72.433,72.433,0,0,1-22.767,1.929l-3.952-.183c.815,8.007-2.461,16.869-6.022,24.086a177.257,177.257,0,0,0-8.761,20.461c-6.74,18.911-4.6,42.825-4.28,62.887l11.689-.329c.678-22.869,3.534-48.657,16.754-67.332,4.492-6.345,9.634-12.271,13.35-19.1S500.467,250.767,498.522,243.24Z"/><path class="d" d="M458.5,351.422a188.294,188.294,0,0,1,12.921-82.986l.932.365a187.288,187.288,0,0,0-12.855,82.548Z"/><path class="e" d="M466.8,313.093c3.806-10.831,7.617-21.681,10.435-32.811.647-2.554,1.245-5.214.757-7.8s-2.345-5.1-4.945-5.535c-5.769,17.847-11.607,36.188-10.619,54.919C464.577,319.374,465.712,316.194,466.8,313.093Z"/><path class="e" d="M466.1,361.414c-1.111-1.089-.45-3.1.809-4.014s1.195-.676,4.357-1.6c1.826-.531,3.384-1.586,6.3-4.834a34.667,34.667,0,0,0,9.186.065,33.371,33.371,0,0,1,.818,9.709Q476.861,361.564,466.1,361.414Z"/><path class="d" d="M487.155,352.593c-2.368-23.111-2.524-44.757,4.218-66.356,4.506-14.434,14.133-22.519,11.875-41.563l-2.278-7.355c-9.494,4.965-17.007,5.364-27.642,6.795.376,15.87-2.925,29.694-4.328,43.877-2.135,21.578,1.543,43.241,5.421,64.6Z"/><path class="c" d="M483.041,352.113c-.521-4.3-.778-8.086-1.025-11.747s-.5-7.422-1.021-11.694c-.653-5.383-1.328-10.95-1.466-16.474a86.432,86.432,0,0,1,4.028-28.352c1.138-3.587,2.528-7.144,3.872-10.585,1.121-2.87,2.28-5.837,3.284-8.8a33.289,33.289,0,0,1,2.23-5.085c1.209-2.325,2.007-3.861,1.6-8.195l1-.1c.439,4.629-.46,6.358-1.706,8.75a32.15,32.15,0,0,0-2.169,4.945c-1.01,2.983-2.174,5.962-3.3,8.843-1.339,3.424-2.723,6.966-3.851,10.523a85.414,85.414,0,0,0-3.981,28.024c.136,5.476.809,11.018,1.459,16.377.521,4.3.778,8.086,1.025,11.748s.5,7.421,1.021,11.694Z"/><path class="h" d="M447.336,211.651a76.93,76.93,0,0,1-30.5,21.474l3.756,6.993c9.936-4.041,19.729-8.634,28.424-14.913,3.547-2.561,7.076-5.168,10.324-8.013-1.392-4.512-4.687-7.055-8.691-9.563C449.56,208.983,448.469,210.336,447.336,211.651Z"/><path class="r" d="M465.217,194.447c-2.971.954-6.011,3.8-7.744,5.452a79.384,79.384,0,0,0-6.82,7.73c3.918,2.379,7.149,5.244,8.691,9.563,4.713-4.127,8.828-8.76,11.5-14.518C472.715,198.646,470.471,192.759,465.217,194.447Z"/><path class="e" d="M457.92,214.409a26.427,26.427,0,0,0-8.038-6.429l.344-.666a27.172,27.172,0,0,1,8.268,6.612Z"/><path class="m" d="M493.06,249.343a43.832,43.832,0,0,1-19.69,6.116,5.815,5.815,0,0,1-6.164-4.92,164.58,164.58,0,0,0-6.989-28.529c-2.031-5.946-4.435-12.1-3.267-18.216a18.542,18.542,0,0,1,8.59-11.988c4.518-2.806,10.32-4.937,15.789-4.129,10.337,11.812,14.728,27.639,18.719,42.083,1.039,3.762,2.063,7.75.73,11.44C499.542,244.621,496.431,247.288,493.06,249.343Z"/><path class="h" d="M457.012,187.515c4.809-2.73,5.646-4.308,8.241-9.191L474.7,187.8c-3.744,5.347-5.582,6.758-10.959,10.771C461.183,194.448,460.8,190.621,457.012,187.515Z"/><path class="e" d="M461.644,194.814a16.073,16.073,0,0,0-4.632-7.3c4.314-2.449,5.435-3.979,7.492-7.791C466.846,185.393,465.21,190.649,461.644,194.814Z"/><path class="r" d="M462.748,218.954c1.134-8.195,5.9-15.643,12.264-20.923,2.146-1.78,5.185-3.383,7.574-1.948a5.759,5.759,0,0,1,2.253,3.163c1.782,5.141.025,10.762-1.726,15.914-2.636,7.755-5.272,15.511-8.1,23.2-1.338,3.646-2.8,7.405-5.611,10.087C465.421,239.047,461.349,229.067,462.748,218.954Z"/><path class="i" d="M472.806,185.8a5.742,5.742,0,0,1-.845,4.256,17.072,17.072,0,0,1-2.924,3.342,37.631,37.631,0,0,1-3.909,3.42,4.922,4.922,0,0,0-1.2,1.061,3.893,3.893,0,0,0-.454.96,19.682,19.682,0,0,0-1.125,5.832c2.128-3.039,5.127-5.336,7.827-7.88s5.226-5.557,5.934-9.2A10.345,10.345,0,0,1,472.806,185.8Z"/><path class="i" d="M461.87,194.323a7.416,7.416,0,0,0-1.709,4.87,12.209,12.209,0,0,0,1.256,4.482,9.132,9.132,0,0,1,2.939-5.684C463.151,197.269,462.433,195.61,461.87,194.323Z"/><path class="h" d="M463.578,169.84a8.406,8.406,0,0,0-3.589-3.5c-2.359-1.051-5.105-.4-7.544.452a15.34,15.34,0,0,0-5.277,2.772,6.405,6.405,0,0,0-2.326,5.285,9.367,9.367,0,0,0,.943,2.843c1.024,2.222,1.556,3.581,2.719,5.733.218.4.974.707,1.368,1.076a3.288,3.288,0,0,1,.129.914,14.561,14.561,0,0,0,.619,4.639,1.42,1.42,0,0,0,.8.552,1.834,1.834,0,0,0,1.12-.26c.086-.088.153-.15.223-.218,1.087,1.361,2.2,2.541,3.478,4.1,4.385-1.716,6.985-5.713,8.609-10.3A16.854,16.854,0,0,0,463.578,169.84Z"/><path class="e" d="M449.736,181.831a8.416,8.416,0,0,1,2.843-.159,1.092,1.092,0,0,0,.058.446,7.032,7.032,0,0,0-2.634.3Z"/><path class="e" d="M452.879,183.861a1.264,1.264,0,0,0-.452-.474.48.48,0,0,0-.6.1.56.56,0,0,0,.07.615,1.2,1.2,0,0,0,.5.414.473.473,0,0,0,.586-.08C453.1,184.265,452.991,184.036,452.879,183.861Z"/><path class="e" d="M454.214,190.566a5.975,5.975,0,0,0,1.618-.8.427.427,0,0,1,.238-.08.3.3,0,0,1,.233.363.843.843,0,0,1-.249.409,3.152,3.152,0,0,1-.858.712,1.258,1.258,0,0,1-1.081.068.537.537,0,0,1-.243-.2.292.292,0,0,1,0-.3A.526.526,0,0,1,454.214,190.566Z"/><path class="e" d="M462.442,167.279a8.825,8.825,0,0,0-8.259-2.211,18.158,18.158,0,0,0-7.757,4.265,5.683,5.683,0,0,0-1.984,2.573,5.576,5.576,0,0,0,.012,2.442,5.885,5.885,0,0,0,.526,1.81,4.264,4.264,0,0,0,3.957,1.986,10.173,10.173,0,0,0,4.384-1.479,71.351,71.351,0,0,0,9.016-6.208,2.585,2.585,0,0,0,.786-.814A2.223,2.223,0,0,0,462.442,167.279Z"/><path class="m" d="M457.607,178.524a1.544,1.544,0,0,0-1.9-.75,1.765,1.765,0,0,0-.83,1.953,3.95,3.95,0,0,1,.3,2.2,24.911,24.911,0,0,0-4.411-4.727l10.457-7.64a2.208,2.208,0,0,1,.874-.454,1.648,1.648,0,0,1,.853.115,4.7,4.7,0,0,1,2.571,2.894,23.255,23.255,0,0,1,.831,3.9,7.746,7.746,0,0,0,1.476,3.663,13.143,13.143,0,0,1-6.844.127,3.981,3.981,0,0,0-2.83-.087A7.8,7.8,0,0,0,457.607,178.524Z"/><path class="n" d="M450.648,166.01a39.287,39.287,0,0,0-5.754,4.082,2.957,2.957,0,0,0-1.09,4.173,42.417,42.417,0,0,0,3.023,5.974,36.329,36.329,0,0,0,15.275-7.557c1.048-.878,2.139-2.076,1.88-3.418a4.106,4.106,0,0,0-.976-1.713,10.958,10.958,0,0,0-3.04-2.9,7.024,7.024,0,0,0-4.8-.555A15.438,15.438,0,0,0,450.648,166.01Z"/><path class="m" d="M445.245,175.658a5.844,5.844,0,0,1-.852-3.037,4.18,4.18,0,0,1,1.625-2.7,27.525,27.525,0,0,1,2.7-1.766,3.7,3.7,0,0,0-.206,2.37,8.853,8.853,0,0,0,.9,2.243,30.141,30.141,0,0,0,3.74,5.5,12.845,12.845,0,0,1-2.564.913,4.313,4.313,0,0,1-2.672-.222A6.487,6.487,0,0,1,445.245,175.658Z"/><path class="n" d="M446.224,178.765c-1.207.282-1.144,1.1-5.058,3.342,2.606.983,4.873,1.154,7.273-.257a59.742,59.742,0,0,0,6.744-4.591C452.406,178.5,449.186,178.075,446.224,178.765Z"/><path class="e" d="M460.967,167.661a.7.7,0,0,1,.242-.489.539.539,0,0,1,.973,0,2.976,2.976,0,0,1,.76,1.193,1.023,1.023,0,0,1-.506,1.206l-1.279-1.554A.694.694,0,0,1,460.967,167.661Z"/><path class="h" d="M460.811,213.606a86.759,86.759,0,0,1-29.09,30.383l5.674,6.923c10.119-6.627,19.96-13.834,28.221-22.67,3.37-3.605,6.71-7.255,9.688-11.108-2.521-4.692-6.718-6.791-11.694-8.7C462.7,210.171,461.78,211.9,460.811,213.606Z"/><path class="m" d="M476.868,190.688c-3.081,1.7-5.828,5.507-7.388,7.713a89.853,89.853,0,0,0-5.87,10.035c4.852,1.783,9.05,4.253,11.694,8.7,4.32-5.59,7.869-11.609,9.578-18.563C486.077,193.709,482.316,187.68,476.868,190.688Z"/><path class="e" d="M475.242,218.22l-.6-.454a75.56,75.56,0,0,0,7.764-12.585,15.271,15.271,0,0,0,1.95-6.591c-.01-2-1.013-4.544-3.192-5.4l.276-.7c2.516.992,3.654,3.776,3.666,6.1a15.906,15.906,0,0,1-2.026,6.924A76.161,76.161,0,0,1,475.242,218.22Z"/><path class="e" d="M474.944,217.492a18.778,18.778,0,0,0-11.535-8.508l.18-.728a19.526,19.526,0,0,1,12,8.85Z"/><path class="e" d="M230.7,387.366l211.059-57.753a9.1,9.1,0,0,0,6.372-11.173l-1.942-7.1L217.584,373.9l1.941,7.1A9.1,9.1,0,0,0,230.7,387.366Z"/><path class="e" d="M430.81,345.63l-5.44,1.588-10.2-22.252,9.291-2.542Z"/><path class="e" d="M254.37,393.8l-5.839,1.706-6.35-23.206,9.291-2.542Z"/><rect class="e" width="28.517" height="87.213" rx="6.783" transform="translate(394.042 238.877) rotate(-15.304)"/><rect class="e" width="28.517" height="87.213" rx="6.783" transform="matrix(0.965, -0.264, 0.264, 0.965, 202.294, 291.345)"/><path class="e" d="M420.153,312.966,241.915,361.737a10.589,10.589,0,0,1-13.009-7.419l-2.412-8.813a10.591,10.591,0,0,1,7.42-13.01l178.238-48.771a10.589,10.589,0,0,1,13.009,7.419l2.412,8.813A10.592,10.592,0,0,1,420.153,312.966Z"/><rect class="n" width="28.517" height="87.213" rx="11.438" transform="translate(405.816 235.655) rotate(-15.303)"/><rect class="n" width="28.517" height="87.213" rx="10.645" transform="translate(187.654 295.351) rotate(-15.303)"/><rect class="i" width="202.648" height="30.455" rx="6.506" transform="translate(228.81 349.249) rotate(-15.303)"/><path class="n" d="M426.035,326.857l-182.911,50.05c-3.466.948-6.97-.82-7.826-3.95l-4.158-15.193c-.856-3.131,1.259-6.437,4.725-7.385l182.911-50.05c3.466-.949,6.97.82,7.827,3.95l4.157,15.193C431.617,322.6,429.5,325.908,426.035,326.857Z"/><path class="i" d="M404.8,286.739l-162.9,44.575a9.2,9.2,0,0,1-11.3-6.444l-13.429-49.076a9.2,9.2,0,0,1,6.444-11.3l162.9-44.574a9.2,9.2,0,0,1,11.3,6.444l13.429,49.075A9.2,9.2,0,0,1,404.8,286.739Z"/><path class="n" d="M406.845,287.618,242.1,332.7c-4.955,1.356-10-1.316-11.277-5.967l-12.748-46.59c-1.273-4.651,1.712-9.521,6.667-10.877l164.743-45.079c4.955-1.356,10,1.316,11.277,5.967l12.748,46.59C414.785,281.392,411.8,286.262,406.845,287.618Z"/><path class="h" d="M339.949,266.654a1.046,1.046,0,0,1,.009-.785c1.334-4.785,3.453-12.176,4.788-16.961,2.226.554,3.738,3.4,6.024,3.324-.594,5.541.839,9.99,1.393,15.535-4.7-.419-6.738-.351-11.435-.77A.93.93,0,0,1,339.949,266.654Z"/><path class="h" d="M343.519,239.715a8.865,8.865,0,0,1,6.014-4.221,12.993,12.993,0,0,1,8.631,2.493c1.017.869,1.055,3.274,1.166,4.649.085,1.05-.35,1.757-.25,2.807a5.4,5.4,0,0,0,.379,1.741,6.889,6.889,0,0,1,.278,3.067c-.432,2.934-2.409,5.221-3.513,7.876a1.622,1.622,0,0,1-2.029.924,19.321,19.321,0,0,1-9.453-6.479C342.077,248.946,341.219,243.609,343.519,239.715Z"/><path class="e" d="M361.168,238.242a5.755,5.755,0,0,1-4.2,5.379c.113-.265.225-.531.338-.8a7.583,7.583,0,0,1-5.383,3.711q.2-.454.4-.907c-.727,1.61-2.328,2.536-3.821,3.377s-3.081,1.818-3.736,3.462a10.562,10.562,0,0,1-4.468-5.761,17.086,17.086,0,0,1-.645-7.5c.232-1.969.8-4.045,2.264-5.293,1.778-1.512.8-.8,2.865-1.82C353.866,227.608,361.223,235.744,361.168,238.242Z"/><path class="m" d="M344.191,240.995a9.439,9.439,0,0,0,.947-2.7,3.191,3.191,0,0,0-.742-2.671,1.955,1.955,0,0,0-2.592-.214A5.892,5.892,0,0,1,344.191,240.995Z"/><path class="h" d="M353.69,247.59a3.759,3.759,0,0,0,.126-1.773,1.983,1.983,0,0,0-.978-1.4,1.913,1.913,0,0,0-2.205.588,5.36,5.36,0,0,0-.432,5.369,1.878,1.878,0,0,0,2.611.633Z"/><path class="e" d="M341.578,246.467c-.68-1.8-1.575-3.611-1.457-5.542a5.407,5.407,0,0,1,2.573-4.2.8.8,0,0,0-.388-1.457,5.6,5.6,0,0,0-3.916,1.505,10.534,10.534,0,0,0-2.85,6.317c-.333,2.354-.241,4.752-.449,7.122-.4,4.6-2.16,9.355-5.789,11.961,2.609.654,5.388,1.3,7.925.385,2.807-1.014,4.787-3.867,5.409-6.922A16.782,16.782,0,0,0,341.578,246.467Z"/><path class="h" d="M336.45,373.066h14.576c-3.267,16.182-6.442,33.032-9.272,49.053-.59,3.34-.142,5.945,1.516,7.994.011.013,2.408,1.387,2.424,1.391,3.8,1.142,7.624,2.37,5.686,4.331a15.933,15.933,0,0,1-12.416,2.8c-1.63-.3-3.792.7-4.324.151-.652-.669-.5-2.182-.29-3.539q.33-2.127.738-4.274a18.938,18.938,0,0,0,.207-6.31C332.935,408.977,333.338,391.333,336.45,373.066Z"/><path class="e" d="M349.282,432.7a7.478,7.478,0,0,1-2.837,2.541,11.039,11.039,0,0,1-5.949.771c-1.981-.194-4.033-.92-6.148-.745-.208,1.352-.358,2.856.292,3.523.532.545,2.694-.451,4.324-.151a15.933,15.933,0,0,0,12.416-2.8C352.672,434.527,351.4,433.547,349.282,432.7Z"/><path class="c" d="M350.586,418.652c-3.819-18.244,2.466-38.543,2.884-57.177.289-12.86,2.8-26.24,3.8-39.064a120.624,120.624,0,0,1-25-1.585c-2.84,8.318-2.111,17.438-.384,26.056s.8,16.07,1.824,24.8c1.791,15.244-6.914,27-1.646,47.741C337.692,418.837,344.962,419.238,350.586,418.652Z"/><path class="e" d="M341.328,414.287a5.121,5.121,0,0,0,1.56,2.836c1.9,1.512,4.937.712,7.314-.168-3.826-14.524,3.314-29.848.1-44.481-2.351-10.7-10.024-20.015-13.344-30.526.287,7.187.085,12.434,1.412,18.312s2.625,7.75,2.75,15.375C341.326,388.146,338.032,402.146,341.328,414.287Z"/><path class="h" d="M346.788,408.8c-1.54-8.683-.384-24.132-1.912-35.737H360.55c1.545,14.108-2.965,26.212-.541,62.361,2.283,3.974,6.433,4.557,10.91,6.065.783.264,1.808.672,1.521,1.826a2.774,2.774,0,0,1-.882,1.319,6.863,6.863,0,0,1-3.485,1.458c-6.1,1.238-7.333.163-10.291-.25-2.533-.354-3.988.522-5.3-1.413-.549-.833-.3-2.052.1-3.39.54-1.82,1.244-4.168.8-5.678C351.36,428.56,348.084,416.1,346.788,408.8Z"/><path class="e" d="M370.919,441.492a12.112,12.112,0,0,1-1.262-.525,7.47,7.47,0,0,1-4.736,2.345c-3.942.418-9.269-.324-12.416-1.988-.347,1.226-.532,2.334-.022,3.108,1.311,1.935,2.766,1.059,5.3,1.413,2.957.413,4.186,1.488,10.29.25a6.854,6.854,0,0,0,3.485-1.458,2.765,2.765,0,0,0,.881-1.319C372.727,442.164,371.7,441.756,370.919,441.492Z"/><path class="d" d="M363.258,417.715c-3.819-18.244-1.069-30.692-.651-49.326.289-12.859-.082-33.748-.576-44.943a106.727,106.727,0,0,1-23.5-1.632c-2.84,8.318-2.111,17.437-.384,26.056s4.417,17.057,5.443,25.786c1.792,15.245-1.52,31.089,2.8,45.818Z"/><path class="c" d="M346.038,415.011v-1a63.339,63.339,0,0,0,15.385-1.916l.244.969A64.331,64.331,0,0,1,346.038,415.011Z"/><path class="e" d="M330.641,327.671l30.092-2.094q.036,1.614.072,3.226a211.716,211.716,0,0,0-29.281,4.459A9.47,9.47,0,0,1,330.641,327.671Z"/><path class="c" d="M330.258,316.449c-1.811,9.055-.913,11.411-1.235,13.335l33.764-2.649c-.132-.727-1.044-12.227-1.25-12.908-1.809-5.978-1.352-8.155-1.573-14.4-.247-6.948,1.211-9.786,2.808-16.551.782-3.312.9-6.667-2.634-11.03-2.5-3.079-2.3-4.5-5.392-10-1.671-2.977-7.986-2.2-11.359-2.716-1.44-.221-2.889,2.605-4.075,3.457-.953.684-2.324,3.888-2.592,4.815a62.12,62.12,0,0,0-1.935,9.466c-.825,7.773,1.274,13.28.659,21.072C334.928,304.877,331.665,309.416,330.258,316.449Z"/><path class="d" d="M329.006,328.338l-.018-1c11.083-.21,22.295-.924,33.323-2.123l.108.994C351.361,327.411,340.119,328.128,329.006,328.338Z"/><path class="d" d="M354.757,262.7a.478.478,0,0,1-.157-.026,24.832,24.832,0,0,0-13.478-.528.5.5,0,1,1-.237-.971,25.793,25.793,0,0,1,14.028.55.5.5,0,0,1-.156.975Z"/><rect class="h" width="45.364" height="47.977" transform="translate(361.491 263.301)"/><rect class="f" width="45.364" height="47.977" transform="translate(361.491 265.051)"/><path class="g" d="M406.812,313.028c-17.2-2.083-33.965-7.28-45.321-19.985v19.985Z"/><path class="e" d="M401.91,299.9l-3.576-4.2-3.576,4.2h1.85v7.432h3.451V299.9Z"/><path class="d" d="M353.647,272.345c-.745-3.165-2.178-8.455-5.168-9.429s-6.669-.011-8.306,2.8c-1.373,2.357-1.086,5.361-.569,8.071a60.745,60.745,0,0,0,1.847,7.209,37,37,0,0,1,13.355-3.969C354.481,275.8,354.129,274.395,353.647,272.345Z"/><path class="h" d="M400.174,311.756c-.112-.251-.44-.31-.714-.294a8.2,8.2,0,0,0-2.8,1.05,9.137,9.137,0,0,1-8.229-.419,22.286,22.286,0,0,0,6.185.825.886.886,0,0,0,.747-.253.719.719,0,0,0-.109-.807,2.625,2.625,0,0,0-1.744-.895,18.1,18.1,0,0,1-1.99-.285c-1.012-.281-1.865-.99-2.878-1.268a7.246,7.246,0,0,0-3.1.066l-2.811.47a3.717,3.717,0,0,1-1.568-.09c-12.5-5.633-21-13.415-25.17-28.524-.467-1.693-.808-2.885-1.185-4.309a37,37,0,0,0-13.355,3.969,60.028,60.028,0,0,0,3.2,7.971c4.012,8.213,9.395,13.141,16.68,18.288,7.163,5.06,16.033,7.708,21.591,7.889a13.165,13.165,0,0,1,2.158.4c.913.315,1.763.79,2.663,1.142a4.986,4.986,0,0,0,2.831.378,3.922,3.922,0,0,0,.648-.21l4.028-.867a4.571,4.571,0,0,0,2.35-1.059l1.744-1.3c.282-.21.6-.512.5-.851a.412.412,0,0,0-.071-.117c.058-.063.128-.114.183-.181A.731.731,0,0,0,400.174,311.756Z"/><path class="h" d="M95.974,362.871c1.424,3.528,1.574,7.511,2.738,11.22,2.892,9.21,8.249,17.187,10.288,26.937-1.811,6.585,5.926,5.1,7.913-.7-4.415-15.891-4.214-28.483-7.157-41.879C104.846,360.526,101.128,362.054,95.974,362.871Z"/><path class="c" d="M109,401.028c-1.811,6.585,5.926,5.1,7.913-.7-.427-1.539-.8-3.038-1.148-4.518-2.449.921-4.986,1.579-7.433,2.507C108.578,399.211,108.808,400.109,109,401.028Z"/><path class="m" d="M128.784,407.925c1.019-1.109.278-3.022-.985-3.841s-2.839-.937-4.3-1.323c-2.266-.6-4.015-1.071-5.456-2.689a1.211,1.211,0,0,0-1.471-.243c-2.46,1.293-5.1,5.076-7.849,2.882a.487.487,0,0,0-.792.287c-.381,2.247-.278,2.564.045,5.363Q118.385,408.615,128.784,407.925Z"/><path class="e" d="M108.12,409.969a43.807,43.807,0,0,0,6.3-.26q7.34-.638,14.7-.97A5.166,5.166,0,0,0,129,407.2a129.376,129.376,0,0,1-20.881.779Q108.118,408.975,108.12,409.969Z"/><path class="e" d="M105.208,336.528c-2.781-11.2-7-19.976-9-32.476l-26.068,9.916c3.013,8.471,5.395,12.025,8.978,17.773,6.463,10.367,12.507,19.894,13.673,32.228a88.114,88.114,0,0,0,17.726-4.723Q108.011,347.852,105.208,336.528Z"/><path class="n" d="M92.94,360.13l-.139-.99a106.089,106.089,0,0,0,15.266-3.363l.295.955A106.982,106.982,0,0,1,92.94,360.13Z"/><path class="h" d="M64.122,356.686c-.082.251-1.9,4.786-1.987,5.036-4.419,12.917-4.137,26.024-9.026,35.807,2.916.558,5.226,3.659,8.142,4.217,3.958-16.564,12.083-28.86,15.329-36.976.312-.779,1.242-3.745,1.723-4.9C72.941,358.587,69.485,357.837,64.122,356.686Z"/><path class="c" d="M53.109,397.529c2.916.558,5.226,3.659,8.142,4.217.664-2.78,1.453-5.429,2.309-7.969a38.068,38.068,0,0,1-8.153-2.178A37.093,37.093,0,0,1,53.109,397.529Z"/><path class="m" d="M69.147,410.508c1.382-.5,1.626-2.461.942-3.772a2.729,2.729,0,0,0-.493-.631c-3.678-3.737-5.657-4.407-6.2-8.041-2.037-2.429-6.835.737-9.634-1.368a.569.569,0,0,0-.782.122,11.108,11.108,0,0,0-2.508,4.51Q59.6,406.336,69.147,410.508Z"/><path class="e" d="M69.832,410.319c-2.633-.611-4.892-2.24-7.236-3.588-2.132-1.226-4.379-2.237-6.621-3.247l-5.5-2.477a7.051,7.051,0,0,0-.745,1.844c7.267,2.847,12.892,6.284,19.311,8.945Z"/><path class="e" d="M90.614,326.656a76.6,76.6,0,0,0,1.547-20.995c-6.431-1.615-16.342-2-22.962-1.609l-1.359,3.569c-.5,6.321,1.3,12.937.34,19.2A105.325,105.325,0,0,1,59.287,356.3c5.362,1.151,13.5,4.75,19.614,4.475C82.1,353.089,88.471,337.91,90.614,326.656Z"/><path class="n" d="M79.382,356.963A74.769,74.769,0,0,1,62.508,352.4l.356-.933a73.872,73.872,0,0,0,16.662,4.507Z"/><path class="n" d="M79.6,361.315l-.9-.424c7.511-16.038,13.28-33.674,13.052-51.381l1.125-.25C93.1,327.119,87.175,345.142,79.6,361.315Z"/><path class="n" d="M90.141,259.1a19.983,19.983,0,0,0-8.609-10.973c-4.284-2.447-10.2-2.843-14.343-.205-4.411,2.809-5.828,8.107-6.211,12.966a96.385,96.385,0,0,0,.7,17.505c1.132,10.882,4.806,13.082,4.041,31.249,7.866.628,23.767.96,31.989-1.255C95.834,298.114,91.67,263.46,90.141,259.1Z"/><path class="e" d="M82.488,252.757l-.763-.428a16.03,16.03,0,0,0-10.937-1.686l-.152-.734a16.8,16.8,0,0,1,10.678,1.359,20.559,20.559,0,0,0-1.461-3.642l.66-.356a22.068,22.068,0,0,1,1.758,4.639Z"/><rect class="h" width="56.319" height="62.096" transform="translate(87.969 232.293)"/><rect class="f" width="56.319" height="62.096" transform="translate(87.969 234.293)"/><path class="g" d="M93.287,273.017V234.293H87.969v62.1h49.54C121.166,291.5,105.732,284.121,93.287,273.017Z"/><path class="e" d="M136.73,283.771l-3.576-4.2-3.576,4.2h1.85V291.2h3.451v-7.432Z"/><path class="h" d="M133.326,295.73a8.974,8.974,0,0,0-3.231.438,9.951,9.951,0,0,1-8.639-2.436,24.267,24.267,0,0,0,6.37,2.373.963.963,0,0,0,.854-.089.783.783,0,0,0,.081-.883,2.867,2.867,0,0,0-1.637-1.372,19.806,19.806,0,0,1-2.044-.784c-1.007-.544-1.742-1.5-2.751-2.044a7.9,7.9,0,0,0-3.309-.68l-3.1-.18-.817-.048c-12.03-2.3-15.77-5.576-22.73-10.7-4.566-3.36-7.921-7.917-11.344-12.435a47.138,47.138,0,0,0-10.388,7.073A54.389,54.389,0,0,0,86.71,288.472c8.564,5.233,17.5,7.186,29.386,7.6a9.1,9.1,0,0,1,.968.508c.894.555,1.683,1.265,2.553,1.857a5.438,5.438,0,0,0,2.916,1.086,11.931,11.931,0,0,0,3.11-.735,29.392,29.392,0,0,1,4.1-.542,7.718,7.718,0,0,0,3.868-1.327c.226-.175.457-.427.4-.707S133.62,295.78,133.326,295.73Z"/><path class="e" d="M74.618,255.625c-1.049-2.285-2.15-4.84-4.436-5.884-2.4-1.1-5.428.027-6.989,2.154a9.448,9.448,0,0,0-1.262,7.573,23.79,23.79,0,0,0,3.255,7.173,92.692,92.692,0,0,0,5.455,7.953,49.4,49.4,0,0,1,10.9-7.422A61.744,61.744,0,0,1,74.618,255.625Z"/><path class="n" d="M70.225,272.046l-.654-.756a41.477,41.477,0,0,1,10.989-6.842l.39.92A40.5,40.5,0,0,0,70.225,272.046Z"/><path class="h" d="M79.962,249.525c-1.006-5.083-2.407-8.035-3.414-13.118-2.07.576-6.426-2.275-8.552-2.584,0,6.446,0,11.375-1.375,15.062C71.888,247.11,74.539,248.3,79.962,249.525Z"/><path class="e" d="M69.809,234.387c-.122,5.612,4.062,9.883,9.146,10.981-.817-2.91-1.706-5.424-2.407-8.961C74.965,236.847,72.046,235.285,69.809,234.387Z"/><path class="h" d="M85.155,232.957a.716.716,0,0,0-.205-.551c-.875-1.163-1.809-2.28-2.78-3.421-.013-.438.543-.944.6-1.379a1.537,1.537,0,0,0-.155-.724,6.6,6.6,0,0,1-.528-1.806,7.916,7.916,0,0,0-1.251-3.646,6.52,6.52,0,0,0-3.384-1.9,13.688,13.688,0,0,0-5.573-.375,9.056,9.056,0,0,0-4.978,2.418,8.7,8.7,0,0,0-2.4,5.15c-.515,3.621,1.609,6.943,4.27,9.4a2.916,2.916,0,0,1,1.569,1.361,7.544,7.544,0,0,0,4.279,2.945,13.52,13.52,0,0,0,5.169.814,9.178,9.178,0,0,0,3.258-.641,1.648,1.648,0,0,0,.863-.856,1.261,1.261,0,0,0-.115-1.089c-.194-.323-.554-.59-.424-1.025.035-.117.468-.527.249-.638a.944.944,0,0,0-.717-.286c-.057,0-.03-.309,0-.359.179-.287.43-.356.609-.644a8.151,8.151,0,0,0-.215-1.038,3.4,3.4,0,0,0,1.217-.823A4.29,4.29,0,0,0,85.155,232.957Z"/><path class="e" d="M74.986,225.068a15.023,15.023,0,0,0,.587,4.944,2.356,2.356,0,0,1,.142.771.725.725,0,0,1-.384.641,6.361,6.361,0,0,0-2.056-2.184,1.553,1.553,0,0,0-1.207-.324,1.272,1.272,0,0,0-.814,1.254,5.718,5.718,0,0,0,.486,2.267c.162.424.585,1.324-.118,1.5-2.161.552-2.023,2.391-3.73,2.6a16.934,16.934,0,0,0-1.82-2.893,10.542,10.542,0,0,1-1.634-2.992,4.066,4.066,0,0,1,.3-3.308,5.484,5.484,0,0,1,2.755-1.931,40.31,40.31,0,0,1,7.712-2.023Z"/><path class="e" d="M75.253,224.1a25.309,25.309,0,0,0-11.1,4.233,10.924,10.924,0,0,1-.114-5.219,7.486,7.486,0,0,1,4.656-4.437,26.015,26.015,0,0,1,6.528-1.2,17.112,17.112,0,0,0,6.409-1.63l-.72,1.3a1.925,1.925,0,0,0,1.446-.506,7.944,7.944,0,0,1-1.46,4.914l.861-.795a4.082,4.082,0,0,1-2.671,2.639A17.342,17.342,0,0,1,75.253,224.1Z"/><path class="e" d="M78.993,229.113l-.4-.375a8.266,8.266,0,0,1,3.193-2.132l.19.518A7.7,7.7,0,0,0,78.993,229.113Z"/><path class="e" d="M80.634,229.043a1.961,1.961,0,0,0,.013.818c.033.144.112.308.258.321a.335.335,0,0,0,.284-.189,1.156,1.156,0,0,0,.1-1.046c-.062-.151-.191-.306-.354-.289S80.668,228.872,80.634,229.043Z"/></g></svg>