<svg xmlns="http://www.w3.org/2000/svg" width="2115.478" height="684.149" viewBox="0 0 2115.478 684.149"><defs><style>.a{opacity:0.37;}.b{fill:none;stroke:#34d789;}</style></defs><g class="a" transform="translate(115.151 -5452.36)"><g transform="translate(-757.288 -612)"><g transform="translate(642.566 6436.861)"><path class="b" d="M12231.674,6451.943l5.439,254.1L12474.89,6748l202.034-41.961,15.541-254.1-223.271-15.082Z" transform="translate(-12231.594 -6436.861)"/><path class="b" d="M12555.719,6753.156V6460.208l218.024-2.869" transform="translate(-12313.199 -6442.018)"/><path class="b" d="M12474.086,6460.4l-242.52-3.262" transform="translate(-12231.566 -6441.967)"/></g></g><g transform="translate(1004.955 -984)"><g transform="translate(642.566 6436.861)"><path class="b" d="M12231.674,6440.641l1.363,63.667,59.578,10.514,50.623-10.514,3.895-63.667-55.944-3.779Z" transform="translate(-12231.653 -6436.861)"/><path class="b" d="M12555.719,6531.46v-73.4l54.629-.719" transform="translate(-12494.951 -6453.5)"/><path class="b" d="M12292.333,6457.951l-60.767-.817" transform="translate(-12231.566 -6453.333)"/></g></g><g transform="translate(645.955 -834)"><g transform="translate(642.566 6436.861)"><path class="b" d="M12231.674,6440.641l1.363,63.667,59.578,10.514,50.623-10.514,3.895-63.667-55.944-3.779Z" transform="translate(-12231.653 -6436.861)"/><path class="b" d="M12555.719,6531.46v-73.4l54.629-.719" transform="translate(-12494.951 -6453.5)"/><path class="b" d="M12292.333,6457.951l-60.767-.817" transform="translate(-12231.566 -6453.333)"/></g></g><g transform="translate(924.955 -496)"><g transform="translate(642.566 6436.861)"><path class="b" d="M12231.674,6440.214l1.21,56.487,52.858,9.328,44.913-9.328,3.455-56.487-49.634-3.353Z" transform="translate(-12231.655 -6436.861)"/><path class="b" d="M12555.719,6523.1v-65.124l48.468-.638" transform="translate(-12501.805 -6453.933)"/><path class="b" d="M12285.479,6457.858l-53.913-.725" transform="translate(-12231.566 -6453.762)"/></g></g><g transform="translate(-459.045 -810)"><g transform="translate(642.566 6436.861)"><path class="b" d="M12231.674,6440.214l1.21,56.487,52.858,9.328,44.913-9.328,3.455-56.487-49.634-3.353Z" transform="translate(-12231.655 -6436.861)"/><path class="b" d="M12555.719,6523.1v-65.124l48.468-.638" transform="translate(-12501.805 -6453.933)"/><path class="b" d="M12285.479,6457.858l-53.913-.725" transform="translate(-12231.566 -6453.762)"/></g></g><g transform="translate(-32.045 -681)"><g transform="translate(642.566 6436.861)"><path class="b" d="M12231.674,6440.214l1.21,56.487,52.858,9.328,44.913-9.328,3.455-56.487-49.634-3.353Z" transform="translate(-12231.655 -6436.861)"/><path class="b" d="M12555.719,6523.1v-65.124l48.468-.638" transform="translate(-12501.805 -6453.933)"/><path class="b" d="M12285.479,6457.858l-53.913-.725" transform="translate(-12231.566 -6453.762)"/></g></g><g transform="translate(1085.955 -756)"><g transform="translate(642.566 6436.861)"><path class="b" d="M12231.674,6445.74l3.205,149.563,139.955,24.7,118.918-24.7,9.148-149.562-131.418-8.879Z" transform="translate(-12231.625 -6436.861)"/><path class="b" d="M12555.721,6631.459V6459.027l128.328-1.687" transform="translate(-12412.971 -6448.322)"/><path class="b" d="M12374.314,6459.053l-142.748-1.918" transform="translate(-12231.566 -6448.208)"/></g></g></g></svg>