<svg xmlns="http://www.w3.org/2000/svg" width="308.992" height="54" viewBox="0 0 308.992 54"><defs><style>.a{fill:#34d789;}.b{fill:#22bff6;}.c{fill:#1bbdf6;}</style></defs><g transform="translate(-414.008 -60)"><g transform="translate(268 -197)"><path class="a" d="M11.936,271.37a13.917,13.917,0,0,1-7.679-1.963A10.351,10.351,0,0,1,0,264.108l6.385-3.713a5.787,5.787,0,0,0,5.758,3.882q3.422,0,3.422-1.941,0-1.294-1.973-2.067-.831-.343-3.658-1.161a16.078,16.078,0,0,1-6.347-3.293,7.485,7.485,0,0,1-2.335-5.855,8.225,8.225,0,0,1,2.911-6.55,10.712,10.712,0,0,1,7.239-2.5,12.353,12.353,0,0,1,6.511,1.711,11,11,0,0,1,4.338,4.965l-6.269,3.671A4.694,4.694,0,0,0,11.435,248a3.215,3.215,0,0,0-2.025.547,1.692,1.692,0,0,0-.676,1.384,1.935,1.935,0,0,0,1.022,1.637,16.814,16.814,0,0,0,3.979,1.553l3.4,1.223A13.728,13.728,0,0,1,20,255.84a6.314,6.314,0,0,1,2.3,2.623,8.776,8.776,0,0,1,.754,3.765A8.1,8.1,0,0,1,20,268.947,12.612,12.612,0,0,1,11.936,271.37Z" transform="translate(242 28.004)"/><path class="a" d="M87.288,263.06H82.953v6.052c0,.915.323,1.488,1,1.708a10.081,10.081,0,0,0,3.338.21v6.259q-6.22.754-8.734-1.145t-2.523-6.867V263.06H72.89v-6.634h3.131v-3.768l6.932-2.077v5.845h4.335Z" transform="translate(192.688 21.457)"/><path class="a" d="M138.814,267.45h6.926v20.864h-6.926V286.4a7.341,7.341,0,0,1-5.926,2.517,9,9,0,0,1-6.99-3.151,12.392,12.392,0,0,1,0-15.734,9,9,0,0,1,6.99-3.151,7.364,7.364,0,0,1,5.926,2.5Zm-7.556,13.728a4.645,4.645,0,0,0,6.343,0,5.085,5.085,0,0,0,0-6.592,4.645,4.645,0,0,0-6.343,0A5.1,5.1,0,0,0,131.257,281.178Z" transform="translate(158.733 10.432)"/><path class="a" d="M208.921,273.426q0,.534,1.093.883l2.539.815,3.018.97a5.121,5.121,0,0,1,2.633,2,6.353,6.353,0,0,1,1.064,3.765,5.839,5.839,0,0,1-2.688,5.3,11.7,11.7,0,0,1-6.376,1.724q-7.01,0-9.345-4.965l6.049-3.047a3.149,3.149,0,0,0,3.257,2.293c1.252,0,1.876-.369,1.876-1.113q0-.579-1.064-.945l-2.507-.857-2.979-1.022a5.318,5.318,0,0,1-2.588-1.925,5.577,5.577,0,0,1-1.029-3.458,6.071,6.071,0,0,1,2.475-5.176,9.662,9.662,0,0,1,5.936-1.834q6.178,0,8.6,4.852l-5.842,2.627a2.84,2.84,0,0,0-2.588-1.8C209.435,272.514,208.921,272.821,208.921,273.426Z" transform="translate(106.113 10.457)"/><path class="a" d="M278.735,250.6a7.21,7.21,0,0,1,5.531,2.316q2.151,2.316,2.148,6.657v12.476h-6.929v-11.6a3.3,3.3,0,0,0-.854-2.465,3.131,3.131,0,0,0-2.264-.835,3.264,3.264,0,0,0-2.526.97,4.011,4.011,0,0,0-.9,2.817v11.1H266v-29.2h6.929v10.435A6.613,6.613,0,0,1,278.735,250.6Z" transform="translate(62.044 26.693)"/><path class="a" d="M344.061,316.814a4.241,4.241,0,0,1-3.112-1.274,4.309,4.309,0,0,1,.023-6.146,4.254,4.254,0,0,1,3.089-1.274,4.341,4.341,0,1,1,0,8.682Z" transform="translate(12.203 -17.47)"/><path class="b" d="M399.122,254.012v2.963a14.009,14.009,0,0,1-4.027,10.413,14.2,14.2,0,0,1-10.451,3.985A15.261,15.261,0,0,1,373.4,266.99a14.646,14.646,0,0,1-4.4-10.807,14.834,14.834,0,0,1,4.38-10.852,14.649,14.649,0,0,1,10.852-4.422,15.527,15.527,0,0,1,7.488,1.834,14,14,0,0,1,5.321,4.884l-6.35,3.629a6.233,6.233,0,0,0-2.565-2.213,8.553,8.553,0,0,0-3.82-.835,7.6,7.6,0,0,0-5.674,2.264,7.885,7.885,0,0,0-2.213,5.761,7.769,7.769,0,0,0,8.336,8.051q5.095,0,6.719-3.836h-7.084v-6.437Z" transform="translate(-7.639 28.001)"/><path class="b" d="M485.279,268.65H492.2v20.864h-6.926v-2.086a6.59,6.59,0,0,1-5.8,2.685,7.2,7.2,0,0,1-5.531-2.316q-2.148-2.316-2.148-6.657V268.65h6.926v11.6a3.277,3.277,0,0,0,.857,2.462,3.1,3.1,0,0,0,2.264.835,3.282,3.282,0,0,0,2.523-.97,3.962,3.962,0,0,0,.9-2.817Z" transform="translate(-77.186 9.232)"/><path class="b" d="M554.2,271.658a5.4,5.4,0,0,1,2.336-3.173,7.116,7.116,0,0,1,3.911-1.126v7.676a5.981,5.981,0,0,0-4.318.877A4.5,4.5,0,0,0,554.186,280v8.637H547.27V267.777H554.2Z" transform="translate(-128.243 10.105)"/><path class="b" d="M608.869,268.65H615.8v20.864h-6.929v-2.086a6.6,6.6,0,0,1-5.8,2.672,7.2,7.2,0,0,1-5.531-2.316q-2.148-2.316-2.148-6.657V268.65h6.929v11.6a3.289,3.289,0,0,0,.854,2.462,3.105,3.105,0,0,0,2.264.835,3.292,3.292,0,0,0,2.526-.97,3.931,3.931,0,0,0,.9-2.817Z" transform="translate(-160.798 9.232)"/></g><g transform="translate(-19 32)"><path class="b" d="M257.324,89.374l5.011-1.935q9.288-3.56,18.583-7.109c.492-.185.6-.393.506-.909-.882-4.823-1.736-9.652-2.593-14.481-.216-1.2.166-1.658,1.382-1.694.829-.017,1.681-.039,2.524-.047.907,0,1.244.276,1.407,1.18q1.186,6.634,2.366,13.29.376,2.1.749,4.207a1.2,1.2,0,0,1-.868,1.595l-17.859,7.353-8.168,3.361a10.119,10.119,0,0,1-4.262.768l-27.755-.92c-.893-.028-1.211-.3-1.382-1.175q-1.808-8.823-3.613-17.646c-.207-1.006.075-1.421,1.078-1.692q6.634-1.791,13.268-3.593c2.936-.8,5.868-1.6,8.809-2.38a1.382,1.382,0,0,0,1.106-1.172c.605-2.916,1.236-5.824,1.86-8.735.144-.669.5-1.014,1.042-1.031a1.083,1.083,0,0,1,1.147,1.017l1.106,6.214q2.211,12.439,4.423,24.858Z" transform="translate(218.642 -12.959)"/><path class="a" d="M225,.017l-.791,3.256c-1.435,5.946-2.877,11.886-4.29,17.837a1.587,1.587,0,0,1-1.241,1.307q-8.035,2.264-16.068,4.564l-9.976,2.869c-1.191.34-1.871-.334-1.553-1.545l4.3-16.433a1.448,1.448,0,0,1,.984-1.095q14.1-5.3,28.194-10.612a3.143,3.143,0,0,1,1.1-.169Q240.8.044,255.941.1a1.86,1.86,0,0,1,1.722.909c3.09,4.569,6.217,9.122,9.332,13.666.066.094.133.185.193.276a1.1,1.1,0,0,1-.849,1.8c-1.241.133-2.488.243-3.721.359l-13.964,1.335q-4.81.459-9.616.923a1.3,1.3,0,0,1-1.277-.7q-3.911-5.733-7.825-11.46L225.281.4C225.217.31,225.151.219,225,.017Z" transform="translate(242 28.004)"/><path class="c" d="M350.411,125.128l-6.725,2.294-2.466-13.829,6.916-1.233Z" transform="translate(133.309 -53.301)"/><path class="c" d="M375.617,99.42l-6.725,2.3L365.29,81.5,372.2,80.27Z" transform="translate(115.892 -30.081)"/><path class="c" d="M405.931,102.429l-6.725,2.3L396.55,89.833l6.916-1.233Z" transform="translate(93.273 -36.109)"/><path class="a" d="M349.28,112.635l.556,3.1,1-1.437,1.307.912-.533-2.994Z" transform="translate(127.476 -53.2)"/><path class="a" d="M373.35,80.545l.553,3.107,1-1.437,1.3.909-.533-2.994Z" transform="translate(110.06 -29.98)"/><path class="a" d="M406.54,88.525l.553,3.107,1-1.437,1.307.912-.533-3Z" transform="translate(86.044 -35.754)"/></g></g></svg>