<svg xmlns="http://www.w3.org/2000/svg" width="50.433" height="50.433" viewBox="0 0 50.433 50.433"><defs><style>.a{fill:#34d789;}</style></defs><g transform="translate(-301.084 -1179.672)"><g transform="translate(301.084 1179.672)"><path class="a" d="M44.383,6.05A20.66,20.66,0,0,0,12.1,31.354L0,43.454l6.979,6.979,12.1-12.1A20.659,20.659,0,0,0,44.383,6.05ZM40.108,30.986a14.609,14.609,0,1,1,4.279-10.33A14.514,14.514,0,0,1,40.108,30.986Z"/><path class="a" d="M203.632,94.694a11.65,11.65,0,1,0,3.412,8.238A11.573,11.573,0,0,0,203.632,94.694Zm-9.926-.222h3.169V97.64h-3.169Zm6.164,15.753H190.92v-2.96h2.995v-4.479h-2.771v-2.96h5.731v7.439h2.995v2.96Z" transform="translate(-165.617 -82.276)"/></g><ellipse class="a" cx="8" cy="9" rx="8" ry="9" transform="translate(323 1191)"/></g></svg>