<svg xmlns="http://www.w3.org/2000/svg" width="85.525" height="69.432" viewBox="0 0 85.525 69.432"><defs><style>.a{fill:#34d789;}</style></defs><g transform="translate(0 -3.522)"><path class="a" d="M75.24,15.073H62.875V13.8A10.285,10.285,0,0,0,52.594,3.522H32.929A10.283,10.283,0,0,0,22.648,13.8v1.27H10.281A10.282,10.282,0,0,0,0,25.355V62.673A10.283,10.283,0,0,0,10.281,72.954H75.244A10.283,10.283,0,0,0,85.525,62.673V25.355A10.287,10.287,0,0,0,75.24,15.073ZM42.758,62.289a19.42,19.42,0,1,1,19.42-19.42A19.439,19.439,0,0,1,42.758,62.289Zm10.281-19.42A10.281,10.281,0,1,1,42.758,32.588,10.3,10.3,0,0,1,53.039,42.869Z"/></g></svg>