<svg xmlns="http://www.w3.org/2000/svg" width="46.696" height="46.693" viewBox="0 0 46.696 46.693"><defs><style>.a{fill:#34d789;}</style></defs><g transform="translate(0 -0.015)"><g transform="translate(0 0.015)"><g transform="translate(0)"><path class="a" d="M20.43.015C9.165.015,0,7.477,0,16.649A15.29,15.29,0,0,0,6.457,28.787c-1.363,2.127-3.126,4.281-5.349,4.83A1.459,1.459,0,0,0,1.4,36.491c.032,0,.158.006.368.006a31.675,31.675,0,0,0,13.944-3.671,23.832,23.832,0,0,0,4.719.458c11.262,0,20.428-7.462,20.428-16.634S31.692.015,20.43.015Z" transform="translate(0 -0.015)"/></g></g><g transform="translate(13.718 21.517)"><path class="a" d="M182.286,258a7.8,7.8,0,0,1-4.249-3.166,13.106,13.106,0,0,0,5.358-10.3,12.662,12.662,0,0,0-3.68-8.737c-2.594,8.431-11.72,14.685-22.585,14.685a27.556,27.556,0,0,1-4.275-.33c-.829.4-1.64.753-2.437,1.068,2.945,4.523,8.77,7.614,15.467,7.614a20.761,20.761,0,0,0,3.957-.371,22.738,22.738,0,0,0,10.255,2.524,13.769,13.769,0,0,0,2.075-.131,1.457,1.457,0,0,0,.114-2.854Z" transform="translate(-150.418 -235.791)"/></g></g></svg>