<svg xmlns="http://www.w3.org/2000/svg" width="69.432" height="69.432" viewBox="0 0 69.432 69.432"><defs><style>.a{fill:#34d789;}</style></defs><path class="a" d="M271,271h8.137v16.409H271Zm0,0" transform="translate(-234.25 -234.25)"/><path class="a" d="M142.8,53.159V27.37l4.792,4.708,2.892-2.861L122.769,0,94.453,29.2l2.861,2.892,4.808-4.621V53.159h12.2V32.682H130.6V53.159ZM122.463,28.614a4.068,4.068,0,1,1,4.068-4.068A4.073,4.073,0,0,1,122.463,28.614Zm0,0" transform="translate(-81.644)"/><path class="a" d="M139.709,424.876l.971,1.192H98.412l.972-1.192L96.507,422,91,428.1l5.506,6.1,2.876-2.876-.972-1.192h42.269l-.971,1.192,2.876,2.876,5.507-6.1-5.507-6.1Zm0,0" transform="translate(-78.66 -364.773)"/><path class="a" d="M2.876,75.641,0,78.518l6.1,5.507,6.1-5.507L9.328,75.641l-1.192.972v-38.2l1.192.972L12.2,36.507,6.1,31,0,36.507l2.876,2.876,1.192-.972v38.2Zm0,0" transform="translate(0 -26.797)"/></svg>