<svg xmlns="http://www.w3.org/2000/svg" width="249.525" height="202.572" viewBox="0 0 249.525 202.572"><defs><style>.a{opacity:0.02;isolation:isolate;}.b{fill:#333;}</style></defs><g class="a" transform="translate(0 -3.522)"><path class="b" d="M219.516,37.224H183.441V33.518a30.007,30.007,0,0,0-30-30H96.073a30,30,0,0,0-30,30v3.706H30a30,30,0,0,0-30,30V176.1a30,30,0,0,0,30,30H219.53a30,30,0,0,0,30-30V67.22A30.014,30.014,0,0,0,219.516,37.224ZM124.749,174.978a56.659,56.659,0,1,1,56.659-56.659A56.714,56.714,0,0,1,124.749,174.978Zm30-56.659a30,30,0,1,1-30-30A30.045,30.045,0,0,1,154.745,118.319Z"/></g></svg>