<svg xmlns="http://www.w3.org/2000/svg" width="202.88" height="202.88" viewBox="0 0 202.88 202.88"><defs><style>.a{opacity:0.02;isolation:isolate;}.b{fill:#333;}</style></defs><g class="a"><path class="b" d="M271,271h23.775v47.946H271Zm0,0" transform="translate(-163.616 -163.616)"/><path class="b" d="M235.735,155.33V79.974l14,13.757,8.451-8.358L177.192,0,94.453,85.327l8.358,8.451,14.048-13.5V155.33h35.662V95.5h47.55V155.33ZM176.3,83.609a11.887,11.887,0,1,1,11.887-11.887A11.9,11.9,0,0,1,176.3,83.609Zm0,0" transform="translate(-57.026)"/><path class="b" d="M233.327,430.4l2.839,3.483H112.657L115.5,430.4l-8.4-8.4L91,439.831l16.09,17.831,8.4-8.4-2.839-3.483H236.166l-2.839,3.483,8.4,8.4,16.09-17.831L241.732,422Zm0,0" transform="translate(-54.942 -254.783)"/><path class="b" d="M8.4,161.439l-8.4,8.4,17.831,16.09,17.831-16.09-8.4-8.4-3.483,2.839V52.657L27.258,55.5l8.4-8.4L17.831,31,0,47.091l8.4,8.4,3.483-2.839V164.278Zm0,0" transform="translate(0 -18.717)"/></g></svg>