<svg id="precision" xmlns="http://www.w3.org/2000/svg" width="47.932" height="47.932" viewBox="0 0 47.932 47.932">
  <g id="Group_1447" data-name="Group 1447" transform="translate(14.979 14.979)">
    <g id="Group_1446" data-name="Group 1446">
      <path id="Path_3776" data-name="Path 3776" d="M168.987,160a8.987,8.987,0,1,0,8.987,8.987A9,9,0,0,0,168.987,160Zm0,14.979a5.991,5.991,0,1,1,5.991-5.991A6,6,0,0,1,168.987,174.979Z" transform="translate(-160 -160)" fill="#34d789"/>
    </g>
  </g>
  <g id="Group_1449" data-name="Group 1449">
    <g id="Group_1448" data-name="Group 1448">
      <path id="Path_3777" data-name="Path 3777" d="M46.434,22.468H41.865a17.986,17.986,0,0,0-16.4-16.4V1.5a1.5,1.5,0,0,0-3,0V6.066a17.988,17.988,0,0,0-16.4,16.4H1.5a1.5,1.5,0,0,0,0,3H6.066a17.986,17.986,0,0,0,16.4,16.4v4.568a1.5,1.5,0,0,0,3,0V41.865a17.986,17.986,0,0,0,16.4-16.4h4.568a1.5,1.5,0,0,0,0-3ZM23.966,38.944A14.979,14.979,0,1,1,38.944,23.966,15,15,0,0,1,23.966,38.944Z" fill="#34d789"/>
    </g>
  </g>
</svg>
