<svg height="512pt" viewBox="0 -12 512.00036 512" width="512pt" xmlns="http://www.w3.org/2000/svg"><path d="m58.332031 95.042969v339.488281c0 7.054688 5.71875 12.773438 12.769531 12.773438h369.796876c7.050781 0 12.769531-5.71875 12.769531-12.773438v-339.488281l-197.667969-77.21875zm0 0" fill="#8cbafa"/><path d="m256 17.824219-13.125 5.128906 184.539062 72.089844v339.488281c0 7.054688-5.71875 12.773438-12.769531 12.773438h26.253907c7.050781 0 12.769531-5.71875 12.769531-12.773438v-339.488281zm0 0" fill="#3165a3"/><path d="m141.53125 211.945312v235.359376h228.941406v-235.359376c0-8.667968-7.03125-15.699218-15.703125-15.699218h-197.539062c-8.671875 0-15.699219 7.027344-15.699219 15.699218zm0 0" fill="#575b7a"/><path d="m182.167969 196.246094h-24.9375c-8.671875 0-15.699219 7.027344-15.699219 15.699218v235.359376h24.933594v-235.359376c0-8.671874 7.03125-15.699218 15.703125-15.699218zm0 0" fill="#252d4c"/><path d="m494.167969 133.675781c-2.261719 0-4.558594-.433593-6.777344-1.347656l-231.390625-95.234375-231.390625 95.234375c-9.097656 3.742187-19.519531-.59375-23.261719-9.699219-3.75-9.101562.59375-19.515625 9.695313-23.265625l238.175781-98.023437c4.34375-1.785156 9.21875-1.785156 13.566406 0l238.171875 98.023437c9.101563 3.75 13.441407 14.164063 9.699219 23.265625-2.835938 6.882813-9.480469 11.046875-16.488281 11.046875zm0 0" fill="#e9e9ea"/><path d="m354.769531 196.246094h-197.539062c-8.671875 0-15.699219 7.03125-15.699219 15.699218v54.246094h228.941406v-54.246094c0-8.671874-7.03125-15.699218-15.703125-15.699218zm0 0" fill="#e9e9ea"/><path d="m166.464844 211.945312c0-8.671874 7.03125-15.699218 15.703125-15.699218h-24.9375c-4.335938 0-8.261719 1.757812-11.101563 4.597656-1.777344 1.777344-3.128906 3.976562-3.894531 6.433594-.152344.492187-.28125.996094-.386719 1.503906-.207031 1.023438-.316406 2.082031-.316406 3.164062v54.246094h24.933594zm0 0" fill="#c5c4cc"/><path d="m0 311.65625v176.519531h178.203125v-176.519531c0-5.035156-4.082031-9.117188-9.121094-9.117188h-159.960937c-5.039063 0-9.121094 4.082032-9.121094 9.117188zm0 0" fill="#f9aa4b"/><path d="m169.082031 302.539062h-23.648437c5.039062 0 9.121094 4.082032 9.121094 9.117188v176.519531h23.648437v-176.519531c0-5.035156-4.082031-9.117188-9.121094-9.117188zm0 0" fill="#c1762b"/><path d="m115.042969 366.859375-11.378907-8.558594c-.40625-.304687-.960937-.304687-1.363281 0l-12.511719 9.414063c-.402343.304687-.957031.304687-1.363281 0l-12.515625-9.414063c-.40625-.304687-.960937-.304687-1.367187 0l-11.382813 8.558594c-.746094.5625-1.816406.03125-1.816406-.90625v-63.414063h55.511719v63.417969c.003906.933594-1.066407 1.46875-1.8125.902344zm0 0" fill="#ffeb96"/><path d="m178.203125 354.417969v133.753906h135.035156v-133.753906c0-3.816407-3.097656-6.910157-6.914062-6.910157h-121.207031c-3.820313 0-6.914063 3.09375-6.914063 6.910157zm0 0" fill="#f9aa4b"/><path d="m306.324219 347.507812h-24.1875c3.816406 0 6.910156 3.09375 6.910156 6.910157v133.753906h24.1875v-133.753906c.003906-3.816407-3.09375-6.910157-6.910156-6.910157zm0 0" fill="#c1762b"/><path d="m265.375 396.25-8.621094-6.484375c-.304687-.230469-.726562-.230469-1.035156 0l-9.476562 7.132813c-.304688.230468-.726563.230468-1.03125 0l-9.488282-7.132813c-.304687-.230469-.726562-.230469-1.03125 0l-8.628906 6.484375c-.5625.425781-1.375.023438-1.375-.6875v-48.054688h42.066406v48.054688c0 .710938-.8125 1.113281-1.378906.6875zm0 0" fill="#ffeb96"/><path d="m141.53125 222.34375h228.941406v15h-228.941406zm0 0" fill="#c5c4cc"/><g fill="#c1762b"><path d="m125.167969 421.050781h-72.132813c-4.140625 0-7.5-3.355469-7.5-7.5 0-4.140625 3.359375-7.5 7.5-7.5h72.132813c4.140625 0 7.5 3.359375 7.5 7.5 0 4.144531-3.359375 7.5-7.5 7.5zm0 0"/><path d="m125.167969 453.503906h-72.132813c-4.140625 0-7.5-3.359375-7.5-7.5 0-4.144531 3.359375-7.5 7.5-7.5h72.132813c4.140625 0 7.5 3.355469 7.5 7.5 0 4.140625-3.359375 7.5-7.5 7.5zm0 0"/><path d="m269.90625 437.839844h-48.375c-4.144531 0-7.5-3.359375-7.5-7.5 0-4.144532 3.355469-7.5 7.5-7.5h48.375c4.144531 0 7.5 3.355468 7.5 7.5 0 4.140625-3.355469 7.5-7.5 7.5zm0 0"/><path d="m269.90625 459.601562h-48.375c-4.144531 0-7.5-3.355468-7.5-7.5 0-4.140624 3.355469-7.5 7.5-7.5h48.375c4.144531 0 7.5 3.359376 7.5 7.5 0 4.144532-3.355469 7.5-7.5 7.5zm0 0"/></g><path d="m236.332031 157.644531h-39.996093c-4.140626 0-7.5-3.359375-7.5-7.5 0-4.144531 3.359374-7.5 7.5-7.5h39.996093c4.140625 0 7.5 3.355469 7.5 7.5 0 4.140625-3.359375 7.5-7.5 7.5zm0 0" fill="#3165a3"/><path d="m315.664062 157.644531h-39.996093c-4.140625 0-7.5-3.359375-7.5-7.5 0-4.144531 3.359375-7.5 7.5-7.5h39.996093c4.140626 0 7.5 3.355469 7.5 7.5 0 4.140625-3.359374 7.5-7.5 7.5zm0 0" fill="#3165a3"/></svg>