<svg xmlns="http://www.w3.org/2000/svg" width="32" height="32" viewBox="0 0 32 32">
  <g id="pariking-g" transform="translate(-131 -378)">
    <g id="Rectangle_1512" data-name="Rectangle 1512" transform="translate(131 378)" fill="#fff" stroke="#707070" stroke-width="1" opacity="0">
      <rect width="32" height="32" stroke="none"/>
      <rect x="0.5" y="0.5" width="31" height="31" fill="none"/>
    </g>
    <g id="garage" transform="translate(131 375.211)">
      <path id="Path_16441" data-name="Path 16441" d="M64.829,121.5a1.588,1.588,0,0,0-.423.059l-.536.148-.79-1.931a3.409,3.409,0,0,0-2.916-1.963H51.5a3.409,3.409,0,0,0-2.916,1.963l-.788,1.928-.523-.145a1.587,1.587,0,0,0-.423-.059,1.156,1.156,0,0,0-1.2,1.191,1.5,1.5,0,0,0,1.166,1.427,12.191,12.191,0,0,0-.654,3.555v4.109a1.589,1.589,0,0,0,1.584,1.591h.581a1.589,1.589,0,0,0,1.584-1.591v-.769H61.753v.769a1.589,1.589,0,0,0,1.584,1.591h.581a1.589,1.589,0,0,0,1.584-1.591v-4.109a12.2,12.2,0,0,0-.653-3.552,1.5,1.5,0,0,0,1.179-1.43A1.156,1.156,0,0,0,64.829,121.5Zm-16.049,1.6,1.288-3.151a2.049,2.049,0,0,1,1.749-1.177h8.031a2.049,2.049,0,0,1,1.749,1.177l1.288,3.151a.794.794,0,0,1-.786,1.177H49.566A.794.794,0,0,1,48.78,123.108Zm3.415,5.123a.637.637,0,0,1-.634.636H48.932a.637.637,0,0,1-.634-.636v-1.053a.637.637,0,0,1,.634-.636h2.628a.637.637,0,0,1,.634.636Zm11.142,0a.637.637,0,0,1-.634.636H60.075a.637.637,0,0,1-.634-.636v-1.053a.637.637,0,0,1,.634-.636H62.7a.637.637,0,0,1,.634.636Z" transform="translate(-39.839 -100.389)" fill="#34d789"/>
      <path id="Path_16442" data-name="Path 16442" d="M31.3,11.539,16.708,2.965a1.509,1.509,0,0,0-1.416,0L.7,11.539A1.538,1.538,0,0,0,0,12.772V33.21a.954.954,0,0,0,.952.955H2.591a.954.954,0,0,0,.952-.955v-17.3A.318.318,0,0,1,3.86,15.6H28.139a.318.318,0,0,1,.317.318v17.3a.954.954,0,0,0,.952.955h1.639A.954.954,0,0,0,32,33.21V12.772A1.537,1.537,0,0,0,31.3,11.539Z" fill="#34d789"/>
    </g>
  </g>
</svg>
